<svg xmlns="http://www.w3.org/2000/svg" viewBox="0 0 40.68 38.14"><title>Compendium</title><g id="Layer_2" data-name="Layer 2"><g id="WorkSpace_top" data-name="WorkSpace top"><g id="note"><path id="_Compound_Path_" data-name="&lt;Compound Path&gt;" d="M39.94,8.37,32.31.74A2.54,2.54,0,0,0,30.51,0H3.81A3.82,3.82,0,0,0,0,3.81V34.33a3.82,3.82,0,0,0,3.81,3.81H36.87a3.82,3.82,0,0,0,3.81-3.81V10.17A2.54,2.54,0,0,0,39.94,8.37Zm-1.8,26a1.27,1.27,0,0,1-1.27,1.27H3.81a1.27,1.27,0,0,1-1.27-1.27V3.81A1.27,1.27,0,0,1,3.81,2.54H29.24V7.63h0a3.81,3.81,0,0,0,3.81,3.81h5.09ZM34.32,10.17H33.05a2.55,2.55,0,0,1-2.54-2.54h0V2.54l7.63,7.63Z" style="fill:#bf311a"/><path id="_Path_" data-name="&lt;Path&gt;" d="M19.71,8.9h6.36a.64.64,0,0,0,0-1.27H19.71a.64.64,0,0,0,0,1.27Z" style="fill:#bf311a"/><path id="_Path_2" data-name="&lt;Path&gt;" d="M19.71,12.71h6.36a.64.64,0,0,0,0-1.27H19.71a.64.64,0,0,0,0,1.27Z" style="fill:#bf311a"/><path id="_Path_3" data-name="&lt;Path&gt;" d="M19.07,15.89a.64.64,0,0,0,.64.64H35a.64.64,0,0,0,0-1.27H19.71A.64.64,0,0,0,19.07,15.89Z" style="fill:#bf311a"/><path id="_Path_4" data-name="&lt;Path&gt;" d="M35,22.88H5.72a.64.64,0,1,0,0,1.27H35a.64.64,0,0,0,0-1.27Z" style="fill:#bf311a"/><path id="_Path_5" data-name="&lt;Path&gt;" d="M35,26.7H5.72a.64.64,0,0,0,0,1.27H35a.64.64,0,0,0,0-1.27Z" style="fill:#bf311a"/><path id="_Path_6" data-name="&lt;Path&gt;" d="M35,30.51H5.72a.64.64,0,1,0,0,1.27H35a.64.64,0,0,0,0-1.27Z" style="fill:#bf311a"/><path id="_Path_7" data-name="&lt;Path&gt;" d="M35,19.07H5.72a.64.64,0,1,0,0,1.27H35a.64.64,0,0,0,0-1.27Z" style="fill:#bf311a"/><path id="_Compound_Path_2" data-name="&lt;Compound Path&gt;" d="M6.36,16.53h8.9a1.27,1.27,0,0,0,1.27-1.27V7.63a1.27,1.27,0,0,0-1.27-1.27H6.36A1.27,1.27,0,0,0,5.09,7.63v7.63A1.27,1.27,0,0,0,6.36,16.53ZM7.63,8.9H14V14H7.63Z" style="fill:#bf311a"/></g></g></g></svg>