<svg xmlns="http://www.w3.org/2000/svg" viewBox="0 0 46.35 30.32"><title>Family Name</title><g id="Layer_2" data-name="Layer 2"><g id="WorkSpace_top" data-name="WorkSpace top"><path d="M41.31,30.32H5a5,5,0,0,1-5-5V10.36A5.06,5.06,0,0,1,1.59,6.69c.25-.23.9-.85,21.27-6.6L23.18,0l.32.09C44.2,6,44.86,6.75,45.14,7.07a5,5,0,0,1,1.22,3.29V25.28A5,5,0,0,1,41.31,30.32ZM3.13,8.51a2.63,2.63,0,0,0-.75,1.85V25.28A2.67,2.67,0,0,0,5,27.94H41.31A2.67,2.67,0,0,0,44,25.28V10.36a2.66,2.66,0,0,0-.55-1.62C42,8,32.11,5,23.18,2.48,16,4.51,4.59,7.83,3.13,8.51Zm-.07,0Z" style="fill:#bf311a"/><rect x="5.94" y="13.96" width="34.54" height="1.44" style="fill:#bf311a"/><rect x="5.94" y="18.56" width="34.54" height="1.44" style="fill:#bf311a"/><rect x="5.94" y="23.15" width="34.54" height="1.44" style="fill:#bf311a"/><path d="M23.18,10.28a2.75,2.75,0,1,1,2.75-2.75A2.75,2.75,0,0,1,23.18,10.28Zm0-4.06a1.31,1.31,0,1,0,1.31,1.31A1.31,1.31,0,0,0,23.18,6.22Z" style="fill:#bf311a"/></g></g></svg>