<svg xmlns="http://www.w3.org/2000/svg" viewBox="0 0 45.8 51.03"><title>Family Tree</title><g id="Layer_2" data-name="Layer 2"><g id="WorkSpace_top" data-name="WorkSpace top"><path d="M15.25,25.52S23.37,29.88,23,36.73" style="fill:none;stroke:#bf311a;stroke-linecap:round;stroke-miterlimit:10;stroke-width:3.2913527488708496px"/><line x1="23.01" y1="19.35" x2="23.01" y2="49.39" style="fill:none;stroke:#bf311a;stroke-linecap:round;stroke-miterlimit:10;stroke-width:3.2913527488708496px"/><path d="M30.83,20.43S23,25,23,30.15" style="fill:none;stroke:#bf311a;stroke-linecap:round;stroke-miterlimit:10;stroke-width:3.2913527488708496px"/><path d="M28.81,41.15a5.93,5.93,0,0,0,5.93-5.93H35a5.91,5.91,0,0,0,5.73-7.43,5.92,5.92,0,0,0-.48-10.94A5.91,5.91,0,0,0,35,9.57c0-.07,0-.14,0-.22a5.93,5.93,0,0,0-7.63-5.68,5.91,5.91,0,0,0-8.86,0,5.91,5.91,0,0,0-7.45,5.73H10.8a5.91,5.91,0,0,0-5.73,7.43,5.92,5.92,0,0,0,.48,10.94A5.91,5.91,0,0,0,10.81,35c0,.07,0,.14,0,.22a5.93,5.93,0,0,0,5.93,5.93" style="fill:none;stroke:#bf311a;stroke-linecap:round;stroke-miterlimit:10;stroke-width:3.2913527488708496px"/></g></g></svg>