<svg id="leaflet-marker" xmlns="http://www.w3.org/2000/svg" viewBox="0 0 26.37 35.15"><defs><style>.marker-cls-1{fill:#ff0000;}.marker-cls-2{fill:#444;}</style></defs><title>Place-Big White</title><g id="Layer_2" data-name="Layer 2"><g id="WorkSpace_top" data-name="WorkSpace top"><path class="marker-cls-1" d="M21.77,4.15a27.17,27.17,0,0,0-7.57-3.1S1.37,2.77,1.37,13.15,12.71,34.07,12.71,34.07s9.63-8.84,11.35-14.34S25.21,6.33,21.77,4.15Zm-8.28,15c-3.18,0-6.5-3-6.5-6.27s3.32-6.17,6.5-6.17,5.76,3.15,5.76,6.46A5.88,5.88,0,0,1,13.49,19.17Z"/><path id="_Compound_Path_" data-name="&lt;Compound Path&gt;" class="marker-cls-2" d="M13.18,19.49A6.59,6.59,0,1,0,6.59,12.9,6.6,6.6,0,0,0,13.18,19.49Zm0-12.08A5.49,5.49,0,1,1,7.69,12.9,5.5,5.5,0,0,1,13.18,7.41Z"/><path id="_Compound_Path_2" data-name="&lt;Compound Path&gt;" class="marker-cls-2" d="M13.18,0A13.15,13.15,0,0,0,0,13.18c0,7.69,6.59,15.56,11.4,21.08a2.68,2.68,0,0,0,1.74.88h.08A2.69,2.69,0,0,0,15,34.27c4.81-5.53,11.4-13.39,11.4-21.08A13.15,13.15,0,0,0,13.18,0Zm.13,32.83-.15.11a1.1,1.1,0,0,0-.14-.15C9,28.16,2.2,20.34,2.2,13.18a11,11,0,1,1,22,0C24.17,20.34,17.37,28.16,13.31,32.83Z"/></g></g></svg>
