<svg xmlns="http://www.w3.org/2000/svg" viewBox="0 0 38.64 38.64"><title>Luminary</title><g id="Layer_2" data-name="Layer 2"><g id="WorkSpace_top" data-name="WorkSpace top"><path id="usericon" d="M37.57,34.22a35.31,35.31,0,0,0-11.2-4.47A27.4,27.4,0,0,0,31,19.89c.91-3.78.56-11.17-3.07-15.77A10.56,10.56,0,0,0,19.32,0a10.56,10.56,0,0,0-8.58,4.11c-3.63,4.6-4,12-3.07,15.77a27.38,27.38,0,0,0,4.6,9.87,35.28,35.28,0,0,0-11.2,4.47,2.42,2.42,0,0,0,1.34,4.43H36.23a2.42,2.42,0,0,0,1.34-4.42Zm-13.09-6-.39.5c-2.88,3.31-6.64,3.31-9.51,0l-.39-.5A20.64,20.64,0,0,1,9.86,13c.66-5.17,3.62-10.56,9.46-10.56S28.13,7.81,28.79,13A20.64,20.64,0,0,1,24.47,28.26Zm-22.06,8a32.85,32.85,0,0,1,10.37-4.12l3-.65a6.39,6.39,0,0,0,3.54,1.14,6.39,6.39,0,0,0,3.54-1.14l3,.65a33,33,0,0,1,10.37,4.12Z" style="fill:#bf311a"/></g></g></svg>