<svg xmlns="http://www.w3.org/2000/svg" viewBox="0 0 37.22 35.87"><defs><style>.cls-1{fill:#999;}</style></defs><title>Museum</title><g id="Layer_2" data-name="Layer 2"><g id="WorkSpace_top" data-name="WorkSpace top"><path class="cls-1" d="M35,35.87H2.26A2.27,2.27,0,0,1,0,33.61H0a2.27,2.27,0,0,1,2.26-2.26H35a2.27,2.27,0,0,1,2.26,2.26h0A2.27,2.27,0,0,1,35,35.87Z"/><path class="cls-1" d="M1.9,14.22v1.64a1,1,0,0,0,1,1h.65v13H7.74v-13h.65a1,1,0,0,0,1-1V14.22Z"/><path class="cls-1" d="M10.54,14.22v1.64a1,1,0,0,0,1,1h.65v13h4.19v-13H17a1,1,0,0,0,1-1V14.22Z"/><path class="cls-1" d="M19.19,14.22v1.64a1,1,0,0,0,1,1h.65v13H25v-13h.65a1,1,0,0,0,1-1V14.22Z"/><path class="cls-1" d="M27.83,14.22v1.64a1,1,0,0,0,1,1h.65v13h4.19v-13h.65a1,1,0,0,0,1-1V14.22Z"/><path class="cls-1" d="M18.61,0S.72,9,.55,9.13a1,1,0,0,0-.36.76v1.62a1,1,0,0,0,1,1h35a1,1,0,0,0,1-1V9.9a1,1,0,0,0-.36-.77C36.68,9,18.61,0,18.61,0Z"/></g></g></svg>