<svg xmlns="http://www.w3.org/2000/svg" viewBox="0 0 39.09 41.7"><title>Image</title><g id="Layer_2" data-name="Layer 2"><g id="WorkSpace_top" data-name="WorkSpace top"><g id="photo"><path id="_Compound_Path_" data-name="&lt;Compound Path&gt;" d="M33.88,0H5.21A5.21,5.21,0,0,0,0,5.21V36.49A5.21,5.21,0,0,0,5.21,41.7H33.88a5.21,5.21,0,0,0,5.21-5.21V5.21A5.21,5.21,0,0,0,33.88,0Zm2.61,36.49a2.61,2.61,0,0,1-2.61,2.61H5.21a2.61,2.61,0,0,1-2.61-2.61V5.21A2.61,2.61,0,0,1,5.21,2.61H33.88a2.61,2.61,0,0,1,2.61,2.61Z" style="fill:#bf311a"/><path id="_Compound_Path_2" data-name="&lt;Compound Path&gt;" d="M32.58,5.21H6.52a1.3,1.3,0,0,0-1.3,1.3V30a1.3,1.3,0,0,0,1.3,1.3H32.58a1.3,1.3,0,0,0,1.3-1.3V6.52A1.3,1.3,0,0,0,32.58,5.21Zm0,1.3V24.59L28.34,20a1.3,1.3,0,0,0-2,0L23,23.83,12.7,12.17a1.3,1.3,0,0,0-2,0L6.52,17.05V6.52ZM6.52,19l5.21-6L22.24,24.94l.76.86L26.59,30H6.52ZM28.33,30l-4.47-5.15,3.5-4,5.21,5.71V30Z" style="fill:#bf311a"/><path id="_Compound_Path_3" data-name="&lt;Compound Path&gt;" d="M24.76,16.94A3.91,3.91,0,1,0,20.85,13,3.91,3.91,0,0,0,24.76,16.94Zm0-6.52A2.61,2.61,0,1,1,22.15,13,2.61,2.61,0,0,1,24.76,10.42Z" style="fill:#bf311a"/></g></g></g></svg>