<svg xmlns="http://www.w3.org/2000/svg" viewBox="0 0 12.88 17.17"><title>Place</title><g id="Layer_2" data-name="Layer 2"><g id="WorkSpace_top" data-name="WorkSpace top"><g id="location"><path id="_Compound_Path_" data-name="&lt;Compound Path&gt;" d="M6.44,9.52A3.22,3.22,0,1,0,3.22,6.3,3.22,3.22,0,0,0,6.44,9.52Zm0-5.9A2.68,2.68,0,1,1,3.76,6.3,2.68,2.68,0,0,1,6.44,3.62Z" style="fill:#bf311a"/><path id="_Compound_Path_2" data-name="&lt;Compound Path&gt;" d="M6.44,0A6.42,6.42,0,0,0,0,6.44c0,3.76,3.22,7.6,5.57,10.3a1.31,1.31,0,0,0,.85.43h0a1.31,1.31,0,0,0,.85-.43c2.35-2.7,5.57-6.54,5.57-10.3A6.42,6.42,0,0,0,6.44,0ZM6.5,16l-.07.05L6.36,16c-2-2.26-5.29-6.08-5.29-9.57a5.37,5.37,0,1,1,10.73,0C11.8,9.93,8.48,13.75,6.5,16Z" style="fill:#bf311a"/></g></g></g></svg>