<svg id="Layer_1" data-name="Layer 1" xmlns="http://www.w3.org/2000/svg" viewBox="0 0 22 22"><defs><style>.cls-1{fill:#fff;}</style></defs><title>Icon</title><g id="_Group_" data-name="&lt;Group&gt;"><path id="_Compound_Path_" data-name="&lt;Compound Path&gt;" class="cls-1" d="M5.7,0.4H15.79l0.11,0a2.33,2.33,0,0,1,1.49.81A2.55,2.55,0,0,1,18,3c0,1.19,0,2.39,0,3.58V6.88c0.32,0,.62,0,0.92,0A2.39,2.39,0,0,1,21.16,8.7L21.25,9v5.37l-0.07.28a2.42,2.42,0,0,1-2.39,1.89H18c0,0.11,0,.19,0,0.27,0,0.82,0,1.64,0,2.45A2.12,2.12,0,0,1,16.83,21a6.21,6.21,0,0,1-1,.38H5.7C5.48,21.35,5.26,21.3,5,21.24a2.35,2.35,0,0,1-1.55-2c0-.81,0-1.63,0-2.44,0-.08,0-0.16,0-0.26H2.71a2.42,2.42,0,0,1-2.4-1.89l-0.07-.28q0-2.69,0-5.37a0.43,0.43,0,0,0,0-.09,2.37,2.37,0,0,1,2-2,5.31,5.31,0,0,1,1,0,0.19,0.19,0,0,0,.23-0.23q0-1.86,0-3.71A2.35,2.35,0,0,1,4.74.71,5.63,5.63,0,0,1,5.7.4ZM5.08,12.53c0,0.06,0,.09,0,0.12,0,2.08,0,4.17,0,6.25a0.82,0.82,0,0,0,.92.89h9.45a0.87,0.87,0,0,0,.94-1q0-3,0-6c0-.07,0-0.14,0-0.22H5.08Zm0-5.69H16.38a0.81,0.81,0,0,0,0-.1c0-1.28,0-2.56,0-3.83a1.18,1.18,0,0,0-.19-0.59A0.84,0.84,0,0,0,15.41,2H6.06a0.86,0.86,0,0,0-1,1q0,1.81,0,3.63C5.07,6.69,5.08,6.76,5.08,6.84ZM16.4,9.68a1.22,1.22,0,1,0,1.21-1.21A1.22,1.22,0,0,0,16.4,9.68Z"/><polygon id="_Path_" data-name="&lt;Path&gt;" class="cls-1" points="5.75 13.9 14.36 13.9 13.31 15.9 5.75 15.9 5.75 13.9"/><polygon id="_Path_2" data-name="&lt;Path&gt;" class="cls-1" points="5.75 16.9 10.32 16.9 9.28 18.9 5.75 18.9 5.75 16.9"/></g></svg>