<svg xmlns="http://www.w3.org/2000/svg" viewBox="0 0 17.82 14.05"><title>Twitter</title><g id="Layer_2" data-name="Layer 2"><g id="WorkSpace_top" data-name="WorkSpace top"><path id="_Path_" data-name="&lt;Path&gt;" d="M17.82,1.66a7.47,7.47,0,0,1-2.1.56,3.58,3.58,0,0,0,1.61-2A7.41,7.41,0,0,1,15,1.12,3.7,3.7,0,0,0,12.33,0,3.6,3.6,0,0,0,8.68,3.55a3.44,3.44,0,0,0,.09.81A10.49,10.49,0,0,1,1.24.65,3.45,3.45,0,0,0,.75,2.43a3.52,3.52,0,0,0,1.63,3A3.72,3.72,0,0,1,.72,4.94V5A3.58,3.58,0,0,0,3.65,8.46a3.78,3.78,0,0,1-1,.12A3.69,3.69,0,0,1,2,8.52,3.65,3.65,0,0,0,5.41,11,7.47,7.47,0,0,1,.87,12.51a7.67,7.67,0,0,1-.87,0,10.58,10.58,0,0,0,5.6,1.59A10.17,10.17,0,0,0,16,4V3.5A7.29,7.29,0,0,0,17.82,1.66Z" style="fill:#fff"/></g></g></svg>