<?xml version="1.0" standalone="no"?>
<!DOCTYPE svg PUBLIC "-//W3C//DTD SVG 1.1//EN" "http://www.w3.org/Graphics/SVG/1.1/DTD/svg11.dtd" >
<svg xmlns="http://www.w3.org/2000/svg">
<metadata></metadata>
<defs>
<font id="open_sans_hebrewXBdIt" horiz-adv-x="1243" >
<font-face units-per-em="2048" ascent="1638" descent="-410" />
<missing-glyph horiz-adv-x="532" />
<glyph horiz-adv-x="2048" />
<glyph horiz-adv-x="2048" />
<glyph unicode="&#xd;" horiz-adv-x="1044" />
<glyph unicode=" "  horiz-adv-x="532" />
<glyph unicode="&#x09;" horiz-adv-x="532" />
<glyph unicode="&#xa0;" horiz-adv-x="532" />
<glyph unicode="!" horiz-adv-x="623" d="M125 516l156 946h426l-254 -946h-328zM12 127q0 108 65 170.5t179 62.5q87 0 133.5 -40.5t46.5 -114.5q0 -109 -63 -169.5t-174 -60.5q-89 0 -138 39t-49 113z" />
<glyph unicode="&#x22;" horiz-adv-x="930" d="M438 934h-256l72 528h342zM881 934h-258l73 528h342z" />
<glyph unicode="#" horiz-adv-x="1323" d="M1010 631h243l-20 -238h-293l-111 -393h-270l113 393h-168l-113 -393h-270l112 393h-219l21 238h266l57 200h-235l20 242h285l111 389h270l-111 -389h168l111 389h270l-110 -389h221l-21 -242h-270zM739 631l58 200h-168l-58 -200h168z" />
<glyph unicode="$" horiz-adv-x="1188" d="M741 1130q-64 0 -102.5 -27.5t-38.5 -74t38 -82.5t169 -100.5t195.5 -152t64.5 -212.5q0 -178 -132.5 -289.5t-361.5 -125.5l-38 -187h-168l41 191q-223 17 -347 92v311q240 -113 431 -113q174 0 174 105q0 41 -33 72q-31 32 -139 84q-140 63 -214.5 161t-74.5 226 q0 176 133 288t358 127l29 133h168l-31 -137q161 -15 314 -90l-140 -270q-159 71 -295 71z" />
<glyph unicode="%" horiz-adv-x="1878" d="M525 1483q147 0 231.5 -85t84.5 -243.5t-57 -297t-158.5 -215.5t-229.5 -77q-157 0 -237 82.5t-80 239.5v8q0 258 120.5 423t316.5 165h9zM548 0h-297l1089 1462h289zM497 1241q-50 0 -88.5 -110.5t-38.5 -239.5q0 -84 53 -84q51 0 89 111t38 239q0 44 -12 64t-41 20z M1502 897q147 0 231.5 -85t84.5 -242.5t-56 -296.5t-158 -216t-231 -77q-158 0 -237.5 82t-79.5 239v8q0 258 120.5 423t316.5 165h9zM1474 655q-50 0 -88.5 -110.5t-38.5 -239.5q0 -84 53 -84q51 0 89 111t38 239q0 45 -12 64.5t-41 19.5z" />
<glyph unicode="&#x26;" horiz-adv-x="1501" d="M528 -20q-245 0 -382.5 106t-137.5 299q0 159 88 264.5t271 165.5q-37 46 -60.5 119.5t-23.5 130.5q0 197 125.5 308.5t355.5 111.5q190 0 303 -88t113 -236q0 -129 -79 -231.5t-263 -198.5l129 -186q36 36 75 113.5t64 162.5h383q-46 -161 -128 -305.5t-190 -253.5 l191 -262h-442l-43 61q-155 -81 -349 -81zM804.5 1196q-22.5 25 -65.5 25t-73.5 -35t-30.5 -102.5t51 -135.5q141 60 141 187q0 36 -22.5 61zM399 424q0 -62 47.5 -99.5t123.5 -37.5t139 26l-193 279q-117 -52 -117 -168z" />
<glyph unicode="'" horiz-adv-x="487" d="M438 934h-256l72 528h342z" />
<glyph unicode="(" horiz-adv-x="766" d="M68 326q0 332 125 620.5t387 556.5h323q-259 -280 -383.5 -574.5t-124.5 -619.5q0 -148 33 -327t84 -306h-293q-66 118 -108.5 298t-42.5 352z" />
<glyph unicode=")" horiz-adv-x="766" d="M694 854q0 -342 -123.5 -629t-377.5 -549h-326q255 275 377.5 570t122.5 624q0 150 -32 321.5t-87 311.5h295q71 -125 111 -297.5t40 -351.5z" />
<glyph unicode="*" horiz-adv-x="1110" d="M793 1178l368 30l-22 -301l-310 41l148 -311l-285 -86l-80 303l-166 -244l-249 185l254 229l-299 84l100 278l319 -165l31 350l307 -62z" />
<glyph unicode="+" horiz-adv-x="1159" d="M102 586v272h353v352h270v-352h352v-272h-352v-348h-270v348h-353z" />
<glyph unicode="," horiz-adv-x="627" d="M432 238l8 -23q-112 -254 -256 -479h-288q52 122 147 387l41 115h348z" />
<glyph unicode="-" horiz-adv-x="674" d="M86 705h553l-64 -312h-552z" />
<glyph unicode="." horiz-adv-x="627" d="M0 127q0 109 65 171t179 62q85 0 132.5 -40.5t47.5 -114.5q0 -118 -60.5 -174t-189.5 -56q-81 0 -127.5 38t-46.5 114z" />
<glyph unicode="/" horiz-adv-x="956" d="M254 -20h-344l838 1503h344z" />
<glyph unicode="0" horiz-adv-x="1188" d="M1157 983q0 -299 -85 -529.5t-235 -352t-353.5 -121.5t-312 125t-108.5 360q0 296 84.5 533.5t234.5 362t349.5 124.5t312.5 -135.5t113 -366.5zM686 1169q-54 0 -109 -109.5t-89.5 -281t-34.5 -321.5q0 -88 16 -125t59 -37q59 0 111.5 93.5t90.5 266.5t38 343.5 t-82 170.5z" />
<glyph unicode="1" horiz-adv-x="1188" d="M385 0l174 799q29 134 76 256q-81 -70 -131 -103l-203 -125l-151 252l620 383h311l-307 -1462h-389z" />
<glyph unicode="2" horiz-adv-x="1188" d="M727 1053q0 47 -25.5 72.5t-66.5 25.5q-121 0 -281 -147l-186 258q235 221 541 221q183 0 295 -99.5t112 -269.5q0 -152 -87.5 -285.5t-297.5 -314.5l-205 -176v-12h490l-68 -326h-1005l53 256l483 436q248 221 248 361z" />
<glyph unicode="3" horiz-adv-x="1188" d="M684 1483q201 0 321.5 -93t120.5 -246.5t-89.5 -251t-252.5 -130.5v-8q129 -25 202 -111t73 -213q0 -216 -178.5 -333t-481.5 -117q-249 0 -385 79v332q166 -100 377 -100q137 0 206 46t69 134q-4 79 -60 104.5t-219 28.5h-84l53 291h78q146 0 228.5 46.5t82.5 127.5 q0 46 -36.5 74t-98.5 28q-117 0 -270 -84l-158 248q126 81 243 114.5t259 33.5z" />
<glyph unicode="4" horiz-adv-x="1188" d="M915 283l-59 -283h-377l60 283h-549l51 256l762 923h360l-186 -884h149l-61 -295h-150zM600 578l49 194q31 115 60 211h-9q-50 -96 -114 -172l-195 -233h209z" />
<glyph unicode="5" horiz-adv-x="1188" d="M655 958q181 0 293.5 -118t112.5 -316q0 -260 -161 -403q-161 -141 -466 -141q-132 0 -246.5 22.5t-167.5 60.5v324q81 -46 181 -71t184 -25q277 0 277 192q0 76 -50.5 123t-136.5 47q-55 0 -112.5 -10.5t-90.5 -21.5l-122 92l215 749h813l-68 -323h-471l-59 -185 q31 4 75 4z" />
<glyph unicode="6" horiz-adv-x="1188" d="M778 977q160 0 244 -103t84 -299v-13q0 -255 -153.5 -418.5t-397.5 -163.5h-12q-226 0 -345.5 124.5t-119.5 366.5q0 103 26 254q86 393 299 575.5t568 182.5q105 0 233 -31l-63 -303q-93 25 -183 25q-147 0 -238.5 -34.5t-151 -109t-105.5 -223.5h8q107 170 307 170z M561 287q66 0 109 76t43 182q0 129 -92 129q-68 0 -113 -73t-45 -181q0 -65 26 -99t72 -34z" />
<glyph unicode="7" horiz-adv-x="1188" d="M752 1135h-574l70 327h1030l-51 -231l-744 -1231h-448z" />
<glyph unicode="8" horiz-adv-x="1188" d="M1157 1151q0 -129 -78 -229q-75 -99 -202 -140q95 -73 141.5 -160.5t46.5 -201.5q0 -206 -141 -323t-376.5 -117t-367.5 99q-131 99 -131 259q0 301 332 418q-156 122 -156 309v8q0 178 136.5 295t356.5 117h7q201 0 316.5 -92.5t115.5 -241.5zM773.5 1176 q-27.5 26 -71 26t-79 -40t-35.5 -88t24 -87t62 -57q57 21 92 70t35 99.5t-27.5 76.5zM414 385q0 -54 36.5 -88.5t101.5 -34.5t107.5 42t42.5 110q0 115 -118 194q-170 -90 -170 -223z" />
<glyph unicode="9" horiz-adv-x="1188" d="M436 481q-150 0 -238.5 109.5t-88.5 296.5v7q0 261 148 425t399 164h6q230 0 352.5 -137.5t122.5 -393.5q0 -295 -102.5 -519.5t-284.5 -338.5t-433 -114q-115 0 -211 30v314q90 -37 203 -37q187 0 291 86.5t145 281.5h-8q-58 -93 -130.5 -133.5t-170.5 -40.5zM672 1176 q-72 0 -122 -71q-48 -71 -48 -173q0 -144 92 -144q74 0 125 70t51 172q0 65 -27.5 105.5t-70.5 40.5z" />
<glyph unicode=":" horiz-adv-x="627" d="M195 915q0 109 64.5 170.5t176.5 61.5q85 0 133.5 -39t48.5 -115q0 -120 -59 -175.5t-190 -55.5q-81 0 -127.5 38.5t-46.5 114.5zM0 127q0 109 65 171t179 62q85 0 132.5 -40.5t47.5 -114.5q0 -118 -60.5 -174t-189.5 -56q-81 0 -127.5 38t-46.5 114z" />
<glyph unicode=";" horiz-adv-x="627" d="M195 915q0 109 64.5 170.5t176.5 61.5q85 0 133.5 -39t48.5 -115q0 -120 -59 -175.5t-190 -55.5q-81 0 -127.5 38.5t-46.5 114.5zM420 238l8 -23q-112 -254 -256 -479h-289q69 158 148 387l41 115h348z" />
<glyph unicode="&#x3c;" horiz-adv-x="1159" d="M88 627v172l973 508v-299l-576 -283l576 -252v-297z" />
<glyph unicode="=" horiz-adv-x="1159" d="M102 1040h975v-266h-975v266zM102 670h975v-271h-975v271z" />
<glyph unicode="&#x3e;" horiz-adv-x="1159" d="M684 725l-575 283v299l972 -508v-172l-972 -451v297z" />
<glyph unicode="?" horiz-adv-x="999" d="M684 1104q0 70 -90 70q-126 0 -313 -109l-119 283q231 135 461 135q201 0 319.5 -90t118.5 -248q0 -90 -27.5 -157t-79 -120t-160.5 -118.5t-151.5 -106t-56.5 -84.5l-15 -43h-315l12 64q15 80 41.5 136.5t69.5 103t139 110t131 99t35 75.5zM176 127q0 108 65 170.5 t179 62.5q87 0 133.5 -40.5t46.5 -114.5q0 -110 -63 -170t-175 -60q-88 0 -137 39.5t-49 112.5z" />
<glyph unicode="@" horiz-adv-x="1837" d="M780 -186q-209 0 -368 83.5t-244.5 240.5t-85.5 362q0 288 116.5 510.5t335.5 347.5q220 125 486 125q354 0 554 -174t200 -482q0 -171 -69.5 -314.5t-191 -224.5t-266.5 -81q-169 0 -219 129h-10q-49 -66 -112.5 -97.5t-155.5 -31.5q-117 0 -191 83q-74 85 -74 231 t74 284.5t196 211.5t277.5 73t335.5 -70l-100 -414q-23 -97 -23 -137.5t39 -40.5h5q93 0 157.5 109.5t64.5 278.5v5q0 212 -133 322t-383 110q-186 0 -336.5 -92t-232.5 -257.5t-82 -379.5v-10q0 -207 120.5 -339t305.5 -132h6q104 0 236 25t243 69v-225q-88 -42 -221.5 -70 t-253.5 -28zM1012 868q-74 0 -129 -47t-87 -128t-32 -161q0 -104 78 -104q62 0 100 52t74 188l47 190q-21 10 -51 10z" />
<glyph unicode="A" horiz-adv-x="1384" d="M410 274l-125 -274h-406l744 1462h503l123 -1462h-381l-10 274h-448zM846 586l-17 424l-2 86q0 82 4 131q-25 -91 -61 -166l-217 -475h293z" />
<glyph unicode="B" horiz-adv-x="1298" d="M829 1462q216 0 328.5 -82t112.5 -237q0 -289 -297 -377v-8q89 -30 140.5 -103t51.5 -176q0 -229 -152.5 -354t-432.5 -125h-547l309 1462h487zM686 901q89 0 133.5 38.5t44.5 121.5q0 102 -127 102h-63l-60 -262h72zM571 305q86 0 143.5 48.5t57.5 120.5t-34 105 t-115 33h-68l-66 -307h82z" />
<glyph unicode="C" horiz-adv-x="1290" d="M881 1159q-108 0 -195 -78t-136.5 -214t-49.5 -298q0 -266 217 -266q80 0 167 20.5t201 69.5v-323q-203 -90 -440 -90q-260 0 -401 148q-140 149 -140 417.5t101 490t275 335.5t401 114q264 0 481 -131l-148 -305q-97 57 -174.5 83.5t-158.5 26.5z" />
<glyph unicode="D" horiz-adv-x="1401" d="M758 1462q276 0 427.5 -144.5t151.5 -408.5v-11q0 -271 -99 -475.5t-287 -313.5t-438 -109h-9h-471l309 1462h416zM572 324q103 0 188.5 70t133.5 199.5t48 288.5v7q0 124 -53.5 189t-151.5 65h-71l-172 -819h69h9z" />
<glyph unicode="E" horiz-adv-x="1151" d="M33 0l309 1462h868l-65 -317h-477l-47 -230h444l-72 -317h-444l-57 -276h477l-68 -322h-868z" />
<glyph unicode="F" horiz-adv-x="1165" d="M33 0l309 1462h862l-67 -317h-471l-58 -279h436l-69 -319h-438l-113 -547h-391z" />
<glyph unicode="G" horiz-adv-x="1430" d="M1174 61q-250 -81 -516 -81t-410 152t-144 425t110 488t301.5 327.5t451.5 112.5t442 -107l-147 -309q-153 90 -296 90q-283 0 -406 -287q-60 -142 -60 -303q0 -264 209 -264q60 0 133 14l51 232h-229l67 305h610z" />
<glyph unicode="H" horiz-adv-x="1462" d="M772 0l125 596h-346l-127 -596h-391l309 1462h391l-112 -542h348l112 542h392l-310 -1462h-391z" />
<glyph unicode="I" horiz-adv-x="727" d="M340 1462h397l-309 -1462h-397z" />
<glyph unicode="J" horiz-adv-x="764" d="M-115 -461q-105 0 -213 29v319q99 -24 174 -24q106 0 162 58.5t84 195.5l289 1345h391l-299 -1394q-44 -202 -113.5 -313t-181.5 -163.5t-293 -52.5z" />
<glyph unicode="K" horiz-adv-x="1370" d="M803 0l-174 578l-97 -56l-108 -522h-391l309 1462h391l-135 -624l38 59q90 145 130 195l297 370h459l-551 -674l270 -788h-438z" />
<glyph unicode="L" horiz-adv-x="1079" d="M342 1462h391l-241 -1143h477l-68 -319h-868z" />
<glyph unicode="M" horiz-adv-x="1862" d="M588 1049h-8q-72 -442 -86 -512l-113 -537h-348l309 1462h518v-1038h8l478 1038h526l-313 -1462h-351l117 549q49 226 108 436l15 64h-8l-482 -1049h-370v1049z" />
<glyph unicode="N" horiz-adv-x="1618" d="M864 0l-289 1028h-8q-28 -290 -57 -418l-129 -610h-348l309 1462h455l286 -983h9q29 237 57 371l131 612h348l-309 -1462h-455z" />
<glyph unicode="O" horiz-adv-x="1509" d="M897 1485q260 0 404.5 -148.5t144.5 -415.5t-99.5 -486.5t-274.5 -337t-406 -117.5q-269 0 -416 149q-146 149 -146 414.5t103 486.5t280.5 338t409.5 117zM1051 918q0 115 -48.5 179t-143.5 64t-178 -85t-132 -230.5t-49 -300.5q0 -242 200 -242q95 0 176 82t128 225 t47 308z" />
<glyph unicode="P" horiz-adv-x="1276" d="M715 1462q259 0 397.5 -113.5t138.5 -324.5q0 -252 -172 -395.5t-469 -143.5h-86l-100 -485h-391l309 1462h373zM657 805q92 0 147.5 58.5t55.5 148.5q0 60 -36 95.5t-99 35.5h-59l-72 -338h63z" />
<glyph unicode="Q" horiz-adv-x="1509" d="M647 -20q-258 0 -401 149q-142 149 -142 414t102.5 486t282 338.5t414.5 117.5q257 0 400 -149.5t143 -421.5t-114 -501.5t-310 -338.5l238 -422h-439l-162 328h-12zM1051 926q0 231 -189 231q-95 0 -180 -82t-133.5 -225.5t-48.5 -310.5q0 -114 47 -172t142 -58t179 81 q84 79 133.5 223t49.5 313z" />
<glyph unicode="R" horiz-adv-x="1331" d="M729 1462q254 0 387 -101t133 -300q0 -158 -71.5 -273.5t-210.5 -175.5l224 -516l40 -96h-426l-195 532h-73l-113 -532h-391l309 1462h387zM651 829q96 0 151.5 54.5t55.5 152.5q0 62 -34.5 94.5t-100.5 32.5h-53l-70 -334h51z" />
<glyph unicode="S" horiz-adv-x="1122" d="M717 1167q-64 0 -98.5 -28t-34.5 -79t33 -95q37 -45 128 -113q119 -88 175.5 -184.5t56.5 -218.5q0 -221 -147 -346q-147 -123 -410 -123q-232 0 -377 96v350q86 -54 193.5 -89.5t188.5 -35.5q157 0 157 119q0 51 -46 97q-26 28 -118 104q-116 93 -169.5 191t-53.5 222.5 t65.5 229t184.5 162t268 57.5q239 0 430 -107l-135 -297q-170 88 -291 88z" />
<glyph unicode="T" horiz-adv-x="1130" d="M236 0l237 1139h-317l69 323h1028l-71 -323h-318l-237 -1139h-391z" />
<glyph unicode="U" horiz-adv-x="1436" d="M565 -20q-126 0 -228.5 55.5t-157.5 153t-55 213.5v8q0 64 12 129l199 923h391l-195 -913q-14 -70 -14 -115q0 -127 121 -127q92 0 146.5 63.5t82.5 198.5l191 893h391l-199 -932q-59 -281 -225 -415.5t-451 -134.5h-9z" />
<glyph unicode="V" horiz-adv-x="1264" d="M559 610q0 -147 -16 -256h8q12 59 44 157q33 98 56 146l350 805h414l-725 -1462h-436l-104 1462h382l27 -801v-51z" />
<glyph unicode="W" horiz-adv-x="1915" d="M1292 1462v-792q0 -152 -26 -316l133 346l303 762h387l-635 -1462h-461v620q0 161 13 324q-34 -136 -118 -349l-253 -595h-434l-49 1462h370l-10 -733q-6 -270 -25 -375l40 104l94 232l335 772h336z" />
<glyph unicode="X" horiz-adv-x="1358" d="M803 0l-146 498l-338 -498h-444l563 776l-223 686h416l123 -469l309 469h448l-538 -725l262 -737h-432z" />
<glyph unicode="Y" horiz-adv-x="1237" d="M969 1462h436l-612 -895l-121 -567h-391l120 567l-237 895h403l90 -542z" />
<glyph unicode="Z" horiz-adv-x="1104" d="M-92 0l47 242l690 901h-479l67 319h986l-52 -245l-700 -898h543l-68 -319h-1034z" />
<glyph unicode="[" horiz-adv-x="737" d="M-53 -344l393 1847h530l-55 -254h-215l-285 -1339h215l-53 -254h-530z" />
<glyph unicode="\" horiz-adv-x="956" d="M778 -20h-319l-238 1503h309z" />
<glyph unicode="]" horiz-adv-x="737" d="M133 -90l285 1339h-215l55 254h528l-393 -1847h-526l53 254h213z" />
<glyph unicode="^" horiz-adv-x="1096" d="M625 1462h172l284 -960h-274l-156 569l-360 -569h-297z" />
<glyph unicode="_" horiz-adv-x="922" d="M-184 -379l57 246h930l-58 -246h-929z" />
<glyph unicode="`" horiz-adv-x="1135" d="M975 1241h-236q-78 71 -150.5 157.5t-103.5 149.5v21h396q28 -154 94 -303v-25z" />
<glyph unicode="a" d="M406 -20q-158 0 -240 111t-82 321q0 180 72.5 364.5t184 280.5t247.5 96q85 0 148.5 -38t113.5 -122h8l53 140h310l-240 -1133h-309l10 123h-8q-55 -76 -119.5 -109.5t-148.5 -33.5zM565 291q50 0 95 57.5t72.5 156.5t27.5 179q0 158 -82 158q-77 0 -138 -126t-61 -275.5 t86 -149.5z" />
<glyph unicode="b" d="M838 1153q155 0 238 -111.5t83 -320.5q0 -176 -70.5 -360.5t-182 -282.5t-249.5 -98q-83 0 -145 32t-125 113h-8l-49 -125h-307l329 1556h387l-49 -231q-37 -174 -90 -301h8q47 57 77 81q62 48 153 48zM678 842q-50 0 -95 -57t-71.5 -155t-26.5 -196q0 -143 78 -143 q49 0 96.5 59.5t76 157t28.5 190.5q0 144 -86 144z" />
<glyph unicode="c" horiz-adv-x="1032" d="M881 70q-163 -90 -368 -90t-318 120q-111 122 -111 333t76 373.5t215 254.5q140 92 324 92t358 -80l-123 -287q-134 60 -225 60q-63 0 -115 -48t-86.5 -142.5t-34.5 -187t30 -135t95 -42.5q119 0 283 86v-307z" />
<glyph unicode="d" horiz-adv-x="1237" d="M406 -20q-158 0 -240 111t-82 321q0 177 71 362t183 282t248 97q76 0 126 -31q52 -30 111 -121h8l2 37q8 140 25 217l62 301h391l-330 -1556h-309l10 123h-8q-56 -77 -119 -110t-149 -33zM565 291q50 0 95 57.5t72.5 156.5t27.5 193q0 144 -80 144q-49 0 -96.5 -59.5 t-76 -156.5t-28.5 -192q0 -143 86 -143z" />
<glyph unicode="e" horiz-adv-x="1186" d="M532 -20q-212 0 -330 118t-118 328.5t83.5 380.5t228.5 258t335.5 88t300 -85.5t109.5 -229.5q0 -201 -156.5 -308.5t-452.5 -107.5h-59v-16q0 -148 164 -148q78 0 154 23t174 75v-274q-115 -58 -209.5 -80t-223.5 -22zM541 664q108 0 170.5 41t62.5 110q0 34 -21 55 t-63 21q-62 0 -115 -70.5t-63 -156.5h29z" />
<glyph unicode="f" horiz-adv-x="840" d="M-2 -492q-110 0 -207 27v303q63 -18 127 -18t102 29.5t52 95.5l190 897h-166l43 190l189 96l16 74q42 190 145 277.5t272.5 87.5t287.5 -58l-99 -264q-63 31 -133.5 31t-87.5 -72l-16 -71h211l-66 -291h-209l-205 -959q-43 -191 -153 -283t-293 -92z" />
<glyph unicode="g" horiz-adv-x="1145" d="M639 1153q105 0 197 -20h399l-41 -207l-160 -52q10 -39 10 -94q0 -191 -130 -309q-130 -117 -339 -117q-78 0 -124 13q-30 -16 -39 -28t-9 -24q0 -43 111 -59l137 -18q175 -26 250.5 -92t75.5 -189q0 -215 -168.5 -332t-478.5 -117q-213 0 -337 76q-126 75 -126 209 q0 99 68.5 169.5t211.5 117.5q-38 24 -61 61t-23 78q0 70 50 125.5t153 101.5q-131 104 -131 281q0 196 136 311t368 115zM620 920q-50 0 -85 -71.5t-35 -161t67 -89.5q52 0 85 68q34 68 34 161t-61 93h-5zM197 -152q0 -86 170 -86q125 0 190.5 28.5t65.5 82.5 q0 36 -33 54.5t-115 27.5l-115 12q-163 -24 -163 -119z" />
<glyph unicode="h" horiz-adv-x="1274" d="M768 618q18 78 18 130.5t-21.5 75t-53.5 22.5q-125 0 -185 -293l-116 -553h-387l329 1556h387l-53 -249q-34 -155 -88 -283h8q100 129 273 129q141 0 220 -85.5t79 -236.5q0 -108 -25 -229l-127 -602h-387z" />
<glyph unicode="i" horiz-adv-x="666" d="M309 1382q0 102 59 155.5t158.5 53.5t149 -36.5t49.5 -104.5q0 -100 -58.5 -154.5t-166.5 -54.5q-191 0 -191 141zM23 0l239 1133h389l-241 -1133h-387z" />
<glyph unicode="j" horiz-adv-x="666" d="M317 1382q0 102 59 155.5t158.5 53.5t149 -36.5t49.5 -104.5q0 -97 -57 -153t-168 -56q-191 0 -191 141zM-57 -492q-109 0 -207 27v303q56 -18 112 -18q142 0 175 147l247 1166h387l-260 -1227q-40 -193 -157 -295.5t-297 -102.5z" />
<glyph unicode="k" horiz-adv-x="1264" d="M735 1556l-139 -663q-16 -75 -68 -223h9q82 124 153 200l242 263h442l-491 -512l274 -621h-438l-139 391l-101 -53l-69 -338h-387l325 1556h387z" />
<glyph unicode="l" horiz-adv-x="666" d="M23 0l329 1556h387l-329 -1556h-387z" />
<glyph unicode="m" horiz-adv-x="1896" d="M791 752q0 94 -72 94q-67 0 -112.5 -72.5t-78.5 -222.5l-118 -551h-387l239 1133h309l-16 -187h8q62 114 138 160.5t190 46.5t178.5 -52t91.5 -155h8q65 106 149 156.5t195 50.5q141 0 214 -84.5t73 -249.5q0 -99 -22 -205l-125 -614h-387l129 631q14 58 14 133 q0 39 -18.5 60.5t-51.5 21.5q-72 0 -118 -74t-78 -229l-111 -543h-387l131 631q15 90 15 121z" />
<glyph unicode="n" horiz-adv-x="1274" d="M768 618q18 78 18 130.5t-21.5 75t-53.5 22.5q-59 0 -107 -73t-78 -220l-116 -553h-387l239 1133h309l-12 -158h8q54 94 128.5 136t183.5 42q141 0 220 -85.5t79 -236.5q0 -108 -25 -229l-127 -602h-387z" />
<glyph unicode="o" d="M855 73.5q-145 -93.5 -344.5 -93.5t-313 113t-113.5 323.5t80 380.5t224 263t344 93t313.5 -113t113.5 -322.5t-79.5 -380t-224.5 -264zM678 862q-82 0 -140.5 -139t-58.5 -320q0 -133 84 -133q81 0 141 139t60 320q0 65 -23 99t-63 34z" />
<glyph unicode="p" d="M567 1006q96 147 255.5 147t248 -112t88.5 -311t-70.5 -377.5t-185.5 -275.5t-255 -97t-228 145h-8q-12 -161 -56 -371l-51 -246h-387l344 1625h309l-12 -127h8zM678 842q-50 0 -95 -57t-71.5 -155t-26.5 -180q0 -159 88 -159q49 0 92.5 57.5t71 152t27.5 197.5 q0 144 -86 144z" />
<glyph unicode="q" d="M379 -20q-130 0 -213 114.5t-83 304.5v9q0 180 71.5 365.5t182.5 282.5t248 97q90 0 146.5 -33.5t117.5 -126.5h8l53 140h310l-344 -1625h-392l68 293q26 118 90 310h-8q-53 -72 -111.5 -101.5t-136.5 -29.5h-7zM564 291q50 0 95 57.5t72.5 156.5t27.5 193q0 144 -80 144 q-49 0 -96.5 -59.5t-76 -156.5t-28.5 -192q0 -143 86 -143z" />
<glyph unicode="r" horiz-adv-x="895" d="M901 1153q54 0 80 -8l-84 -383q-53 22 -123 22q-102 0 -163.5 -70t-94.5 -216l-106 -498h-387l239 1133h309l-18 -189h8q64 112 140.5 160.5t199.5 48.5z" />
<glyph unicode="s" horiz-adv-x="1028" d="M608 889q-76 0 -76 -68q0 -27 28 -48t106 -60q225 -113 225 -316t-130.5 -310t-363.5 -107t-366 63v311q165 -90 331 -90q136 0 136 70q0 34 -26 60t-130 85q-106 58 -154.5 133t-48.5 183q0 172 121 265t338.5 93t388.5 -106l-121 -252q-66 43 -136.5 68.5t-121.5 25.5z " />
<glyph unicode="t" horiz-adv-x="936" d="M504 354q0 -63 64 -63t182 47v-291q-135 -67 -340 -67q-151 0 -226 65t-75 207q0 76 24 188l84 402h-154l41 190l218 88l137 240h258l-49 -227h288l-63 -291h-289l-84 -383q-16 -74 -16 -105z" />
<glyph unicode="u" horiz-adv-x="1274" d="M506 516q-19 -80 -19 -131.5t21.5 -73.5t54.5 -22q59 0 107 78t78 215l116 551h387l-239 -1133h-310l13 158h-8q-54 -93 -128.5 -135.5t-183.5 -42.5q-141 0 -220 85.5t-79 235.5q0 108 25 229l127 603h387z" />
<glyph unicode="v" horiz-adv-x="1114" d="M88 1133h385l27 -603q0 -70 -8 -118h8q2 14 18 63t36 90l265 568h414l-612 -1133h-388z" />
<glyph unicode="w" horiz-adv-x="1686" d="M467 1133v-512q0 -177 -8 -259h8q47 181 88 295l172 476h428l-20 -476q-9 -128 -33 -295h8l15 47l49 140q41 116 241 584h385l-538 -1133h-422l20 449q1 61 11.5 207t21.5 221h-8q-61 -236 -121 -390l-189 -487h-407l-66 1133h365z" />
<glyph unicode="x" horiz-adv-x="1159" d="M334 0h-453l473 578l-207 555h422l76 -314l186 314h459l-465 -576l228 -557h-428l-80 328z" />
<glyph unicode="y" horiz-adv-x="1114" d="M516 422h8q40 140 55.5 179.5t233.5 531.5h416l-670 -1276q-96 -185 -223 -267t-311 -82q-91 0 -154 17v307q47 -12 121 -12t130 36t99 115l23 41l-162 1121h389l43 -562l2 -62v-87z" />
<glyph unicode="z" horiz-adv-x="993" d="M-41 0l43 221l502 613h-348l67 299h811l-53 -242l-496 -592h383l-65 -299h-844z" />
<glyph unicode="{" horiz-adv-x="735" d="M432 45q0 -88 113 -88v-281h-82q-183 0 -272 68.5t-89 208.5q0 63 15 127l37 174q6 24 6 43q0 74 -41.5 105.5t-134.5 31.5l53 287q119 0 175 38.5t77 133.5l55 246q29 125 76 190q98 133 334 133h129l-62 -280q-82 -2 -120.5 -30t-55.5 -99l-53 -258q-21 -98 -87 -152.5 t-192 -69.5v-8q170 -55 170 -233q0 -20 -10 -74l-35 -164q-6 -30 -6 -49z" />
<glyph unicode="|" horiz-adv-x="1159" d="M713 1548v-2013h-271v2013h271z" />
<glyph unicode="}" horiz-adv-x="735" d="M-123 -324v281q71 3 108 14t55 33t30 82l53 258q21 100 88.5 154.5t189.5 66.5v8q-170 56 -170 234q0 10 11 74l34 163q7 27 7 50q0 88 -136 88l54 280h61q168 0 259 -71t91 -203q0 -67 -14 -129l-37 -174q-6 -25 -6 -43q0 -68 45.5 -101.5t147.5 -33.5l-58 -287 q-121 0 -182.5 -40.5t-81.5 -133.5l-55 -246q-37 -170 -138 -247t-282 -77h-74z" />
<glyph unicode="~" horiz-adv-x="1159" d="M809 526q-61 0 -114 13t-136 47t-128.5 46.5t-94.5 12.5q-115 0 -240 -121v285q106 109 262 109q60 0 107 -10.5t137.5 -47t136.5 -49t96.5 -12.5t115 32.5t120.5 88.5v-285q-106 -109 -262 -109z" />
<glyph unicode="&#xa1;" horiz-adv-x="623" d="M586 1001q0 -108 -65 -170.5t-179 -62.5q-87 0 -133.5 40.5t-46.5 115.5q0 108 63.5 168.5t173.5 60.5q89 0 138 -39.5t49 -112.5zM473 608l-156 -946h-426l254 946h328z" />
<glyph unicode="&#xa2;" horiz-adv-x="1188" d="M154 586q0 305 140 510q141 205 372 239l32 148h230l-33 -150q123 -20 231 -76l-122 -286q-80 38 -130 48.5t-96 10.5q-62 0 -115 -50t-84.5 -147.5t-31.5 -205.5q0 -77 30 -112.5t91 -35.5q114 0 282 90v-311q-146 -78 -307 -90l-41 -188h-229l51 208q-270 73 -270 398z " />
<glyph unicode="&#xa3;" horiz-adv-x="1188" d="M850 1483q180 0 373 -86l-144 -299q-73 34 -119 48.5t-88 14.5t-63 -25.5t-35 -91.5l-24 -114h251l-57 -279h-252l-20 -94q-16 -74 -69.5 -133.5t-133.5 -93.5h604l-72 -330h-1019l63 313q78 21 121.5 49t68.5 69.5t41 123.5l21 96h-188l57 279h188l23 129q25 146 85 243 q60 95 151.5 138t236.5 43z" />
<glyph unicode="&#xa5;" horiz-adv-x="1188" d="M932 1462h393l-489 -733h184l-45 -205h-223l-27 -129h223l-43 -205h-223l-41 -190h-379l41 190h-227l43 205h227l25 129h-226l45 205h179l-187 733h385l72 -487z" />
<glyph unicode="&#xa7;" horiz-adv-x="1036" d="M971 1251q-157 101 -293 101q-56 0 -83.5 -21t-27.5 -53q1 -46 30 -73t120 -72q244 -112 244 -312q0 -102 -39 -173.5t-129 -121.5q69 -82 69 -200q0 -169 -126.5 -260t-352 -91t-346.5 95v249q197 -120 358 -120q69 0 109.5 28.5t40.5 71t-31 75t-104 72.5 q-252 138 -252 330q0 171 178 281q-38 38 -59 89t-21 103q0 160 116.5 244t338.5 84q185 0 360 -102zM465 886.5q-23 -35.5 -23 -74.5q0 -79 162 -169q74 51 74 127q0 54 -37 95.5t-117 74.5q-36 -18 -59 -53.5z" />
<glyph unicode="&#xa8;" horiz-adv-x="1135" d="M336 1384q0 187 201 187q170 0 170 -125q0 -189 -201 -189q-88 0 -129 31t-41 96zM823 1384q0 187 201 187q168 0 168 -125q0 -189 -199 -189q-88 0 -129 31t-41 96z" />
<glyph unicode="&#xa9;" horiz-adv-x="1688" d="M211 359q-98 175 -98 374.5t101 375.5q102 176 276 275t374 99t375.5 -100.5t276 -275.5t100.5 -374.5t-98 -373t-272.5 -276.5t-381 -103t-380.5 102q-174 104 -273 277zM1158 1240q-136 79 -293.5 79t-296 -80t-215.5 -216t-77 -292.5t78.5 -293t214.5 -215.5 t293.5 -79t293.5 77t216 214t80 296t-79 295q-78 137 -215 215zM913 971q-81 0 -126.5 -62t-45.5 -183.5t43.5 -179t135.5 -57.5q137 0 258 68v-231q-125 -64 -273 -64q-213 0 -328.5 124.5t-115.5 346t113 343.5q114 122 321 122q167 0 332 -82l-92 -205q-114 60 -222 60z " />
<glyph unicode="&#xab;" horiz-adv-x="1276" d="M1032 1087l260 -210l-278 -306l123 -358l-334 -137l-195 506v10zM469 1081l264 -204l-266 -334l111 -330l-334 -137l-183 477v10z" />
<glyph unicode="&#xac;" horiz-adv-x="1159" d="M1057 238h-271v348h-704v272h975v-620z" />
<glyph unicode="&#xad;" horiz-adv-x="674" d="M86 705h553l-64 -312h-552z" />
<glyph unicode="&#xae;" horiz-adv-x="1688" d="M211 359q-98 175 -98 374.5t101 375.5q102 176 276 275t374 99t375.5 -100.5t276 -275.5t100.5 -374.5t-98 -373t-272.5 -276.5t-381 -103t-380.5 102q-174 104 -273 277zM1158 1240q-136 79 -293.5 79t-296 -80t-215.5 -216t-77 -292.5t78.5 -293t214.5 -215.5 t293.5 -79t293.5 77t216 214t80 296t-79 295q-78 137 -215 215zM535 1188h290q211 0 315.5 -69.5t104.5 -200.5q0 -182 -184 -250l211 -355h-285l-160 320h-12v-320h-280v875zM815 809h10q77 0 107.5 22t30.5 74.5t-33 70t-107 17.5h-8v-184z" />
<glyph unicode="&#xaf;" horiz-adv-x="922" d="M240 1800h930l-58 -246h-929z" />
<glyph unicode="&#xb0;" horiz-adv-x="864" d="M165 1125q0 89 49 173t134.5 134.5t178.5 50.5h7q98 0 183.5 -49.5t135 -136t49.5 -183.5t-49.5 -182.5t-135.5 -133.5t-183 -48h-7q-93 0 -178 49t-134.5 131.5t-49.5 172.5v11v11zM534 1247q-55 0 -93.5 -40t-38.5 -92.5t40 -90t91.5 -37.5t91.5 37.5t40 89.5t-38 92.5 t-93 40.5z" />
<glyph unicode="&#xb1;" horiz-adv-x="1159" d="M102 694v271h353v352h270v-352h352v-271h-352v-350h-270v350h-353zM102 270h975v-270h-975v270z" />
<glyph unicode="&#xb4;" horiz-adv-x="1135" d="M453 1241v23q122 101 282 305h439v-15q-44 -53 -190 -156t-247 -157h-284z" />
<glyph unicode="&#xb6;" horiz-adv-x="1317" d="M995 -260v1587h-157v-1587h-191v819q-54 -18 -125 -18q-215 0 -317.5 124t-102.5 380t109 383.5t342 127.5h633v-1816h-191z" />
<glyph unicode="&#xb7;" horiz-adv-x="627" d="M115 684q0 106 65 168.5t178 62.5q83 0 132 -41t49 -114q0 -115 -64 -172.5t-180 -57.5q-86 0 -133 40t-47 114z" />
<glyph unicode="&#xb8;" horiz-adv-x="383" d="M287 -236q0 -121 -83 -188.5t-233 -67.5q-114 0 -192 29v205q31 -9 79 -18t72 -9q68 0 68 49q0 73 -145 101l75 135h205l-24 -41q178 -37 178 -195z" />
<glyph unicode="&#xbb;" horiz-adv-x="1276" d="M244 35l-258 213l276 305l-121 358l332 138l195 -506v-11zM807 43l-264 205l266 334l-111 329l334 138l182 -478v-10z" />
<glyph unicode="&#xbf;" horiz-adv-x="999" d="M801 1001q0 -108 -65 -170.5t-179 -62.5q-87 0 -133.5 40.5t-46.5 115.5q0 108 63.5 168.5t173.5 60.5q89 0 138 -39.5t49 -112.5zM293 25q0 -70 90 -70q124 0 313 108l119 -282q-226 -135 -461 -135q-202 0 -320 90t-118 248q0 90 28 155q26 65 76.5 118.5t160.5 119.5 t154 109q42 39 56 83l15 43h315l-12 -63q-28 -155 -116 -245q-41 -44 -135 -105.5t-129.5 -97.5t-35.5 -76z" />
<glyph unicode="&#xc0;" horiz-adv-x="1384" d="M1041 1579h-236q-78 71 -150.5 157.5t-103.5 149.5v21h396q28 -154 94 -303v-25zM285 0h-406l744 1462h503l123 -1462h-381l-10 274h-448zM829 1010l-2 86q0 82 4 131q-25 -91 -61 -166l-217 -475h293z" />
<glyph unicode="&#xc1;" horiz-adv-x="1384" d="M709 1579v23q122 101 282 305h439v-15q-44 -53 -190 -156t-247 -157h-284zM285 0h-406l744 1462h503l123 -1462h-381l-10 274h-448zM829 1010l-2 86q0 82 4 131q-25 -91 -61 -166l-217 -475h293z" />
<glyph unicode="&#xc2;" horiz-adv-x="1384" d="M1335 1579h-266q-47 41 -156 174q-139 -109 -240 -174h-274v23q67 61 166.5 159.5t142.5 145.5h447q25 -59 78.5 -150.5t101.5 -154.5v-23zM285 0h-406l744 1462h503l123 -1462h-381l-10 274h-448zM829 1010l-2 86q0 82 4 131q-25 -91 -61 -166l-217 -475h293z" />
<glyph unicode="&#xc3;" horiz-adv-x="1384" d="M1036 1577q-66 0 -165 53q-73 45 -127 45q-32 0 -61.5 -28t-35.5 -72h-188q32 173 109 257.5t204 84.5q35 0 60 -6.5t94 -42.5q87 -49 133 -49q78 0 115 100h190q-34 -173 -113 -257.5t-208 -84.5h-7zM285 0h-406l744 1462h503l123 -1462h-381l-10 274h-448zM829 1010 l-2 86q0 82 4 131q-25 -91 -61 -166l-217 -475h293z" />
<glyph unicode="&#xc4;" horiz-adv-x="1384" d="M502 1722q0 187 201 187q170 0 170 -125q0 -189 -201 -189q-88 0 -129 31t-41 96zM989 1722q0 187 201 187q168 0 168 -125q0 -189 -199 -189q-88 0 -129 31t-41 96zM285 0h-406l744 1462h503l123 -1462h-381l-10 274h-448zM829 1010l-2 86q0 82 4 131q-25 -91 -61 -166 l-217 -475h293z" />
<glyph unicode="&#xc5;" horiz-adv-x="1384" d="M608 1550q0 114 73 184t193 70t195.5 -71t75.5 -181q0 -56 -18 -101l122 -1451h-381l-10 274h-448l-125 -274h-406l743 1460q-14 42 -14 90zM939 1611.5q-26 24.5 -62.5 24.5t-62.5 -24.5t-26 -61.5t24 -60.5t63.5 -23.5t64.5 24.5t25 60.5t-26 60.5zM846 586l-17 424 l-2 86q0 82 4 131q-25 -91 -61 -166l-217 -475h293z" />
<glyph unicode="&#xc6;" horiz-adv-x="1937" d="M819 0l58 274h-418l-170 -274h-414l909 1462h1213l-66 -317h-477l-47 -230h444l-71 -317h-445l-57 -276h477l-67 -322h-869zM1061 1145h-68l-331 -543h286z" />
<glyph unicode="&#xc7;" horiz-adv-x="1290" d="M881 1159q-108 0 -195 -78t-136.5 -214t-49.5 -298q0 -266 217 -266q80 0 167 20.5t201 69.5v-323q-201 -90 -438 -90l-12 -21q178 -37 178 -195q0 -121 -83 -188.5t-233 -67.5q-114 0 -192 29v205q31 -9 79 -18t72 -9q68 0 68 49q0 73 -145 101l75 135h16 q-139 35 -226 128q-140 149 -140 417.5t101 490t275 335.5t401 114q264 0 481 -131l-148 -305q-97 57 -174.5 83.5t-158.5 26.5z" />
<glyph unicode="&#xc8;" horiz-adv-x="1151" d="M933 1579h-236q-78 71 -150.5 157.5t-103.5 149.5v21h396q28 -154 94 -303v-25zM342 1462h868l-65 -317h-477l-47 -230h444l-72 -317h-444l-57 -276h477l-68 -322h-868z" />
<glyph unicode="&#xc9;" horiz-adv-x="1151" d="M578 1579v23q122 101 282 305h439v-15q-44 -53 -190 -156t-247 -157h-284zM342 1462h868l-65 -317h-477l-47 -230h444l-72 -317h-444l-57 -276h477l-68 -322h-868z" />
<glyph unicode="&#xca;" horiz-adv-x="1151" d="M1239 1579h-266q-47 41 -156 174q-139 -109 -240 -174h-274v23q67 61 166.5 159.5t142.5 145.5h447q25 -59 78.5 -150.5t101.5 -154.5v-23zM342 1462h868l-65 -317h-477l-47 -230h444l-72 -317h-444l-57 -276h477l-68 -322h-868z" />
<glyph unicode="&#xcb;" horiz-adv-x="1151" d="M383 1722q0 187 201 187q170 0 170 -125q0 -189 -201 -189q-88 0 -129 31t-41 96zM870 1722q0 187 201 187q168 0 168 -125q0 -189 -199 -189q-88 0 -129 31t-41 96zM342 1462h868l-65 -317h-477l-47 -230h444l-72 -317h-444l-57 -276h477l-68 -322h-868z" />
<glyph unicode="&#xcc;" horiz-adv-x="727" d="M749 1579h-236q-78 71 -150.5 157.5t-103.5 149.5v21h396q28 -154 94 -303v-25zM737 1462l-309 -1462h-397l309 1462h397z" />
<glyph unicode="&#xcd;" horiz-adv-x="727" d="M345 1579v23q122 101 282 305h439v-15q-44 -53 -190 -156t-247 -157h-284zM737 1462l-309 -1462h-397l309 1462h397z" />
<glyph unicode="&#xce;" horiz-adv-x="727" d="M1015 1579h-266q-47 41 -156 174q-139 -109 -240 -174h-274v23q67 61 166.5 159.5t142.5 145.5h447q25 -59 78.5 -150.5t101.5 -154.5v-23zM737 1462l-309 -1462h-397l309 1462h397z" />
<glyph unicode="&#xcf;" horiz-adv-x="727" d="M159 1722q0 187 201 187q170 0 170 -125q0 -189 -201 -189q-88 0 -129 31t-41 96zM646 1722q0 187 201 187q168 0 168 -125q0 -189 -199 -189q-88 0 -129 31t-41 96zM737 1462l-309 -1462h-397l309 1462h397z" />
<glyph unicode="&#xd1;" horiz-adv-x="1618" d="M1130 1577q-66 0 -165 53q-74 45 -127 45q-32 0 -61.5 -28t-35.5 -72h-188q32 173 109 257.5t204 84.5q35 0 60 -6.5t94 -42.5q87 -49 133 -49q78 0 115 100h190q-34 -173 -113 -257.5t-208 -84.5h-7zM575 1028h-8q-28 -290 -57 -418l-129 -610h-348l309 1462h455 l286 -983h9q29 237 57 371l131 612h348l-309 -1462h-455z" />
<glyph unicode="&#xd2;" horiz-adv-x="1509" d="M1102 1579h-236q-78 71 -150.5 157.5t-103.5 149.5v21h396q28 -154 94 -303v-25zM897 1485q260 0 404.5 -148.5t144.5 -415.5t-99.5 -486.5t-274.5 -337t-406 -117.5q-269 0 -416 149q-146 149 -146 414.5t103 486.5t280.5 338t409.5 117zM1051 918q0 115 -48.5 179 t-143.5 64t-178 -85t-132 -230.5t-49 -300.5q0 -242 200 -242q95 0 176 82t128 225t47 308z" />
<glyph unicode="&#xd3;" horiz-adv-x="1509" d="M717 1579v23q122 101 282 305h439v-15q-44 -53 -190 -156t-247 -157h-284zM897 1485q260 0 404.5 -148.5t144.5 -415.5t-99.5 -486.5t-274.5 -337t-406 -117.5q-269 0 -416 149q-146 149 -146 414.5t103 486.5t280.5 338t409.5 117zM1051 918q0 115 -48.5 179t-143.5 64 t-178 -85t-132 -230.5t-49 -300.5q0 -242 200 -242q95 0 176 82t128 225t47 308z" />
<glyph unicode="&#xd4;" horiz-adv-x="1509" d="M1368 1579h-266q-46 41 -156 174q-140 -109 -240 -174h-274v23q67 61 166.5 159.5t142.5 145.5h447q26 -59 79 -150.5t101 -154.5v-23zM897 1485q260 0 404.5 -148.5t144.5 -415.5t-99.5 -486.5t-274.5 -337t-406 -117.5q-269 0 -416 149q-146 149 -146 414.5t103 486.5 t280.5 338t409.5 117zM1051 918q0 115 -48.5 179t-143.5 64t-178 -85t-132 -230.5t-49 -300.5q0 -242 200 -242q95 0 176 82t128 225t47 308z" />
<glyph unicode="&#xd5;" horiz-adv-x="1509" d="M1066 1577q-66 0 -165 53q-73 45 -127 45q-32 0 -61.5 -28t-35.5 -72h-188q32 173 109 257.5t204 84.5q35 0 60 -6.5t94 -42.5q87 -49 133 -49q78 0 115 100h190q-34 -173 -113 -257.5t-208 -84.5h-7zM897 1485q260 0 404.5 -148.5t144.5 -415.5t-99.5 -486.5 t-274.5 -337t-406 -117.5q-269 0 -416 149q-146 149 -146 414.5t103 486.5t280.5 338t409.5 117zM1051 918q0 115 -48.5 179t-143.5 64t-178 -85t-132 -230.5t-49 -300.5q0 -242 200 -242q95 0 176 82t128 225t47 308z" />
<glyph unicode="&#xd6;" horiz-adv-x="1509" d="M512 1722q0 187 201 187q170 0 170 -125q0 -189 -201 -189q-88 0 -129 31t-41 96zM999 1722q0 187 201 187q168 0 168 -125q0 -189 -199 -189q-88 0 -129 31t-41 96zM897 1485q260 0 404.5 -148.5t144.5 -415.5t-99.5 -486.5t-274.5 -337t-406 -117.5q-269 0 -416 149 q-146 149 -146 414.5t103 486.5t280.5 338t409.5 117zM1051 918q0 115 -48.5 179t-143.5 64t-178 -85t-132 -230.5t-49 -300.5q0 -242 200 -242q95 0 176 82t128 225t47 308z" />
<glyph unicode="&#xd8;" horiz-adv-x="1509" d="M104 543q0 261 100.5 483.5t275.5 340.5t399 118q181 0 315 -72l92 115l156 -119l-99 -125q103 -142 103 -362q0 -258 -98 -480t-271.5 -342t-392.5 -120q-192 0 -324 69l-106 -135l-160 117l117 145q-107 142 -107 367zM852 1161q-94 0 -175.5 -82.5t-129 -224.5 t-47.5 -305v-10l467 589q-45 33 -115 33zM700 303q95 0 176.5 82.5t128 223.5t46.5 306l-465 -583q47 -29 114 -29z" />
<glyph unicode="&#xd9;" horiz-adv-x="1436" d="M1044 1579h-236q-78 71 -150.5 157.5t-103.5 149.5v21h396q28 -154 94 -303v-25zM565 -20q-126 0 -228.5 55.5t-157.5 153t-55 213.5v8q0 64 12 129l199 923h391l-195 -913q-14 -70 -14 -115q0 -127 121 -127q92 0 146.5 63.5t82.5 198.5l191 893h391l-199 -932 q-59 -281 -225 -415.5t-451 -134.5h-9z" />
<glyph unicode="&#xda;" horiz-adv-x="1436" d="M724 1579v23q122 101 282 305h439v-15q-44 -53 -190 -156t-247 -157h-284zM565 -20q-126 0 -228.5 55.5t-157.5 153t-55 213.5v8q0 64 12 129l199 923h391l-195 -913q-14 -70 -14 -115q0 -127 121 -127q92 0 146.5 63.5t82.5 198.5l191 893h391l-199 -932 q-59 -281 -225 -415.5t-451 -134.5h-9z" />
<glyph unicode="&#xdb;" horiz-adv-x="1436" d="M1375 1579h-266q-46 41 -156 174q-140 -109 -240 -174h-274v23q67 61 166.5 159.5t142.5 145.5h447q26 -59 79 -150.5t101 -154.5v-23zM565 -20q-126 0 -228.5 55.5t-157.5 153t-55 213.5v8q0 64 12 129l199 923h391l-195 -913q-14 -70 -14 -115q0 -127 121 -127 q92 0 146.5 63.5t82.5 198.5l191 893h391l-199 -932q-59 -281 -225 -415.5t-451 -134.5h-9z" />
<glyph unicode="&#xdc;" horiz-adv-x="1436" d="M532 1722q0 187 201 187q170 0 170 -125q0 -189 -201 -189q-88 0 -129 31t-41 96zM1019 1722q0 187 201 187q168 0 168 -125q0 -189 -199 -189q-88 0 -129 31t-41 96zM565 -20q-126 0 -228.5 55.5t-157.5 153t-55 213.5v8q0 64 12 129l199 923h391l-195 -913 q-14 -70 -14 -115q0 -127 121 -127q92 0 146.5 63.5t82.5 198.5l191 893h391l-199 -932q-59 -281 -225 -415.5t-451 -134.5h-9z" />
<glyph unicode="&#xdf;" horiz-adv-x="1460" d="M-53 -492q-109 0 -207 27v303q63 -18 126.5 -18t101.5 29.5t52 95.5l244 1151q52 249 200.5 360t405 111t393 -99t136.5 -274q0 -118 -51.5 -198.5t-165 -134t-113.5 -99.5q0 -28 20 -51q23 -23 88 -56q96 -51 140.5 -118.5t44.5 -163.5q0 -179 -132.5 -286t-367.5 -107 q-161 0 -274 45v299q61 -30 136.5 -46t132.5 -16t86.5 21t29.5 51.5t-20.5 53.5t-111 81.5t-129 114t-38.5 138t42 141.5t165 126q70 39 99.5 75t29.5 87t-41.5 82t-118.5 31t-131 -50.5t-74 -146.5l-252 -1184q-43 -191 -153 -283t-293 -92z" />
<glyph unicode="&#xe0;" d="M890 1241h-236q-78 71 -150.5 157.5t-103.5 149.5v21h396q28 -154 94 -303v-25zM406 -20q-158 0 -240 111t-82 321q0 180 72.5 364.5t184 280.5t247.5 96q85 0 148.5 -38t113.5 -122h8l53 140h310l-240 -1133h-309l10 123h-8q-55 -76 -119.5 -109.5t-148.5 -33.5z M565 291q50 0 95 57.5t72.5 156.5t27.5 179q0 158 -82 158q-77 0 -138 -126t-61 -275.5t86 -149.5z" />
<glyph unicode="&#xe1;" d="M531 1241v23q122 101 282 305h439v-15q-44 -53 -190 -156t-247 -157h-284zM406 -20q-158 0 -240 111t-82 321q0 180 72.5 364.5t184 280.5t247.5 96q85 0 148.5 -38t113.5 -122h8l53 140h310l-240 -1133h-309l10 123h-8q-55 -76 -119.5 -109.5t-148.5 -33.5zM565 291 q50 0 95 57.5t72.5 156.5t27.5 179q0 158 -82 158q-77 0 -138 -126t-61 -275.5t86 -149.5z" />
<glyph unicode="&#xe2;" d="M1198 1238h-266q-46 40 -156 174q-140 -110 -240 -174h-274v23q67 61 166.5 159.5t142.5 145.5h447q26 -58 79 -150t101 -155v-23zM406 -20q-158 0 -240 111t-82 321q0 180 72.5 364.5t184 280.5t247.5 96q85 0 148.5 -38t113.5 -122h8l53 140h310l-240 -1133h-309 l10 123h-8q-55 -76 -119.5 -109.5t-148.5 -33.5zM565 291q50 0 95 57.5t72.5 156.5t27.5 179q0 158 -82 158q-77 0 -138 -126t-61 -275.5t86 -149.5z" />
<glyph unicode="&#xe3;" d="M878 1239q-66 0 -165 53q-74 45 -127 45q-32 0 -61.5 -28t-35.5 -72h-188q32 173 109 257.5t204 84.5q35 0 60 -6.5t94 -42.5q87 -49 133 -49q78 0 115 100h190q-34 -173 -113 -257.5t-208 -84.5h-7zM406 -20q-158 0 -240 111t-82 321q0 180 72.5 364.5t184 280.5 t247.5 96q85 0 148.5 -38t113.5 -122h8l53 140h310l-240 -1133h-309l10 123h-8q-55 -76 -119.5 -109.5t-148.5 -33.5zM565 291q50 0 95 57.5t72.5 156.5t27.5 179q0 158 -82 158q-77 0 -138 -126t-61 -275.5t86 -149.5z" />
<glyph unicode="&#xe4;" d="M331 1384q0 187 201 187q170 0 170 -125q0 -189 -201 -189q-88 0 -129 31t-41 96zM818 1384q0 187 201 187q168 0 168 -125q0 -189 -199 -189q-88 0 -129 31t-41 96zM406 -20q-158 0 -240 111t-82 321q0 180 72.5 364.5t184 280.5t247.5 96q85 0 148.5 -38t113.5 -122h8 l53 140h310l-240 -1133h-309l10 123h-8q-55 -76 -119.5 -109.5t-148.5 -33.5zM565 291q50 0 95 57.5t72.5 156.5t27.5 179q0 158 -82 158q-77 0 -138 -126t-61 -275.5t86 -149.5z" />
<glyph unicode="&#xe5;" d="M561 1673q73 70 193 70t195.5 -70.5t75.5 -182.5t-74 -182.5t-194.5 -70.5t-194.5 68.5t-74 183t73 184.5zM820 1429.5q25 24.5 25 60.5t-26 60.5t-62.5 24.5t-62.5 -24.5t-26 -61.5t24 -60.5t63.5 -23.5t64.5 24.5zM406 -20q-158 0 -240 111t-82 321q0 180 72.5 364.5 t184 280.5t247.5 96q85 0 148.5 -38t113.5 -122h8l53 140h310l-240 -1133h-309l10 123h-8q-55 -76 -119.5 -109.5t-148.5 -33.5zM565 291q50 0 95 57.5t72.5 156.5t27.5 179q0 158 -82 158q-77 0 -138 -126t-61 -275.5t86 -149.5z" />
<glyph unicode="&#xe6;" horiz-adv-x="1788" d="M1192 -20q-180 0 -262 112l-31 -92h-227l10 123h-8q-55 -76 -119.5 -109.5t-148.5 -33.5q-158 0 -240 111t-82 321q0 180 72.5 364.5t184 280.5t247.5 96q91 0 151 -37.5t111 -122.5h8l53 140h207v-95q57 55 131 85t148 30q157 0 251.5 -86.5t94.5 -228.5 q0 -201 -157 -308.5t-451 -107.5h-60v-16q0 -148 164 -148q78 0 154 23t174 75v-274q-96 -57 -180 -79.5t-195 -22.5zM1143 664q108 0 170.5 41t62.5 110q0 34 -21 55t-63 21q-62 0 -115 -70.5t-63 -156.5h29zM565 291q75 0 134 123.5t59 283.5q0 66 -23.5 105t-69 39 t-89 -58t-70.5 -155t-27 -195q0 -143 86 -143z" />
<glyph unicode="&#xe7;" horiz-adv-x="1032" d="M709 846q-63 0 -115 -48t-86.5 -142.5t-34.5 -187t30 -135t95 -42.5q119 0 283 86v-307q-159 -87 -363 -90l-12 -21q178 -37 178 -195q0 -121 -83 -188.5t-233 -67.5q-114 0 -192 29v205q31 -9 79 -18t72 -9q68 0 68 49q0 73 -145 101l75 135h33q-96 29 -163 100 q-111 122 -111 333t76 373.5t215 254.5q140 92 324 92t358 -80l-123 -287q-134 60 -225 60z" />
<glyph unicode="&#xe8;" horiz-adv-x="1186" d="M919 1241h-236q-78 71 -150.5 157.5t-103.5 149.5v21h396q28 -154 94 -303v-25zM532 -20q-212 0 -330 118t-118 328.5t83.5 380.5t228.5 258t335.5 88t300 -85.5t109.5 -229.5q0 -201 -156.5 -308.5t-452.5 -107.5h-59v-16q0 -148 164 -148q78 0 154 23t174 75v-274 q-115 -58 -209.5 -80t-223.5 -22zM541 664q108 0 170.5 41t62.5 110q0 34 -21 55t-63 21q-62 0 -115 -70.5t-63 -156.5h29z" />
<glyph unicode="&#xe9;" horiz-adv-x="1186" d="M523 1241v23q122 101 282 305h439v-15q-44 -53 -190 -156t-247 -157h-284zM532 -20q-212 0 -330 118t-118 328.5t83.5 380.5t228.5 258t335.5 88t300 -85.5t109.5 -229.5q0 -201 -156.5 -308.5t-452.5 -107.5h-59v-16q0 -148 164 -148q78 0 154 23t174 75v-274 q-115 -58 -209.5 -80t-223.5 -22zM541 664q108 0 170.5 41t62.5 110q0 34 -21 55t-63 21q-62 0 -115 -70.5t-63 -156.5h29z" />
<glyph unicode="&#xea;" horiz-adv-x="1186" d="M1213 1241h-266q-47 41 -156 174q-139 -109 -240 -174h-274v23q67 61 166.5 159.5t142.5 145.5h447q25 -59 78.5 -150.5t101.5 -154.5v-23zM532 -20q-212 0 -330 118t-118 328.5t83.5 380.5t228.5 258t335.5 88t300 -85.5t109.5 -229.5q0 -201 -156.5 -308.5 t-452.5 -107.5h-59v-16q0 -148 164 -148q78 0 154 23t174 75v-274q-115 -58 -209.5 -80t-223.5 -22zM541 664q108 0 170.5 41t62.5 110q0 34 -21 55t-63 21q-62 0 -115 -70.5t-63 -156.5h29z" />
<glyph unicode="&#xeb;" horiz-adv-x="1186" d="M336 1384q0 187 201 187q170 0 170 -125q0 -189 -201 -189q-88 0 -129 31t-41 96zM823 1384q0 187 201 187q168 0 168 -125q0 -189 -199 -189q-88 0 -129 31t-41 96zM532 -20q-212 0 -330 118t-118 328.5t83.5 380.5t228.5 258t335.5 88t300 -85.5t109.5 -229.5 q0 -201 -156.5 -308.5t-452.5 -107.5h-59v-16q0 -148 164 -148q78 0 154 23t174 75v-274q-115 -58 -209.5 -80t-223.5 -22zM541 664q108 0 170.5 41t62.5 110q0 34 -21 55t-63 21q-62 0 -115 -70.5t-63 -156.5h29z" />
<glyph unicode="&#xec;" horiz-adv-x="666" d="M657 1241h-236q-78 71 -150.5 157.5t-103.5 149.5v21h396q28 -154 94 -303v-25zM23 0l239 1133h389l-241 -1133h-387z" />
<glyph unicode="&#xed;" horiz-adv-x="666" d="M294 1241v23q122 101 282 305h439v-15q-44 -53 -190 -156t-247 -157h-284zM262 1133h389l-241 -1133h-387z" />
<glyph unicode="&#xee;" horiz-adv-x="666" d="M929 1241h-266q-47 41 -156 174q-139 -109 -240 -174h-274v23q67 61 166.5 159.5t142.5 145.5h447q25 -59 78.5 -150.5t101.5 -154.5v-23zM262 1133h389l-241 -1133h-387z" />
<glyph unicode="&#xef;" horiz-adv-x="666" d="M91 1384q0 187 201 187q170 0 170 -125q0 -189 -201 -189q-88 0 -129 31t-41 96zM578 1384q0 187 201 187q168 0 168 -125q0 -189 -199 -189q-88 0 -129 31t-41 96zM262 1133h389l-241 -1133h-387z" />
<glyph unicode="&#xf1;" horiz-adv-x="1274" d="M896 1239q-66 0 -165 53q-73 45 -127 45q-32 0 -61.5 -28t-35.5 -72h-188q32 173 109 257.5t204 84.5q35 0 60 -6.5t94 -42.5q87 -49 133 -49q78 0 115 100h190q-34 -173 -113 -257.5t-208 -84.5h-7zM768 618q18 78 18 130.5t-21.5 75t-53.5 22.5q-59 0 -107 -73 t-78 -220l-116 -553h-387l239 1133h309l-12 -158h8q54 94 128.5 136t183.5 42q141 0 220 -85.5t79 -236.5q0 -108 -25 -229l-127 -602h-387z" />
<glyph unicode="&#xf2;" d="M894 1241h-236q-78 71 -150.5 157.5t-103.5 149.5v21h396q28 -154 94 -303v-25zM855 73.5q-145 -93.5 -344.5 -93.5t-313 113t-113.5 323.5t80 380.5t224 263t344 93t313.5 -113t113.5 -322.5t-79.5 -380t-224.5 -264zM678 862q-82 0 -140.5 -139t-58.5 -320 q0 -133 84 -133q81 0 141 139t60 320q0 65 -23 99t-63 34z" />
<glyph unicode="&#xf3;" d="M533 1241v23q122 101 282 305h439v-15q-44 -53 -190 -156t-247 -157h-284zM855 73.5q-145 -93.5 -344.5 -93.5t-313 113t-113.5 323.5t80 380.5t224 263t344 93t313.5 -113t113.5 -322.5t-79.5 -380t-224.5 -264zM678 862q-82 0 -140.5 -139t-58.5 -320q0 -133 84 -133 q81 0 141 139t60 320q0 65 -23 99t-63 34z" />
<glyph unicode="&#xf4;" d="M1183 1241h-266q-47 41 -156 174q-139 -109 -240 -174h-274v23q67 61 166.5 159.5t142.5 145.5h447q25 -59 78.5 -150.5t101.5 -154.5v-23zM855 73.5q-145 -93.5 -344.5 -93.5t-313 113t-113.5 323.5t80 380.5t224 263t344 93t313.5 -113t113.5 -322.5t-79.5 -380 t-224.5 -264zM678 862q-82 0 -140.5 -139t-58.5 -320q0 -133 84 -133q81 0 141 139t60 320q0 65 -23 99t-63 34z" />
<glyph unicode="&#xf5;" d="M854 1239q-66 0 -165 53q-73 45 -127 45q-32 0 -61.5 -28t-35.5 -72h-188q32 173 109 257.5t204 84.5q35 0 60 -6.5t94 -42.5q87 -49 133 -49q78 0 115 100h190q-34 -173 -113 -257.5t-208 -84.5h-7zM855 73.5q-145 -93.5 -344.5 -93.5t-313 113t-113.5 323.5t80 380.5 t224 263t344 93t313.5 -113t113.5 -322.5t-79.5 -380t-224.5 -264zM678 862q-82 0 -140.5 -139t-58.5 -320q0 -133 84 -133q81 0 141 139t60 320q0 65 -23 99t-63 34z" />
<glyph unicode="&#xf6;" d="M317 1384q0 187 201 187q170 0 170 -125q0 -189 -201 -189q-88 0 -129 31t-41 96zM804 1384q0 187 201 187q168 0 168 -125q0 -189 -199 -189q-88 0 -129 31t-41 96zM855 73.5q-145 -93.5 -344.5 -93.5t-313 113t-113.5 323.5t80 380.5t224 263t344 93t313.5 -113 t113.5 -322.5t-79.5 -380t-224.5 -264zM678 862q-82 0 -140.5 -139t-58.5 -320q0 -133 84 -133q81 0 141 139t60 320q0 65 -23 99t-63 34z" />
<glyph unicode="&#xf7;" horiz-adv-x="1159" d="M474 945q-42 46 -42 127.5t41 126t116 44.5t115.5 -44.5t40.5 -126.5t-41.5 -127.5t-114.5 -45.5t-115 46zM102 858h975v-272h-975v272zM474 247q-42 46 -42 127.5t41 126t116 44.5t115.5 -44.5t40.5 -126.5t-41.5 -127.5t-114.5 -45.5t-115 46z" />
<glyph unicode="&#xf8;" horiz-adv-x="1286" d="M1202 717q0 -209 -81 -378.5t-229.5 -264t-342.5 -94.5q-128 0 -238 49l-118 -140l-127 109l112 131q-94 116 -94 287q0 208 81.5 378.5t231 264.5t346.5 94q136 0 250 -57l105 121l127 -109l-105 -123q82 -113 82 -268zM696 877q-97 0 -172 -124t-75 -302l335 397 q-35 29 -82 29h-6zM590 260q108 0 172.5 102t73.5 287l-318 -375q30 -14 72 -14z" />
<glyph unicode="&#xf9;" horiz-adv-x="1274" d="M902 1241h-236q-78 71 -150.5 157.5t-103.5 149.5v21h396q28 -154 94 -303v-25zM506 516q-19 -80 -19 -131.5t21.5 -73.5t54.5 -22q59 0 107 78t78 215l116 551h387l-239 -1133h-310l13 158h-8q-54 -93 -128.5 -135.5t-183.5 -42.5q-141 0 -220 85.5t-79 235.5 q0 108 25 229l127 603h387z" />
<glyph unicode="&#xfa;" horiz-adv-x="1274" d="M584 1241v23q122 101 282 305h439v-15q-44 -53 -190 -156t-247 -157h-284zM506 516q-19 -80 -19 -131.5t21.5 -73.5t54.5 -22q59 0 107 78t78 215l116 551h387l-239 -1133h-310l13 158h-8q-54 -93 -128.5 -135.5t-183.5 -42.5q-141 0 -220 85.5t-79 235.5q0 108 25 229 l127 603h387z" />
<glyph unicode="&#xfb;" horiz-adv-x="1274" d="M1221 1241h-266q-47 41 -156 174q-139 -109 -240 -174h-274v23q67 61 166.5 159.5t142.5 145.5h447q25 -59 78.5 -150.5t101.5 -154.5v-23zM506 516q-19 -80 -19 -131.5t21.5 -73.5t54.5 -22q59 0 107 78t78 215l116 551h387l-239 -1133h-310l13 158h-8 q-54 -93 -128.5 -135.5t-183.5 -42.5q-141 0 -220 85.5t-79 235.5q0 108 25 229l127 603h387z" />
<glyph unicode="&#xfc;" horiz-adv-x="1274" d="M371 1384q0 187 201 187q170 0 170 -125q0 -189 -201 -189q-88 0 -129 31t-41 96zM858 1384q0 187 201 187q168 0 168 -125q0 -189 -199 -189q-88 0 -129 31t-41 96zM506 516q-19 -80 -19 -131.5t21.5 -73.5t54.5 -22q59 0 107 78t78 215l116 551h387l-239 -1133h-310 l13 158h-8q-54 -93 -128.5 -135.5t-183.5 -42.5q-141 0 -220 85.5t-79 235.5q0 108 25 229l127 603h387z" />
<glyph unicode="&#xff;" horiz-adv-x="1114" d="M259 1384q0 187 201 187q170 0 170 -125q0 -189 -201 -189q-88 0 -129 31t-41 96zM746 1384q0 187 201 187q168 0 168 -125q0 -189 -199 -189q-88 0 -129 31t-41 96zM516 422h8q40 140 55.5 179.5t233.5 531.5h416l-670 -1276q-96 -185 -223 -267t-311 -82q-91 0 -154 17 v307q47 -12 121 -12t130 36t99 115l23 41l-162 1121h389l43 -562l2 -62v-87z" />
<glyph unicode="&#x131;" horiz-adv-x="666" d="M23 0l239 1133h389l-241 -1133h-387z" />
<glyph unicode="&#x152;" horiz-adv-x="1909" d="M647 -20q-256 0 -400 146q-143 148 -143 402q0 198 58 379.5t164.5 312t253 198t323.5 67.5q91 0 191 -23h874l-67 -319h-478l-47 -225h445l-72 -322h-444l-58 -272h477l-65 -324h-815q-106 -20 -197 -20zM1024 1112q-52 49 -151 49t-186 -88q-87 -90 -137 -236.5 t-50 -310.5q0 -217 182 -217q95 0 180 41z" />
<glyph unicode="&#x153;" horiz-adv-x="1802" d="M1149 -20q-204 0 -295 112q-124 -112 -333.5 -112t-323 113t-113.5 323t79 381t218 263.5t322.5 92.5t273.5 -125q145 125 373 125q187 0 297 -86t110 -229q0 -203 -156.5 -309.5t-451.5 -106.5h-59v-16q0 -148 163 -148q78 0 154 23t174 75v-274q-111 -57 -208 -79.5 t-224 -22.5zM1157 664q109 0 171.5 40.5t62.5 110.5q0 34 -21.5 55t-62.5 21q-60 0 -112.5 -67.5t-66.5 -159.5h29zM678 862q-82 0 -140.5 -139t-58.5 -320q0 -133 84 -133q81 0 141 139t60 320q0 65 -23 99t-63 34z" />
<glyph unicode="&#x178;" horiz-adv-x="1237" d="M397 1722q0 187 201 187q170 0 170 -125q0 -189 -201 -189q-88 0 -129 31t-41 96zM884 1722q0 187 201 187q168 0 168 -125q0 -189 -199 -189q-88 0 -129 31t-41 96zM1405 1462l-612 -895l-121 -567h-391l120 567l-237 895h403l90 -542l312 542h436z" />
<glyph unicode="&#x192;" horiz-adv-x="1188" d="M154 -492q-110 0 -207 27v307q55 -18 116 -18q140 0 166 125l166 788h-151l39 203l178 90l20 88q43 188 148 276.5t291 88.5q147 0 266 -58l-105 -282q-67 33 -133.5 33t-81.5 -64l-18 -78h209l-66 -297h-207l-182 -854q-39 -184 -153.5 -279.5t-294.5 -95.5z" />
<glyph unicode="&#x2c6;" horiz-adv-x="1135" d="M1190 1241h-266q-46 41 -156 174q-140 -109 -240 -174h-274v23q67 61 166.5 159.5t142.5 145.5h447q26 -59 79 -150.5t101 -154.5v-23z" />
<glyph unicode="&#x2c7;" horiz-adv-x="1135" d="M322 1569h266q40 -35 155 -174q139 109 240 174h274v-23q-133 -112 -309 -305h-446q-34 75 -88 165.5t-92 139.5v23z" />
<glyph unicode="&#x2d8;" horiz-adv-x="1135" d="M756 1241q-167 0 -262 83.5t-95 231.5q0 38 9 56h217q0 -64 43.5 -96.5t119.5 -32.5q159 0 201 129h221q-31 -188 -143 -279.5t-311 -91.5z" />
<glyph unicode="&#x2d9;" horiz-adv-x="680" d="M319 1382q0 209 228 209q190 0 190 -141q0 -209 -227 -209q-191 0 -191 141z" />
<glyph unicode="&#x2da;" horiz-adv-x="1182" d="M595 1673q73 70 193 70t195.5 -70.5t75.5 -182.5t-74 -182.5t-194.5 -70.5t-194.5 68.5t-74 183t73 184.5zM854 1429.5q25 24.5 25 60.5t-26 60.5t-62.5 24.5t-62.5 -24.5t-26 -61.5t24 -60.5t63.5 -23.5t64.5 24.5z" />
<glyph unicode="&#x2db;" horiz-adv-x="453" d="M88 -246q0 -21 14 -36t39 -15q48 0 117 25v-222q-94 -30 -203 -30t-177 60t-68 151.5t50.5 164.5t166.5 148h252q-91 -74 -128 -113q-63 -71 -63 -133z" />
<glyph unicode="&#x2dc;" horiz-adv-x="1135" d="M878 1239q-66 0 -165 53q-74 45 -127 45q-32 0 -61.5 -28t-35.5 -72h-188q32 173 109 257.5t204 84.5q35 0 60 -6.5t94 -42.5q87 -49 133 -49q78 0 115 100h190q-34 -173 -113 -257.5t-208 -84.5h-7z" />
<glyph unicode="&#x2dd;" horiz-adv-x="1135" d="M211 1241v29q45 54 112 144t105 155h371v-21q-43 -70 -385 -307h-203zM1253 1569v-21q-49 -81 -376 -307h-203v29l49 67q115 154 158 232h372z" />
<glyph unicode="&#x5b0;" horiz-adv-x="0" d="M600 -124q30 23 73.5 23t60.5 -20t17 -38q0 -60 -41 -92q-30 -23 -73.5 -23t-60.5 19.5t-17 36.5q0 62 41 94zM549 -366q30 24 73.5 24t60.5 -20t17 -37q0 -61 -41 -93q-30 -23 -73.5 -23t-60.5 19.5t-17 37.5q0 60 41 92z" />
<glyph unicode="&#x5b1;" horiz-adv-x="0" d="M422 -116q43 0 60.5 -20t17.5 -38q0 -61 -42 -92q-30 -23 -73 -23t-60 19.5t-17 36.5q0 62 41 93q30 24 73 24zM645 -139q30 23 73.5 23t61.5 -20.5t18 -38.5q0 -60 -42 -91q-31 -23 -75 -23t-60.5 19t-16.5 36q0 64 41 95zM911 -140q30 24 73.5 24t60.5 -20t17 -38 q0 -60 -41 -92q-30 -23 -73.5 -23t-60.5 19.5t-17 36.5q0 62 41 93zM523 -357q43 0 60 -20t17 -37q0 -61 -41 -92q-30 -24 -73.5 -24t-60 19.5t-16.5 37.5q0 61 41 93q30 23 73 23zM860 -380q30 23 73.5 23t60.5 -20t17 -37q0 -61 -41 -92q-30 -24 -73.5 -24t-60.5 19.5 t-17 37.5q0 60 41 93z" />
<glyph unicode="&#x5b2;" horiz-adv-x="0" d="M940 -116q43 0 60 -20t17 -38q0 -60 -41 -92q-30 -23 -73.5 -23t-60 19.5t-16.5 36.5t3 30q8 41 38 64t73 23zM732 -259h-367l24 117h367zM889 -357q43 0 60 -20t17 -37q0 -61 -41 -92q-30 -24 -73.5 -24t-60 19.5t-16.5 37.5q0 61 41 93q30 23 73 23z" />
<glyph unicode="&#x5b3;" horiz-adv-x="0" d="M870 -140q30 24 73.5 24t60.5 -20t17 -38q0 -60 -41 -92q-30 -23 -73.5 -23t-60.5 19.5t-17 36.5q0 62 41 93zM732 -259h-128l-43 -202h-111l43 202h-128l24 117h367zM819 -380q30 23 73.5 23t60.5 -20t17 -37q0 -61 -41 -92q-30 -24 -73.5 -24t-60.5 19.5t-17 37.5 q0 60 41 93z" />
<glyph unicode="&#x5b4;" horiz-adv-x="0" d="M572 -134q30 23 73.5 23t61.5 -20.5t18 -38.5q0 -59 -41 -90q-31 -24 -75 -24t-61 19t-17 37q0 63 41 94z" />
<glyph unicode="&#x5b5;" horiz-adv-x="0" d="M498 -92q43 0 60 -20t17 -38q0 -60 -40 -92q-30 -23 -73.5 -23t-60.5 19.5t-17 37t3 29.5q8 41 38 64t73 23zM720 -115q30 23 74 23t62 -20.5t18 -38.5q0 -59 -41 -91q-31 -23 -75 -23t-61.5 19.5t-17.5 37t3 29.5q8 41 38 64z" />
<glyph unicode="&#x5b6;" horiz-adv-x="0" d="M524 -116q43 0 60 -20t17 -38q0 -60 -41 -92q-30 -23 -73.5 -23t-60 19.5t-16.5 36.5t3 30q8 41 38 64t73 23zM746 -139q30 23 74 23t62 -20.5t18 -38.5q0 -60 -42 -91q-31 -23 -75 -23t-61 19t-17 37q0 63 41 94zM551 -380q30 23 73.5 23t60.5 -20t17 -37q0 -61 -41 -92 q-30 -24 -73.5 -24t-60.5 19.5t-17 37.5q0 60 41 93z" />
<glyph unicode="&#x5b7;" horiz-adv-x="0" d="M813 -234h-393l24 116h393z" />
<glyph unicode="&#x5b8;" horiz-adv-x="0" d="M829 -255h-136l-43 -202h-111l43 202h-135l25 117h382z" />
<glyph unicode="&#x5b9;" horiz-adv-x="0" d="M573 1560q30 23 73.5 23t61.5 -20.5t18 -38.5q0 -59 -41 -90q-31 -24 -75 -24t-61 19t-17 37q0 63 41 94z" />
<glyph unicode="&#x5ba;" horiz-adv-x="0" d="M573 1560q30 23 73.5 23t61.5 -20.5t18 -38.5q0 -59 -41 -90q-31 -24 -75 -24t-61 19t-17 37q0 63 41 94z" />
<glyph unicode="&#x5bb;" horiz-adv-x="0" d="M542 -127q43 0 59.5 -20t16.5 -38q0 -61 -40 -92q-30 -23 -73.5 -23t-60 19.5t-16.5 37.5q0 61 41 93q30 23 73 23zM612 -326q30 23 73.5 23t60.5 -20t17 -38q0 -60 -40 -91q-30 -24 -73.5 -24t-61 19.5t-17.5 36.5q0 62 41 94zM760 -501q30 23 73.5 23t61.5 -20.5 t18 -38.5q0 -59 -42 -91q-31 -23 -75 -23t-60.5 19t-16.5 36q0 64 41 95z" />
<glyph unicode="&#x5bc;" horiz-adv-x="0" d="M572 720q30 23 73.5 23t61.5 -20.5t18 -38.5q0 -59 -41 -90q-31 -24 -75 -24t-61 19t-17 37q0 63 41 94z" />
<glyph unicode="&#x5bd;" horiz-adv-x="1256" d="M642 -509h-103l74 352h103z" />
<glyph unicode="&#x5be;" horiz-adv-x="651" d="M575 982h-565l66 313h565z" />
<glyph unicode="&#x5c1;" horiz-adv-x="0" d="M520 1560q30 23 73.5 23t61.5 -20.5t18 -38.5q0 -59 -41 -90q-31 -24 -75 -24t-61 19t-17 37q0 63 41 94z" />
<glyph unicode="&#x5c2;" horiz-adv-x="0" d="M573 1560q30 23 73.5 23t61.5 -20.5t18 -38.5q0 -59 -41 -90q-31 -24 -75 -24t-61 19t-17 37q0 63 41 94z" />
<glyph unicode="&#x5c7;" horiz-adv-x="0" d="M535 -210h-161l-49 -234h-93l49 234h-156l21 100h410z" />
<glyph unicode="&#x5d0;" horiz-adv-x="1378" d="M1396 1295l-100 -471q-33 -160 -114 -248q-32 -35 -84.5 -69t-119.5 -57q125 -298 190 -450h-433l-226 584q-26 -29 -43 -110l-101 -474h-387l100 471q13 60 31 107t53 100q73 110 238 168q-153 360 -190 449h432l165 -438l61 -144q24 36 39 108l101 474h388z" />
<glyph unicode="&#x5d1;" horiz-adv-x="1196" d="M1016 1220q34 -32 51.5 -68.5t20 -72.5t2.5 -62q0 -68 -24 -178l-115 -540h141l-64 -299h-1086l64 299h557l111 523q7 33 7 61q0 132 -163 132q-125 0 -302 -17l-63 -6l63 297q127 26 413 26t387 -95z" />
<glyph unicode="&#x5d2;" horiz-adv-x="984" d="M315 1283q133 32 234 32t160 -11t98.5 -30t64.5 -49q53 -61 53 -163q0 -59 -21 -160l-192 -902h-291l-22 182h-17q-20 -26 -61.5 -65.5t-80 -66t-96 -48.5t-98.5 -22q-64 0 -134 20l106 343q65 -15 125 -15q109 0 191 53.5t107 167.5l71 335q7 31 7 55q0 70 -63 70 q-89 0 -177 -22l-28 -7z" />
<glyph unicode="&#x5d3;" horiz-adv-x="1135" d="M1254 1295l-59 -274q-106 -38 -151.5 -86.5t-68.5 -155.5l-166 -779h-388l167 786q29 132 138 210h-621l64 299h1085z" />
<glyph unicode="&#x5d4;" horiz-adv-x="1349" d="M1206 1214q34 -34 51 -72.5t19.5 -75t2.5 -63.5q0 -67 -25 -181l-175 -822h-389l175 822q7 33 7 61q0 132 -162 132q-177 0 -422 -26l-84 -9l63 297q246 38 543 38t396 -101zM383 0h-387l161 755h387z" />
<glyph unicode="&#x5d5;" horiz-adv-x="658" d="M385 0h-388l276 1295h388z" />
<glyph unicode="&#x5d6;" horiz-adv-x="731" d="M846 1295l-60 -279q-59 -40 -110 -102.5t-82 -117.5t-52 -120q-34 -103 -61 -231l-95 -445h-388l95 445q79 373 330 551h-257l64 299h616z" />
<glyph unicode="&#x5d7;" horiz-adv-x="1349" d="M812 1315q342 0 425 -128q44 -67 44 -161.5t-27 -203.5l-175 -822h-389l175 822q7 33 7 61q0 132 -162 132q-52 0 -112 -3l-215 -1012h-388l272 1277q246 38 545 38z" />
<glyph unicode="&#x5d8;" horiz-adv-x="1351" d="M793 1302q87 13 163.5 13t145.5 -19q149 -40 188 -182q17 -59 17 -143q0 -124 -38 -306q-69 -325 -258.5 -504.5t-467.5 -179.5q-156 0 -264 81.5t-149 233.5q-19 73 -19 164.5t23 204.5l134 630h389l-134 -630q-25 -117 -25 -198q0 -176 120 -176q91 0 155 88.5 t106 285.5q26 124 26 182.5t-9 85.5q-22 75 -117 75l-50 -5z" />
<glyph unicode="&#x5d9;" horiz-adv-x="635" d="M522 691l-273 -272h-173l186 876h388z" />
<glyph unicode="&#x5da;" horiz-adv-x="1108" d="M582 1315q209 0 313 -87q102 -85 122 -216q7 -49 7 -83q0 -98 -21 -200l-259 -1221h-387l260 1223q16 75 16 107.5t-5 64.5t-26 56q-47 54 -168 54q-130 0 -278 -13l-50 -5l65 304q173 16 411 16z" />
<glyph unicode="&#x5db;" horiz-adv-x="1104" d="M616 1315q210 0 313.5 -86.5t122.5 -216.5q7 -49 7 -83q0 -98 -21 -200l-35 -164q-20 -96 -49 -174.5t-82 -157.5t-123.5 -132.5t-177 -87t-239.5 -33.5q-263 0 -402 27l64 303q152 -18 367 -18q108 0 167.5 72.5t86.5 200.5l36 166q16 74 16 107t-5.5 65t-26 55.5 t-62.5 39t-106 15.5q-129 0 -277 -13l-50 -5l64 304q174 16 412 16z" />
<glyph unicode="&#x5dc;" horiz-adv-x="1131" d="M580 1295h652l-50 -237l-293 -577l2 1l-212 -482h-382l218 495l256 501h-642l118 555h388z" />
<glyph unicode="&#x5dd;" horiz-adv-x="1349" d="M267 1277q246 37 542.5 37t401.5 -99q72 -67 72 -197q0 -61 -16 -135l-188 -883h-1084zM884 925q0 43 -33 63q-44 26 -141 26l-112 -4l-151 -711h307l127 596q3 16 3 30z" />
<glyph unicode="&#x5de;" horiz-adv-x="1425" d="M581 1295q22 -59 16 -132h14q113 97 265 135q65 17 147.5 17t152 -29.5t106.5 -79.5q60 -81 60 -232q0 -99 -32 -245l-155 -729h-626l64 299h231l91 430q30 145 17 195q-15 58 -57 74q-25 9 -71 9t-102 -33.5t-84 -66.5l-29 -33l-261 -874h-382l249 818q57 173 57 333 q0 71 -11 144h340z" />
<glyph unicode="&#x5df;" horiz-adv-x="619" d="M560 1295q5 -40 5 -85t-6.5 -156t-32.5 -233l-275 -1294h-389l275 1294q41 188 41 367q0 30 -2 50l-5 57h389z" />
<glyph unicode="&#x5e0;" horiz-adv-x="905" d="M265 1299q84 16 207 16t193 -23t108 -62q68 -69 68 -199q0 -64 -18 -148l-102 -478q-20 -94 -52.5 -195.5t-55.5 -155.5l-23 -54h-658l64 299h303q22 49 34 106l102 478q5 31 4 58.5t-19.5 47t-50.5 19.5q-68 0 -141 -10l-27 -3z" />
<glyph unicode="&#x5e1;" horiz-adv-x="1308" d="M236 1292q288 23 558.5 23t382.5 -175q70 -110 70 -276q0 -98 -25 -217q-67 -314 -256 -490t-458 -176t-380 174q-68 108 -68 271q0 100 26 221q46 214 193 346l-108 -7zM854 842q0 172 -122 172l-79 -4q-128 -140 -174 -363q-25 -114 -25 -191q0 -167 124 -167 q91 0 151.5 87t99.5 271q25 116 25 195z" />
<glyph unicode="&#x5e2;" horiz-adv-x="1314" d="M1373 1295l-172 -570q-52 -176 -121 -288q-219 -362 -713 -437l-462 -70l65 308l321 47l-59 1010h387l38 -562l-4 -324q93 88 157 298l177 588h386z" />
<glyph unicode="&#x5e3;" horiz-adv-x="1309" d="M111 569q-18 33 -26 70.5t-8 63t0.5 55t13.5 90.5q22 105 74.5 187.5t119 134t150.5 84.5q150 61 323 61q199 0 313 -87q42 -32 76 -84q64 -100 64 -264q0 -106 -27 -232l-242 -1140h-393l242 1140q33 150 33 224q0 52 -24 91q-26 43 -108 43q-47 0 -85 -13.5t-59 -30.5 t-36 -40q-19 -31 -27 -64q-4 -30 -4 -51.5t9.5 -38.5t18.5 -28t23 -19q23 -13 43 -17l79 -17l-121 -276l-96 3q-246 9 -326 155z" />
<glyph unicode="&#x5e4;" horiz-adv-x="1308" d="M123 640q-8 38 -8 63.5t0.5 54.5t13.5 90q22 105 74.5 187.5t119 134t149.5 84.5q151 61 324 61q199 0 313 -87q42 -32 75 -84q65 -100 65 -264q0 -106 -30.5 -250t-87 -264.5t-122.5 -193t-151.5 -117t-167 -60t-193 -15.5t-223.5 7t-162 15l-50 7l63 293 q223 -22 451 -22q83 0 132 58q25 29 43 59.5t33 79t23.5 83t20.5 88.5q31 141 31 211q0 45 -21 92q-24 55 -108 55q-58 0 -101.5 -18.5t-64.5 -46.5q-34 -48 -41 -83q-15 -51 11 -102q19 -37 79 -52l78 -17l-121 -279l-96 6q-199 14 -285 102q-50 51 -66 124z" />
<glyph unicode="&#x5e5;" horiz-adv-x="1213" d="M665 418h-31l-194 -910h-388l228 1074l-133 713h418l89 -603h9q51 0 81 34.5t46 112.5l97 456h387l-100 -471q-14 -63 -36 -117.5t-62.5 -109t-94.5 -93t-135.5 -62.5t-180.5 -24z" />
<glyph unicode="&#x5e6;" horiz-adv-x="1307" d="M1373 1295l-80 -261q-46 -152 -93 -235q-70 -123 -129 -183t-115 -104l181 -292l-47 -220h-1153l64 299h526l141 -9l-174 296l-311 709h428l204 -499q48 83 83 201l89 298h386z" />
<glyph unicode="&#x5e7;" horiz-adv-x="1388" d="M1440 1071l-328 -556q-154 -263 -194 -454l-13 -61h-385l13 61q16 77 71.5 218.5t115.5 243.5l278 473h-787l64 299h1213zM283 -492h-388l270 1272h388z" />
<glyph unicode="&#x5e8;" horiz-adv-x="1126" d="M186 1294q208 21 356 21t225 -12t129.5 -33t86 -55.5t50.5 -73t19.5 -75t2.5 -63.5q0 -67 -25 -181l-175 -822h-388l175 822q7 33 7 61q0 132 -162 132q-147 0 -365 -22z" />
<glyph unicode="&#x5e9;" horiz-adv-x="1616" d="M625 0h-568l167 1295h377l-78 -602q52 0 93 69q17 28 29 67l139 466h374l-137 -461q-67 -225 -219 -329q-78 -53 -170 -74q-63 -14 -129 -14h-16l-13 -118h260q125 0 228.5 98.5t168.5 315.5l174 582h377l-179 -591q-106 -351 -309 -523q-172 -145 -418 -173 q-71 -8 -151 -8z" />
<glyph unicode="&#x5ea;" horiz-adv-x="1437" d="M902 1314q342 0 426 -126q44 -68 44 -159.5t-25 -190.5l-178 -838h-389l175 821q7 33 7 61q0 132 -162 132q-50 0 -70 -1l-132 -618q-16 -74 -39 -133t-62.5 -113t-93.5 -90q-117 -78 -312 -78q-44 0 -87.5 10.5t-65.5 20.5l-21 11l60 279q72 -14 124 -14t74.5 24.5 t34.5 82.5l127 595l-141 -11l64 298q343 37 642 37z" />
<glyph unicode="&#x5f3;" horiz-adv-x="512" d="M94 789q63 150 189 501h348l8 -22q-90 -208 -256 -479h-289z" />
<glyph unicode="&#x5f4;" horiz-adv-x="1022" d="M631 1290l8 -22q-90 -208 -256 -479h-289q46 109 100 258l89 243h348zM1128 1290l7 -22q-36 -84 -107.5 -221t-146.5 -258h-289q40 97 99 258l89 243h348z" />
<glyph unicode="&#x2000;" horiz-adv-x="959" />
<glyph unicode="&#x2001;" horiz-adv-x="1919" />
<glyph unicode="&#x2002;" horiz-adv-x="959" />
<glyph unicode="&#x2003;" horiz-adv-x="1919" />
<glyph unicode="&#x2004;" horiz-adv-x="639" />
<glyph unicode="&#x2005;" horiz-adv-x="479" />
<glyph unicode="&#x2006;" horiz-adv-x="319" />
<glyph unicode="&#x2007;" horiz-adv-x="319" />
<glyph unicode="&#x2008;" horiz-adv-x="239" />
<glyph unicode="&#x2009;" horiz-adv-x="383" />
<glyph unicode="&#x200a;" horiz-adv-x="106" />
<glyph unicode="&#x2010;" horiz-adv-x="674" d="M86 705h553l-64 -312h-552z" />
<glyph unicode="&#x2011;" horiz-adv-x="674" d="M86 705h553l-64 -312h-552z" />
<glyph unicode="&#x2012;" horiz-adv-x="674" d="M86 705h553l-64 -312h-552z" />
<glyph unicode="&#x2013;" horiz-adv-x="983" d="M90 690h871l-60 -274h-868z" />
<glyph unicode="&#x2014;" horiz-adv-x="1966" d="M90 690h1854l-60 -274h-1851z" />
<glyph unicode="&#x2018;" horiz-adv-x="500" d="M119 961l-10 22q102 232 258 479h288q-31 -75 -56.5 -140t-131.5 -361h-348z" />
<glyph unicode="&#x2019;" horiz-adv-x="500" d="M94 961q63 150 189 501h348l8 -22q-90 -208 -256 -479h-289z" />
<glyph unicode="&#x201a;" horiz-adv-x="621" d="M-104 -264q44 99 188 502h348l8 -23q-94 -223 -256 -479h-288z" />
<glyph unicode="&#x201c;" horiz-adv-x="997" d="M119 961l-10 22q102 232 258 479h288q-31 -75 -56.5 -140t-131.5 -361h-348zM614 961l-8 22q111 250 256 479h289q-46 -108 -100 -258l-88 -243h-349z" />
<glyph unicode="&#x201d;" horiz-adv-x="997" d="M631 1462l8 -22q-90 -208 -256 -479h-289q46 109 100 258l89 243h348zM1128 1462l7 -22q-36 -84 -107.5 -221t-146.5 -258h-289q40 97 99 258l89 243h348z" />
<glyph unicode="&#x201e;" horiz-adv-x="1122" d="M-104 -264q44 99 188 502h348l8 -23q-94 -223 -256 -479h-288zM934 238l8 -23q-50 -113 -125.5 -252t-132.5 -227h-287q61 148 147 387l42 115h348z" />
<glyph unicode="&#x2020;" horiz-adv-x="1110" d="M717 913l-142 -913h-333l245 909l-305 -26l62 286l297 -26l32 413h334l-141 -413l74 6q168 11 250 20l-64 -286z" />
<glyph unicode="&#x2021;" horiz-adv-x="1110" d="M731 786l-84 -180q112 13 166 14.5t156 12.5l-60 -287l-311 27l-12 -188l-15 -185h-333l133 373l-201 -15l-123 -12l62 287l311 -27l-6 180l82 164l-324 -26l59 286l312 -26l26 372h334l-133 -372l163 12l161 14l-62 -286l-309 26z" />
<glyph unicode="&#x2022;" horiz-adv-x="803" d="M85 695q0 174 105 292.5t265 118.5h11q147 0 221 -77t74 -224q0 -194 -102 -305q-100 -111 -281 -111q-137 0 -215 79.5t-78 219.5v7z" />
<glyph unicode="&#x2026;" horiz-adv-x="1800" d="M12 127q0 109 65 171t179 62q85 0 132.5 -40.5t47.5 -114.5q0 -118 -60.5 -174t-189.5 -56q-81 0 -127.5 38t-46.5 114zM600 127q0 109 65 171t179 62q85 0 132.5 -40.5t47.5 -114.5q0 -118 -60.5 -174t-189.5 -56q-81 0 -127.5 38t-46.5 114zM1186 127q0 109 65 171 t179 62q85 0 132.5 -40.5t47.5 -114.5q0 -118 -60.5 -174t-189.5 -56q-81 0 -127.5 38t-46.5 114z" />
<glyph unicode="&#x202f;" horiz-adv-x="383" />
<glyph unicode="&#x2030;" horiz-adv-x="2697" d="M525 1483q147 0 231.5 -85t84.5 -243.5t-57 -297t-158.5 -215.5t-229.5 -77q-157 0 -237 82.5t-80 239.5v8q0 258 120.5 423t316.5 165h9zM548 0h-297l1089 1462h289zM497 1241q-50 0 -88.5 -110.5t-38.5 -239.5q0 -84 53 -84q51 0 89 111t38 239q0 44 -12 64t-41 20z M1502 897q147 0 231.5 -85t84.5 -242.5t-56 -296.5t-158 -216t-231 -77q-158 0 -237.5 82t-79.5 239v8q0 258 120.5 423t316.5 165h9zM2321 897q147 0 231.5 -85t84.5 -242.5t-56 -296.5t-158 -216t-231 -77q-158 0 -237.5 82t-79.5 239v8q0 258 120.5 423t316.5 165h9z M1474 655q-50 0 -88.5 -110.5t-38.5 -239.5q0 -84 53 -84q51 0 89 111t38 239q0 45 -12 64.5t-41 19.5zM2293 655q-50 0 -88.5 -110.5t-38.5 -239.5q0 -84 53 -84q51 0 89 111t38 239q0 45 -12 64.5t-41 19.5z" />
<glyph unicode="&#x2039;" horiz-adv-x="719" d="M469 1081l264 -204l-266 -334l111 -330l-334 -137l-183 477v10z" />
<glyph unicode="&#x203a;" horiz-adv-x="719" d="M250 43l-264 205l266 334l-111 329l332 138l184 -478v-10z" />
<glyph unicode="&#x205f;" horiz-adv-x="479" />
<glyph unicode="&#x20aa;" horiz-adv-x="2082" d="M914 1295q304 0 444 -91q46 -30 74 -62q74 -80 74 -217q0 -79 -25 -199l-46 -217h-335l42 199q16 79 16 120.5t-10.5 70.5t-29.5 48.5t-55 30.5q-59 18 -173 18h-295l-212 -996h-386l276 1295h641zM975 0h-461l177 833h346l-113 -534h115q271 0 403 131q68 68 109.5 160 t69.5 223l103 482h376l-107 -500q-29 -136 -79.5 -251t-134.5 -217.5t-195 -173.5t-266.5 -112t-342.5 -41z" />
<glyph unicode="&#x20ac;" horiz-adv-x="1188" d="M905 1178q-143 0 -219 -195h297l-45 -205h-309q-17 -56 -25 -123h246l-43 -204h-227q0 -81 27 -113q28 -31 106 -31q121 0 293 68v-330q-127 -65 -356.5 -65t-340 114t-116.5 357h-140l43 204h109l22 123h-106l47 205h117q84 244 243.5 374t376.5 130q117 0 205 -26 t170 -79l-154 -282q-120 78 -221 78z" />
<glyph unicode="&#x2122;" horiz-adv-x="1577" d="M272 741v545h-170v176h537v-176h-170v-545h-197zM903 1141v-400h-192v721h286l138 -479l149 479h277v-721h-195v400q0 74 6 110h-8l-152 -510h-163l-144 510h-8q6 -64 6 -110z" />
<glyph unicode="&#x25fc;" horiz-adv-x="1135" d="M0 1135h1135v-1135h-1135v1135z" />
</font>
</defs>
</svg>
