<?xml version="1.0" standalone="no"?>
<!DOCTYPE svg PUBLIC "-//W3C//DTD SVG 1.1//EN" "http://www.w3.org/Graphics/SVG/1.1/DTD/svg11.dtd" >
<svg xmlns="http://www.w3.org/2000/svg">
<metadata></metadata>
<defs>
<font id="open_sans_hebrewbold_italic" horiz-adv-x="1128" >
<font-face units-per-em="2048" ascent="1638" descent="-410" />
<missing-glyph horiz-adv-x="532" />
<glyph horiz-adv-x="2048" />
<glyph horiz-adv-x="2048" />
<glyph unicode="&#xd;" horiz-adv-x="1044" />
<glyph unicode=" "  horiz-adv-x="532" />
<glyph unicode="&#x09;" horiz-adv-x="532" />
<glyph unicode="&#xa0;" horiz-adv-x="532" />
<glyph unicode="!" horiz-adv-x="586" d="M150 485l157 977h340l-256 -977h-241zM25 115q0 91 54 144.5t150 53.5q69 0 109.5 -38.5t40.5 -106.5q0 -87 -55.5 -141t-136 -54t-121.5 37.5t-41 104.5z" />
<glyph unicode="&#x22;" horiz-adv-x="928" d="M397 934h-196l71 528h277zM803 934h-199l74 528h276z" />
<glyph unicode="#" horiz-adv-x="1323" d="M967 614h258l-19 -206h-297l-116 -408h-220l117 408h-194l-115 -408h-215l113 408h-238l18 206h277l70 232h-252l18 209h289l119 407h217l-117 -407h199l116 407h215l-116 -407h239l-18 -209h-279zM750 614l69 232h-196l-70 -232h197z" />
<glyph unicode="$" d="M1034 496q0 -185 -126 -292t-367 -124l-39 -199h-140l44 201q-209 12 -355 86v266q198 -106 404 -117l71 322q-319 119 -319 365q0 173 127.5 279.5t349.5 121.5l35 151h139l-33 -151q166 -22 295 -90l-106 -232q-133 65 -242 74l-63 -299q132 -52 195 -100 q130 -98 130 -262zM502 1022q0 -79 80 -111l51 246q-63 -7 -97 -41.5t-34 -93.5zM735 465q0 85 -84 119l-57 -262q65 9 103 45.5t38 97.5z" />
<glyph unicode="%" horiz-adv-x="1753" d="M747.5 1402.5q73.5 -80.5 73.5 -241.5t-56 -305t-150.5 -217.5t-225 -73.5t-202.5 83t-72 245t55 303q113 287 365 287q139 0 212.5 -80.5zM471 0h-240l1088 1462h235zM518 1274q-63 0 -110.5 -129t-47.5 -277q0 -96 56 -96q65 0 112 131.5t47 274.5q0 96 -57 96z M1605 820q74 -79 74 -238t-53.5 -305t-147.5 -220.5t-216 -74.5q-143 0 -216 78t-73 223q0 175 53 321t147.5 220.5t226 74.5t205.5 -79zM1376 690q-39 0 -75 -56t-59 -155t-23 -195t55 -96q41 0 77.5 56t59.5 154.5t23 195t-58 96.5z" />
<glyph unicode="&#x26;" horiz-adv-x="1450" d="M903 98q-175 -118 -393.5 -118t-330 97.5t-111.5 280.5q0 144 78 248q80 104 274 201q-76 130 -76 258q0 195 118 307.5t316 112.5q168 0 265.5 -82.5t97.5 -224.5q0 -280 -365 -426l195 -263q46 61 81 122t78 173h300q-133 -313 -310 -497l205 -287h-350zM662 920 q113 59 155.5 111t42.5 109t-28.5 84t-71.5 27q-65 0 -102 -46t-37 -120q0 -45 11.5 -91t29.5 -74zM541 623q-89 -51 -123.5 -104.5t-34.5 -125t45 -114.5q46 -43 117 -43q114 0 221 59z" />
<glyph unicode="'" horiz-adv-x="522" d="M397 934h-196l71 528h277z" />
<glyph unicode="(" horiz-adv-x="694" d="M223 -324q-149 266 -149 604.5t122.5 627t381.5 554.5h262q-500 -546 -500 -1192q0 -308 117 -594h-234z" />
<glyph unicode=")" horiz-adv-x="694" d="M469 1462q149 -265 149 -606t-124.5 -630t-378.5 -550h-262q499 544 499 1192q0 306 -116 594h233z" />
<glyph unicode="*" horiz-adv-x="1116" d="M772 1169l387 29l-18 -254l-338 43l160 -336l-246 -73l-90 337l-197 -278l-207 164l275 248l-326 92l86 237l338 -174l33 369l256 -51z" />
<glyph unicode="+" d="M109 612v219h366v369h219v-369h367v-219h-367v-364h-219v364h-366z" />
<glyph unicode="," horiz-adv-x="569" d="M377 238l8 -23q-121 -260 -262 -479h-225q74 168 194 502h285z" />
<glyph unicode="-" horiz-adv-x="659" d="M94 674h524l-53 -250h-524z" />
<glyph unicode="." horiz-adv-x="584" d="M25 115q0 91 54 144.5t150 53.5q69 0 109.5 -38.5t40.5 -106.5q0 -87 -55.5 -141t-136 -54t-121.5 37.5t-41 104.5z" />
<glyph unicode="/" horiz-adv-x="862" d="M205 0h-295l809 1462h295z" />
<glyph unicode="0" d="M711 1485q399 0 399 -472t-168.5 -752.5t-472.5 -280.5q-199 0 -301 122.5t-102 364.5q0 297 83.5 536t227 360.5t334.5 121.5zM684 1235q-79 0 -149 -103.5t-118 -302t-48 -368.5q0 -119 28.5 -175.5t96.5 -56.5q81 0 150 105t116 302t47 386q0 110 -30 161.5t-93 51.5z " />
<glyph unicode="1" d="M383 0l180 829q32 140 76 287l-62 -47q-59 -44 -262 -170l-133 215l566 348h249l-309 -1462h-305z" />
<glyph unicode="2" d="M471 637q180 159 248.5 254.5t68.5 174.5t-40.5 119t-109 40t-138 -34t-170.5 -118l-146 203q132 112 252 159.5t250 47.5q189 0 300.5 -98t111.5 -259q0 -105 -40.5 -199.5t-120.5 -187t-269 -247.5l-269 -222v-10h568l-54 -260h-962l43 213z" />
<glyph unicode="3" d="M698 1483q191 0 298.5 -90.5t107.5 -244.5t-95 -261t-261 -135v-4q130 -26 198 -106t68 -202q2 -202 -164.5 -331t-436.5 -129h-12q-239 0 -387 79v267q169 -101 373 -101q157 0 242.5 63t85.5 177q0 172 -258 172h-138l46 221h73q166 0 263 62q96 62 96 172 q0 67 -43 104t-121 37q-135 0 -287 -100l-127 204q126 82 234 114t245 32z" />
<glyph unicode="4" d="M858 303l-63 -303h-293l63 303h-590l48 234l770 925h311l-195 -919h170l-51 -240h-170zM616 543l58 248q13 62 40.5 166.5t41.5 138.5h-6q-34 -62 -132 -181l-313 -372h311z" />
<glyph unicode="5" d="M623 922q183 0 289 -103t106 -287v-6q0 -249 -160.5 -397.5t-438.5 -148.5h-11q-115 0 -216 22.5t-165 58.5v269q174 -99 352 -99q153 0 240.5 70.5t87.5 194.5q0 93 -57.5 140.5t-163 47.5t-216.5 -33l-104 78l207 733h755l-55 -262h-489l-88 -293q72 15 127 15z" />
<glyph unicode="6" d="M727 950q157 0 242.5 -97t85.5 -268.5t-71 -318.5q-142 -286 -468 -286q-211 0 -319.5 126t-108.5 363q0 203 62 397q197 619 780 619q126 0 223 -27l-51 -246q-82 25 -191 25q-194 0 -314 -108q-119 -109 -185 -345h4q115 166 311 166zM530 227q100 0 161 94 q63 95 63 236q0 73 -34.5 114.5t-98 41.5t-118.5 -36q-120 -78 -120 -255q0 -90 40 -142.5t107 -52.5z" />
<glyph unicode="7" d="M815 1202h-629l56 260h975l-41 -194l-752 -1268h-346z" />
<glyph unicode="8" d="M729 1485q177 0 287 -92t110 -234v-8q0 -134 -80.5 -233.5t-230.5 -151.5q217 -141 217 -365v-7q0 -180 -141.5 -297t-365.5 -117h-11q-215 0 -337 100.5t-122 269.5q0 298 348 426q-165 132 -165 299v8q0 175 131 288.5t341 113.5h10.5h8.5zM797 1220.5 q-39 39.5 -108.5 39.5t-115 -46.5t-45.5 -119.5q0 -132 123 -201q185 72 185 221q0 67 -39 106.5zM408 535q-56 -62 -56 -147.5t50 -133t138.5 -47.5t143.5 53.5t55 133t-37 138t-120 111.5q-118 -46 -174 -108z" />
<glyph unicode="9" d="M465 514q-163 0 -253 103q-89 104 -89 278t73 313q144 277 482 277q203 0 308.5 -123t105.5 -361q0 -279 -98.5 -531.5t-263 -371t-404.5 -118.5q-126 0 -240 32v256q112 -41 230 -41q228 0 348 187q58 89 100 258h-4q-111 -158 -295 -158zM639 1237q-59 0 -110 -42.5 t-78 -112.5t-27 -148v-6q0 -86 37 -131t106 -45q94 2 159 80.5t65 206.5v8q0 87 -36.5 138.5t-109.5 51.5h-6z" />
<glyph unicode=":" horiz-adv-x="584" d="M207 940q0 92 55.5 145.5t149.5 53.5q69 0 109 -39t40 -107q0 -86 -54.5 -140t-136 -54t-122.5 36.5t-41 104.5zM25 115q0 91 54 144.5t150 53.5q69 0 109.5 -38.5t40.5 -106.5q0 -87 -55.5 -141t-136 -54t-121.5 37.5t-41 104.5z" />
<glyph unicode=";" horiz-adv-x="584" d="M207 940q0 92 55.5 145.5t149.5 53.5q69 0 109 -39t40 -107q0 -86 -54.5 -140t-136 -54t-122.5 36.5t-41 104.5zM377 238l8 -23q-121 -260 -262 -479h-225q74 168 194 502h285z" />
<glyph unicode="&#x3c;" d="M109 641v143l952 496v-240l-643 -317l643 -281v-239z" />
<glyph unicode="=" d="M109 1024h952v-217h-952v217zM109 637h952v-219h-952v219z" />
<glyph unicode="&#x3e;" d="M752 723l-643 317v240l952 -496v-143l-952 -438v239z" />
<glyph unicode="?" horiz-adv-x="940" d="M711 1118q0 119 -133 119q-52 0 -107 -16.5t-201 -83.5l-92 221q230 125 445 125q177 0 280 -87.5t103 -244.5q0 -156 -111 -273q-55 -56 -190 -147q-65 -44 -97.5 -74t-52 -65t-37.5 -107h-258l14 78q20 104 75 178.5t175 156t153.5 124.5t33.5 96zM166 115 q0 91 55 144.5t150 53.5q69 0 109 -38.5t40 -106.5q0 -87 -55 -141t-136 -54t-122 38t-41 104z" />
<glyph unicode="@" horiz-adv-x="1753" d="M790 -186q-208 0 -368.5 86t-245.5 240.5t-85 350.5v9q0 280 121 498t343 341t497 123q317 0 498.5 -163.5t181.5 -458.5q0 -174 -64.5 -322t-177.5 -230.5t-254 -82.5q-88 0 -144.5 38.5t-72.5 108.5h-6q-50 -77 -112.5 -112t-147.5 -35q-128 0 -198.5 80t-70.5 228.5 t67 277t187 204.5t269 76q186 0 327 -55l-106 -420q-27 -106 -27 -141q0 -68 58 -68q66 0 123.5 63.5t92.5 171.5t35 214q0 213 -123.5 325.5t-359.5 112.5q-204 0 -367.5 -94.5t-254.5 -266t-91 -391.5q0 -242 134 -381q134 -137 376 -137q114 0 218.5 20t222.5 66v-186 q-230 -90 -465 -90h-10zM994 889q-82 0 -145 -51t-100 -137.5t-37 -163.5q0 -150 94 -150q141 0 213 270l57 222q-34 10 -82 10z" />
<glyph unicode="A" horiz-adv-x="1286" d="M369 348l-172 -348h-320l766 1468h373l147 -1468h-297l-24 348h-473zM791 1211v36q-41 -114 -109 -254l-188 -385h333l-26 350q-10 124 -10 253z" />
<glyph unicode="B" horiz-adv-x="1270" d="M788 1462q463 0 463 -325q0 -150 -83 -247.5t-236 -129.5v-6q102 -27 160.5 -98t58.5 -179q0 -229 -152.5 -353t-423.5 -124h-522l309 1462h426zM694 883q120 0 181 48t61 140q0 137 -170 137h-152l-69 -325h149zM592 256q117 0 183.5 58t66.5 161q0 162 -183 162h-165 l-82 -381h180z" />
<glyph unicode="C" horiz-adv-x="1253" d="M905 1227q-131 0 -236.5 -80.5t-170 -238t-64.5 -332.5t69 -255.5t216 -80.5t340 77v-260q-201 -77 -400 -77q-254 0 -395 149.5t-141 416.5t104 488t277.5 336t400.5 115q122 0 221 -23t209 -82l-118 -250q-107 59 -174.5 78t-137.5 19z" />
<glyph unicode="D" horiz-adv-x="1386" d="M758 1462q269 0 417 -142.5t148 -416t-98 -480.5t-283 -315t-438 -108h-451l309 1462h396zM518 256q149 0 259 77t171.5 224.5t61.5 335.5q0 153 -72.5 234t-208.5 81h-115l-202 -952h106z" />
<glyph unicode="E" horiz-adv-x="1110" d="M53 0l309 1462h818l-54 -254h-512l-67 -321h477l-55 -254h-477l-80 -377h512l-54 -256h-817z" />
<glyph unicode="F" horiz-adv-x="1087" d="M53 0l309 1462h814l-54 -254h-508l-79 -377h473l-56 -253h-473l-121 -578h-305z" />
<glyph unicode="G" horiz-adv-x="1413" d="M664 -20q-259 0 -400 147t-141 418t106.5 487.5t300.5 334.5t449 118q218 0 410 -99l-115 -251q-164 88 -312.5 88t-269.5 -82.5t-189.5 -237t-68.5 -328t72 -254.5t223 -81q75 0 170 24l66 299h-267l56 258h563l-162 -762q-129 -45 -247.5 -62t-243.5 -17z" />
<glyph unicode="H" horiz-adv-x="1434" d="M829 0l134 631h-471l-134 -631h-305l309 1462h306l-121 -573h471l121 573h305l-309 -1462h-306z" />
<glyph unicode="I" horiz-adv-x="659" d="M365 1462h305l-312 -1462h-305z" />
<glyph unicode="J" horiz-adv-x="678" d="M-135 -430q-94 0 -187 27v253q91 -20 164 -20q100 0 161 61t89 191l293 1380h305l-303 -1423q-53 -246 -175.5 -357.5t-346.5 -111.5z" />
<glyph unicode="K" horiz-adv-x="1255" d="M803 0l-211 592l-125 -70l-109 -522h-305l309 1462h306l-152 -702l158 205l409 497h361l-594 -700l291 -762h-338z" />
<glyph unicode="L" horiz-adv-x="1061" d="M362 1462h306l-256 -1206h512l-54 -256h-817z" />
<glyph unicode="M" horiz-adv-x="1802" d="M1389 1462h423l-309 -1462h-280l145 692q52 248 105 441h-5l-569 -1133h-281l-61 1133h-4q-10 -81 -40 -241t-185 -892h-275l309 1462h404l68 -1093h4z" />
<glyph unicode="N" horiz-adv-x="1546" d="M905 0l-356 1106h-6l-4 -32q-32 -218 -66 -386l-145 -688h-275l309 1462h357l340 -1077h4q12 74 39.5 218.5t179.5 858.5h274l-309 -1462h-342z" />
<glyph unicode="O" horiz-adv-x="1495" d="M1432 938q0 -284 -98.5 -506t-270 -337t-397.5 -115q-256 0 -400 147q-143 149 -143 412t99 485.5t273 341.5t402 119q255 0 395 -144.5t140 -402.5zM1055 1149.5q-65 77.5 -184.5 77.5t-220.5 -92t-158.5 -251.5t-57.5 -346.5q0 -146 66 -221.5t187.5 -75.5t221 87 t155.5 246.5t56 356.5q0 142 -65 219.5z" />
<glyph unicode="P" horiz-adv-x="1188" d="M700 1462q490 0 490 -426q0 -241 -170 -378.5t-467 -137.5h-86l-109 -520h-305l309 1462h338zM578 774q142 0 223.5 69t81.5 185q0 180 -195 180h-74l-92 -434h56z" />
<glyph unicode="Q" horiz-adv-x="1495" d="M666 -20q-256 0 -400 147q-143 149 -143 412t99 485.5t273 341.5t402 119q255 0 395 -144.5t140 -402.5q0 -316 -122.5 -555.5t-334.5 -337.5l254 -393h-359l-178 328h-26zM1055 1149.5q-65 77.5 -184.5 77.5t-220.5 -92t-158.5 -251.5t-57.5 -346.5q0 -146 66 -221.5 t187.5 -75.5t221 87t155.5 246.5t56 356.5q0 142 -65 219.5z" />
<glyph unicode="R" horiz-adv-x="1247" d="M721 1462q236 0 355.5 -101.5t119.5 -299.5q0 -158 -83 -271.5t-239 -168.5l261 -621h-332l-207 561h-119l-119 -561h-305l309 1462h359zM608 813q134 0 205.5 58t71.5 173q0 83 -48 123.5t-149 40.5h-74l-84 -395h78z" />
<glyph unicode="S" horiz-adv-x="1085" d="M713 1225q-83 0 -136 -45t-53 -112t33 -113.5t148 -120.5q123 -82 182 -178.5t59 -223.5q0 -210 -148 -331t-401 -121q-221 0 -356 90v274q194 -108 358 -108q112 0 175 42.5t63 116.5q0 77 -52 136q-26 30 -124 102q-139 100 -194.5 197t-55.5 208v8q0 189 138.5 313 t353.5 124h10q217 0 397 -99l-109 -233q-157 74 -288 74z" />
<glyph unicode="T" horiz-adv-x="1087" d="M266 0l254 1204h-352l55 258h1010l-55 -258h-353l-254 -1204h-305z" />
<glyph unicode="U" horiz-adv-x="1415" d="M596 -20q-212 0 -334 113q-121 114 -121 308q0 72 15 138l196 923h305l-194 -919q-17 -76 -17 -125q0 -178 189 -178q122 0 194 75.5t105 229.5l194 917h306l-201 -946q-57 -266 -218 -401t-419 -135z" />
<glyph unicode="V" horiz-adv-x="1208" d="M528 299h7q78 221 110 283l432 880h316l-748 -1462h-334l-127 1462h295l51 -880q4 -40 3 -138t-5 -145z" />
<glyph unicode="W" horiz-adv-x="1831" d="M477 1462v-798q0 -65 -4.5 -183t-9.5 -164h6q27 77 70 188t57 138l369 819h270l21 -873q0 -146 -9 -272h6q48 141 131 349l330 796h309l-647 -1462h-346l-22 721l-2 139q0 95 4 158h-4q-48 -151 -115 -299l-324 -719h-338l-45 1462h293z" />
<glyph unicode="X" horiz-adv-x="1241" d="M793 0l-172 543l-396 -543h-342l576 764l-238 698h320l153 -518l363 518h344l-545 -725l268 -737h-331z" />
<glyph unicode="Y" horiz-adv-x="1155" d="M1001 1462h342l-618 -903l-119 -559h-303l119 559l-236 903h312l129 -592z" />
<glyph unicode="Z" horiz-adv-x="1098" d="M-61 0l38 201l777 1005h-543l53 256h936l-41 -202l-782 -1004h596l-53 -256h-981z" />
<glyph unicode="[" horiz-adv-x="678" d="M-37 -324l381 1786h473l-45 -211h-215l-291 -1364h215l-45 -211h-473z" />
<glyph unicode="\" horiz-adv-x="862" d="M705 0h-267l-217 1462h260z" />
<glyph unicode="]" horiz-adv-x="678" d="M121 -113l291 1364h-215l45 211h473l-381 -1786h-471l45 211h213z" />
<glyph unicode="^" horiz-adv-x="1081" d="M639 1470h147l277 -950h-223l-174 633l-402 -633h-244z" />
<glyph unicode="_" horiz-adv-x="819" d="M-186 -324l30 140h822l-31 -140h-821z" />
<glyph unicode="`" horiz-adv-x="1135" d="M750 1241q-169 166 -242 307v21h311q36 -150 115 -303v-25h-184z" />
<glyph unicode="a" horiz-adv-x="1217" d="M406 -20q-147 0 -232 106q-84 107 -84 302.5t72 375t189 276.5q117 99 257 99q197 0 277 -164h8l57 143h232l-238 -1118h-229l14 145h-4q-133 -165 -319 -165zM526 223q67 0 130.5 65.5t103 182t39.5 247.5v13q0 71 -38.5 117.5t-104.5 46.5t-126.5 -71t-97.5 -190.5 t-37 -234.5q0 -176 129 -176h2z" />
<glyph unicode="b" horiz-adv-x="1219" d="M813 1139q146 0 230.5 -107.5t84.5 -297t-67.5 -367.5t-187 -282.5t-263.5 -104.5q-194 0 -276 163h-8l-58 -143h-231l330 1556h301l-62 -288q-41 -183 -84 -299h8q79 99 142.5 134.5t140.5 35.5zM692 895q-68 0 -129.5 -64.5t-102 -180t-40.5 -251.5q0 -81 37 -128.5 t103 -47.5t126.5 68t98.5 190.5t38 237.5q0 176 -131 176z" />
<glyph unicode="c" horiz-adv-x="989" d="M842 59q-151 -79 -343.5 -79t-300.5 107.5t-108 311t74.5 377t209.5 268.5q136 95 313 95t323 -72l-92 -229q-45 19 -72 30q-73 27 -155.5 27t-151 -65t-106.5 -176t-38 -238q0 -95 45 -144t121 -49t138.5 20.5t142.5 61.5v-246z" />
<glyph unicode="d" horiz-adv-x="1217" d="M406 -20q-146 0 -231 107t-85 300.5t71.5 373t188 279t258.5 99.5q83 0 142 -37.5t112 -126.5h8l2 28q6 112 25 195l76 358h301l-330 -1556h-229l14 145h-4q-71 -86 -148 -125.5t-171 -39.5zM537 223q63 0 124.5 68t99.5 182.5t38 233.5v12q0 81 -37.5 128.5t-104.5 47.5 t-127.5 -71t-97.5 -190.5t-37 -234.5q0 -176 137 -176h5z" />
<glyph unicode="e" horiz-adv-x="1141" d="M922 66q-174 -86 -387 -86t-329 113t-116 320.5t82.5 376.5t223 259t319 90t277 -81.5t98.5 -223.5q0 -187 -167 -288.5t-477 -101.5h-51l-2 -21v-20q0 -92 52 -144t144 -52t164 20t169 66v-227zM473 647q154 0 241 48t87 132q0 95 -105 95q-88 0 -166 -80t-102 -195h45z " />
<glyph unicode="f" horiz-adv-x="764" d="M-45 -492q-105 0 -174 25v242q62 -21 120.5 -21t103.5 41.5t63 128.5l204 965h-163l30 145l183 84l18 84q41 191 139 278t273 87q133 0 235 -49l-80 -224q-68 31 -128 31t-96 -39t-48 -106l-12 -62h219l-49 -229h-220l-215 -1010q-77 -371 -403 -371z" />
<glyph unicode="g" horiz-adv-x="1108" d="M993 791q0 -195 -121 -309q-122 -113 -329 -113q-60 0 -99 10q-84 -27 -84 -78q0 -32 28 -47.5t91 -24.5l137 -18q163 -21 237.5 -84.5t74.5 -183.5q0 -211 -155.5 -323t-446.5 -112q-209 0 -325 75.5t-116 207.5q0 103 69 176t214 121q-74 47 -74 133q0 71 44.5 122.5 t146.5 98.5q-66 49 -96.5 112.5t-30.5 152.5q0 199 125.5 315.5t341.5 116.5q82 0 166 -23h395l-35 -166l-174 -41q16 -51 16 -118zM614 948q-77 0 -124.5 -77t-47.5 -193.5t103 -116.5q75 0 121.5 76.5t46.5 193.5t-99 117zM150 -172q0 -115 194 -115q149 0 227 44.5 t78 127.5q0 39 -32.5 60.5t-137.5 34.5l-114 14q-105 -14 -160 -57t-55 -109z" />
<glyph unicode="h" horiz-adv-x="1237" d="M829 772q0 123 -108 123q-92 0 -166.5 -113.5t-118.5 -318.5l-98 -463h-301l330 1556h301l-60 -278q-20 -92 -86 -309h8q137 170 314 170q138 0 213.5 -83.5t75.5 -238.5q0 -71 -23 -180l-133 -637h-301l137 653q16 65 16 119z" />
<glyph unicode="i" horiz-adv-x="608" d="M322 1380q0 86 47 131t127 45q157 0 157 -120q0 -83 -45 -131t-135 -48q-151 0 -151 123zM37 0l237 1118h301l-237 -1118h-301z" />
<glyph unicode="j" horiz-adv-x="608" d="M324 1380q0 86 47 131t127 45q157 0 157 -120q0 -83 -45 -131t-135 -48q-151 0 -151 123zM-90 -492q-105 0 -174 25v242q62 -21 114 -21q137 0 173 170l253 1194h302l-265 -1239q-77 -371 -403 -371z" />
<glyph unicode="k" horiz-adv-x="1163" d="M1264 1118l-498 -504l285 -614h-336l-183 420l-120 -72l-74 -348h-301l330 1556h301l-148 -694q-6 -35 -29 -117l-28 -102h4l453 475h344z" />
<glyph unicode="l" horiz-adv-x="608" d="M37 0l330 1556h301l-330 -1556h-301z" />
<glyph unicode="m" horiz-adv-x="1853" d="M489 911q145 228 359 228t258 -228h6q68 110 160.5 169t197.5 59q135 0 207 -84.5t72 -237.5q0 -74 -23 -180l-133 -637h-301l138 653q16 65 16 119q0 123 -98 123q-92 0 -166.5 -112t-118.5 -318l-96 -465h-301l137 653q16 65 16 119q0 123 -98 123q-92 0 -166.5 -113.5 t-118.5 -318.5l-98 -463h-301l237 1118h230l-21 -207h6z" />
<glyph unicode="n" horiz-adv-x="1237" d="M829 772q0 123 -108 123q-92 0 -166.5 -113.5t-118.5 -318.5l-98 -463h-301l237 1118h230l-21 -207h6q145 228 355 228q138 0 213.5 -83.5t75.5 -238.5q0 -71 -23 -180l-133 -637h-301l137 653q16 65 16 119z" />
<glyph unicode="o" horiz-adv-x="1198" d="M1108 688q0 -314 -158.5 -511t-420.5 -197h-11q-195 0 -312 117q-116 119 -116 321.5t71 370.5q72 168 207.5 259t323.5 91t302 -118.5t114 -324.5v-8zM805 696q0 197 -143 197q-75 0 -135 -61q-60 -64 -97 -180t-37 -242q0 -185 150 -185q75 0 135 61.5t93.5 170 t33.5 239.5z" />
<glyph unicode="p" horiz-adv-x="1219" d="M813 1139q146 0 230 -108q85 -106 85 -298.5t-68.5 -369t-187 -280t-262.5 -103.5q-85 0 -144.5 37.5t-109.5 125.5h-8q-12 -161 -43 -295l-72 -340h-301l342 1610h230l-17 -170h9q138 191 317 191zM690 895q-66 0 -129.5 -66.5t-102 -180t-38.5 -237.5v-12 q0 -81 37 -128.5t103 -47.5t126.5 68t98.5 190.5t38 237.5q0 176 -131 176h-2z" />
<glyph unicode="q" horiz-adv-x="1217" d="M391 -20q-135 0 -218 108t-83 302t72 373.5t189 276.5q117 99 257 99q88 0 154 -38t123 -126h8l57 143h232l-342 -1610h-301l73 338q26 122 84 304h-8q-70 -92 -141 -131t-156 -39zM431 267.5q36 -44.5 102 -44.5t129.5 70.5t100 181.5t36.5 244q0 81 -37.5 128.5 t-104.5 47.5t-127.5 -71t-97.5 -190.5t-37 -220.5t36 -145.5z" />
<glyph unicode="r" horiz-adv-x="862" d="M842 1139q57 0 96 -11l-66 -290q-44 16 -100 16q-115 0 -204 -92q-86 -91 -124 -262l-106 -500h-301l237 1118h230l-21 -207h6q147 228 353 228z" />
<glyph unicode="s" horiz-adv-x="969" d="M571 913q-57 0 -92 -25.5t-35 -66.5t32.5 -71t119.5 -74q122 -63 177.5 -136.5t55.5 -170.5q0 -188 -124.5 -288.5t-339.5 -100.5t-342 65v248q158 -90 319 -90q81 0 131.5 32.5t50.5 88.5q0 43 -36.5 76.5t-144.5 93.5t-156 128t-48 160q0 171 111 264t313 93t365 -95 l-99 -215q-139 84 -258 84z" />
<glyph unicode="t" horiz-adv-x="840" d="M426 297q0 -74 88 -74q63 0 162 35v-225q-112 -53 -264 -53t-222.5 63t-70.5 195q0 50 12 112l115 539h-152l29 147l196 84l132 236h194l-49 -238h283l-50 -229h-282l-115 -539q-6 -30 -6 -53z" />
<glyph unicode="u" horiz-adv-x="1237" d="M410 346q0 -123 108 -123q92 0 166.5 113.5t118.5 318.5l98 463h301l-237 -1118h-230l21 207h-6q-146 -227 -355 -227q-138 0 -211 82.5t-73 238.5q0 93 24 213l127 604h301l-137 -653q-16 -65 -16 -119z" />
<glyph unicode="v" horiz-adv-x="1049" d="M449 301h6q57 157 92 223l297 594h323l-604 -1118h-323l-138 1118h295l45 -586q7 -125 7 -231z" />
<glyph unicode="w" horiz-adv-x="1614" d="M410 1118v-495l-4 -167l-7 -171h4l14 41q5 14 49.5 133t47.5 123l231 536h328v-536q0 -150 -10 -297h6l28 80q77 218 95 258l219 495h307l-530 -1118h-330l-6 520q0 164 10 340h-6q-61 -176 -123 -319l-233 -541h-324l-51 1118h285z" />
<glyph unicode="x" horiz-adv-x="1087" d="M154 1118h321l115 -334l244 334h354l-467 -561l244 -557h-326l-125 342l-264 -342h-350l479 573z" />
<glyph unicode="y" horiz-adv-x="1063" d="M467 307h6q8 20 26 71q39 110 83 202l260 538h327l-680 -1278q-177 -332 -483 -332q-91 0 -147 19v240q65 -13 116 -13q84 0 147.5 47.5t117.5 149.5l26 49l-164 1118h295l56 -518q14 -126 14 -293z" />
<glyph unicode="z" horiz-adv-x="932" d="M-47 0l35 180l575 705h-397l51 233h750l-43 -200l-566 -685h439l-49 -233h-795z" />
<glyph unicode="{" horiz-adv-x="727" d="M201 319q0 140 -209 140l45 229q125 0 194.5 42.5t90.5 137.5l61 285q38 170 130.5 239.5t270.5 69.5h84l-49 -225q-89 -2 -130 -34t-56 -107l-66 -297q-45 -208 -276 -236v-8q168 -52 168 -217q0 -44 -15 -113l-36 -178q-7 -27 -7 -51q0 -51 31.5 -72.5t93.5 -21.5v-226 h-53q-167 0 -253.5 63.5t-86.5 184.5q0 55 14 125l39 184q15 69 15 86z" />
<glyph unicode="|" d="M674 1550v-2015h-219v2015h219z" />
<glyph unicode="}" horiz-adv-x="727" d="M256 1462q340 0 340 -248q0 -54 -14 -124l-39 -185q-15 -69 -15 -86q0 -139 209 -139l-45 -229q-124 0 -193.5 -43t-90.5 -138l-62 -284q-38 -170 -130.5 -240t-270.5 -70h-45v226q92 3 136.5 35.5t59.5 105.5l66 297q24 108 93 164t183 71v9q-168 51 -168 217 q0 43 15 112l37 179q6 30 6 51q0 52 -35 73t-111 21l41 225h33z" />
<glyph unicode="~" d="M805 553q-57 0 -109 11q-52 13 -144.5 51.5t-130 47.5t-85 9t-110 -33t-117.5 -88v231q100 109 256 109q63 0 116 -13.5t161.5 -59.5t184.5 -46q111 0 234 121v-231q-103 -109 -256 -109z" />
<glyph unicode="&#xa1;" horiz-adv-x="586" d="M549 977q0 -92 -55.5 -145.5t-149.5 -53.5q-69 0 -109 38.5t-40 115.5t54 131.5t135.5 54.5t123 -37t41.5 -104zM424 606l-158 -977h-340l256 977h242z" />
<glyph unicode="&#xa2;" d="M164 584q0 192 62.5 354.5t178 263t267.5 123.5l33 158h188l-35 -158q117 -13 225 -65l-92 -230q-66 29 -114.5 43t-108.5 14q-133 0 -216 -143t-83 -336q0 -95 44.5 -143.5t120.5 -48.5t138.5 20.5t142.5 61.5v-246q-138 -71 -299 -80l-41 -192h-188l49 210 q-134 36 -203 136t-69 258z" />
<glyph unicode="&#xa3;" d="M559 1382q121 103 314 103t368 -86l-113 -232q-142 68 -228 68t-133 -40.5t-67 -131.5l-47 -229h299l-45 -220h-299l-18 -84q-42 -195 -209 -270h655l-55 -260h-993l49 246q196 48 244 264l22 104h-192l45 220h192l49 247q41 198 162 301z" />
<glyph unicode="&#xa5;" d="M979 1462h311l-506 -747h203l-39 -178h-252l-28 -138h252l-37 -178h-252l-47 -221h-291l47 221h-252l37 178h252l29 138h-252l39 178h196l-192 747h297l114 -590z" />
<glyph unicode="&#xa7;" horiz-adv-x="995" d="M365 174q96 0 143 34t47 93q0 39 -32.5 72t-127.5 80q-121 59 -183 133.5t-62 169t48 168.5t154 141q-44 35 -71 86t-27 106q0 149 117.5 234.5t301 85.5t355.5 -88l-82 -193q-147 84 -286.5 84t-139.5 -106q0 -41 39 -74.5t129 -73.5q242 -107 242 -299t-193 -307 q90 -83 90 -194q0 -161 -126 -254q-127 -92 -338 -92t-343 75v224q172 -105 345 -105zM393 797q0 -54 43.5 -96.5t143.5 -88.5q48 30 75 77.5t27 96.5q0 109 -176 181q-51 -25 -82 -70.5t-31 -99.5z" />
<glyph unicode="&#xa8;" horiz-adv-x="1135" d="M397 1382q0 77 42 117.5t120 40.5q133 0 133 -108q0 -75 -40 -117.5t-120 -42.5q-135 0 -135 110zM799 1382q0 78 42 118t113 40q140 0 140 -108q0 -75 -40.5 -117.5t-119.5 -42.5q-135 0 -135 110z" />
<glyph unicode="&#xa9;" horiz-adv-x="1704" d="M495 83q-175 103 -272.5 276t-97.5 372.5t100.5 375t275.5 276t375 100.5t375 -99t275 -276q102 -176 102 -376t-99 -374q-97 -174 -271.5 -276t-381 -102t-381.5 103zM347 1035q-81 -141 -81 -304.5t81 -304.5q83 -141 224.5 -223t306.5 -82t306.5 82.5t221.5 223.5 q81 141 81 304t-81 303q-80 142 -222 224.5t-306.5 82.5t-307 -82.5t-223.5 -223.5zM932 1010q-215 0 -215 -287q0 -134 55 -203t160 -69q44 0 111.5 16.5t121.5 42.5v-191q-131 -57 -262 -57q-196 0 -307 122.5t-111 342t117 345.5q118 126 326 126q142 0 284 -72l-75 -174 q-113 58 -205 58z" />
<glyph unicode="&#xab;" horiz-adv-x="1151" d="M473 1032l191 -155l-279 -334l135 -350l-246 -103l-202 461v18zM961 1032l190 -155l-279 -334l136 -350l-246 -103l-203 461v18z" />
<glyph unicode="&#xac;" d="M842 248v364h-733v219h952v-583h-219z" />
<glyph unicode="&#xad;" horiz-adv-x="659" d="M94 674h524l-53 -250h-524z" />
<glyph unicode="&#xae;" horiz-adv-x="1704" d="M495 83q-175 103 -272.5 276t-97.5 372.5t100.5 375t275.5 276t375 100.5t375 -99t275 -276q102 -176 102 -376t-99 -374q-97 -174 -271.5 -276t-381 -102t-381.5 103zM347 1035q-81 -141 -81 -304.5t81 -304.5q83 -141 224.5 -223t306.5 -82t306.5 82.5t221.5 223.5 q81 141 81 304t-81 303q-80 142 -222 224.5t-306.5 82.5t-307 -82.5t-223.5 -223.5zM571 1167h308q174 0 266 -68t92 -200q0 -179 -174 -246l197 -360h-254l-138 297h-67v-297h-230v874zM801 758h51q73 0 113.5 31.5t40.5 91.5t-36 89t-116 29h-53v-241z" />
<glyph unicode="&#xaf;" horiz-adv-x="1024" d="M-6 1556l45 201h1036l-45 -201h-1036z" />
<glyph unicode="&#xb0;" horiz-adv-x="877" d="M163 1147q0 133 102.5 234.5t233.5 101.5h9.5h7.5q87 0 167 -47t126 -126.5t46 -165.5v-7.5v-9.5q0 -133 -101 -233.5t-235 -100.5h-20q-133 0 -234.5 100t-101.5 234v10v10zM398 1028q47 -45 112 -45t110 46.5t45 109t-45.5 109t-110 46.5t-110.5 -47t-46 -109.5 t45 -109.5z" />
<glyph unicode="&#xb1;" d="M109 674v219h366v369h219v-369h367v-219h-367v-365h-219v365h-366zM109 219h952v-219h-952v219z" />
<glyph unicode="&#xb4;" horiz-adv-x="1135" d="M483 1241v25q79 88 222 303h335v-17q-48 -57 -155.5 -153.5t-192.5 -157.5h-209z" />
<glyph unicode="&#xb6;" horiz-adv-x="1341" d="M1040 -260v1616h-166v-1616h-161v819q-62 -18 -146 -18q-215 0 -317.5 124t-102.5 380t109 383.5t342 127.5h604v-1816h-162z" />
<glyph unicode="&#xb7;" horiz-adv-x="584" d="M131 695q0 91 54 144.5t150 53.5q69 0 109.5 -38.5t40.5 -106.5q0 -87 -55.5 -141t-136 -54t-121.5 37.5t-41 104.5z" />
<glyph unicode="&#xb8;" horiz-adv-x="420" d="M262 -250q0 -116 -83 -179t-234 -63q-85 0 -152 23v168q64 -23 125 -23q102 0 102 82q0 72 -141 88l96 154h185l-39 -72q141 -50 141 -178z" />
<glyph unicode="&#xbb;" horiz-adv-x="1151" d="M190 72l-190 155l279 334l-136 350l246 103l203 -461v-18zM678 72l-191 155l279 334l-135 350l246 103l202 -461v-18z" />
<glyph unicode="&#xbf;" horiz-adv-x="940" d="M772 977q0 -92 -55.5 -145.5t-149.5 -53.5q-69 0 -109 38.5t-40 116t54 131.5q56 54 136.5 54t122 -37t41.5 -104zM227 -27q0 -118 133 -118q52 0 107 16t201 84l92 -221q-221 -125 -445 -125q-177 0 -280 87.5t-103 244.5q0 156 112 272q56 59 168.5 133.5t148.5 119.5 q34 45 51 107l8 33h258l-14 -78q-20 -107 -77 -181t-175 -154t-151.5 -122.5t-33.5 -97.5z" />
<glyph unicode="&#xc0;" horiz-adv-x="1286" d="M781 1579q-169 166 -242 307v21h311q36 -150 115 -303v-25h-184zM197 0h-320l766 1468h373l147 -1468h-297l-24 348h-473zM791 1211v36q-41 -114 -109 -254l-188 -385h333l-26 350q-10 124 -10 253z" />
<glyph unicode="&#xc1;" horiz-adv-x="1286" d="M735 1579v25q79 88 222 303h335v-17q-48 -57 -155.5 -153.5t-192.5 -157.5h-209zM197 0h-320l766 1468h373l147 -1468h-297l-24 348h-473zM791 1211v36q-41 -114 -109 -254l-188 -385h333l-26 350q-10 124 -10 253z" />
<glyph unicode="&#xc2;" horiz-adv-x="1286" d="M1059 1907q54 -128 176 -303v-25h-198q-63 53 -162 168q-106 -90 -232 -168h-217v25q63 57 152 146t143 157h338zM197 0h-320l766 1468h373l147 -1468h-297l-24 348h-473zM791 1211v36q-41 -114 -109 -254l-188 -385h333l-26 350q-10 124 -10 253z" />
<glyph unicode="&#xc3;" horiz-adv-x="1286" d="M999 1579q-44 0 -86.5 16.5t-70.5 36.5q-74 52 -123 52q-31 0 -55.5 -28t-38.5 -79h-177q58 309 281 309q44 0 87.5 -16t71.5 -36q73 -52 122 -52q33 0 57.5 25t46.5 81h172q-66 -309 -287 -309zM197 0h-320l766 1468h373l147 -1468h-297l-24 348h-473zM791 1211v36 q-41 -114 -109 -254l-188 -385h333l-26 350q-10 124 -10 253z" />
<glyph unicode="&#xc4;" horiz-adv-x="1286" d="M516 1720q0 77 42 117.5t120 40.5q133 0 133 -108q0 -75 -40 -117.5t-120 -42.5q-135 0 -135 110zM918 1720q0 78 42 118t114 40q139 0 139 -108q0 -75 -40.5 -117.5t-119.5 -42.5q-135 0 -135 110zM197 0h-320l766 1468h373l147 -1468h-297l-24 348h-473zM791 1211v36 q-41 -114 -109 -254l-188 -385h333l-26 350q-10 124 -10 253z" />
<glyph unicode="&#xc5;" horiz-adv-x="1286" d="M585 1565q0 108 68 172.5t178.5 64.5t183 -64.5t72.5 -169t-64 -169.5l140 -1399h-297l-24 348h-473l-172 -348h-320l745 1428q-37 55 -37 137zM833 1661q-43 0 -69.5 -26t-26.5 -71t24.5 -70.5t69.5 -25.5t72 26.5t27 70.5t-27 70t-70 26zM791 1211v36 q-41 -114 -109 -254l-188 -385h333l-26 350q-10 124 -10 253z" />
<glyph unicode="&#xc6;" horiz-adv-x="1833" d="M776 0l74 348h-426l-219 -348h-328l922 1462h1104l-54 -254h-512l-67 -321h477l-55 -254h-478l-79 -377h512l-54 -256h-817zM1032 1208h-80l-364 -600h317z" />
<glyph unicode="&#xc7;" horiz-adv-x="1253" d="M905 1227q-131 0 -236.5 -80.5t-170 -238t-64.5 -332.5t69 -255.5t216 -80.5t340 77v-260q-176 -67 -346 -76l-29 -53q141 -50 141 -178q0 -116 -83 -179t-234 -63q-85 0 -152 23v168q64 -23 125 -23q102 0 102 82q0 72 -141 88l90 145q-165 29 -268 138 q-141 150 -141 417t104 488t277.5 336t400.5 115q122 0 221 -23t209 -82l-118 -250q-107 59 -174.5 78t-137.5 19z" />
<glyph unicode="&#xc8;" horiz-adv-x="1110" d="M722 1579q-169 166 -242 307v21h311q36 -150 115 -303v-25h-184zM362 1462h818l-54 -254h-512l-67 -321h477l-55 -254h-477l-80 -377h512l-54 -256h-817z" />
<glyph unicode="&#xc9;" horiz-adv-x="1110" d="M608 1579v25q80 88 222 303h335v-17q-48 -57 -155.5 -153.5t-192.5 -157.5h-209zM362 1462h818l-54 -254h-512l-67 -321h477l-55 -254h-477l-80 -377h512l-54 -256h-817z" />
<glyph unicode="&#xca;" horiz-adv-x="1110" d="M1001 1907q54 -128 176 -303v-25h-198q-63 53 -162 168q-106 -90 -232 -168h-217v25q63 57 152 146t143 157h338zM362 1462h818l-54 -254h-512l-67 -321h477l-55 -254h-477l-80 -377h512l-54 -256h-817z" />
<glyph unicode="&#xcb;" horiz-adv-x="1110" d="M438 1720q0 77 42 117.5t120 40.5q133 0 133 -108q0 -75 -40 -117.5t-120 -42.5q-135 0 -135 110zM840 1720q0 78 42 118t114 40q139 0 139 -108q0 -75 -40.5 -117.5t-119.5 -42.5q-135 0 -135 110zM362 1462h818l-54 -254h-512l-67 -321h477l-55 -254h-477l-80 -377h512 l-54 -256h-817z" />
<glyph unicode="&#xcc;" horiz-adv-x="659" d="M483 1579q-169 166 -242 307v21h311q36 -150 115 -303v-25h-184zM670 1462l-312 -1462h-305l312 1462h305z" />
<glyph unicode="&#xcd;" horiz-adv-x="659" d="M414 1579v25q80 88 222 303h335v-17q-48 -57 -155.5 -153.5t-192.5 -157.5h-209zM670 1462l-312 -1462h-305l312 1462h305z" />
<glyph unicode="&#xce;" horiz-adv-x="659" d="M761 1907q54 -128 176 -303v-25h-198q-63 53 -162 168q-106 -90 -232 -168h-217v25q63 57 152 146t143 157h338zM670 1462l-312 -1462h-305l312 1462h305z" />
<glyph unicode="&#xcf;" horiz-adv-x="659" d="M222 1720q0 77 42 117.5t120 40.5q133 0 133 -108q0 -75 -40 -117.5t-120 -42.5q-135 0 -135 110zM624 1720q0 78 42 118t114 40q139 0 139 -108q0 -75 -40.5 -117.5t-119.5 -42.5q-135 0 -135 110zM670 1462l-312 -1462h-305l312 1462h305z" />
<glyph unicode="&#xd1;" horiz-adv-x="1546" d="M1114 1579q-44 0 -86.5 16.5t-69.5 36.5q-75 52 -124 52q-31 0 -55.5 -28t-38.5 -79h-177q59 309 281 309q44 0 87.5 -16t71.5 -36q73 -52 122 -52q33 0 57.5 25t46.5 81h172q-66 -309 -287 -309zM549 1106h-6l-4 -32q-32 -218 -66 -386l-145 -688h-275l309 1462h357 l340 -1077h4q12 74 39.5 218.5t179.5 858.5h274l-309 -1462h-342z" />
<glyph unicode="&#xd2;" horiz-adv-x="1495" d="M869 1579q-169 166 -242 307v21h311q36 -150 115 -303v-25h-184zM1432 938q0 -284 -98.5 -506t-270 -337t-397.5 -115q-256 0 -400 147q-143 149 -143 412t99 485.5t273 341.5t402 119q255 0 395 -144.5t140 -402.5zM1055 1149.5q-65 77.5 -184.5 77.5t-220.5 -92 t-158.5 -251.5t-57.5 -346.5q0 -146 66 -221.5t187.5 -75.5t221 87t155.5 246.5t56 356.5q0 142 -65 219.5z" />
<glyph unicode="&#xd3;" horiz-adv-x="1495" d="M753 1579v25q79 88 222 303h335v-17q-48 -57 -155.5 -153.5t-192.5 -157.5h-209zM1432 938q0 -284 -98.5 -506t-270 -337t-397.5 -115q-256 0 -400 147q-143 149 -143 412t99 485.5t273 341.5t402 119q255 0 395 -144.5t140 -402.5zM1055 1149.5q-65 77.5 -184.5 77.5 t-220.5 -92t-158.5 -251.5t-57.5 -346.5q0 -146 66 -221.5t187.5 -75.5t221 87t155.5 246.5t56 356.5q0 142 -65 219.5z" />
<glyph unicode="&#xd4;" horiz-adv-x="1495" d="M1132 1907q54 -128 176 -303v-25h-198q-63 53 -162 168q-106 -90 -232 -168h-217v25q63 57 152 146t143 157h338zM1432 938q0 -284 -98.5 -506t-270 -337t-397.5 -115q-256 0 -400 147q-143 149 -143 412t99 485.5t273 341.5t402 119q255 0 395 -144.5t140 -402.5z M1055 1149.5q-65 77.5 -184.5 77.5t-220.5 -92t-158.5 -251.5t-57.5 -346.5q0 -146 66 -221.5t187.5 -75.5t221 87t155.5 246.5t56 356.5q0 142 -65 219.5z" />
<glyph unicode="&#xd5;" horiz-adv-x="1495" d="M1071 1579q-44 0 -86.5 16.5t-70.5 36.5q-74 52 -123 52q-31 0 -55.5 -28t-38.5 -79h-177q58 309 281 309q44 0 87.5 -16t71.5 -36q73 -52 122 -52q33 0 57.5 25t46.5 81h172q-66 -309 -287 -309zM1432 938q0 -284 -98.5 -506t-270 -337t-397.5 -115q-256 0 -400 147 q-143 149 -143 412t99 485.5t273 341.5t402 119q255 0 395 -144.5t140 -402.5zM1055 1149.5q-65 77.5 -184.5 77.5t-220.5 -92t-158.5 -251.5t-57.5 -346.5q0 -146 66 -221.5t187.5 -75.5t221 87t155.5 246.5t56 356.5q0 142 -65 219.5z" />
<glyph unicode="&#xd6;" horiz-adv-x="1495" d="M585 1720q0 77 42 117.5t120 40.5q133 0 133 -108q0 -75 -40 -117.5t-120 -42.5q-135 0 -135 110zM987 1720q0 78 42 118t113 40q140 0 140 -108q0 -75 -40.5 -117.5t-119.5 -42.5q-135 0 -135 110zM1432 938q0 -284 -98.5 -506t-270 -337t-397.5 -115q-256 0 -400 147 q-143 149 -143 412t99 485.5t273 341.5t402 119q255 0 395 -144.5t140 -402.5zM1055 1149.5q-65 77.5 -184.5 77.5t-220.5 -92t-158.5 -251.5t-57.5 -346.5q0 -146 66 -221.5t187.5 -75.5t221 87t155.5 246.5t56 356.5q0 142 -65 219.5z" />
<glyph unicode="&#xd8;" horiz-adv-x="1495" d="M1432 938q0 -284 -98.5 -506t-270 -337t-397.5 -115q-179 0 -304 71l-108 -137l-154 115l121 151q-98 139 -98 357q0 265 99 487.5t273 341.5t402 119q183 0 305 -76l105 131l151 -117l-117 -145q91 -133 91 -340zM870 1233q-125 0 -228.5 -91.5t-160.5 -252.5t-57 -352 q0 -27 8 -101l596 754q-68 43 -158 43zM697 233q120 0 221 88.5t158 246t57 343.5v19l-5 80l-589 -740q58 -37 153 -37h5z" />
<glyph unicode="&#xd9;" horiz-adv-x="1415" d="M818 1579q-169 166 -242 307v21h311q36 -150 115 -303v-25h-184zM596 -20q-212 0 -334 113q-121 114 -121 308q0 72 15 138l196 923h305l-194 -919q-17 -76 -17 -125q0 -178 189 -178q122 0 194 75.5t105 229.5l194 917h306l-201 -946q-57 -266 -218 -401t-419 -135z" />
<glyph unicode="&#xda;" horiz-adv-x="1415" d="M757 1579v25q79 88 222 303h335v-17q-48 -57 -155.5 -153.5t-192.5 -157.5h-209zM596 -20q-212 0 -334 113q-121 114 -121 308q0 72 15 138l196 923h305l-194 -919q-17 -76 -17 -125q0 -178 189 -178q122 0 194 75.5t105 229.5l194 917h306l-201 -946q-57 -266 -218 -401 t-419 -135z" />
<glyph unicode="&#xdb;" horiz-adv-x="1415" d="M1108 1907q54 -128 176 -303v-25h-198q-63 53 -162 168q-106 -90 -232 -168h-217v25q63 57 152 146t143 157h338zM596 -20q-212 0 -334 113q-121 114 -121 308q0 72 15 138l196 923h305l-194 -919q-17 -76 -17 -125q0 -178 189 -178q122 0 194 75.5t105 229.5l194 917 h306l-201 -946q-57 -266 -218 -401t-419 -135z" />
<glyph unicode="&#xdc;" horiz-adv-x="1415" d="M565 1720q0 77 42 117.5t120 40.5q133 0 133 -108q0 -75 -40 -117.5t-120 -42.5q-135 0 -135 110zM967 1720q0 78 42 118t113 40q140 0 140 -108q0 -75 -40.5 -117.5t-119.5 -42.5q-135 0 -135 110zM596 -20q-212 0 -334 113q-121 114 -121 308q0 72 15 138l196 923h305 l-194 -919q-17 -76 -17 -125q0 -178 189 -178q122 0 194 75.5t105 229.5l194 917h306l-201 -946q-57 -266 -218 -401t-419 -135z" />
<glyph unicode="&#xdf;" horiz-adv-x="1350" d="M846 1567q208 0 331 -90t123 -240q0 -115 -49.5 -193t-177.5 -151q-73 -42 -96 -68.5t-23 -52.5t22.5 -52.5t78.5 -68.5q106 -82 144 -150.5t38 -150.5q0 -170 -123 -270t-338 -100q-188 0 -297 61v240q127 -78 258 -78q98 0 146.5 32t48.5 87q0 40 -27 75 q-27 37 -115 103t-122.5 124.5t-34.5 134t44.5 136.5t162.5 127q72 40 107.5 79t35.5 98t-40.5 94.5t-131 35.5t-150 -53t-83.5 -170l-254 -1219q-42 -196 -145.5 -287.5t-278.5 -91.5q-91 0 -160 25v242q62 -21 115 -21q133 0 170 178l254 1207q47 224 182 326t385 102z " />
<glyph unicode="&#xe0;" horiz-adv-x="1217" d="M685 1241q-169 166 -242 307v21h311q36 -150 115 -303v-25h-184zM406 -20q-147 0 -232 106q-84 107 -84 302.5t72 375t189 276.5q117 99 257 99q197 0 277 -164h8l57 143h232l-238 -1118h-229l14 145h-4q-133 -165 -319 -165zM526 223q67 0 130.5 65.5t103 182 t39.5 247.5v13q0 71 -38.5 117.5t-104.5 46.5t-126.5 -71t-97.5 -190.5t-37 -234.5q0 -176 129 -176h2z" />
<glyph unicode="&#xe1;" horiz-adv-x="1217" d="M598 1241v25q80 88 222 303h335v-17q-48 -57 -155.5 -153.5t-192.5 -157.5h-209zM406 -20q-147 0 -232 106q-84 107 -84 302.5t72 375t189 276.5q117 99 257 99q197 0 277 -164h8l57 143h232l-238 -1118h-229l14 145h-4q-133 -165 -319 -165zM526 223q67 0 130.5 65.5 t103 182t39.5 247.5v13q0 71 -38.5 117.5t-104.5 46.5t-126.5 -71t-97.5 -190.5t-37 -234.5q0 -176 129 -176h2z" />
<glyph unicode="&#xe2;" horiz-adv-x="1217" d="M944 1568q54 -128 176 -303v-25h-198q-63 52 -162 168q-106 -90 -232 -168h-217v25q63 57 152 146t143 157h338zM406 -20q-147 0 -232 106q-84 107 -84 302.5t72 375t189 276.5q117 99 257 99q197 0 277 -164h8l57 143h232l-238 -1118h-229l14 145h-4 q-133 -165 -319 -165zM526 223q67 0 130.5 65.5t103 182t39.5 247.5v13q0 71 -38.5 117.5t-104.5 46.5t-126.5 -71t-97.5 -190.5t-37 -234.5q0 -176 129 -176h2z" />
<glyph unicode="&#xe3;" horiz-adv-x="1217" d="M884 1241q-44 0 -86.5 16.5t-69.5 36.5q-75 52 -124 52q-31 0 -55.5 -28t-38.5 -79h-177q59 309 281 309q44 0 87.5 -16t71.5 -36q73 -52 122 -52q33 0 57.5 25t46.5 81h172q-66 -309 -287 -309zM406 -20q-147 0 -232 106q-84 107 -84 302.5t72 375t189 276.5 q117 99 257 99q197 0 277 -164h8l57 143h232l-238 -1118h-229l14 145h-4q-133 -165 -319 -165zM526 223q67 0 130.5 65.5t103 182t39.5 247.5v13q0 71 -38.5 117.5t-104.5 46.5t-126.5 -71t-97.5 -190.5t-37 -234.5q0 -176 129 -176h2z" />
<glyph unicode="&#xe4;" horiz-adv-x="1217" d="M397 1382q0 77 42 117.5t120 40.5q133 0 133 -108q0 -75 -40 -117.5t-120 -42.5q-135 0 -135 110zM799 1382q0 78 42 118t113 40q140 0 140 -108q0 -75 -40.5 -117.5t-119.5 -42.5q-135 0 -135 110zM406 -20q-147 0 -232 106q-84 107 -84 302.5t72 375t189 276.5 q117 99 257 99q197 0 277 -164h8l57 143h232l-238 -1118h-229l14 145h-4q-133 -165 -319 -165zM526 223q67 0 130.5 65.5t103 182t39.5 247.5v13q0 71 -38.5 117.5t-104.5 46.5t-126.5 -71t-97.5 -190.5t-37 -234.5q0 -176 129 -176h2z" />
<glyph unicode="&#xe5;" horiz-adv-x="1217" d="M953 1305q-71 -66 -182.5 -66t-180.5 63.5t-69 173t68 174t178.5 64.5t183 -65t72.5 -171t-70 -173zM866 1477q0 44 -27 70t-70 26t-69.5 -26t-26.5 -71t24.5 -70.5t69.5 -25.5t72 26.5t27 70.5zM406 -20q-147 0 -232 106q-84 107 -84 302.5t72 375t189 276.5 q117 99 257 99q197 0 277 -164h8l57 143h232l-238 -1118h-229l14 145h-4q-133 -165 -319 -165zM526 223q67 0 130.5 65.5t103 182t39.5 247.5v13q0 71 -38.5 117.5t-104.5 46.5t-126.5 -71t-97.5 -190.5t-37 -234.5q0 -176 129 -176h2z" />
<glyph unicode="&#xe6;" horiz-adv-x="1786" d="M1206 -20q-109 0 -179.5 27t-117.5 87l-16 -94h-188l14 145h-6q-71 -87 -146 -126t-168 -39q-146 0 -228 109q-81 110 -81 302t68.5 368.5t185 278t258.5 101.5q96 0 160.5 -38.5t114.5 -125.5h6l57 143h188l-18 -90q46 50 122.5 80.5t166.5 30.5q157 0 246 -84 q90 -82 90 -221q0 -187 -167 -288.5t-476 -101.5h-52l-2 -19v-19q0 -96 55.5 -147.5t159.5 -51.5q65 0 151 22.5t163 63.5v-227q-180 -86 -361 -86zM1118 647q154 0 241 48t87 132q0 95 -105 95q-88 0 -166 -80t-102 -195h45zM518 223q72 0 133.5 67.5t99 183.5t37.5 245 q0 83 -34 129.5t-101.5 46.5t-128 -69.5t-95 -186t-34.5 -240.5q0 -84 32.5 -130t90.5 -46z" />
<glyph unicode="&#xe7;" horiz-adv-x="989" d="M539.5 830q-68.5 -65 -106.5 -176t-38 -238q0 -95 45 -144t121 -49t138.5 20.5t142.5 61.5v-246q-136 -72 -301 -78l-29 -53q141 -50 141 -178q0 -116 -83 -179t-234 -63q-85 0 -152 23v168q64 -23 125 -23q102 0 102 82q0 72 -141 88l94 151q-133 34 -203.5 135 t-70.5 259q0 211 74.5 384.5t209.5 268.5q136 95 313 95t323 -72l-92 -229q-45 19 -72 30q-73 27 -155.5 27t-151 -65z" />
<glyph unicode="&#xe8;" horiz-adv-x="1141" d="M665 1241q-169 166 -242 307v21h311q36 -150 115 -303v-25h-184zM922 66q-174 -86 -387 -86t-329 113t-116 320.5t82.5 376.5t223 259t319 90t277 -81.5t98.5 -223.5q0 -187 -167 -288.5t-477 -101.5h-51l-2 -21v-20q0 -92 52 -144t144 -52t164 20t169 66v-227zM473 647 q154 0 241 48t87 132q0 95 -105 95q-88 0 -166 -80t-102 -195h45z" />
<glyph unicode="&#xe9;" horiz-adv-x="1141" d="M528 1241v25q80 88 222 303h335v-17q-48 -57 -155.5 -153.5t-192.5 -157.5h-209zM922 66q-174 -86 -387 -86t-329 113t-116 320.5t82.5 376.5t223 259t319 90t277 -81.5t98.5 -223.5q0 -187 -167 -288.5t-477 -101.5h-51l-2 -21v-20q0 -92 52 -144t144 -52t164 20t169 66 v-227zM473 647q154 0 241 48t87 132q0 95 -105 95q-88 0 -166 -80t-102 -195h45z" />
<glyph unicode="&#xea;" horiz-adv-x="1141" d="M925 1569q54 -128 176 -303v-25h-198q-63 53 -162 168q-106 -90 -232 -168h-217v25q63 57 152 146t143 157h338zM922 66q-174 -86 -387 -86t-329 113t-116 320.5t82.5 376.5t223 259t319 90t277 -81.5t98.5 -223.5q0 -187 -167 -288.5t-477 -101.5h-51l-2 -21v-20 q0 -92 52 -144t144 -52t164 20t169 66v-227zM473 647q154 0 241 48t87 132q0 95 -105 95q-88 0 -166 -80t-102 -195h45z" />
<glyph unicode="&#xeb;" horiz-adv-x="1141" d="M365 1382q0 77 42 117.5t120 40.5q133 0 133 -108q0 -75 -40 -117.5t-120 -42.5q-135 0 -135 110zM767 1382q0 78 42 118t113 40q140 0 140 -108q0 -75 -40.5 -117.5t-119.5 -42.5q-135 0 -135 110zM922 66q-174 -86 -387 -86t-329 113t-116 320.5t82.5 376.5t223 259 t319 90t277 -81.5t98.5 -223.5q0 -187 -167 -288.5t-477 -101.5h-51l-2 -21v-20q0 -92 52 -144t144 -52t164 20t169 66v-227zM473 647q154 0 241 48t87 132q0 95 -105 95q-88 0 -166 -80t-102 -195h45z" />
<glyph unicode="&#xec;" horiz-adv-x="608" d="M395 1241q-169 166 -242 307v21h311q36 -150 115 -303v-25h-184zM37 0l237 1118h301l-237 -1118h-301z" />
<glyph unicode="&#xed;" horiz-adv-x="608" d="M291 1241v25q79 88 222 303h335v-17q-48 -57 -155.5 -153.5t-192.5 -157.5h-209zM274 1118h301l-237 -1118h-301z" />
<glyph unicode="&#xee;" horiz-adv-x="608" d="M669 1569q54 -128 176 -303v-25h-198q-63 53 -162 168q-106 -90 -232 -168h-217v25q63 57 152 146t143 157h338zM274 1118h301l-237 -1118h-301z" />
<glyph unicode="&#xef;" horiz-adv-x="608" d="M126 1382q0 77 42 117.5t120 40.5q133 0 133 -108q0 -75 -40 -117.5t-120 -42.5q-135 0 -135 110zM528 1382q0 78 42 118t114 40q139 0 139 -108q0 -75 -40.5 -117.5t-119.5 -42.5q-135 0 -135 110zM274 1118h301l-237 -1118h-301z" />
<glyph unicode="&#xf1;" horiz-adv-x="1237" d="M909 1241q-44 0 -86.5 16.5t-70.5 36.5q-74 52 -123 52q-31 0 -55.5 -28t-38.5 -79h-177q58 309 281 309q44 0 87.5 -16t71.5 -36q73 -52 122 -52q33 0 57.5 25t46.5 81h172q-66 -309 -287 -309zM829 772q0 123 -108 123q-92 0 -166.5 -113.5t-118.5 -318.5l-98 -463 h-301l237 1118h230l-21 -207h6q145 228 355 228q138 0 213.5 -83.5t75.5 -238.5q0 -71 -23 -180l-133 -637h-301l137 653q16 65 16 119z" />
<glyph unicode="&#xf2;" horiz-adv-x="1198" d="M661 1241q-169 166 -242 307v21h311q36 -150 115 -303v-25h-184zM1108 688q0 -314 -158.5 -511t-420.5 -197h-11q-195 0 -312 117q-116 119 -116 321.5t71 370.5q72 168 207.5 259t323.5 91t302 -118.5t114 -324.5v-8zM805 696q0 197 -143 197q-75 0 -135 -61 q-60 -64 -97 -180t-37 -242q0 -185 150 -185q75 0 135 61.5t93.5 170t33.5 239.5z" />
<glyph unicode="&#xf3;" horiz-adv-x="1198" d="M571 1241v25q79 88 222 303h335v-17q-48 -57 -155.5 -153.5t-192.5 -157.5h-209zM1108 688q0 -314 -158.5 -511t-420.5 -197h-11q-195 0 -312 117q-116 119 -116 321.5t71 370.5q72 168 207.5 259t323.5 91t302 -118.5t114 -324.5v-8zM805 696q0 197 -143 197 q-75 0 -135 -61q-60 -64 -97 -180t-37 -242q0 -185 150 -185q75 0 135 61.5t93.5 170t33.5 239.5z" />
<glyph unicode="&#xf4;" horiz-adv-x="1198" d="M933 1569q54 -128 176 -303v-25h-198q-63 53 -162 168q-106 -90 -232 -168h-217v25q63 57 152 146t143 157h338zM1108 688q0 -314 -158.5 -511t-420.5 -197h-11q-195 0 -312 117q-116 119 -116 321.5t71 370.5q72 168 207.5 259t323.5 91t302 -118.5t114 -324.5v-8z M805 696q0 197 -143 197q-75 0 -135 -61q-60 -64 -97 -180t-37 -242q0 -185 150 -185q75 0 135 61.5t93.5 170t33.5 239.5z" />
<glyph unicode="&#xf5;" horiz-adv-x="1198" d="M865 1241q-44 0 -86.5 16.5t-70.5 36.5q-74 52 -123 52q-31 0 -55.5 -28t-38.5 -79h-177q58 309 281 309q44 0 87.5 -16t71.5 -36q73 -52 122 -52q33 0 57.5 25t46.5 81h172q-66 -309 -287 -309zM1108 688q0 -314 -158.5 -511t-420.5 -197h-11q-195 0 -312 117 q-116 119 -116 321.5t71 370.5q72 168 207.5 259t323.5 91t302 -118.5t114 -324.5v-8zM805 696q0 197 -143 197q-75 0 -135 -61q-60 -64 -97 -180t-37 -242q0 -185 150 -185q75 0 135 61.5t93.5 170t33.5 239.5z" />
<glyph unicode="&#xf6;" horiz-adv-x="1198" d="M386 1382q0 77 42 117.5t120 40.5q133 0 133 -108q0 -75 -40 -117.5t-120 -42.5q-135 0 -135 110zM788 1382q0 78 42 118t114 40q139 0 139 -108q0 -75 -40.5 -117.5t-119.5 -42.5q-135 0 -135 110zM1108 688q0 -314 -158.5 -511t-420.5 -197h-11q-195 0 -312 117 q-116 119 -116 321.5t71 370.5q72 168 207.5 259t323.5 91t302 -118.5t114 -324.5v-8zM805 696q0 197 -143 197q-75 0 -135 -61q-60 -64 -97 -180t-37 -242q0 -185 150 -185q75 0 135 61.5t93.5 170t33.5 239.5z" />
<glyph unicode="&#xf7;" d="M481 959.5q-37 39.5 -37 112.5t36.5 112t103 39t103 -40t36.5 -111t-37 -111.5t-102.5 -40.5t-102.5 39.5zM109 831h952v-219h-952v219zM481 260.5q-37 39.5 -37 113.5t36.5 112t103 38t103 -39.5t36.5 -110.5t-37 -112t-102.5 -41t-102.5 39.5z" />
<glyph unicode="&#xf8;" horiz-adv-x="1198" d="M1108 688q0 -314 -158.5 -511t-420.5 -197h-11q-122 0 -225 53l-109 -135l-141 108l119 148q-72 107 -72 256q0 211 71 379q72 168 207.5 259t315.5 91q130 0 227 -56l70 88l145 -110l-84 -105q66 -106 66 -260v-8zM657 903q-76 0 -139.5 -63t-98 -169t-34.5 -226v-7v-12 l365 453q-35 24 -88 24h-5zM543 215q114 0 193 133t79 318v16l-358 -444q31 -23 86 -23z" />
<glyph unicode="&#xf9;" horiz-adv-x="1237" d="M661 1241q-169 166 -242 307v21h311q36 -150 115 -303v-25h-184zM410 346q0 -123 108 -123q92 0 166.5 113.5t118.5 318.5l98 463h301l-237 -1118h-230l21 207h-6q-146 -227 -355 -227q-138 0 -211 82.5t-73 238.5q0 93 24 213l127 604h301l-137 -653q-16 -65 -16 -119z " />
<glyph unicode="&#xfa;" horiz-adv-x="1237" d="M610 1241v25q80 88 222 303h335v-17q-48 -57 -155.5 -153.5t-192.5 -157.5h-209zM410 346q0 -123 108 -123q92 0 166.5 113.5t118.5 318.5l98 463h301l-237 -1118h-230l21 207h-6q-146 -227 -355 -227q-138 0 -211 82.5t-73 238.5q0 93 24 213l127 604h301l-137 -653 q-16 -65 -16 -119z" />
<glyph unicode="&#xfb;" horiz-adv-x="1237" d="M967 1569q54 -128 176 -303v-25h-198q-63 53 -162 168q-106 -90 -232 -168h-217v25q63 57 152 146t143 157h338zM410 346q0 -123 108 -123q92 0 166.5 113.5t118.5 318.5l98 463h301l-237 -1118h-230l21 207h-6q-146 -227 -355 -227q-138 0 -211 82.5t-73 238.5 q0 93 24 213l127 604h301l-137 -653q-16 -65 -16 -119z" />
<glyph unicode="&#xfc;" horiz-adv-x="1237" d="M411 1382q0 77 42 117.5t120 40.5q133 0 133 -108q0 -75 -40 -117.5t-120 -42.5q-135 0 -135 110zM813 1382q0 78 42 118t113 40q140 0 140 -108q0 -75 -40.5 -117.5t-119.5 -42.5q-135 0 -135 110zM410 346q0 -123 108 -123q92 0 166.5 113.5t118.5 318.5l98 463h301 l-237 -1118h-230l21 207h-6q-146 -227 -355 -227q-138 0 -211 82.5t-73 238.5q0 93 24 213l127 604h301l-137 -653q-16 -65 -16 -119z" />
<glyph unicode="&#xff;" horiz-adv-x="1063" d="M310 1382q0 77 42 117.5t120 40.5q133 0 133 -108q0 -75 -40 -117.5t-120 -42.5q-135 0 -135 110zM712 1382q0 78 42 118t114 40q139 0 139 -108q0 -75 -40.5 -117.5t-119.5 -42.5q-135 0 -135 110zM467 307h6q8 20 26 71q39 110 83 202l260 538h327l-680 -1278 q-177 -332 -483 -332q-91 0 -147 19v240q65 -13 116 -13q84 0 147.5 47.5t117.5 149.5l26 49l-164 1118h295l56 -518q14 -126 14 -293z" />
<glyph unicode="&#x131;" horiz-adv-x="608" d="M37 0l237 1118h301l-237 -1118h-301z" />
<glyph unicode="&#x152;" horiz-adv-x="1845" d="M666 -20q-256 0 -400 147q-143 149 -143 412t99 485.5t273 341.5t402 119q138 0 209 -23h809l-53 -254h-512l-68 -321h477l-55 -254h-477l-80 -377h512l-53 -256h-760q-95 -20 -180 -20zM1040 1188q-62 39 -175.5 39t-214.5 -92t-158.5 -251.5t-57.5 -346.5 q0 -146 66 -221.5t188 -75.5q86 0 158 32z" />
<glyph unicode="&#x153;" horiz-adv-x="1806" d="M1197 -20q-116 0 -208 38.5t-138 106.5q-134 -145 -354 -145q-187 0 -298 117q-110 118 -110 317v12q0 207 69 370t200 253t301 90h8q210 0 313 -160q154 160 399 160q178 0 276.5 -81.5t98.5 -223.5q0 -187 -167 -288.5t-476 -101.5h-51l-2 -21v-20q0 -92 51.5 -144 t143.5 -52t164 20t169 66v-227q-175 -86 -389 -86zM1138 647q154 0 240.5 48t86.5 132q0 95 -104 95q-88 0 -165.5 -78.5t-102.5 -196.5h45zM750 842.5q-37 50.5 -107.5 50.5t-125.5 -61q-57 -61 -91 -175.5t-34 -242.5q0 -92 37 -140.5t109 -48.5q108 0 179 134 q70 134 70 337q0 96 -37 146.5z" />
<glyph unicode="&#x178;" horiz-adv-x="1155" d="M432 1720q0 77 42 117.5t120 40.5q133 0 133 -108q0 -75 -40 -117.5t-120 -42.5q-135 0 -135 110zM834 1720q0 78 42 118t114 40q139 0 139 -108q0 -75 -40.5 -117.5t-119.5 -42.5q-135 0 -135 110zM1343 1462l-618 -903l-119 -559h-303l119 559l-236 903h312l129 -592 l374 592h342z" />
<glyph unicode="&#x192;" d="M143 -492q-105 0 -174 25v242q61 -21 115 -21q136 0 172 170l186 881h-168l29 149l189 80l18 84q41 191 139 278t273 87q133 0 235 -49l-80 -224q-68 31 -128 31t-96 -39t-48 -106l-12 -62h219l-49 -229h-220l-196 -926q-77 -371 -404 -371z" />
<glyph unicode="&#x2c6;" horiz-adv-x="1135" d="M944 1569q54 -128 176 -303v-25h-198q-63 53 -162 168q-106 -90 -232 -168h-217v25q63 57 152 146t143 157h338z" />
<glyph unicode="&#x2c7;" horiz-adv-x="1135" d="M377 1569h198q63 -53 162 -168q117 96 232 168h217v-25q-215 -202 -295 -303h-338q-24 58 -76.5 146t-99.5 157v25z" />
<glyph unicode="&#x2d8;" horiz-adv-x="1135" d="M754 1241q-152 0 -238 72.5t-86 199.5q0 37 6 66h174q0 -65 36.5 -95t118 -30t129 28.5t64.5 96.5h189q-56 -338 -393 -338z" />
<glyph unicode="&#x2d9;" horiz-adv-x="608" d="M322 1380q0 86 47 131t127 45q157 0 157 -120q0 -83 -45 -131t-135 -48q-151 0 -151 123z" />
<glyph unicode="&#x2da;" horiz-adv-x="1182" d="M1034 1478q0 -106 -70 -172.5t-182 -66.5t-181 63.5t-69 173t68 174t178.5 64.5t183 -65t72.5 -171zM877 1477q0 44 -27 70t-70 26t-69.5 -26t-26.5 -71t24.5 -70.5t69.5 -25.5t72 26.5t27 70.5z" />
<glyph unicode="&#x2db;" horiz-adv-x="422" d="M51 -250q0 -28 16 -43.5t51.5 -15.5t94.5 18v-176q-82 -25 -173.5 -25t-151.5 53.5t-60 138.5t47.5 154t167.5 146h199q-120 -98 -155.5 -149t-35.5 -101z" />
<glyph unicode="&#x2dc;" horiz-adv-x="1135" d="M866 1241q-44 0 -86.5 16.5t-69.5 36.5q-75 52 -124 52q-31 0 -55.5 -28t-38.5 -79h-177q59 309 281 309q44 0 87.5 -16t71.5 -36q73 -52 122 -52q33 0 57.5 25t46.5 81h172q-66 -309 -287 -309z" />
<glyph unicode="&#x2dd;" horiz-adv-x="1135" d="M279 1241v25q114 128 231 303h305v-17q-46 -56 -154 -149t-204 -162h-178zM676 1241v25q114 128 231 303h305v-17q-46 -56 -154 -149t-204 -162h-178z" />
<glyph unicode="&#x5b0;" horiz-adv-x="0" d="M600 -124q30 23 73.5 23t60.5 -20t17 -38q0 -60 -41 -92q-30 -23 -73.5 -23t-60.5 19.5t-17 36.5q0 62 41 94zM549 -366q30 24 73.5 24t60.5 -20t17 -37q0 -61 -41 -93q-30 -23 -73.5 -23t-60.5 19.5t-17 37.5q0 60 41 92z" />
<glyph unicode="&#x5b1;" horiz-adv-x="0" d="M422 -116q43 0 60.5 -20t17.5 -38q0 -61 -42 -92q-30 -23 -73 -23t-60 19.5t-17 36.5q0 62 41 93q30 24 73 24zM645 -139q30 23 73.5 23t61.5 -20.5t18 -38.5q0 -60 -42 -91q-31 -23 -75 -23t-60.5 19t-16.5 36q0 64 41 95zM911 -140q30 24 73.5 24t60.5 -20t17 -38 q0 -60 -41 -92q-30 -23 -73.5 -23t-60.5 19.5t-17 36.5q0 62 41 93zM523 -357q43 0 60 -20t17 -37q0 -61 -41 -92q-30 -24 -73.5 -24t-60 19.5t-16.5 37.5q0 61 41 93q30 23 73 23zM860 -380q30 23 73.5 23t60.5 -20t17 -37q0 -61 -41 -92q-30 -24 -73.5 -24t-60.5 19.5 t-17 37.5q0 60 41 93z" />
<glyph unicode="&#x5b2;" horiz-adv-x="0" d="M940 -116q43 0 60 -20t17 -38q0 -60 -41 -92q-30 -23 -73.5 -23t-60 19.5t-16.5 36.5t3 30q8 41 38 64t73 23zM732 -259h-367l24 117h367zM889 -357q43 0 60 -20t17 -37q0 -61 -41 -92q-30 -24 -73.5 -24t-60 19.5t-16.5 37.5q0 61 41 93q30 23 73 23z" />
<glyph unicode="&#x5b3;" horiz-adv-x="0" d="M870 -140q30 24 73.5 24t60.5 -20t17 -38q0 -60 -41 -92q-30 -23 -73.5 -23t-60.5 19.5t-17 36.5q0 62 41 93zM732 -259h-128l-43 -202h-111l43 202h-128l24 117h367zM819 -380q30 23 73.5 23t60.5 -20t17 -37q0 -61 -41 -92q-30 -24 -73.5 -24t-60.5 19.5t-17 37.5 q0 60 41 93z" />
<glyph unicode="&#x5b4;" horiz-adv-x="0" d="M572 -134q30 23 73.5 23t61.5 -20.5t18 -38.5q0 -59 -41 -90q-31 -24 -75 -24t-61 19t-17 37q0 63 41 94z" />
<glyph unicode="&#x5b5;" horiz-adv-x="0" d="M498 -92q43 0 60 -20t17 -38q0 -60 -40 -92q-30 -23 -73.5 -23t-60.5 19.5t-17 37t3 29.5q8 41 38 64t73 23zM720 -115q30 23 74 23t62 -20.5t18 -38.5q0 -59 -41 -91q-31 -23 -75 -23t-61.5 19.5t-17.5 37t3 29.5q8 41 38 64z" />
<glyph unicode="&#x5b6;" horiz-adv-x="0" d="M524 -116q43 0 60 -20t17 -38q0 -60 -41 -92q-30 -23 -73.5 -23t-60 19.5t-16.5 36.5t3 30q8 41 38 64t73 23zM746 -139q30 23 74 23t62 -20.5t18 -38.5q0 -60 -42 -91q-31 -23 -75 -23t-61 19t-17 37q0 63 41 94zM551 -380q30 23 73.5 23t60.5 -20t17 -37q0 -61 -41 -92 q-30 -24 -73.5 -24t-60.5 19.5t-17 37.5q0 60 41 93z" />
<glyph unicode="&#x5b7;" horiz-adv-x="0" d="M813 -234h-393l24 116h393z" />
<glyph unicode="&#x5b8;" horiz-adv-x="0" d="M829 -255h-136l-43 -202h-111l43 202h-135l25 117h382z" />
<glyph unicode="&#x5b9;" horiz-adv-x="0" d="M573 1560q30 23 73.5 23t61.5 -20.5t18 -38.5q0 -59 -41 -90q-31 -24 -75 -24t-61 19t-17 37q0 63 41 94z" />
<glyph unicode="&#x5ba;" horiz-adv-x="0" d="M573 1560q30 23 73.5 23t61.5 -20.5t18 -38.5q0 -59 -41 -90q-31 -24 -75 -24t-61 19t-17 37q0 63 41 94z" />
<glyph unicode="&#x5bb;" horiz-adv-x="0" d="M542 -127q43 0 59.5 -20t16.5 -38q0 -61 -40 -92q-30 -23 -73.5 -23t-60 19.5t-16.5 37.5q0 61 41 93q30 23 73 23zM612 -326q30 23 73.5 23t60.5 -20t17 -38q0 -60 -40 -91q-30 -24 -73.5 -24t-61 19.5t-17.5 36.5q0 62 41 94zM760 -501q30 23 73.5 23t61.5 -20.5 t18 -38.5q0 -59 -42 -91q-31 -23 -75 -23t-60.5 19t-16.5 36q0 64 41 95z" />
<glyph unicode="&#x5bc;" horiz-adv-x="0" d="M572 720q30 23 73.5 23t61.5 -20.5t18 -38.5q0 -59 -41 -90q-31 -24 -75 -24t-61 19t-17 37q0 63 41 94z" />
<glyph unicode="&#x5bd;" horiz-adv-x="1256" d="M642 -509h-103l74 352h103z" />
<glyph unicode="&#x5be;" horiz-adv-x="659" d="M571 1040h-537l54 250h537z" />
<glyph unicode="&#x5c1;" horiz-adv-x="0" d="M520 1560q30 23 73.5 23t61.5 -20.5t18 -38.5q0 -59 -41 -90q-31 -24 -75 -24t-61 19t-17 37q0 63 41 94z" />
<glyph unicode="&#x5c2;" horiz-adv-x="0" d="M573 1560q30 23 73.5 23t61.5 -20.5t18 -38.5q0 -59 -41 -90q-31 -24 -75 -24t-61 19t-17 37q0 63 41 94z" />
<glyph unicode="&#x5c7;" horiz-adv-x="0" d="M535 -210h-161l-49 -234h-93l49 234h-156l21 100h410z" />
<glyph unicode="&#x5d0;" horiz-adv-x="1329" d="M1345 1290l-98 -462q-11 -50 -23.5 -88.5t-38 -85.5t-60 -82t-90.5 -67.5t-127 -52.5l192 -452h-347l-248 639q-51 -20 -79 -62.5t-42 -112.5l-100 -464h-304l98 461q10 50 22.5 88.5t38.5 85.5t61 82.5t91.5 68t128.5 52.5l-191 452h346l166 -442l83 -197 q48 20 75.5 62.5t41.5 111.5l100 465h304z" />
<glyph unicode="&#x5d1;" horiz-adv-x="1182" d="M1026 843l-130 -610h148l-49 -233h-1032l49 233h579l130 611q8 38 8 70q0 161 -213 161q-128 0 -280 -18l-50 -6l51 241q151 18 345 18t292.5 -34t137 -95.5t38.5 -141.5t-24 -196z" />
<glyph unicode="&#x5d2;" horiz-adv-x="951" d="M523 1055q-22 14 -61 14q-84 0 -154 -17l-24 -6l51 241q93 23 204 23t178 -21t101 -55q56 -55 56 -170q0 -58 -21 -156l-193 -908h-231l-5 188h-15q-6 -8 -17 -22.5t-49 -50t-79 -63t-105 -50t-129 -22.5q-40 0 -99 11l82 283q2 -2 24 -5.5t45.5 -3.5t63 1.5t99.5 19.5 q84 25 145 95t81 163l77 364q25 115 -25 147z" />
<glyph unicode="&#x5d3;" horiz-adv-x="1121" d="M1211 1290l-47 -221q-44 -16 -98 -47q-58 -37 -88 -88t-47 -133l-170 -801h-305l172 808q11 55 36.5 100t53.5 70q58 53 95 66l17 6l2 7h-701l49 233h1031z" />
<glyph unicode="&#x5d4;" horiz-adv-x="1345" d="M1214 1186q41 -66 41 -155.5t-24 -187.5l-179 -843h-306l179 844q8 38 8 70q0 161 -213 161q-90 0 -210 -9.5t-194 -19.5l-75 -10l49 231q215 43 529.5 43t394.5 -124zM327 0h-306l175 823h306z" />
<glyph unicode="&#x5d5;" horiz-adv-x="625" d="M328 0h-305l274 1290h305z" />
<glyph unicode="&#x5d6;" horiz-adv-x="701" d="M791 1290l-49 -233q-57 -38 -110.5 -103.5t-88 -127t-59 -139t-35 -119t-30.5 -134.5l-92 -434h-305l92 434q44 207 126 345q77 128 150 189q70 59 106 75l16 7l2 7h-314l49 233h542z" />
<glyph unicode="&#x5d7;" horiz-adv-x="1345" d="M1214 1186q41 -66 41 -155.5t-24 -187.5l-179 -843h-306l179 844q8 38 8 70q0 161 -213 161q-68 0 -166 -7l-227 -1068h-306l269 1267q215 43 529.5 43t394.5 -124z" />
<glyph unicode="&#x5d8;" horiz-adv-x="1330" d="M435 442q0 -217 168 -217q120 0 200 99t127 321q36 170 36 267q0 84 -33 116q-24 24 -56 32t-87 8l-65 -5l48 225q77 22 165 22t153 -20q139 -44 173 -191q13 -57 13 -108q0 -154 -40 -346q-68 -322 -248 -493.5t-448 -171.5q-150 0 -252.5 76.5t-141.5 224.5 q-18 69 -18 158.5t24 205.5l137 643h307q-94 -443 -128 -602t-34 -244z" />
<glyph unicode="&#x5d9;" horiz-adv-x="592" d="M465 694l-258 -258h-102l182 854h305z" />
<glyph unicode="&#x5da;" horiz-adv-x="1093" d="M569 1310q118 0 202.5 -34t130 -90t65.5 -130t20 -146q0 -86 -23 -191l-258 -1211h-306l264 1242q16 73 16 127.5t-17.5 100.5t-63.5 71.5t-119 25.5q-128 0 -341 -22l50 235q182 22 380 22z" />
<glyph unicode="&#x5db;" horiz-adv-x="1055" d="M582 1310q118 0 202.5 -34t130.5 -90t66 -130t20 -146q0 -86 -23 -191l-32 -148q-83 -398 -338 -525q-132 -66 -308 -66q-229 0 -369 28l50 238q158 -20 332 -20q147 0 223 92q68 81 98 222l44 210q15 70 15 125q0 200 -200 200q-127 0 -340 -22l50 235q182 22 379 22z " />
<glyph unicode="&#x5dc;" horiz-adv-x="1115" d="M516 1290h679l-42 -198l-306 -613l-209 -479h-297l209 479l288 578h-677l106 499h305z" />
<glyph unicode="&#x5dd;" horiz-adv-x="1345" d="M290 1267q215 43 506 43t394 -90q72 -64 72 -183q0 -48 -12 -106l-198 -931h-1031zM944 931q4 21 4 40q0 58 -50 79q-34 15 -74.5 20t-106 5t-163.5 -7l-178 -835h419z" />
<glyph unicode="&#x5de;" horiz-adv-x="1413" d="M257 1110q0 33 -2 61t-3.5 48t-3 32.5t-3 21.5t-2.5 18h292q7 -39 11 -91l4 -107h19q19 29 64 71t91 70.5t120.5 52t161 23.5t150.5 -33t96 -87q52 -85 52 -230q0 -96 -29 -230l-155 -730h-552l49 233h240l99 462q25 115 25 191q0 45 -11.5 82t-29.5 56q-43 44 -122 44 q-46 0 -94 -21.5t-83 -52.5q-73 -64 -107 -112l-14 -22l-259 -860h-298l249 819q45 147 45 291z" />
<glyph unicode="&#x5df;" horiz-adv-x="602" d="M523 1290q9 -65 9 -113t-0.5 -79.5t-9.5 -110.5t-27 -162l-280 -1317h-305q256 1206 277 1303q40 183 40 328q0 86 -9 151h305z" />
<glyph unicode="&#x5e0;" horiz-adv-x="879" d="M286 1292q90 18 186.5 18t161 -20.5t99.5 -55.5q64 -64 64 -181q0 -59 -18 -145l-112 -525q-20 -94 -52.5 -189.5t-55.5 -144.5l-23 -49h-583l49 233h310q35 77 67 230l95 445q25 115 -25 147q-22 14 -59 14q-75 0 -155 -17z" />
<glyph unicode="&#x5e1;" horiz-adv-x="1268" d="M774 1310q257 0 363 -174q64 -107 64 -267q0 -101 -26 -224q-66 -313 -248 -489t-434 -176t-360 176q-67 108 -67 271q0 99 25 219t97 236t142 170l1 8l-134 -9l49 231q238 28 528 28zM376 442q0 -219 167 -219q232 0 322 422q26 122 26 209q0 221 -167 221l-113 -2 q-153 -165 -210 -428q-25 -118 -25 -203z" />
<glyph unicode="&#x5e2;" horiz-adv-x="1297" d="M598 708l-7 -409q91 51 155.5 144.5t108.5 241.5l181 604h302l-169 -560q-42 -149 -95 -243q-68 -125 -139 -196q-114 -115 -233 -176q-162 -82 -354 -114l-421 -60l50 236l339 49l-56 1065h304z" />
<glyph unicode="&#x5e3;" horiz-adv-x="1309" d="M108 730q0 56 18 141t68.5 166t115 131.5t144.5 83.5q142 60 309 60q190 0 298 -87q39 -32 70 -84q60 -98 60 -257q0 -109 -28 -238l-242 -1138h-311l242 1138q33 151 33 229q0 42 -11 82.5t-31 60.5q-46 49 -132 49q-63 0 -113 -18.5t-78 -42.5t-49 -56 q-29 -47 -35.5 -79t-6.5 -54.5t8.5 -52.5t33.5 -52q45 -42 89 -51l37 -7l-100 -228l-51 7q-132 18 -196 49q-142 70 -142 248z" />
<glyph unicode="&#x5e4;" horiz-adv-x="1269" d="M122 730q0 56 18 141t68.5 166t114.5 131t144 83q143 59 309 59q188 0 298 -86q40 -32 72 -84q59 -98 59 -256q0 -109 -31 -254t-86 -265.5t-118.5 -193t-145.5 -116.5t-159.5 -59.5t-188.5 -15.5t-226 7t-166 14l-51 7l47 224q226 -18 463 -18q110 0 174 70q32 34 55 71 t42 93q38 117 70 284q15 79 15 116t-1.5 58t-11 56.5t-28.5 55.5q-47 49 -133 49q-63 0 -113 -18.5t-78 -42.5t-48 -56q-30 -47 -36 -79t-6 -54.5t8 -52.5t32 -52q46 -42 90 -51l37 -7l-100 -228l-51 7q-132 18 -196 49q-142 70 -142 248z" />
<glyph unicode="&#x5e5;" horiz-adv-x="1173" d="M644 435q-42 0 -80 5l-198 -932h-305l227 1069l-134 713h334l86 -629v-15q29 -3 52 -3q79 0 123 42t65 140l98 465h305l-98 -462q-44 -208 -183 -309q-50 -37 -125 -60.5t-167 -23.5z" />
<glyph unicode="&#x5e6;" horiz-adv-x="1274" d="M544 1290l237 -581q92 103 152 298l84 282h302l-72 -238q-54 -173 -101 -253q-25 -43 -61 -97q-70 -105 -195 -196l187 -329l-37 -176h-1102l49 233h498l225 -14l1 4l-206 350l-303 717h342z" />
<glyph unicode="&#x5e7;" horiz-adv-x="1310" d="M1353 1106l-342 -589q-165 -285 -206 -483l-8 -34h-303l8 34q17 81 73 224t117 247l317 552h-755l49 233h1089zM209 -493h-283l268 1265h283z" />
<glyph unicode="&#x5e8;" horiz-adv-x="1082" d="M187 1289q191 21 362.5 21t271.5 -32t139 -92q41 -66 41 -155.5t-24 -187.5l-179 -843h-306l179 844q8 38 8 70q0 161 -213 161q-127 0 -329 -21z" />
<glyph unicode="&#x5e9;" horiz-adv-x="1605" d="M658 0h-584l165 1290h292l-83 -646q12 -1 30 -1q79 0 126 42t76 140l137 465h290l-135 -462q-115 -393 -494 -393q-20 0 -56 2l-27 -204h326q167 0 285 130t185 358l169 569h292l-167 -561q-54 -178 -109 -285q-230 -444 -718 -444z" />
<glyph unicode="&#x5ea;" horiz-adv-x="1435" d="M1306 1186q41 -66 41 -155.5t-24 -187.5l-179 -843h-307l179 844q8 38 8 70q0 161 -212 161q-56 0 -122 -3l-147 -690q-19 -91 -50.5 -159t-84.5 -125q-110 -118 -337 -118q-39 0 -73.5 7t-63.5 20l50 232q63 -18 101 -18t65.5 14t44.5 39q29 43 43 108l142 668l-148 -14 l49 231q316 43 630.5 43t394.5 -124z" />
<glyph unicode="&#x5f3;" horiz-adv-x="444" d="M564 1290l8 -22q-106 -231 -262 -479h-226q88 205 195 501h285z" />
<glyph unicode="&#x5f4;" horiz-adv-x="911" d="M586 1290l8 -22q-106 -231 -262 -479h-226q88 205 195 501h285zM553 789q58 135 195 501h284l8 -22q-106 -231 -262 -479h-225z" />
<glyph unicode="&#x2000;" horiz-adv-x="953" />
<glyph unicode="&#x2001;" horiz-adv-x="1907" />
<glyph unicode="&#x2002;" horiz-adv-x="953" />
<glyph unicode="&#x2003;" horiz-adv-x="1907" />
<glyph unicode="&#x2004;" horiz-adv-x="635" />
<glyph unicode="&#x2005;" horiz-adv-x="476" />
<glyph unicode="&#x2006;" horiz-adv-x="317" />
<glyph unicode="&#x2007;" horiz-adv-x="317" />
<glyph unicode="&#x2008;" horiz-adv-x="238" />
<glyph unicode="&#x2009;" horiz-adv-x="381" />
<glyph unicode="&#x200a;" horiz-adv-x="105" />
<glyph unicode="&#x2010;" horiz-adv-x="659" d="M94 674h524l-53 -250h-524z" />
<glyph unicode="&#x2011;" horiz-adv-x="659" d="M94 674h524l-53 -250h-524z" />
<glyph unicode="&#x2012;" horiz-adv-x="659" d="M94 674h524l-53 -250h-524z" />
<glyph unicode="&#x2013;" horiz-adv-x="983" d="M90 666h852l-49 -230h-852z" />
<glyph unicode="&#x2014;" horiz-adv-x="1966" d="M90 666h1835l-49 -230h-1835z" />
<glyph unicode="&#x2018;" horiz-adv-x="440" d="M123 961l-8 22q106 231 262 479h225q-85 -199 -194 -501h-285z" />
<glyph unicode="&#x2019;" horiz-adv-x="440" d="M586 1462l8 -22q-106 -231 -262 -479h-226q88 205 195 501h285z" />
<glyph unicode="&#x201a;" horiz-adv-x="569" d="M377 238l8 -23q-106 -231 -262 -479h-225q83 195 194 502h285z" />
<glyph unicode="&#x201c;" horiz-adv-x="887" d="M123 961l-8 22q106 231 262 479h225q-85 -199 -194 -501h-285zM569 961l-8 22q106 231 262 479h226q-97 -226 -195 -501h-285z" />
<glyph unicode="&#x201d;" horiz-adv-x="887" d="M586 1462l8 -22q-106 -231 -262 -479h-226q88 205 195 501h285zM553 961q58 135 195 501h284l8 -22q-106 -231 -262 -479h-225z" />
<glyph unicode="&#x201e;" horiz-adv-x="1018" d="M377 238l8 -23q-106 -231 -262 -479h-225q83 195 194 502h285zM825 238l9 -23q-104 -228 -263 -479h-225l49 119q19 45 146 383h284z" />
<glyph unicode="&#x2020;" horiz-adv-x="1036" d="M674 958l-152 -958h-282l256 956l-306 -28l52 241l295 -28l34 415h283l-141 -415l323 28l-51 -241z" />
<glyph unicode="&#x2021;" horiz-adv-x="1057" d="M924 588l-52 -242l-311 29l-26 -375h-285l133 375l-324 -29l52 242l311 -29l4 227l90 211l-323 -28l51 241l311 -28l27 374h284l-133 -374l324 28l-51 -241l-312 28v-211l-94 -227z" />
<glyph unicode="&#x2022;" horiz-adv-x="739" d="M103 689q0 162 94.5 269t239.5 107h11q119 0 182 -67t63 -191q0 -176 -91.5 -276.5t-248.5 -100.5q-118 0 -184 67t-66 192z" />
<glyph unicode="&#x2026;" horiz-adv-x="1706" d="M25 115q0 91 54 144.5t150 53.5q69 0 109.5 -38.5t40.5 -106.5q0 -87 -55.5 -141t-136 -54t-121.5 37.5t-41 104.5zM586 115q0 91 54 144.5t150 53.5q69 0 109.5 -38.5t40.5 -106.5q0 -87 -55 -141t-136 -54t-122 37.5t-41 104.5zM1147 115q0 91 54 144.5t150 53.5 q69 0 109.5 -38.5t40.5 -106.5q0 -87 -55.5 -141t-136 -54t-121.5 37.5t-41 104.5z" />
<glyph unicode="&#x202f;" horiz-adv-x="381" />
<glyph unicode="&#x2030;" horiz-adv-x="2494" d="M747.5 1402.5q73.5 -80.5 73.5 -241.5t-56 -305t-150.5 -217.5t-225 -73.5t-202.5 83t-72 245t55 303q113 287 365 287q139 0 212.5 -80.5zM471 0h-240l1088 1462h235zM518 1274q-63 0 -110.5 -129t-47.5 -277q0 -96 56 -96q65 0 112 131.5t47 274.5q0 96 -57 96z M1605 820q74 -79 74 -238t-53.5 -305t-147.5 -220.5t-216 -74.5q-143 0 -216 78t-73 223q0 175 53 321t147.5 220.5t226 74.5t205.5 -79zM2346.5 820q74.5 -79 74.5 -237.5t-55 -305t-148 -221t-215 -74.5q-143 0 -216 78t-73 223q0 177 53 321.5t147.5 219.5t226 75 t206 -79zM1376 690q-39 0 -75 -56t-59 -155t-23 -195t55 -96q41 0 77.5 56t59.5 154.5t23 195t-58 96.5zM2118 690q-38 0 -76 -56q-37 -57 -59.5 -158t-22.5 -194.5t55 -93.5q66 0 113 131.5t47 274.5q0 96 -57 96z" />
<glyph unicode="&#x2039;" horiz-adv-x="664" d="M473 1032l191 -155l-279 -334l135 -350l-246 -103l-202 461v18z" />
<glyph unicode="&#x203a;" horiz-adv-x="664" d="M190 72l-190 155l279 334l-136 350l246 103l203 -461v-18z" />
<glyph unicode="&#x205f;" horiz-adv-x="476" />
<glyph unicode="&#x20aa;" horiz-adv-x="2026" d="M931 1290q231 0 367 -60q59 -25 94.5 -70.5t50 -85.5t14.5 -100q0 -67 -8 -119t-24 -128l-56 -264h-292l56 264q18 85 18 153t-27 107q-51 70 -242 70h-330l-225 -1057h-304l274 1290h634zM970 0h-469l176 827h304l-127 -594h164q115 0 217 43.5t176 119.5 q152 155 201 380l109 514h292l-109 -514q-55 -253 -200 -441q-53 -68 -127.5 -130.5t-161.5 -107t-201.5 -71t-243.5 -26.5z" />
<glyph unicode="&#x20ac;" d="M899 1237q-96 0 -175 -74t-136 -213h348l-39 -176h-360q-13 -42 -25 -115h299l-37 -178h-280q0 -123 45.5 -183t146.5 -60q133 0 283 63v-258q-126 -63 -330 -63q-446 0 -446 501h-152l37 178h127q9 70 22 115h-125l39 176h135q87 253 250 393q163 142 375 142 q98 0 177.5 -22.5t166.5 -80.5l-125 -223q-86 49 -130 63.5t-91 14.5z" />
<glyph unicode="&#x2122;" horiz-adv-x="1534" d="M303 741v572h-197v149h564v-149h-199v-572h-168zM879 741h-164v721h248l159 -510l170 510h240v-721h-168v408l4 121h-6l-174 -529h-141l-166 529h-7l5 -111v-418z" />
<glyph unicode="&#x25fc;" horiz-adv-x="1120" d="M0 1120h1120v-1120h-1120v1120z" />
</font>
</defs>
</svg>
