<?xml version="1.0" standalone="no"?>
<!DOCTYPE svg PUBLIC "-//W3C//DTD SVG 1.1//EN" "http://www.w3.org/Graphics/SVG/1.1/DTD/svg11.dtd" >
<svg xmlns="http://www.w3.org/2000/svg">
<metadata></metadata>
<defs>
<font id="open_sans_hebrewbold" horiz-adv-x="1169" >
<font-face units-per-em="2048" ascent="1638" descent="-410" />
<missing-glyph horiz-adv-x="532" />
<glyph horiz-adv-x="2048" />
<glyph horiz-adv-x="2048" />
<glyph horiz-adv-x="682" />
<glyph unicode="&#xd;" horiz-adv-x="682" />
<glyph unicode=" "  horiz-adv-x="532" />
<glyph unicode="&#x09;" horiz-adv-x="532" />
<glyph unicode="&#xa0;" horiz-adv-x="532" />
<glyph unicode="!" horiz-adv-x="586" d="M416 485h-244l-51 977h346zM162 270q45 43 129.5 43t130 -44t45.5 -124.5t-46.5 -126t-129 -45.5t-128.5 44.5t-46 127t45 125.5z" />
<glyph unicode="&#x22;" horiz-adv-x="967" d="M371 934h-197l-41 528h279zM793 934h-197l-41 528h279z" />
<glyph unicode="#" horiz-adv-x="1323" d="M1278 1053v-209h-280l-46 -232h258v-206h-297l-77 -406h-220l78 406h-194l-76 -406h-215l74 406h-238v206h277l47 232h-252v209h289l77 407h219l-77 -407h198l78 407h215l-78 -407h240zM586 844l-47 -232h196l47 232h-196z" />
<glyph unicode="$" d="M655 1554v-149q232 -11 414 -92l-95 -234q-154 64 -319 78v-295q196 -75 278 -130t120.5 -121t38.5 -154q0 -159 -115.5 -256t-321.5 -115v-205h-137v201q-242 4 -428 86v264q84 -42 208 -75.5t220 -39.5v310l-67 26q-199 79 -281 169.5t-82 231t113.5 234t316.5 113.5 v153h137zM389 1049q0 -44 29 -72t100 -59v235q-129 -19 -129 -104zM791 442q0 40 -32 69.5t-104 61.5v-249q136 22 136 118z" />
<glyph unicode="%" horiz-adv-x="1845" d="M408 1483q169 0 259.5 -118.5t90.5 -343t-88.5 -340.5t-258 -116t-259 119t-89.5 342q0 457 345 457zM635 0h-240l811 1462h240zM410 1274q-50 0 -72.5 -61t-22.5 -189t22.5 -190t72.5 -62q96 0 96 251t-96 251zM1432 899q169 0 259.5 -118.5t90.5 -342.5t-89 -340 t-258 -116t-258.5 119t-89.5 341q0 457 345 457zM1434 690q-50 0 -72.5 -61t-22.5 -189t22.5 -190t72.5 -62q96 0 96 251t-96 251z" />
<glyph unicode="&#x26;" horiz-adv-x="1536" d="M1044 113q-190 -133 -433.5 -133t-386 112.5t-142.5 302.5q0 137 60.5 233.5t207.5 180.5q-76 87 -109.5 165.5t-33.5 170.5q0 152 116 245q117 93 307.5 93t301.5 -87q112 -85 112 -231q0 -120 -70 -218.5t-222 -186.5l284 -277q71 117 123 301h318q-36 -136 -99 -264.5 t-143 -226.5l301 -293h-377zM726.5 1216.5q-35.5 30.5 -98 30.5t-101 -32t-38.5 -91q0 -87 95 -194q91 50 134.5 96.5t43.5 103t-35.5 87zM403 424q0 -86 64.5 -137t165.5 -51q127 0 227 61l-332 330q-62 -48 -93.5 -95.5t-31.5 -107.5z" />
<glyph unicode="'" horiz-adv-x="545" d="M371 934h-197l-41 528h279z" />
<glyph unicode="(" horiz-adv-x="694" d="M348 563q0 -246 73.5 -474.5t209.5 -412.5h-248q-147 171 -224 397.5t-77 489.5t77.5 494t223.5 405h250q-140 -191 -212.5 -422t-72.5 -477z" />
<glyph unicode=")" horiz-adv-x="694" d="M311 1462q148 -177 224.5 -408.5t76.5 -493.5t-77 -488.5t-224 -395.5h-248q136 186 209.5 414.5t73.5 473.5t-72.5 476t-212.5 422h250z" />
<glyph unicode="*" horiz-adv-x="1116" d="M647 1188l373 104l33 -252l-340 -24l223 -297l-227 -121l-156 313l-137 -311l-236 119l221 297l-338 26l39 250l365 -104l-41 368h262z" />
<glyph unicode="+" d="M694 831h387v-219h-387v-385h-219v385h-387v219h387v390h219v-390z" />
<glyph unicode="," horiz-adv-x="594" d="M444 238l15 -23q-53 -205 -176 -479h-220q65 269 101 502h280z" />
<glyph unicode="-" horiz-adv-x="659" d="M598 424h-537v250h537v-250z" />
<glyph unicode="." horiz-adv-x="584" d="M162 270q45 43 129.5 43t130 -44t45.5 -124.5t-46.5 -126t-129 -45.5t-128.5 44.5t-46 127t45 125.5z" />
<glyph unicode="/" horiz-adv-x="846" d="M291 0h-277l545 1462h277z" />
<glyph unicode="0" d="M198.5 1301q124.5 184 381 184t386.5 -192t130 -568.5t-125.5 -560.5t-382.5 -184t-385.5 190t-128.5 568.5t124.5 562.5zM739 1117q-48 118 -156.5 118t-155 -118t-46.5 -387t46.5 -385t155.5 -116t157 118.5t48 386t-49 383.5z" />
<glyph unicode="1" d="M846 0h-309v846l3 138l5 153q-77 -77 -107 -101l-168 -135l-149 186l471 375h254v-1462z" />
<glyph unicode="2" d="M607 1483q199 0 327.5 -110t128.5 -281v-5q0 -101 -35 -188.5t-107.5 -179t-265.5 -268.5l-188 -177v-14h637v-260h-1022v215l367 371q163 166 213 231t72 119.5t22 114.5q0 86 -47.5 130t-130.5 44q-151 0 -332 -150l-168 199q110 93 179 130q147 79 343 79h7z" />
<glyph unicode="3" d="M557 1483q227 0 358.5 -91.5t131.5 -256.5q0 -137 -83 -233t-233 -132v-6q177 -22 268 -107.5t91 -230.5q0 -210 -153 -330q-154 -116 -437 -116q-239 0 -422 79v263q192 -97 389 -97q154 0 226.5 52.5t72.5 160.5t-83 151.5t-269 43.5h-111v237h113q173 0 250 45t77 152 q0 166 -208 166q-148 0 -312 -107l-143 213q200 144 477 144z" />
<glyph unicode="4" d="M961 543h176v-240h-176v-303h-302v303h-624v215l641 944h285v-919zM659 543v248q0 49 4.5 171t8.5 146h-8q-41 -90 -89 -160l-268 -405h352z" />
<glyph unicode="5" d="M976 1200h-521l-27 -287l35 7q64 14 151 14q212 0 337.5 -119t125.5 -326q0 -245 -151.5 -377t-431.5 -132q-244 0 -395 79v267q82 -43 187 -69t197 -26q283 0 283 232q0 221 -293 221q-49 0 -116 -11t-105 -22l-123 66l55 745h792v-262z" />
<glyph unicode="6" d="M685 950q196 0 306 -123q112 -122 112 -348.5t-133 -362.5q-130 -136 -365 -136h-6q-241 0 -384.5 169t-143.5 464v8q0 433 183 645.5t550 212.5q126 0 196 -15v-247q-91 20 -176 20q-311 0 -410 -190q-50 -97 -59 -267h13q99 170 317 170zM753.5 652.5 q-50.5 60.5 -146.5 60.5t-163 -61q-66 -62 -66 -142q0 -118 62 -201q63 -82 160.5 -82t150.5 66.5t53 182.5t-50.5 176.5z" />
<glyph unicode="7" d="M55 1200v260h1049v-194l-553 -1266h-324l549 1200h-721z" />
<glyph unicode="8" d="M247 1384q130 97 339.5 97t338 -95.5t128.5 -257.5q0 -114 -63 -201t-199 -155q161 -86 234 -181.5t73 -211.5q0 -181 -140.5 -290t-376 -109t-372.5 102t-137 289q0 127 67.5 223.5t212.5 169.5q-123 77 -179 166.5t-56 199.5q0 157 130 254zM584 1255 q-79 0 -127.5 -40.5t-48.5 -104t38 -113.5q41 -47 140 -96q96 45 136 92.5t40 114t-49.5 107t-128.5 40.5zM358 389q0 -86 59.5 -134t168 -48t167 48.5t58.5 131.5q0 67 -56.5 125.5t-183.5 124.5q-213 -97 -213 -248z" />
<glyph unicode="9" d="M477 508q-191 0 -301 122q-110 124 -110 350t133.5 362.5t363.5 136.5h6q241 0 385 -170t144 -459v-12q0 -432 -182 -645t-551 -213q-127 0 -197 14v248q84 -21 176 -21q154 0 255 45.5t153.5 144t60.5 267.5h-12q-59 -95 -135.5 -132.5t-188.5 -37.5zM728 1149 q-61 82 -158.5 82t-151 -66.5t-53.5 -182.5t50 -176.5t146 -60.5t163 61t67 142q0 118 -63 201z" />
<glyph unicode=":" horiz-adv-x="584" d="M293 1139q83 0 128.5 -44.5t45.5 -125.5t-46.5 -125.5t-129 -44.5t-128.5 44t-46 125q0 171 176 171zM162 270q45 43 129.5 43t130 -44t45.5 -124.5t-46.5 -126t-129 -45.5t-128.5 44.5t-46 127t45 125.5z" />
<glyph unicode=";" horiz-adv-x="594" d="M293 1139q83 0 128.5 -44.5t45.5 -125.5t-46.5 -125.5t-129 -44.5t-128.5 44t-46 125q0 171 176 171zM444 238l15 -23q-53 -205 -176 -479h-220q65 269 101 502h280z" />
<glyph unicode="&#x3c;" d="M1081 1040l-684 -317l684 -281v-239l-993 438v143l993 496v-240z" />
<glyph unicode="=" d="M1081 805h-993v219h993v-219zM1081 418h-993v219h993v-219z" />
<glyph unicode="&#x3e;" d="M1081 784v-143l-993 -438v239l684 281l-684 317v240z" />
<glyph unicode="?" horiz-adv-x="976" d="M479 1483q205 0 327 -99t122 -264q0 -111 -49.5 -189.5t-190.5 -180.5q-97 -71 -122 -108t-25 -97v-60h-265v74q0 96 41 167.5t148.5 149t140.5 123.5t33 108t-47.5 96t-134.5 34q-149 0 -342 -98l-109 219q224 125 473 125zM289 270q45 43 129.5 43t130 -44t45.5 -124.5 t-46.5 -126t-129 -45.5t-128.5 44.5t-46 127t45 125.5z" />
<glyph unicode="@" horiz-adv-x="1837" d="M907 -154q-379 0 -593 200q-212 200 -212 556q0 247 108.5 448.5t308.5 316t461 114.5q222 0 394.5 -90t266.5 -256t94 -383v-6q0 -140 -45.5 -258t-129.5 -186.5t-187 -68.5h-9q-73 0 -130.5 35.5t-82.5 93.5h-16q-108 -129 -280 -129t-274 106.5t-102 291.5 q0 211 134 339q133 130 350 130q82 0 187.5 -17t172.5 -39l-23 -489q0 -139 76 -139q64 0 102 94.5t38 243.5v9q0 154 -67 276t-187 187.5t-267 65.5h-13q-201 0 -350.5 -83t-228.5 -241q-79 -154 -79 -360q0 -276 148 -423.5t427 -147.5q232 0 483 92v-192 q-213 -91 -475 -91zM974 918q-124 0 -193.5 -77.5t-69.5 -213.5q0 -211 172 -211q91 0 137.5 64t56.5 206l13 221q-53 11 -116 11z" />
<glyph unicode="A" horiz-adv-x="1413" d="M1413 0h-334l-107 348h-532l-106 -348h-334l516 1468h379zM899 608l-166 535q-19 66 -26 98q-33 -127 -189 -633h381z" />
<glyph unicode="B" horiz-adv-x="1376" d="M184 1462h455q309 0 450.5 -89t141.5 -281q0 -130 -62 -215t-163 -101v-10q137 -30 199.5 -114.5t62.5 -227.5q0 -200 -144 -312t-393 -112h-547v1462zM494 1208v-325h180q127 0 183 39t56 125.5t-61 123.5t-195 37h-163zM494 637v-381h202q128 0 189 49t61 150 q0 182 -260 182h-192z" />
<glyph unicode="C" horiz-adv-x="1305" d="M775 -20q-319 0 -488 193t-169 556v10q0 220 83 390.5t237 262t353 91.5h13q215 0 428 -103l-100 -252q-203 97 -328 97q-175 0 -271 -131.5t-96 -366.5q0 -489 367 -489q153 0 373 77v-260q-180 -75 -402 -75z" />
<glyph unicode="D" horiz-adv-x="1516" d="M184 1462h459q358 0 556 -189t198 -528q0 -361 -205.5 -553t-593.5 -192h-414v1462zM494 1208v-952h133q448 0 448 481q0 471 -416 471h-165z" />
<glyph unicode="E" horiz-adv-x="1147" d="M1026 1208h-532v-321h494v-254h-494v-377h532v-256h-842v1462h842v-254z" />
<glyph unicode="F" horiz-adv-x="1124" d="M1022 1208h-533v-377h495v-253h-495v-578h-305v1462h838v-254z" />
<glyph unicode="G" horiz-adv-x="1483" d="M1319 821v-758q-256 -83 -520 -83q-330 0 -506 194q-174 195 -174 554t202 557q203 198 562 198q225 0 434 -90l-103 -248q-162 80 -333 80q-201 0 -322 -135.5t-121 -368t97.5 -358t283.5 -125.5q94 0 197 20v305h-277v258h580z" />
<glyph unicode="H" horiz-adv-x="1567" d="M1382 0h-309v631h-579v-631h-310v1462h310v-573h579v573h309v-1462z" />
<glyph unicode="I" horiz-adv-x="678" d="M494 0h-310v1462h310v-1462z" />
<glyph unicode="J" horiz-adv-x="678" d="M494 1462v-1369q0 -256 -117.5 -389.5t-345.5 -133.5q-105 0 -183 22v258q83 -20 146 -20q101 0 145.5 63t44.5 199v1370h310z" />
<glyph unicode="K" horiz-adv-x="1360" d="M494 0h-310v1462h310v-669l122 172l396 497h344l-510 -647l514 -815h-352l-383 616l-131 -94v-522z" />
<glyph unicode="L" horiz-adv-x="1157" d="M494 256h593v-256h-903v1462h310v-1206z" />
<glyph unicode="M" horiz-adv-x="1931" d="M1747 0h-289v692q0 70 1 111t14 342h-9l-377 -1145h-284l-352 1147h-9q19 -341 19 -467v-680h-277v1462h422l346 -1118h6l367 1118h422v-1462z" />
<glyph unicode="N" horiz-adv-x="1665" d="M1481 0h-394l-636 1106h-9q19 -285 19 -418v-688h-277v1462h391l635 -1095h7q-15 285 -15 403v692h279v-1462z" />
<glyph unicode="O" horiz-adv-x="1630" d="M119 735q0 365 180.5 557.5t517 192.5t515.5 -194t179 -557.5t-180 -558.5t-516 -195t-516 195t-180 560zM817 1227q-185 0 -279 -124.5t-94 -369.5q0 -493 371 -493t371 493.5t-369 493.5z" />
<glyph unicode="P" horiz-adv-x="1286" d="M184 1462h467q267 0 405 -115t138 -346.5t-148 -356t-419 -124.5h-133v-520h-310v1462zM494 1208v-434h102q285 0 285 220q0 110 -59.5 162t-186.5 52h-141z" />
<glyph unicode="Q" horiz-adv-x="1630" d="M815 -20q-336 0 -516 195t-180 560t180.5 557.5t517 192.5t515.5 -194t179 -558q0 -258 -91.5 -432.5t-268.5 -255.5l352 -393h-397l-268 328h-23zM817 1227q-185 0 -279 -124.5t-94 -369.5q0 -493 371 -493t371 493.5t-369 493.5z" />
<glyph unicode="R" horiz-adv-x="1352" d="M184 1462h426q297 0 440.5 -108t143.5 -330q0 -129 -71 -229.5t-201 -157.5q352 -526 430 -637h-344l-349 561h-165v-561h-310v1462zM494 1208v-395h100q147 0 217 49t70 153t-70.5 148.5t-222.5 44.5h-94z" />
<glyph unicode="S" horiz-adv-x="1128" d="M93 356q152 -67 253.5 -93.5t195 -26.5t147.5 39t54 116q0 43 -23 75.5t-70.5 65t-186.5 98t-205 122.5q-147 127 -147 318t131 302q132 111 364 111q195 0 434 -103l-100 -241q-113 46 -191 66t-158.5 20t-128.5 -40.5t-48 -107.5q0 -41 18.5 -71.5t60 -59t197.5 -102.5 q204 -97 280 -197q77 -96 77 -241q0 -196 -143 -313q-143 -113 -387 -113t-424 88v288z" />
<glyph unicode="T" horiz-adv-x="1186" d="M1145 1204h-397v-1204h-310v1204h-397v258h1104v-258z" />
<glyph unicode="U" horiz-adv-x="1548" d="M1374 1462v-946v-6q0 -240 -162 -385t-433 -145h-11q-282 0 -438 145t-156 395v942h309v-895q0 -170 69 -248.5t222 -78.5t222 79t69 250v893h309z" />
<glyph unicode="V" horiz-adv-x="1331" d="M834 0h-338l-496 1462h313l275 -870q25 -85 48 -181.5t30 -140.5q11 93 75 322l277 870h313z" />
<glyph unicode="W" horiz-adv-x="1980" d="M1608 0h-353l-198 768q-12 47 -38 169q-27 139 -31 173q-5 -47 -30 -175t-36 -169l-197 -766h-352l-373 1462h305l187 -798q47 -208 71 -383q6 58 28.5 181.5t39.5 180.5l213 819h293l213 -819q16 -64 36.5 -176t30.5 -186q13 96 34.5 208t37.5 175l186 798h305z" />
<glyph unicode="X" horiz-adv-x="1366" d="M872 737l494 -737h-354l-340 553l-340 -553h-332l485 754l-454 708h342l315 -526l308 526h335z" />
<glyph unicode="Y" horiz-adv-x="1278" d="M793 0h-308v559l-485 903h336l303 -602l305 602h334l-485 -893v-569z" />
<glyph unicode="Z" horiz-adv-x="1186" d="M1137 256v-256h-1088v201l701 1005h-682v256h1050v-200l-700 -1006h719z" />
<glyph unicode="[" horiz-adv-x="678" d="M627 1251h-224v-1364h224v-211h-484v1786h484v-211z" />
<glyph unicode="\" horiz-adv-x="846" d="M834 0h-277l-545 1462h277z" />
<glyph unicode="]" horiz-adv-x="678" d="M535 -324h-484v211h223v1364h-223v211h484v-1786z" />
<glyph unicode="^" horiz-adv-x="1090" d="M1085 520h-239l-322 643l-280 -643h-236l438 950h144z" />
<glyph unicode="_" horiz-adv-x="842" d="M846 -324h-850v140h850v-140z" />
<glyph unicode="`" horiz-adv-x="1243" d="M332 1569h342q67 -106 235 -301v-27h-202q-69 48 -190 146.5t-185 160.5v21z" />
<glyph unicode="a" horiz-adv-x="1237" d="M190 1040q194 101 425 101t349.5 -99t118.5 -297v-745h-213l-59 152h-8q-77 -98 -158 -135t-213 -37q-160 0 -254 92q-92 92 -92 265t123 258.5t377 94.5l194 6v49q0 170 -174 170q-134 0 -315 -81zM399 332q0 -129 148 -129q107 0 170 61t63 162v92l-118 -4 q-133 -4 -198 -48t-65 -134z" />
<glyph unicode="b" horiz-adv-x="1296" d="M465 1556v-362q0 -69 -12 -222h12q106 167 310.5 167t316.5 -156q112 -152 112 -425.5t-116 -425.5t-313 -152t-310 143h-21l-51 -123h-233v1556h305zM465 563q0 -179 53 -257.5t170 -78.5q95 0 150 87.5t55 250t-55 246.5t-154 84q-114 0 -165.5 -70t-53.5 -229v-33z " />
<glyph unicode="c" horiz-adv-x="1053" d="M614 -20q-522 0 -522 573q0 284 142 435t407 151q195 0 347 -76l-89 -236q-162 66 -258 66q-238 0 -238 -333t238 -333q168 0 313 97v-261q-78 -50 -150 -65q-75 -18 -190 -18z" />
<glyph unicode="d" horiz-adv-x="1296" d="M1137 0h-234l-59 145h-13q-103 -165 -317 -165q-198 0 -310 152.5t-112 426t114.5 427t320.5 153.5t317 -165h10q-23 129 -23 224v358h306v-1556zM852 555q0 179 -56 257.5t-180 78.5q-103 0 -159 -87t-56 -250.5t56.5 -247t168.5 -83.5t167 67.5t59 231.5v33z" />
<glyph unicode="e" horiz-adv-x="1210" d="M1059 59q-154 -79 -393 -79q-270 0 -422 149t-152 426t140 429q140 155 383 155t374 -135q133 -134 133 -373v-148h-721q5 -131 77.5 -203.5t201.5 -72.5q190 0 379 88v-236zM777.5 860q-56.5 62 -153.5 62t-152.5 -61t-63.5 -175h428q-2 112 -58.5 174z" />
<glyph unicode="f" horiz-adv-x="793" d="M209 1200q0 192 94 279.5t301 87.5q157 0 281 -47l-78 -224q-93 29 -163 29t-100 -37t-30 -100v-70h264v-229h-264v-889h-305v889h-168v147l168 82v82z" />
<glyph unicode="g" horiz-adv-x="1157" d="M553 231h190q184 0 280.5 -79.5t96.5 -231.5q0 -196 -163.5 -304t-469.5 -108q-233 0 -357 81t-124 229q0 101 63 169t185 97q-46 18 -82 65q-35 47 -35 102.5t34.5 98t109.5 86.5q-89 39 -140 123t-51 197q0 183 119 283t340 100q47 0 111.5 -8.5t82.5 -12.5h390v-155 l-175 -45q48 -77 48 -168q0 -180 -125 -280.5t-349 -100.5l-55 3l-45 5q-47 -36 -47 -80q0 -66 168 -66zM549 954q-168 0 -168 -202q0 -93 42.5 -145t126 -52t124.5 51.5t41 145.5q0 202 -166 202zM625 -14h-158q-84 0 -141 -39q-56 -41 -56 -104.5t61 -99.5t169 -36 q164 0 257 45t93 123q0 61 -53.5 86t-171.5 25z" />
<glyph unicode="h" horiz-adv-x="1346" d="M465 1556v-317q0 -47 -7 -174l-7 -91h16q102 165 324 165q196 0 298.5 -106t102.5 -304v-729h-305v653q0 242 -180 242q-128 0 -185 -87t-57 -282v-526h-305v1556h305z" />
<glyph unicode="i" horiz-adv-x="625" d="M313 1556q166 0 166 -149q0 -72 -42 -111t-124 -39q-166 0 -166 149.5t166 149.5zM465 0h-305v1118h305v-1118z" />
<glyph unicode="j" horiz-adv-x="625" d="M313 1556q166 0 166 -149q0 -72 -42 -111t-124 -39q-166 0 -166 149.5t166 149.5zM465 1118v-1239q0 -178 -103 -274.5t-292 -96.5q-119 0 -201 25v240q69 -19 143 -19q148 0 148 170v1194h305z" />
<glyph unicode="k" horiz-adv-x="1270" d="M465 0h-305v1556h305v-694l-16 -254h4l133 170l313 340h344l-444 -485l471 -633h-352l-322 453l-131 -105v-348z" />
<glyph unicode="l" horiz-adv-x="625" d="M465 0h-305v1556h305v-1556z" />
<glyph unicode="m" horiz-adv-x="2011" d="M1473 1139q193 0 289 -99t96 -311v-729h-306v653q0 122 -41 182t-127 60q-113 0 -168 -81t-55 -253v-561h-305v653q0 122 -41 182t-127 60q-117 0 -170 -86t-53 -283v-526h-305v1118h233l41 -144h17q45 78 130 121.5t195 43.5q252 0 340 -165h27q45 78 132 121.5 t198 43.5z" />
<glyph unicode="n" horiz-adv-x="1346" d="M795 1139q194 0 295.5 -105.5t101.5 -304.5v-729h-305v653q0 122 -43.5 182t-136.5 60q-128 0 -185 -86t-57 -283v-526h-305v1118h233l41 -144h17q50 81 139.5 123t204.5 42z" />
<glyph unicode="o" horiz-adv-x="1268" d="M645 1139q154 0 275.5 -69.5t188 -200t66.5 -298.5v-10q0 -273 -144 -427t-401 -154h-9q-154 0 -275.5 70.5t-188 201.5t-66.5 299v10q0 274 143 425q143 153 402 153h9zM632 893q-121 0 -175.5 -81t-54.5 -250.5t55.5 -253t176 -83.5t175 83t54.5 252.5t-55 251 t-176 81.5z" />
<glyph unicode="p" horiz-adv-x="1296" d="M465 972q106 167 310.5 167t316.5 -154q112 -151 112.5 -421.5t-116 -427t-307.5 -156.5h-7q-196 0 -309 143h-16q16 -135 16 -162v-453h-305v1610h248l43 -146h14zM465 563q0 -179 53 -257.5t170 -78.5q205 0 205 338q0 166 -51 248t-161.5 82t-162 -70t-53.5 -229v-33z " />
<glyph unicode="q" horiz-adv-x="1296" d="M514 -20q-197 0 -310 152q-112 152 -112 425.5t114.5 427.5t317.5 154t320 -165h8l27 144h258v-1610h-306v469q0 65 13 168h-13q-99 -165 -317 -165zM852 555q0 179 -55 257.5t-179 78.5q-215 0 -215 -338q0 -169 53.5 -251.5t168 -82.5t169 67t58.5 232v37z" />
<glyph unicode="r" horiz-adv-x="930" d="M784 1139q63 0 103 -9l-23 -286q-36 10 -90 10q-146 0 -227.5 -75t-81.5 -210v-569h-305v1118h231l45 -188h15q54 96 140 151q88 58 193 58z" />
<glyph unicode="s" horiz-adv-x="1018" d="M473 203q166 0 166 96q0 49 -43.5 78t-198.5 98q-129 54 -190 100q-60 46 -87.5 105.5t-27.5 146.5q0 149 115.5 230.5t323.5 81.5t397 -88l-92 -220q-97 41 -166.5 61.5t-139.5 20.5q-135 0 -135 -73q0 -41 44 -71.5t182.5 -85.5t199.5 -102q119 -90 119 -256 t-120 -255.5t-347 -89.5t-380 65v252q86 -40 192.5 -67t187.5 -27z" />
<glyph unicode="t" horiz-adv-x="889" d="M498 1118h313v-229h-313v-539q0 -63 35.5 -95t105.5 -32t184 35v-227q-114 -51 -287.5 -51t-258 91.5t-84.5 278.5v539h-146v129l168 102l88 236h195v-238z" />
<glyph unicode="u" horiz-adv-x="1346" d="M1186 0h-234l-41 143h-16q-49 -78 -139 -120.5t-205 -42.5q-196 0 -296.5 105t-100.5 304v729h305v-653q0 -122 43.5 -182t136.5 -60q128 0 185 85t57 284v526h305v-1118z" />
<glyph unicode="v" horiz-adv-x="1165" d="M739 0h-313l-426 1118h319l216 -637q36 -122 45 -229h6q4 95 45 229l215 637h319z" />
<glyph unicode="w" horiz-adv-x="1753" d="M1411 0h-332l-87 391l-115 494h-7l-204 -885h-328l-318 1118h304l129 -495q32 -134 63 -367h6q5 83 35 241l16 85l138 536h336l131 -536q48 -259 51 -326h6q8 65 31.5 195t33.5 172l134 495h299z" />
<glyph unicode="x" horiz-adv-x="1184" d="M793 571l381 -571h-347l-235 383l-236 -383h-347l380 571l-360 547h346l217 -356l219 356h346z" />
<glyph unicode="y" horiz-adv-x="1165" d="M225 -492q-76 0 -155 17v242q53 -13 120 -13q169 0 236 199l18 55l-444 1110h334l211 -629q26 -81 37 -194h6q10 98 43 194l207 629h327l-473 -1261q-65 -173 -184.5 -261t-282.5 -88z" />
<glyph unicode="z" horiz-adv-x="998" d="M938 233v-233h-883v180l518 705h-487v233h834v-198l-504 -687h522z" />
<glyph unicode="{" horiz-adv-x="807" d="M725 1462v-225q-96 -3 -135 -36.5t-39 -104.5v-299q-6 -187 -234 -222v-12q234 -35 234 -212v-308q0 -69 37 -103t137 -37v-227q-243 0 -341 63q-97 61 -97 216v315q0 87 -65.5 133t-190.5 46v239q125 0 190.5 44t65.5 126v326q0 154 97 215q98 63 341 63z" />
<glyph unicode="|" horiz-adv-x="1128" d="M674 -465h-219v2015h219v-2015z" />
<glyph unicode="}" horiz-adv-x="807" d="M82 1462q167 0 262 -26.5t135.5 -84t40.5 -167.5v-328q0 -85 62 -126.5t194 -41.5v-239q-129 0 -192.5 -42.5t-63.5 -136.5v-315q0 -111 -41 -168.5t-135.5 -84t-261.5 -26.5v227q97 2 135.5 34.5t38.5 105.5v310q0 86 59 139.5t174 70.5v12q-227 35 -233 222v299 q0 70 -37 104t-137 37v225z" />
<glyph unicode="~" d="M825 553q-68 0 -129.5 14t-146.5 49q-132 56 -227 56q-54 0 -116.5 -33t-117.5 -88v231q103 109 256 109q128 0 266.5 -59.5t237.5 -59.5q54 0 117 32.5t116 88.5v-231q-100 -109 -256 -109z" />
<glyph unicode="&#xa1;" horiz-adv-x="586" d="M163.5 1073.5q46.5 44.5 129 44.5t128.5 -44t46 -127t-45 -126t-129.5 -43t-130 44t-45.5 125.5t46.5 126zM463 -369h-346l51 975h244z" />
<glyph unicode="&#xa2;" d="M741 1483v-158q164 -9 299 -74l-90 -235q-160 65 -258 65q-120 0 -178.5 -83.5t-58.5 -254.5q0 -327 237 -327q82 0 148.5 16t165.5 60v-254q-126 -61 -265 -70v-188h-178v196q-420 58 -420 565q0 260 104.5 402.5t315.5 173.5v166h178z" />
<glyph unicode="&#xa3;" d="M262 870v195q0 201 114 309.5t317 108.5t397 -82l-94 -230q-155 64 -271 64q-78 0 -120 -44.5t-42 -127.5v-193h375v-219h-375v-143q0 -170 -151 -248h718v-260h-1048v248q103 43 141.5 100.5t38.5 157.5v145h-178v219h178z" />
<glyph unicode="&#xa5;" d="M972 715v-178h-245v-138h245v-178h-245v-221h-287v221h-247v178h247v138h-247v178h190l-377 747h316l262 -602l264 602h313l-383 -747h194z" />
<glyph unicode="&#xa6;" horiz-adv-x="1128" d="M674 735h-219v815h219v-815zM674 -465h-219v815h219v-815z" />
<glyph unicode="&#xa7;" horiz-adv-x="994" d="M455 168q194 0 194 117q-1 55 -39 84.5t-168 87.5q-182 73 -252 152q-69 79 -69 196q0 78 35.5 144t97.5 106q-133 84 -133 233q0 130 111 210q112 79 288 79t369 -84l-82 -190q-85 40 -151 61.5t-141.5 21.5t-112.5 -23t-37 -71t48 -85t165 -83q317 -124 317 -342 q0 -177 -125 -260q125 -80 125 -223t-119.5 -231t-322 -88t-347.5 79v207q86 -43 181.5 -70.5t167.5 -27.5zM344 827q0 -64 62 -116.5t184 -100.5q78 57 78 146q0 68 -50 115t-184 96q-38 -15 -64 -54.5t-26 -85.5z" />
<glyph unicode="&#xa8;" horiz-adv-x="1243" d="M418 1540q65 0 103 -37t38 -97.5t-38 -97t-102.5 -36.5t-102 35t-37.5 98.5t37 99t102 35.5zM721 1506q39 34 103 34t102.5 -36t38.5 -98t-39 -98t-102.5 -36t-102.5 33.5t-39 100t39 100.5z" />
<glyph unicode="&#xa9;" horiz-adv-x="1704" d="M470 83q-175 103 -273 276.5t-98 371t101 374.5t276 277.5t375.5 100.5t376 -100.5t276 -276.5t100.5 -374.5t-98 -372t-272.5 -276.5t-381.5 -103t-382 103zM548 202q143 -81 306 -81t304.5 82.5t222.5 224t81 305t-82.5 305t-224 222.5t-304.5 81t-305 -82 q-141 -83 -223 -224q-81 -143 -81 -305.5t82.5 -304t223.5 -223.5zM889 262q-203 0 -315.5 124.5t-112.5 344.5t110 344q111 123 310 123q149 0 305 -78l-74 -168q-114 58 -213.5 58t-153 -73.5t-53.5 -205.5q0 -280 203 -280q131 0 246 59v-191q-120 -57 -252 -57z" />
<glyph unicode="&#xab;" horiz-adv-x="1260" d="M672 909l-279 -348l279 -348l-219 -120l-371 454v26l371 455zM1178 909l-279 -348l279 -348l-220 -120l-370 454v26l370 455z" />
<glyph unicode="&#xac;" d="M1081 248h-219v364h-774v219h993v-583z" />
<glyph unicode="&#xad;" horiz-adv-x="659" d="M598 424h-537v250h537v-250z" />
<glyph unicode="&#xae;" horiz-adv-x="1704" d="M470 83q-175 103 -273 276.5t-98 371t101 374.5t276 277.5t375.5 100.5t376 -100.5t276 -276.5t100.5 -374.5t-98 -372t-272.5 -276.5t-381.5 -103t-382 103zM548 202q143 -81 306 -81t304.5 82.5t222.5 224t81 305t-82.5 305t-224 222.5t-304.5 81t-305 -82 q-141 -83 -223 -224q-81 -143 -81 -305.5t82.5 -304t223.5 -223.5zM543 1188h264q180 0 265 -69.5t85 -213.5q0 -170 -143 -233l237 -400h-255l-177 338h-47v-338h-229v916zM772 1020v-242h31q66 0 94.5 28.5t28.5 94t-28 92.5t-97 27h-29z" />
<glyph unicode="&#xaf;" horiz-adv-x="1024" d="M1030 1556h-1036v201h1036v-201z" />
<glyph unicode="&#xb0;" horiz-adv-x="877" d="M783 1130q0 -88 -46.5 -167t-125 -124.5t-163.5 -45.5h-11q-146 0 -246 99q-100 100 -100 245v7q0 86 46 165.5t126 126.5t167 47h7q93 0 173 -46t126.5 -127.5t46.5 -172.5v-7zM327 1248q-45 -46 -45 -110t44.5 -110t111 -46t111 47t44.5 109.5t-45.5 109t-110 46.5 t-110.5 -46z" />
<glyph unicode="&#xb1;" d="M694 893h387v-219h-387v-385h-219v385h-387v219h387v389h219v-389zM1081 0h-993v219h993v-219z" />
<glyph unicode="&#xb2;" horiz-adv-x="776" d="M383 1483q137 0 216 -66.5t79 -183.5q0 -84 -46.5 -159t-176.5 -193l-105 -95h352v-200h-647v168l224 218q101 102 130 146.5t29 87.5q0 84 -85 84t-183 -88l-123 152q147 129 336 129z" />
<glyph unicode="&#xb3;" horiz-adv-x="776" d="M377 1481q128 0 208.5 -64.5t80.5 -167.5q0 -142 -170 -198v-13q94 -20 146 -75t52 -134q0 -124 -90 -192t-272 -68q-143 0 -273 70v190q148 -90 271 -90q143 0 143 107q0 52 -43.5 79t-122.5 27h-112v160h92q84 0 124 26t40 83q0 40 -26 64t-73 24t-88 -18t-102 -60 l-101 141q144 109 316 109z" />
<glyph unicode="&#xb4;" horiz-adv-x="1243" d="M909 1569v-21q-51 -51 -176 -153t-198 -154h-203v27q168 195 235 301h342z" />
<glyph unicode="&#xb6;" horiz-adv-x="1341" d="M1167 -260h-161v1616h-166v-1616h-162v819q-62 -18 -146 -18q-215 0 -317 124t-102 381t109.5 383.5t340.5 126.5h604v-1816z" />
<glyph unicode="&#xb7;" horiz-adv-x="584" d="M162 850q45 43 129.5 43t130 -44t45.5 -125.5t-46.5 -126t-129 -44.5t-128.5 44t-46 127t45 126z" />
<glyph unicode="&#xb8;" horiz-adv-x="420" d="M418 -250q0 -127 -74.5 -184.5t-234.5 -57.5q-79 0 -146 21v168q84 -21 143 -21q72 0 72 62q0 83 -166 108l78 154h193l-27 -61q75 -24 118.5 -75t43.5 -114z" />
<glyph unicode="&#xb9;" horiz-adv-x="776" d="M584 586h-238v446l3 112l5 95q-27 -36 -75 -78l-78 -61l-109 127l301 235h191v-876z" />
<glyph unicode="&#xbb;" horiz-adv-x="1260" d="M672 573v-26l-371 -454l-219 120l278 348l-278 348l219 119zM1178 573v-26l-371 -454l-219 120l278 348l-278 348l219 119z" />
<glyph unicode="&#xbc;" horiz-adv-x="1804" d="M538 586h-238v446l3 112l5 95q-27 -36 -75 -78l-78 -61l-109 127l301 235h191v-876zM559 0h-239l811 1462h239zM1557 320h125v-168h-125v-152h-238v152h-383v154l385 577h236v-563zM1319 320v164q0 86 6 184q-10 -27 -35.5 -80t-41.5 -77l-127 -191h198z" />
<glyph unicode="&#xbd;" horiz-adv-x="1804" d="M538 586h-238v446l3 112l5 95q-27 -36 -75 -78l-78 -61l-109 127l301 235h191v-876zM559 0h-239l811 1462h239zM1397 898q137 0 216 -66.5t79 -183.5q0 -84 -46.5 -159t-176.5 -193l-105 -95h352v-201h-647v169l224 219q101 99 130 144.5t29 89.5q0 83 -85 83t-183 -88 l-123 152q147 129 336 129z" />
<glyph unicode="&#xbe;" horiz-adv-x="1804" d="M408 1481q128 0 208.5 -64.5t80.5 -167.5q0 -142 -170 -198v-13q94 -20 146 -75t52 -134q0 -124 -90 -192t-272 -68q-143 0 -273 70v190q148 -90 271 -90q143 0 143 107q0 52 -43.5 79t-122.5 27h-112v160h92q84 0 124 26t40 83q0 40 -26 64t-73 24t-88 -18t-102 -60 l-101 141q144 109 316 109zM630 0h-239l811 1462h239zM1587 320h125v-168h-125v-152h-238v152h-383v154l385 577h236v-563zM1349 320v164q0 86 6 184q-10 -27 -35.5 -80t-41.5 -77l-127 -191h198z" />
<glyph unicode="&#xbf;" horiz-adv-x="976" d="M441.5 1073.5q46.5 44.5 129 44.5t128.5 -44t46 -127t-45 -126t-129.5 -43t-130 44t-45.5 125.5t46.5 126zM713 606v-74q0 -99 -45 -169q-44 -72 -153 -149t-137 -122q-28 -41 -28 -103t45 -98t131 -36q126 0 355 100l101 -221q-96 -55 -221 -90t-229 -35 q-221 0 -346 96.5t-125 265.5q0 107 48 187q49 79 192 184q98 73 121 107q27 37 27 98v59h264z" />
<glyph unicode="&#xc0;" horiz-adv-x="1413" d="M338 1907h342q67 -106 235 -301v-27h-202q-69 48 -190 146.5t-185 160.5v21zM1413 0h-334l-106 348h-533l-106 -348h-334l516 1468h379zM518 608h381q-142 457 -163 526.5t-29 106.5q-33 -127 -189 -633z" />
<glyph unicode="&#xc1;" horiz-adv-x="1413" d="M1118 1907v-21q-51 -51 -176 -153t-198 -154h-203v27q168 195 235 301h342zM1413 0h-334l-106 348h-533l-106 -348h-334l516 1468h379zM518 608h381q-142 457 -163 526.5t-29 106.5q-33 -127 -189 -633z" />
<glyph unicode="&#xc2;" horiz-adv-x="1413" d="M1141 1579h-203q-156 92 -234 176q-80 -83 -229 -176h-203v27q188 188 256 301h357q30 -51 106.5 -141t149.5 -160v-27zM1413 0h-334l-106 348h-533l-106 -348h-334l516 1468h379zM518 608h381q-142 457 -163 526.5t-29 106.5q-33 -127 -189 -633z" />
<glyph unicode="&#xc3;" horiz-adv-x="1413" d="M850 1579q-47 0 -104 27q-19 8 -80.5 39t-86.5 35t-36 4q-33 0 -61 -27.5t-40 -79.5h-149q11 145 83 227t189 82q55 0 159 -52l52 -26q54 -26 91.5 -26t65.5 27.5t40 78.5h149q-11 -145 -83.5 -227t-188.5 -82zM1413 0h-334l-106 348h-533l-106 -348h-334l516 1468h379z M518 608h381q-142 457 -163 526.5t-29 106.5q-33 -127 -189 -633z" />
<glyph unicode="&#xc4;" horiz-adv-x="1413" d="M504 1878q65 0 103 -37t38 -97.5t-38 -97t-102.5 -36.5t-102 35t-37.5 98.5t37 99t102 35.5zM807 1844q39 34 103 34t102.5 -36t38.5 -98t-39 -98t-102.5 -36t-102.5 33.5t-39 100t39 100.5zM1413 0h-334l-106 348h-533l-106 -348h-334l516 1468h379zM518 608h381 q-142 457 -163 526.5t-29 106.5q-33 -127 -189 -633z" />
<glyph unicode="&#xc5;" horiz-adv-x="1413" d="M457 1565q0 108 67.5 172.5t179 64.5t183.5 -66t72 -169q0 -86 -47 -147l501 -1420h-334l-106 348h-533l-106 -348h-334l499 1421q-42 59 -42 144zM705 1661q-43 0 -69.5 -26t-26.5 -71t24.5 -70.5t69.5 -25.5t71.5 26.5t26.5 70.5t-26.5 70t-69.5 26zM518 608h381 q-142 457 -163 526.5t-29 106.5q-33 -127 -189 -633z" />
<glyph unicode="&#xc6;" horiz-adv-x="1950" d="M1829 1208h-563v-321h526v-254h-526v-377h563v-256h-873v348h-491l-150 -348h-315l655 1462h1174v-254zM956 608v590h-127l-251 -590h378z" />
<glyph unicode="&#xc7;" horiz-adv-x="1305" d="M805 1225q-174 0 -270.5 -131.5t-96.5 -366.5q0 -489 367 -489q153 0 373 77v-260q-161 -68 -363 -74l-18 -42q75 -24 118.5 -75t43.5 -114q0 -127 -74.5 -184.5t-234.5 -57.5q-78 0 -146 21v168q84 -21 143 -21q72 0 72 62q0 83 -166 108l74 146q-248 43 -378 231.5 t-130 505.5q0 228 83 400t238 263t367.5 91t425.5 -103l-100 -252q-203 97 -328 97z" />
<glyph unicode="&#xc8;" horiz-adv-x="1147" d="M259 1907h342q67 -106 235 -301v-27h-202q-69 48 -190 146.5t-185 160.5v21zM1026 1208h-532v-321h495v-254h-495v-377h532v-256h-842v1462h842v-254z" />
<glyph unicode="&#xc9;" horiz-adv-x="1147" d="M1001 1907v-21q-51 -51 -176 -153t-198 -154h-203v27q168 195 235 301h342zM1026 1208h-532v-321h495v-254h-495v-377h532v-256h-842v1462h842v-254z" />
<glyph unicode="&#xca;" horiz-adv-x="1147" d="M1044 1579h-203q-156 92 -234 176q-80 -83 -229 -176h-203v27q189 188 256 301h357q30 -51 106.5 -141t149.5 -160v-27zM1026 1208h-532v-321h495v-254h-495v-377h532v-256h-842v1462h842v-254z" />
<glyph unicode="&#xcb;" horiz-adv-x="1147" d="M411 1878q65 0 103 -37t38 -97.5t-38 -97t-102.5 -36.5t-102 35t-37.5 98.5t37 99t102 35.5zM714 1844q39 34 103 34t102.5 -36t38.5 -98t-39 -98t-102.5 -36t-102.5 33.5t-39 100t39 100.5zM1026 1208h-532v-321h495v-254h-495v-377h532v-256h-842v1462h842v-254z" />
<glyph unicode="&#xcc;" horiz-adv-x="678" d="M-58 1907h342q67 -106 235 -301v-27h-202q-69 48 -190 146.5t-185 160.5v21zM494 0h-310v1462h310v-1462z" />
<glyph unicode="&#xcd;" horiz-adv-x="678" d="M744 1907v-21q-51 -51 -176 -153t-198 -154h-203v27q168 195 235 301h342zM494 0h-310v1462h310v-1462z" />
<glyph unicode="&#xce;" horiz-adv-x="678" d="M773 1579h-203q-156 92 -234 176q-80 -83 -229 -176h-203v27q189 188 256 301h357q30 -51 106.5 -141t149.5 -160v-27zM494 0h-310v1462h310v-1462z" />
<glyph unicode="&#xcf;" horiz-adv-x="678" d="M136 1878q65 0 103 -37t38 -97.5t-38 -97t-102.5 -36.5t-102 35t-37.5 98.5t37 99t102 35.5zM439 1844q39 34 103 34t102.5 -36t38.5 -98t-39 -98t-102.5 -36t-102.5 33.5t-39 100t39 100.5zM494 0h-310v1462h310v-1462z" />
<glyph unicode="&#xd0;" horiz-adv-x="1516" d="M184 1462h459q357 0 555.5 -189t198.5 -528q0 -361 -205.5 -553t-593.5 -192h-414v596h-137v254h137v612zM494 1208v-358h237v-254h-237v-340h131q450 0 450 481q0 471 -418 471h-163z" />
<glyph unicode="&#xd1;" horiz-adv-x="1665" d="M975 1579q-47 0 -105 27q-18 8 -79.5 39t-86.5 35t-36 4q-33 0 -61 -27.5t-40 -79.5h-149q11 145 83 227t189 82q55 0 159 -52q36 -18 53 -26q53 -26 90.5 -26t65.5 27.5t40 78.5h149q-11 -145 -83.5 -227t-188.5 -82zM1481 0h-394l-636 1106h-9q19 -285 19 -418v-688 h-277v1462h391l635 -1095h7q-15 285 -15 403v692h279v-1462z" />
<glyph unicode="&#xd2;" horiz-adv-x="1630" d="M449 1907h342q67 -106 235 -301v-27h-202q-69 48 -190 146.5t-185 160.5v21zM299 1292q180 193 517 193t516 -194t179 -557.5t-180 -558.5t-516 -195t-516 195t-180 559.5t180 557.5zM817 1227q-185 0 -279 -124.5t-94 -369.5q0 -493 371 -493t371 493.5t-369 493.5z" />
<glyph unicode="&#xd3;" horiz-adv-x="1630" d="M1235 1907v-21q-51 -51 -176 -153t-198 -154h-203v27q168 195 235 301h342zM299 1292q180 193 517 193t516 -194t179 -557.5t-180 -558.5t-516 -195t-516 195t-180 559.5t180 557.5zM817 1227q-185 0 -279 -124.5t-94 -369.5q0 -493 371 -493t371 493.5t-369 493.5z" />
<glyph unicode="&#xd4;" horiz-adv-x="1630" d="M1250 1579h-203q-156 92 -234 176q-80 -83 -229 -176h-203v27q189 188 256 301h357q30 -51 106.5 -141t149.5 -160v-27zM299 1292q180 193 517 193t516 -194t179 -557.5t-180 -558.5t-516 -195t-516 195t-180 559.5t180 557.5zM817 1227q-185 0 -279 -124.5t-94 -369.5 q0 -493 371 -493t371 493.5t-369 493.5z" />
<glyph unicode="&#xd5;" horiz-adv-x="1630" d="M959 1579q-47 0 -105 27q-18 8 -79.5 39t-86.5 35t-36 4q-33 0 -61 -27.5t-40 -79.5h-149q11 145 83 227t189 82q55 0 159 -52q36 -18 53 -26q53 -26 90.5 -26t65.5 27.5t40 78.5h149q-11 -145 -83.5 -227t-188.5 -82zM299 1292q180 193 517 193t516 -194t179 -557.5 t-180 -558.5t-516 -195t-516 195t-180 559.5t180 557.5zM817 1227q-185 0 -279 -124.5t-94 -369.5q0 -493 371 -493t371 493.5t-369 493.5z" />
<glyph unicode="&#xd6;" horiz-adv-x="1630" d="M613 1878q65 0 103 -37t38 -97.5t-38 -97t-102.5 -36.5t-102 35t-37.5 98.5t37 99t102 35.5zM916 1844q39 34 103 34t102.5 -36t38.5 -98t-39 -98t-102.5 -36t-102.5 33.5t-39 100t39 100.5zM299 1292q180 193 517 193t516 -194t179 -557.5t-180 -558.5t-516 -195 t-516 195t-180 559.5t180 557.5zM817 1227q-185 0 -279 -124.5t-94 -369.5q0 -493 371 -493t371 493.5t-369 493.5z" />
<glyph unicode="&#xd7;" d="M1040 1028l-305 -305l301 -303l-149 -152l-305 301l-301 -299l-150 152l297 301l-299 301l152 154l301 -299l305 299z" />
<glyph unicode="&#xd8;" horiz-adv-x="1630" d="M1317 1305q194 -194 194 -564.5t-180 -565.5t-516 -195q-195 0 -336 65l-90 -135l-162 108l90 136q-198 193 -198 581q0 364 180 557t518 193q200 0 344 -70l84 125l160 -104zM817 1227q-185 0 -279 -124.5t-94 -369.5q0 -190 56 -307l506 756q-84 45 -189 45zM815 240 q371 0 371 493q0 180 -51 297l-500 -751q77 -39 180 -39z" />
<glyph unicode="&#xd9;" horiz-adv-x="1548" d="M375 1907h342q67 -106 235 -301v-27h-202q-69 48 -190 146.5t-185 160.5v21zM1374 1462v-946q0 -162 -72.5 -284t-210 -187t-323.5 -65q-281 0 -437.5 144t-156.5 396v942h309v-895q0 -170 69 -248.5t222.5 -78.5t222 79t68.5 250v893h309z" />
<glyph unicode="&#xda;" horiz-adv-x="1548" d="M1179 1907v-21q-51 -51 -176 -153t-198 -154h-203v27q168 195 235 301h342zM1374 1462v-946q0 -162 -72.5 -284t-210 -187t-323.5 -65q-281 0 -437.5 144t-156.5 396v942h309v-895q0 -170 69 -248.5t222.5 -78.5t222 79t68.5 250v893h309z" />
<glyph unicode="&#xdb;" horiz-adv-x="1548" d="M1209 1579h-203q-156 92 -234 176q-80 -83 -229 -176h-203v27q188 188 256 301h357q30 -51 106.5 -141t149.5 -160v-27zM1374 1462v-946q0 -162 -72.5 -284t-210 -187t-323.5 -65q-281 0 -437.5 144t-156.5 396v942h309v-895q0 -170 69 -248.5t222.5 -78.5t222 79 t68.5 250v893h309z" />
<glyph unicode="&#xdc;" horiz-adv-x="1548" d="M572 1878q65 0 103 -37t38 -97.5t-38 -97t-102.5 -36.5t-102 35t-37.5 98.5t37 99t102 35.5zM875 1844q39 34 103 34t102.5 -36t38.5 -98t-39 -98t-102.5 -36t-102.5 33.5t-39 100t39 100.5zM1374 1462v-946q0 -162 -72.5 -284t-210 -187t-323.5 -65q-281 0 -437.5 144 t-156.5 396v942h309v-895q0 -170 69 -248.5t222.5 -78.5t222 79t68.5 250v893h309z" />
<glyph unicode="&#xdd;" horiz-adv-x="1278" d="M1038 1907v-21q-51 -51 -176 -153t-198 -154h-203v27q168 195 235 301h342zM793 0h-308v559l-485 903h336l303 -602l305 602h334l-485 -893v-569z" />
<glyph unicode="&#xde;" horiz-adv-x="1286" d="M494 1233h178q254 0 388 -119t134 -346t-142.5 -351t-404.5 -124h-153v-293h-310v1462h310v-229zM494 981v-438h100q147 0 217 53.5t70 167.5t-64 165.5t-199 51.5h-124z" />
<glyph unicode="&#xdf;" horiz-adv-x="1456" d="M160 0v1139q0 201 146.5 314.5t397.5 113.5t398 -88.5t147 -237.5q0 -111 -74 -199q-39 -46 -138 -120q-74 -55 -74 -85.5t26 -55.5t135.5 -93t156.5 -113q103 -96 103 -249q0 -172 -116 -259t-344 -87q-191 0 -303 63v242q53 -36 135.5 -61t146.5 -25q168 0 168 123 q0 41 -15.5 66.5t-55 54t-117.5 73.5q-126 72 -175 131.5t-49 140.5q0 121 140 219q77 55 108 95t31 86q0 60 -64 100.5t-172 40.5t-172.5 -52.5t-64.5 -148.5v-1128h-305z" />
<glyph unicode="&#xe0;" horiz-adv-x="1237" d="M239 1569h342q67 -106 235 -301v-27h-202q-69 48 -190 146.5t-185 160.5v21zM190 1040q194 101 425 101t349.5 -99t118.5 -297v-745h-213l-59 152h-8q-77 -97 -158.5 -134.5t-212.5 -37.5q-163 0 -254.5 92.5t-91.5 265t123 258t377 94.5l194 6v49q0 170 -174 170 q-134 0 -315 -81zM399 332q0 -129 148 -129q106 0 169.5 61t63.5 162v92l-118 -4q-133 -4 -198 -48t-65 -134z" />
<glyph unicode="&#xe1;" horiz-adv-x="1237" d="M1018 1569v-21q-51 -51 -176 -153t-198 -154h-203v27q168 195 235 301h342zM190 1040q194 101 425 101t349.5 -99t118.5 -297v-745h-213l-59 152h-8q-77 -97 -158.5 -134.5t-212.5 -37.5q-163 0 -254.5 92.5t-91.5 265t123 258t377 94.5l194 6v49q0 170 -174 170 q-134 0 -315 -81zM399 332q0 -129 148 -129q106 0 169.5 61t63.5 162v92l-118 -4q-133 -4 -198 -48t-65 -134z" />
<glyph unicode="&#xe2;" horiz-adv-x="1237" d="M1046 1240h-203q-156 92 -234 176q-80 -83 -229 -176h-203v27q189 189 256 301h357q30 -51 106.5 -141t149.5 -160v-27zM190 1040q194 101 425 101t349.5 -99t118.5 -297v-745h-213l-59 152h-8q-77 -97 -158.5 -134.5t-212.5 -37.5q-163 0 -254.5 92.5t-91.5 265t123 258 t377 94.5l194 6v49q0 170 -174 170q-134 0 -315 -81zM399 332q0 -129 148 -129q106 0 169.5 61t63.5 162v92l-118 -4q-133 -4 -198 -48t-65 -134z" />
<glyph unicode="&#xe3;" horiz-adv-x="1237" d="M774 1241q-47 0 -104 27q-19 8 -38 18q-117 60 -157.5 60t-68.5 -27.5t-40 -79.5h-149q11 145 83 227t189 82q55 0 159 -52l52 -26q54 -26 91.5 -26t65.5 27.5t40 78.5h149q-11 -145 -83.5 -227t-188.5 -82zM190 1040q194 101 425 101t349.5 -99t118.5 -297v-745h-213 l-59 152h-8q-77 -97 -158.5 -134.5t-212.5 -37.5q-163 0 -254.5 92.5t-91.5 265t123 258t377 94.5l194 6v49q0 170 -174 170q-134 0 -315 -81zM399 332q0 -129 148 -129q106 0 169.5 61t63.5 162v92l-118 -4q-133 -4 -198 -48t-65 -134z" />
<glyph unicode="&#xe4;" horiz-adv-x="1237" d="M424 1540q65 0 103 -37t38 -97.5t-38 -97t-102.5 -36.5t-102 35t-37.5 98.5t37 99t102 35.5zM727 1506q39 34 103 34t102.5 -36t38.5 -98t-39 -98t-102.5 -36t-102.5 33.5t-39 100t39 100.5zM190 1040q194 101 425 101t349.5 -99t118.5 -297v-745h-213l-59 152h-8 q-77 -97 -158.5 -134.5t-212.5 -37.5q-163 0 -254.5 92.5t-91.5 265t123 258t377 94.5l194 6v49q0 170 -174 170q-134 0 -315 -81zM399 332q0 -129 148 -129q106 0 169.5 61t63.5 162v92l-118 -4q-133 -4 -198 -48t-65 -134z" />
<glyph unicode="&#xe5;" horiz-adv-x="1237" d="M448.5 1649.5q67.5 64.5 179 64.5t183.5 -66t72 -171t-71 -171.5t-183.5 -66.5t-180 64t-67.5 173t67.5 173.5zM629 1573q-43 0 -69.5 -26t-26.5 -71t24.5 -70.5t69.5 -25.5t71.5 26.5t26.5 70.5t-26.5 70t-69.5 26zM190 1040q194 101 425 101t349.5 -99t118.5 -297v-745 h-213l-59 152h-8q-77 -97 -158.5 -134.5t-212.5 -37.5q-163 0 -254.5 92.5t-91.5 265t123 258t377 94.5l194 6v49q0 170 -174 170q-134 0 -315 -81zM399 332q0 -129 148 -129q106 0 169.5 61t63.5 162v92l-118 -4q-133 -4 -198 -48t-65 -134z" />
<glyph unicode="&#xe6;" horiz-adv-x="1878" d="M190 1040q190 101 419 101t345 -131q134 129 357 129t351 -137t128 -371v-148h-723q5 -131 77.5 -203.5t201.5 -72.5q197 0 380 88v-236q-160 -79 -397 -79q-140 0 -251.5 51.5t-182.5 154.5q-98 -117 -196.5 -161.5t-258.5 -44.5t-257 95t-97 264.5t119.5 255.5 t363.5 95l191 6v84q0 68 -43.5 101.5t-122.5 33.5q-139 0 -305 -77zM1307 922q-217 0 -234 -236h430q-2 111 -55 173.5t-141 62.5zM399 332q0 -129 140 -129q101 0 161 61t60 162v92l-113 -4q-125 -4 -186.5 -48t-61.5 -134z" />
<glyph unicode="&#xe7;" horiz-adv-x="1053" d="M641 893q-238 0 -238 -333t238 -333q168 0 313 97v-261q-66 -42 -132.5 -60.5t-160.5 -21.5l-18 -42q75 -24 118.5 -75t43.5 -114q0 -127 -74.5 -184.5t-234.5 -57.5q-78 0 -146 21v168q84 -21 143 -21q72 0 72 62q0 83 -166 108l74 146q-381 72 -381 561q0 284 142 435 t407 151q195 0 348 -76l-90 -236q-162 66 -258 66z" />
<glyph unicode="&#xe8;" horiz-adv-x="1210" d="M245 1569h342q67 -106 235 -301v-27h-202q-69 48 -190 146.5t-185 160.5v21zM666 -20q-271 0 -422.5 149.5t-151.5 425.5t140 430t382.5 154t375 -135t132.5 -373v-148h-721q5 -131 77.5 -203.5t201.5 -72.5q190 0 379 88v-236q-83 -41 -174 -60t-219 -19zM777.5 860 q-56.5 62 -153.5 62t-152.5 -61t-63.5 -175h428q-2 112 -58.5 174z" />
<glyph unicode="&#xe9;" horiz-adv-x="1210" d="M1024 1569v-21q-51 -51 -176 -153t-198 -154h-203v27q168 195 235 301h342zM666 -20q-271 0 -422.5 149.5t-151.5 425.5t140 430t382.5 154t375 -135t132.5 -373v-148h-721q5 -131 77.5 -203.5t201.5 -72.5q190 0 379 88v-236q-83 -41 -174 -60t-219 -19zM777.5 860 q-56.5 62 -153.5 62t-152.5 -61t-63.5 -175h428q-2 112 -58.5 174z" />
<glyph unicode="&#xea;" horiz-adv-x="1210" d="M1063 1241h-203q-156 92 -234 176q-80 -83 -229 -176h-203v27q188 188 256 301h357q30 -51 106.5 -141t149.5 -160v-27zM666 -20q-271 0 -422.5 149.5t-151.5 425.5t140 430t382.5 154t375 -135t132.5 -373v-148h-721q5 -131 77.5 -203.5t201.5 -72.5q190 0 379 88v-236 q-83 -41 -174 -60t-219 -19zM777.5 860q-56.5 62 -153.5 62t-152.5 -61t-63.5 -175h428q-2 112 -58.5 174z" />
<glyph unicode="&#xeb;" horiz-adv-x="1210" d="M436 1540q65 0 103 -37t38 -97.5t-38 -97t-102.5 -36.5t-102 35t-37.5 98.5t37 99t102 35.5zM739 1506q39 34 103 34t102.5 -36t38.5 -98t-39 -98t-102.5 -36t-102.5 33.5t-39 100t39 100.5zM666 -20q-271 0 -422.5 149.5t-151.5 425.5t140 430t382.5 154t375 -135 t132.5 -373v-148h-721q5 -131 77.5 -203.5t201.5 -72.5q190 0 379 88v-236q-83 -41 -174 -60t-219 -19zM777.5 860q-56.5 62 -153.5 62t-152.5 -61t-63.5 -175h428q-2 112 -58.5 174z" />
<glyph unicode="&#xec;" horiz-adv-x="625" d="M-101 1569h342q67 -106 235 -301v-27h-202q-69 48 -190 146.5t-185 160.5v21zM465 0h-305v1118h305v-1118z" />
<glyph unicode="&#xed;" horiz-adv-x="625" d="M722 1569v-21q-51 -51 -176 -153t-198 -154h-203v27q168 195 235 301h342zM465 0h-305v1118h305v-1118z" />
<glyph unicode="&#xee;" horiz-adv-x="625" d="M747 1241h-203q-156 92 -234 176q-80 -83 -229 -176h-203v27q188 188 256 301h357q30 -51 106.5 -141t149.5 -160v-27zM465 0h-305v1118h305v-1118z" />
<glyph unicode="&#xef;" horiz-adv-x="625" d="M110 1540q65 0 103 -37t38 -97.5t-38 -97t-102.5 -36.5t-102 35t-37.5 98.5t37 99t102 35.5zM413 1506q39 34 103 34t102.5 -36t38.5 -98t-39 -98t-102.5 -36t-102.5 33.5t-39 100t39 100.5zM465 0h-305v1118h305v-1118z" />
<glyph unicode="&#xf0;" horiz-adv-x="1268" d="M1176 573q0 -279 -144.5 -436t-395.5 -157t-397.5 137.5t-146.5 371t130 370t342.5 136.5t283.5 -98l8 4q-68 163 -192 281l-230 -142l-100 156l176 107q-81 54 -152 92l101 176q144 -65 258 -141l225 139l100 -154l-170 -104q155 -143 229.5 -324t74.5 -414z M802.5 705.5q-61.5 64.5 -175 64.5t-169 -68t-55.5 -211t59.5 -214.5t176.5 -71.5t171 80.5t54 246.5q0 109 -61.5 173.5z" />
<glyph unicode="&#xf1;" horiz-adv-x="1346" d="M815 1241q-47 0 -105 27q-18 8 -79.5 39t-86.5 35t-36 4q-33 0 -61 -27.5t-40 -79.5h-149q11 145 83 227t189 82q55 0 159 -52q36 -18 53 -26q53 -26 90.5 -26t65.5 27.5t40 78.5h149q-11 -145 -83.5 -227t-188.5 -82zM795 1139q194 0 295.5 -105.5t101.5 -304.5v-729 h-305v653q0 122 -43.5 182t-136.5 60q-129 0 -185.5 -86t-56.5 -283v-526h-305v1118h233l41 -143h17q50 80 139.5 122t204.5 42z" />
<glyph unicode="&#xf2;" horiz-adv-x="1268" d="M237 1569h342q67 -106 235 -301v-27h-202q-69 48 -190 146.5t-185 160.5v21zM637 1139q162 0 284.5 -70t188.5 -200.5t66 -307.5q0 -273 -144 -427t-401 -154q-162 0 -284.5 70.5t-188.5 202.5t-66 308q0 274 143 426t402 152zM633 893q-121 0 -175.5 -81t-54.5 -250.5 t55.5 -253t176 -83.5t175 83t54.5 252.5t-55 251t-176 81.5z" />
<glyph unicode="&#xf3;" horiz-adv-x="1268" d="M1044 1569v-21q-51 -51 -176 -153t-198 -154h-203v27q168 195 235 301h342zM637 1139q162 0 284.5 -70t188.5 -200.5t66 -307.5q0 -273 -144 -427t-401 -154q-162 0 -284.5 70.5t-188.5 202.5t-66 308q0 274 143 426t402 152zM633 893q-121 0 -175.5 -81t-54.5 -250.5 t55.5 -253t176 -83.5t175 83t54.5 252.5t-55 251t-176 81.5z" />
<glyph unicode="&#xf4;" horiz-adv-x="1268" d="M1067 1241h-203q-156 92 -234 176q-80 -83 -229 -176h-203v27q189 188 256 301h357q30 -51 106.5 -141t149.5 -160v-27zM637 1139q162 0 284.5 -70t188.5 -200.5t66 -307.5q0 -273 -144 -427t-401 -154q-162 0 -284.5 70.5t-188.5 202.5t-66 308q0 274 143 426t402 152z M633 893q-121 0 -175.5 -81t-54.5 -250.5t55.5 -253t176 -83.5t175 83t54.5 252.5t-55 251t-176 81.5z" />
<glyph unicode="&#xf5;" horiz-adv-x="1268" d="M776 1241q-47 0 -104 27q-19 8 -38 18q-117 60 -157.5 60t-68.5 -27.5t-40 -79.5h-149q11 145 83 227t189 82q55 0 159 -52l52 -26q54 -26 91.5 -26t65.5 27.5t40 78.5h149q-11 -145 -83.5 -227t-188.5 -82zM637 1139q162 0 284.5 -70t188.5 -200.5t66 -307.5 q0 -273 -144 -427t-401 -154q-162 0 -284.5 70.5t-188.5 202.5t-66 308q0 274 143 426t402 152zM633 893q-121 0 -175.5 -81t-54.5 -250.5t55.5 -253t176 -83.5t175 83t54.5 252.5t-55 251t-176 81.5z" />
<glyph unicode="&#xf6;" horiz-adv-x="1268" d="M430 1540q65 0 103 -37t38 -97.5t-38 -97t-102.5 -36.5t-102 35t-37.5 98.5t37 99t102 35.5zM733 1506q39 34 103 34t102.5 -36t38.5 -98t-39 -98t-102.5 -36t-102.5 33.5t-39 100t39 100.5zM637 1139q162 0 284.5 -70t188.5 -200.5t66 -307.5q0 -273 -144 -427 t-401 -154q-162 0 -284.5 70.5t-188.5 202.5t-66 308q0 274 143 426t402 152zM633 893q-121 0 -175.5 -81t-54.5 -250.5t55.5 -253t176 -83.5t175 83t54.5 252.5t-55 251t-176 81.5z" />
<glyph unicode="&#xf7;" d="M480.5 1184q36.5 39 103 39t103 -40t36.5 -111.5t-37 -111.5t-102.5 -40t-102.5 39t-37 112.5t36.5 112.5zM1081 612h-993v219h993v-219zM480.5 486q36.5 38 103 38t103 -39.5t36.5 -110.5t-37 -112t-102.5 -41t-102.5 39.5t-37 113.5t36.5 112z" />
<glyph unicode="&#xf8;" horiz-adv-x="1268" d="M1034 977q142 -154 142 -421.5t-144 -421.5t-401 -154q-126 0 -234 45l-67 -101l-154 105l68 100q-152 157 -152 431.5t143 426.5t402 152q134 0 248 -52l55 82l152 -108zM633 893q-121 0 -175.5 -81t-54.5 -251q0 -96 19 -166l317 475q-44 23 -106 23zM635 225 q120 0 174.5 83t54.5 253q0 81 -12 141l-309 -462q38 -15 92 -15z" />
<glyph unicode="&#xf9;" horiz-adv-x="1346" d="M245 1569h342q67 -106 235 -301v-27h-202q-69 48 -190 146.5t-185 160.5v21zM1186 0h-234l-41 143h-16q-49 -78 -139 -120.5t-205 -42.5q-196 0 -296.5 105t-100.5 304v729h305v-653q0 -122 43.5 -182t136.5 -60q129 0 185.5 86t56.5 283v526h305v-1118z" />
<glyph unicode="&#xfa;" horiz-adv-x="1346" d="M1075 1569v-21q-51 -51 -176 -153t-198 -154h-203v27q168 195 235 301h342zM1186 0h-234l-41 143h-16q-49 -78 -139 -120.5t-205 -42.5q-196 0 -296.5 105t-100.5 304v729h305v-653q0 -122 43.5 -182t136.5 -60q129 0 185.5 86t56.5 283v526h305v-1118z" />
<glyph unicode="&#xfb;" horiz-adv-x="1346" d="M1104 1241h-203q-156 92 -234 176q-80 -83 -229 -176h-203v27q189 188 256 301h357q30 -51 106.5 -141t149.5 -160v-27zM1186 0h-234l-41 143h-16q-49 -78 -139 -120.5t-205 -42.5q-196 0 -296.5 105t-100.5 304v729h305v-653q0 -122 43.5 -182t136.5 -60q129 0 185.5 86 t56.5 283v526h305v-1118z" />
<glyph unicode="&#xfc;" horiz-adv-x="1346" d="M465 1540q65 0 103 -37t38 -97.5t-38 -97t-102.5 -36.5t-102 35t-37.5 98.5t37 99t102 35.5zM768 1506q39 34 103 34t102.5 -36t38.5 -98t-39 -98t-102.5 -36t-102.5 33.5t-39 100t39 100.5zM1186 0h-234l-41 143h-16q-49 -78 -139 -120.5t-205 -42.5q-196 0 -296.5 105 t-100.5 304v729h305v-653q0 -122 43.5 -182t136.5 -60q129 0 185.5 86t56.5 283v526h305v-1118z" />
<glyph unicode="&#xfd;" horiz-adv-x="1165" d="M970 1569v-21q-51 -51 -176 -153t-198 -154h-203v27q168 195 235 301h342zM225 -492q-76 0 -155 17v242q53 -13 120 -13q169 0 236 199l18 55l-444 1110h334l211 -629q26 -81 37 -194h6q10 98 43 194l207 629h327l-473 -1261q-65 -173 -184.5 -261t-282.5 -88z" />
<glyph unicode="&#xfe;" horiz-adv-x="1296" d="M782 1139q198 0 310 -154t112 -425.5t-111.5 -425.5t-317.5 -154t-310 137h-14l7 -62l7 -94v-453h-305v2048h305v-391l-7 -120l-7 -72h14q103 166 317 166zM465 563q0 -179 53 -257.5t170 -78.5q205 0 205 338q0 166 -51 248t-161.5 82t-162 -70t-53.5 -229v-33z" />
<glyph unicode="&#xff;" horiz-adv-x="1165" d="M382 1540q65 0 103 -37t38 -97.5t-38 -97t-102.5 -36.5t-102 35t-37.5 98.5t37 99t102 35.5zM685 1506q39 34 103 34t102.5 -36t38.5 -98t-39 -98t-102.5 -36t-102.5 33.5t-39 100t39 100.5zM225 -492q-76 0 -155 17v242q53 -13 120 -13q169 0 236 199l18 55l-444 1110 h334l211 -629q26 -81 37 -194h6q10 98 43 194l207 629h327l-473 -1261q-65 -173 -184.5 -261t-282.5 -88z" />
<glyph unicode="&#x131;" horiz-adv-x="625" d="M465 0h-305v1118h305v-1118z" />
<glyph unicode="&#x152;" horiz-adv-x="1993" d="M1872 0h-873q-85 -20 -225 -20q-317 0 -486 196.5t-169 559t169.5 556t487.5 193.5q138 0 228 -23h868v-254h-563v-321h526v-254h-526v-377h563v-256zM776 1227q-166 0 -252 -125.5t-86 -368.5t85.5 -368t250.5 -125q142 0 225 39v907q-34 18 -99.5 29.5t-123.5 11.5z " />
<glyph unicode="&#x153;" horiz-adv-x="2003" d="M1446 -20q-271 0 -420 155q-141 -155 -391 -155q-163 0 -286.5 70.5t-189.5 201.5q-67 131 -67 309q0 276 141.5 427t399.5 151q113 0 213 -40t170 -116q144 156 385 156t377.5 -135t136.5 -373v-148h-746v-8q7 -127 82 -197.5t207 -70.5q201 0 393 88v-236 q-164 -79 -405 -79zM1567.5 859.5q-58.5 62.5 -159 62.5t-161 -59.5t-69.5 -176.5h450q-2 111 -60.5 173.5zM633 893q-121 0 -175.5 -81t-54.5 -250.5t55.5 -253t176 -83.5t175 83t54.5 252.5t-55 251t-176 81.5z" />
<glyph unicode="&#x160;" horiz-adv-x="1128" d="M1033 1907v-27q-83 -83 -154 -166.5t-102 -134.5h-357q-28 46 -82.5 111.5t-173.5 189.5v27h203q144 -91 229 -176q85 88 234 176h203zM532 236q103 0 157 39t54 117t-94 140q-44 30 -182.5 95.5t-206.5 122.5q-149 126 -149 318.5t131.5 303.5t363.5 111q195 0 434 -103 l-100 -241q-117 48 -193.5 67t-156.5 19t-128 -40.5t-48 -107.5q0 -41 19 -71t61.5 -59.5t195.5 -102.5q201 -97 279 -194.5t78 -243.5q0 -199 -143 -312.5t-387 -113.5t-423 88v288q269 -120 438 -120z" />
<glyph unicode="&#x161;" horiz-adv-x="1018" d="M972 1569v-27q-83 -83 -154 -166.5t-102 -134.5h-357q-28 46 -82.5 111.5t-173.5 189.5v27h203q144 -91 229 -176q85 88 234 176h203zM473 203q166 0 166 96q0 35 -21 58q-38 42 -193 106.5t-216.5 110.5t-88.5 107q-28 57 -28 146q0 149 115.5 230.5t323.5 81.5t397 -88 l-92 -220q-97 41 -166.5 61.5t-139.5 20.5q-135 0 -135 -73q0 -41 45 -72t181 -85.5t198 -100.5q121 -90 121 -256.5t-120 -256t-347.5 -89.5t-378.5 65v252q86 -40 192.5 -67t186.5 -27z" />
<glyph unicode="&#x178;" horiz-adv-x="1278" d="M436 1878q65 0 103 -37t38 -97.5t-38 -97t-102.5 -36.5t-102 35t-37.5 98.5t37 99t102 35.5zM739 1844q39 34 103 34t102.5 -36t38.5 -98t-39 -98t-102.5 -36t-102.5 33.5t-39 100t39 100.5zM793 0h-308v559l-485 903h336l303 -602l305 602h334l-485 -893v-569z" />
<glyph unicode="&#x17d;" horiz-adv-x="1186" d="M1040 1907v-27q-83 -83 -154 -166.5t-102 -134.5h-357q-28 46 -82.5 111.5t-173.5 189.5v27h203q144 -91 229 -176q85 88 234 176h203zM1137 256v-256h-1088v201l701 1005h-682v256h1050v-200l-700 -1006h719z" />
<glyph unicode="&#x17e;" horiz-adv-x="999" d="M952 1569v-27q-83 -83 -154 -166.5t-102 -134.5h-357q-28 46 -82.5 111.5t-173.5 189.5v27h203q144 -91 229 -176q85 88 234 176h203zM938 233v-233h-883v180l518 705h-487v233h834v-198l-504 -687h522z" />
<glyph unicode="&#x192;" d="M440 1116q0 190 88 278.5t281 88.5q147 0 262 -47l-73 -224q-82 29 -144 29q-109 0 -109 -137v-70h227v-229h-227v-926q0 -178 -94 -274.5t-270 -96.5q-109 0 -184 25v240q57 -19 118 -19q125 0 125 170v881h-168v147l168 82v82z" />
<glyph unicode="&#x2c6;" horiz-adv-x="1243" d="M1055 1241h-203q-156 92 -234 176q-80 -83 -229 -176h-203v27q189 188 256 301h357q30 -51 106.5 -141t149.5 -160v-27z" />
<glyph unicode="&#x2c7;" horiz-adv-x="1243" d="M1055 1569v-27q-83 -83 -154 -166.5t-102 -134.5h-357q-28 46 -82.5 111.5t-173.5 189.5v27h203q144 -91 229 -176q85 88 234 176h203z" />
<glyph unicode="&#x2d8;" horiz-adv-x="1243" d="M892.5 1333.5q-109.5 -92.5 -279.5 -92.5t-274 90.5t-112 247.5h170q7 -89 94 -113q42 -12 127 -12q205 0 222 125h174q-12 -153 -121.5 -245.5z" />
<glyph unicode="&#x2d9;" horiz-adv-x="625" d="M313 1556q166 0 166 -149q0 -72 -42 -111t-124 -39q-166 0 -166 149.5t166 149.5z" />
<glyph unicode="&#x2da;" horiz-adv-x="1182" d="M407.5 1649.5q67.5 64.5 179 64.5t183.5 -66t72 -171t-71 -171.5t-183.5 -66.5t-180 64t-67.5 173t67.5 173.5zM588 1573q-43 0 -69.5 -26t-26.5 -71t24.5 -70.5t69.5 -25.5t71.5 26.5t26.5 70.5t-26.5 70t-69.5 26z" />
<glyph unicode="&#x2db;" horiz-adv-x="422" d="M257.5 -124.5q-36.5 -53.5 -36.5 -98.5t21.5 -65.5t67.5 -20.5t106 18v-178q-84 -23 -156 -23q-113 0 -181.5 63.5t-68.5 166.5q0 69 39.5 128t140.5 134h179q-75 -71 -111.5 -124.5z" />
<glyph unicode="&#x2dc;" horiz-adv-x="1243" d="M764 1241q-47 0 -104 27q-19 8 -38 18q-117 60 -157.5 60t-68.5 -27.5t-40 -79.5h-149q11 145 83 227t189 82q55 0 159 -52l52 -26q54 -26 91.5 -26t65.5 27.5t40 78.5h149q-11 -145 -83.5 -227t-188.5 -82z" />
<glyph unicode="&#x2dd;" horiz-adv-x="1204" d="M651 1569v-21q-30 -49 -139 -146.5t-195 -160.5h-161v27q59 80 115 168t79 133h301zM1049 1569v-21q-24 -42 -124 -133t-210 -174h-162v27q140 193 195 301h301z" />
<glyph unicode="&#x301;" horiz-adv-x="0" d="M-239 1569v-21q-51 -51 -176 -153t-198 -154h-203v27q168 195 235 301h342z" />
<glyph unicode="&#x303;" horiz-adv-x="0" d="M-499 1241q-47 0 -105 27q-18 8 -79.5 39t-86.5 35t-36 4q-33 0 -61 -27.5t-40 -79.5h-149q11 145 83 227t189 82q55 0 159 -52q36 -18 53 -26q53 -26 90.5 -26t65.5 27.5t40 78.5h149q-11 -145 -83.5 -227t-188.5 -82z" />
<glyph unicode="&#x3bc;" horiz-adv-x="1352" d="M1192 0h-231l-43 150h-15q-43 -86 -103.5 -128t-146.5 -42q-132 0 -198 90l5 -85l5 -157v-320h-305v1610h305v-653q0 -122 44.5 -182t137.5 -60q126 0 183 86.5t57 282.5v526h305v-1118z" />
<glyph unicode="&#x5b0;" horiz-adv-x="0" d="M562 -124.5q25 23.5 68.5 23.5t68.5 -23.5t25 -63.5t-25 -63t-68.5 -23t-68.5 23t-25 63t25 63.5zM562 -365.5q25 23.5 68.5 23.5t68.5 -23.5t25 -63t-25 -63t-68.5 -23.5t-68.5 23t-25 63t25 63.5z" />
<glyph unicode="&#x5b1;" horiz-adv-x="0" d="M378 -116q43 0 68.5 -23.5t25.5 -63.5t-25.5 -63t-68.5 -23t-68 23t-25 63t25 63.5t68 23.5zM606 -139q25 23 68.5 23t69.5 -24t26 -63.5t-26 -62.5t-70 -23t-68.5 22.5t-24.5 63.5t25 64zM872 -139.5q25 23.5 68.5 23.5t68.5 -23.5t25 -63.5t-25 -63t-68.5 -23t-68.5 23 t-25 63t25 63.5zM530 -357q43 0 68 -23.5t25 -63t-25 -63t-68.5 -23.5t-68 23t-24.5 63.5t25 63.5t68 23zM872 -380.5q25 23.5 68.5 23.5t68.5 -23.5t25 -63t-25 -63t-68.5 -23.5t-68.5 23t-25 63t25 63.5z" />
<glyph unicode="&#x5b2;" horiz-adv-x="0" d="M896 -116q43 0 68 -23.5t25 -63.5t-25 -63t-68.5 -23t-68 23t-24.5 63.5t25 63.5t68 23zM718 -259h-367v117h367v-117zM896 -357q43 0 68 -23.5t25 -63t-25 -63t-68.5 -23.5t-68 23t-24.5 63.5t25 63.5t68 23z" />
<glyph unicode="&#x5b3;" horiz-adv-x="0" d="M831 -139.5q25 23.5 68.5 23.5t68.5 -23.5t25 -63.5t-25 -63t-68.5 -23t-68.5 23t-25 63t25 63.5zM718 -259h-128v-202h-111v202h-128v117h367v-117zM831 -380.5q25 23.5 68.5 23.5t68.5 -23.5t25 -63t-25 -63t-68.5 -23.5t-68.5 23t-25 63t25 63.5z" />
<glyph unicode="&#x5b4;" horiz-adv-x="0" d="M559 -134q25 23 68.5 23t69.5 -24t26 -63t-26 -62.5t-70 -23.5t-68.5 22.5t-24.5 63.5t25 64z" />
<glyph unicode="&#x5b5;" horiz-adv-x="0" d="M480 -92q43 0 68 -23.5t25 -63t-25 -63t-68.5 -23.5t-68 23t-24.5 63.5t25 63.5t68 23zM707 -115q25 23 69 23t70 -24t26 -63t-26 -62.5t-70 -23.5t-69 22.5t-25 63.5t25 64z" />
<glyph unicode="&#x5b6;" horiz-adv-x="0" d="M480 -116q43 0 68 -23.5t25 -63.5t-25 -63t-68.5 -23t-68 23t-24.5 63.5t25 63.5t68 23zM707 -139q25 23 69 23t70 -24t26 -63.5t-26 -62.5t-70 -23t-69 22.5t-25 63.5t25 64zM563 -380.5q25 23.5 68.5 23.5t68.5 -23.5t25 -63t-25 -63t-68.5 -23.5t-68.5 23t-25 63 t25 63.5z" />
<glyph unicode="&#x5b7;" horiz-adv-x="0" d="M825 -234h-393v116h393v-116z" />
<glyph unicode="&#x5b8;" horiz-adv-x="0" d="M820 -255h-136v-202h-111v202h-135v117h382v-117z" />
<glyph unicode="&#x5b9;" horiz-adv-x="0" d="M560 1560q25 23 68.5 23t69.5 -24t26 -63t-26 -62.5t-70 -23.5t-68.5 22.5t-24.5 63.5t25 64z" />
<glyph unicode="&#x5ba;" horiz-adv-x="0" d="M560 1560q25 23 68.5 23t69.5 -24t26 -63t-26 -62.5t-70 -23.5t-68.5 22.5t-24.5 63.5t25 64z" />
<glyph unicode="&#x5bb;" horiz-adv-x="0" d="M487 -127q43 0 68 -23.5t25 -63.5t-25 -63t-68.5 -23t-68 23t-24.5 63.5t25 63.5t68 23zM600 -326.5q25 23.5 68.5 23.5t68.5 -23.5t25 -63t-25 -63t-68.5 -23.5t-68.5 23t-25 63t25 63.5zM785 -501q25 23 68.5 23t69.5 -24t26 -63t-26 -62.5t-70 -23.5t-68.5 22.5 t-24.5 63.5t25 64z" />
<glyph unicode="&#x5bc;" horiz-adv-x="0" d="M559 720q25 23 68.5 23t69.5 -24t26 -63t-26 -62.5t-70 -23.5t-68.5 22.5t-24.5 63.5t25 64z" />
<glyph unicode="&#x5bd;" horiz-adv-x="1256" d="M679 -509h-103v352h103v-352z" />
<glyph unicode="&#x5be;" horiz-adv-x="659" d="M598 1040h-537v250h537v-250z" />
<glyph unicode="&#x5c1;" horiz-adv-x="0" d="M507 1560q25 23 68.5 23t69.5 -24t26 -63t-26 -62.5t-70 -23.5t-68.5 22.5t-24.5 63.5t25 64z" />
<glyph unicode="&#x5c2;" horiz-adv-x="0" d="M560 1560q25 23 68.5 23t69.5 -24t26 -63t-26 -62.5t-70 -23.5t-68.5 22.5t-24.5 63.5t25 64z" />
<glyph unicode="&#x5c7;" horiz-adv-x="0" d="M521 -210h-161v-234h-93v234h-156v100h410v-100z" />
<glyph unicode="&#x5d0;" horiz-adv-x="1329" d="M1208 1290v-462q0 -169 -67 -256q-27 -35 -76 -67.5t-116 -52.5l288 -452h-347l-384 639q-47 -20 -65.5 -62t-19.5 -113v-464h-304v461q0 50 4.5 88.5t20 85.5t43 82.5t77 68t117.5 52.5l-287 452h346l260 -442l125 -197q44 20 62 62t19 112v465h304z" />
<glyph unicode="&#x5d1;" horiz-adv-x="1182" d="M466 1310q325 0 430 -125q56 -67 72 -147q18 -85 18 -195v-610h148v-233h-1032v233h579v611q0 231 -254 231q-129 0 -276 -18l-49 -6v241q147 18 364 18z" />
<glyph unicode="&#x5d2;" horiz-adv-x="951" d="M295 2.5q-59 -22.5 -111 -22.5t-114 11l22 283q2 -2 25.5 -5.5t47 -3.5t62 1.5t94.5 19.5q79 25 125 95t46 163v364q0 115 -56 147q-25 14 -64 14q-85 0 -150 -17l-23 -6v241q88 23 199 23t182 -21t112.5 -54.5t65.5 -88t31.5 -109t7.5 -129.5v-908h-231l-45 188h-15 q-15 -30 -48 -69t-68.5 -66.5t-94.5 -50z" />
<glyph unicode="&#x5d3;" horiz-adv-x="1121" d="M1074 1290v-221q-42 -16 -88 -47q-50 -37 -69 -88t-19 -133v-801h-305v808q0 55 15.5 100t37.5 70q45 52 82 66l16 6v7h-701v233h1031z" />
<glyph unicode="&#x5d4;" horiz-adv-x="1345" d="M658 1310q124 0 208 -14t141 -43t93.5 -66.5t56.5 -93.5t27 -113.5t7 -136.5v-843h-306v844q0 231 -254 231q-90 0 -208 -9.5t-191 -19.5l-72 -10v231q73 16 223.5 29.5t274.5 13.5zM466 0h-306v823h306v-823z" />
<glyph unicode="&#x5d5;" horiz-adv-x="625" d="M465 0h-305v1290h305v-1290z" />
<glyph unicode="&#x5d6;" horiz-adv-x="701" d="M654 1290v-233q-48 -38 -87.5 -103.5t-61.5 -127.5t-30 -138.5t-9.5 -119t-1.5 -134.5v-434h-305v434q0 210 53 345q52 131 108 189q59 59 92 75l14 7v7h-314v233h542z" />
<glyph unicode="&#x5d7;" horiz-adv-x="1345" d="M160 0v1267q73 16 223.5 29.5t274.5 13.5t208 -14t141 -43t93.5 -66.5t56.5 -93.5t27 -113.5t7 -136.5v-843h-306v844q0 231 -254 231q-69 0 -165 -7v-1068h-306z" />
<glyph unicode="&#x5d8;" horiz-adv-x="1330" d="M793 1310q157 0 251 -60q194 -121 194 -605q0 -322 -143.5 -493.5t-411.5 -171.5q-111 0 -207 44t-168 126.5t-113 209.5t-41 285v643h307v-643q0 -211 56.5 -315.5t176 -104.5t178.5 99t59 321q0 213 -33 312q-27 84 -108 103q-34 8 -89 8l-64 -5v225q73 22 156 22z" />
<glyph unicode="&#x5d9;" horiz-adv-x="592" d="M147 436v854h305v-596l-203 -258h-102z" />
<glyph unicode="&#x5da;" horiz-adv-x="1093" d="M418 1310q118 0 210 -34t149.5 -90t94.5 -134q67 -141 67 -333v-1211h-306v1242q0 235 -129 300q-52 25 -125 25q-127 0 -336 -22v235q178 22 375 22z" />
<glyph unicode="&#x5db;" horiz-adv-x="1055" d="M441 1310q118 0 210 -34t149.5 -90t94.5 -134q67 -141 67 -333v-148q0 -95 -12 -174t-46.5 -159t-90.5 -134.5t-151 -89t-221 -34.5q-228 0 -375 28v238q162 -20 336 -20q168 0 222 128q32 74 32 186v210q0 235 -130 300q-51 25 -124 25q-127 0 -336 -22v235 q178 22 375 22z" />
<glyph unicode="&#x5dc;" horiz-adv-x="1115" d="M375 1290h679v-198l-175 -613l-108 -479h-297l108 479l165 578h-677v499h305v-266z" />
<glyph unicode="&#x5dd;" horiz-adv-x="1345" d="M160 0v1267q73 16 223.5 29.5t286.5 13.5q278 0 399.5 -90t121.5 -289v-931h-1031zM885 233v698q0 91 -71 119q-62 25 -183 25q-69 0 -165 -7v-835h419z" />
<glyph unicode="&#x5de;" horiz-adv-x="1413" d="M181 910q0 179 -73 381h292q15 -39 30 -91l27 -107h19q4 9 12 23.5t40.5 52t72.5 66t109.5 52t156 23.5t157.5 -33t114.5 -87t71.5 -131q49 -135 49 -329v-730h-552v233h240v462q0 178 -33 251q-15 33 -38 62q-46 60 -146 60q-46 0 -89.5 -21.5t-72.5 -52.5 q-59 -63 -82 -112l-10 -22l-76 -860h-298l75 819q4 46 4 91z" />
<glyph unicode="&#x5df;" horiz-adv-x="602" d="M378 1290q70 -205 70 -465v-1317h-305v1317q0 260 -70 465h305z" />
<glyph unicode="&#x5e0;" horiz-adv-x="879" d="M151 1292q85 18 182 18t165.5 -20.5t111.5 -55.5t69 -88q46 -92 46 -238v-525q0 -94 -12.5 -189.5t-24.5 -144.5l-13 -49h-583v233h310q18 77 18 230v445q0 115 -56 147q-25 14 -62 14q-76 0 -151 -17v240z" />
<glyph unicode="&#x5e1;" horiz-adv-x="1268" d="M634 1310q257 0 399.5 -175t142.5 -489t-144.5 -490t-396.5 -176t-397.5 175.5t-145.5 489.5q0 121 47 237t105 170v8l-132 -9v231q232 28 522 28zM402 645q0 -422 232 -422t232 426t-232 426l-113 -2q-119 -165 -119 -428z" />
<glyph unicode="&#x5e2;" horiz-adv-x="1297" d="M578 708l80 -409q81 51 125 144.5t57 241.5l53 604h302l-50 -560q-16 -180 -63 -296q-143 -354 -603 -433l-409 -60v236l329 49l-282 1065h304z" />
<glyph unicode="&#x5e3;" horiz-adv-x="1309" d="M70 853q0 103 33.5 184t87 131.5t125.5 83.5q129 60 297 60q190 0 317 -87q46 -32 88.5 -84t71.5 -120q65 -149 65 -375v-1138h-311v1138q0 174 -21 249q-25 87 -67 123q-57 49 -143 49q-63 0 -109.5 -18.5t-69 -42.5t-36.5 -56q-18 -45 -18 -90.5t19.5 -85.5t48.5 -62 q55 -42 101 -51l38 -7l-51 -228l-53 7q-139 18 -210 51q-203 93 -203 369z" />
<glyph unicode="&#x5e4;" horiz-adv-x="1269" d="M92 853q0 103 33.5 184t87 131t125.5 83q130 59 297 59q81 0 151.5 -15t144.5 -59.5t126.5 -115.5t86 -192.5t33.5 -259.5t-15 -233.5t-41.5 -163.5t-66.5 -120t-85 -84t-101 -52q-99 -35 -230.5 -35t-248 7t-169.5 14l-52 7v224q230 -18 467 -18q87 0 143 50 q42 38 67 129q17 62 19 132t2 121t-1 85.5t-6 83t-14 80.5t-26 67.5t-41 55.5q-57 49 -143 49q-63 0 -109.5 -18.5t-69 -42.5t-36.5 -56q-18 -45 -18 -90.5t19.5 -85.5t48.5 -62q55 -42 101 -51l38 -7l-51 -228l-53 7q-139 18 -210 51q-203 93 -203 369z" />
<glyph unicode="&#x5e5;" horiz-adv-x="1173" d="M1071 1290v-462q0 -207 -117 -310q-42 -37 -112.5 -60t-162.5 -23q-41 0 -81 5v-932h-305v1069l-285 713h334l219 -629l3 -15q30 -3 53 -3q79 0 114 42t35 140v465h305z" />
<glyph unicode="&#x5e6;" horiz-adv-x="1274" d="M1177 0h-1102v233h498l228 -14v4l-281 350l-455 717h342l360 -581q71 101 89 298l24 282h302l-21 -238q-15 -170 -47 -253q-16 -43 -40 -97q-48 -105 -154 -196l257 -329v-176z" />
<glyph unicode="&#x5e7;" horiz-adv-x="1310" d="M928 34v-34h-303v34q0 81 26 223.5t64 247.5l200 552h-755v233h1089v-184l-217 -589q-104 -282 -104 -483zM444 -493h-283v1265h283v-1265z" />
<glyph unicode="&#x5e8;" horiz-adv-x="1082" d="M43 1289q187 21 331.5 21t228.5 -14t141 -43t93.5 -66.5t56.5 -93.5t27 -113.5t7 -136.5v-843h-306v844q0 231 -254 231q-128 0 -325 -21v235z" />
<glyph unicode="&#x5e9;" horiz-adv-x="1605" d="M795 0h-584l-109 1290h292l54 -646q12 -1 30 -1q79 0 117.5 42t46.5 140l38 465h290l-37 -462q-31 -393 -410 -393q-21 0 -57 2l17 -204h326q167 0 257 130t109 358l48 569h292l-48 -561q-16 -182 -51 -292q-137 -437 -621 -437z" />
<glyph unicode="&#x5ea;" horiz-adv-x="1435" d="M372.5 0.5q-68.5 -20.5 -152.5 -20.5t-150 27v232q67 -18 105 -18t62.5 14t36.5 39q20 45 20 108v668l-145 -14v231q307 43 611 43q225 0 337 -57q57 -29 93.5 -66.5t56.5 -93.5t27 -113.5t7 -136.5v-843h-307v844q0 231 -253 231q-56 0 -122 -3v-690q0 -232 -115 -326 q-43 -35 -111.5 -55.5z" />
<glyph unicode="&#x5f3;" horiz-adv-x="444" d="M406 1290l14 -22q-50 -199 -176 -479h-219q67 285 100 501h281z" />
<glyph unicode="&#x5f4;" horiz-adv-x="911" d="M406 1290l14 -22q-50 -199 -176 -479h-219q67 285 100 501h281zM872 1290l15 -22q-50 -199 -176 -479h-219q67 285 100 501h280z" />
<glyph unicode="&#x2000;" horiz-adv-x="953" />
<glyph unicode="&#x2001;" horiz-adv-x="1907" />
<glyph unicode="&#x2002;" horiz-adv-x="953" />
<glyph unicode="&#x2003;" horiz-adv-x="1907" />
<glyph unicode="&#x2004;" horiz-adv-x="635" />
<glyph unicode="&#x2005;" horiz-adv-x="476" />
<glyph unicode="&#x2006;" horiz-adv-x="317" />
<glyph unicode="&#x2007;" horiz-adv-x="317" />
<glyph unicode="&#x2008;" horiz-adv-x="238" />
<glyph unicode="&#x2009;" horiz-adv-x="381" />
<glyph unicode="&#x200a;" horiz-adv-x="105" />
<glyph unicode="&#x2010;" horiz-adv-x="659" d="M598 424h-537v250h537v-250z" />
<glyph unicode="&#x2011;" horiz-adv-x="659" d="M598 424h-537v250h537v-250z" />
<glyph unicode="&#x2012;" horiz-adv-x="659" d="M598 424h-537v250h537v-250z" />
<glyph unicode="&#x2013;" horiz-adv-x="1024" d="M942 436h-860v230h860v-230z" />
<glyph unicode="&#x2014;" horiz-adv-x="2048" d="M1966 436h-1884v230h1884v-230z" />
<glyph unicode="&#x2018;" horiz-adv-x="444" d="M25 982q51 209 176 480h219q-67 -272 -101 -501h-280z" />
<glyph unicode="&#x2019;" horiz-adv-x="444" d="M406 1462l14 -22q-49 -195 -176 -479h-219q68 289 100 501h281z" />
<glyph unicode="&#x201a;" horiz-adv-x="596" d="M444 238l15 -23q-53 -205 -176 -479h-220q65 269 101 502h280z" />
<glyph unicode="&#x201c;" horiz-adv-x="911" d="M25 982q51 209 176 480h219q-67 -272 -101 -501h-280zM668 1462h219q-67 -272 -101 -501h-280l-14 21q22 91 72 227.5t104 252.5z" />
<glyph unicode="&#x201d;" horiz-adv-x="911" d="M406 1462l14 -22q-49 -195 -176 -479h-219q68 289 100 501h281zM872 1462l15 -22q-49 -195 -176 -479h-219q68 289 100 501h280z" />
<glyph unicode="&#x201e;" horiz-adv-x="1061" d="M444 238l15 -23q-53 -205 -176 -479h-220q65 269 101 502h280zM911 238l15 -23q-53 -205 -176 -479h-220q65 269 101 502h280z" />
<glyph unicode="&#x2020;" horiz-adv-x="1057" d="M602 1139l332 30v-241l-332 30l55 -958h-278l55 958l-311 -30v241l311 -30l-55 417h278z" />
<glyph unicode="&#x2021;" horiz-adv-x="1077" d="M623 1180l331 30v-242l-331 30l47 -212l-47 -229l331 31v-242l-331 31l55 -377h-279l56 377l-332 -31v242l332 -31l-47 229l47 212l-332 -30v242l332 -30l-56 376h279z" />
<glyph unicode="&#x2022;" horiz-adv-x="770" d="M171.5 983q74.5 82 213 82t213 -82t74.5 -234.5t-75.5 -235.5t-212.5 -83t-212 83t-75 235.5t74.5 234.5z" />
<glyph unicode="&#x2026;" horiz-adv-x="1751" d="M162 270q45 43 129.5 43t130 -44t45.5 -124.5t-46.5 -126t-129 -45.5t-128.5 44.5t-46 127t45 125.5zM877 313q83 0 128.5 -44.5t45.5 -124.5t-46.5 -125.5t-129.5 -45.5t-129 44.5t-46 125.5q0 170 177 170zM1329 270q45 43 129.5 43t130 -44t45.5 -124.5t-46.5 -126 t-129 -45.5t-128.5 44.5t-46 127t45 125.5z" />
<glyph unicode="&#x202f;" horiz-adv-x="381" />
<glyph unicode="&#x2030;" horiz-adv-x="2623" d="M408 1483q169 0 259.5 -118.5t90.5 -343t-88.5 -340.5t-258 -116t-259 119t-89.5 342q0 457 345 457zM635 0h-240l811 1462h240zM410 1274q-50 0 -72.5 -61t-22.5 -189t22.5 -190t72.5 -62q96 0 96 251t-96 251zM1432 899q169 0 259.5 -118.5t90.5 -342.5t-89 -340 t-258 -116t-258.5 119t-89.5 341q0 457 345 457zM2210 899q169 0 259.5 -118.5t90.5 -338.5q0 -460 -350 -460q-165 0 -254.5 119t-89.5 341q0 457 344 457zM1434 690q-50 0 -72.5 -61t-22.5 -189t22.5 -190t72.5 -62q96 0 96 251t-96 251zM2212 690q-50 0 -72 -60.5 t-22 -189.5t22 -190.5t72 -61.5q96 0 96 251t-96 251z" />
<glyph unicode="&#x2039;" horiz-adv-x="754" d="M672 909l-279 -348l279 -348l-219 -120l-371 454v26l371 455z" />
<glyph unicode="&#x203a;" horiz-adv-x="754" d="M672 573v-26l-371 -454l-219 120l278 348l-278 348l219 119z" />
<glyph unicode="&#x205f;" horiz-adv-x="476" />
<glyph unicode="&#x20aa;" horiz-adv-x="2026" d="M160 1290h634q230 0 380 -60q65 -25 110 -70.5t69 -87t36.5 -107t15.5 -114t3 -124.5v-264h-292v264q0 97 -13.5 157t-50.5 100.5t-98.5 56.5t-159.5 16h-330v-1057h-304v1290zM1876 1290v-514q0 -248 -106 -441q-38 -68 -99.5 -130.5t-139 -107t-186.5 -71t-238 -26.5 h-469v827h304v-594h164q115 0 207.5 43.5t150.5 119.5q120 156 120 380v514h292z" />
<glyph unicode="&#x20ac;" d="M66 950h133q38 243 199.5 383t404.5 140q189 0 352 -82l-98 -232q-148 66 -262.5 66t-193 -70.5t-101.5 -204.5h403v-176h-418l-2 -35v-47l2 -33h355v-178h-338q51 -243 321 -243q143 0 275 57v-256q-116 -59 -293 -59q-246 0 -404 134t-198 367h-137v178h118 q-4 20 -4 62l2 53h-116v176z" />
<glyph unicode="&#x2122;" horiz-adv-x="1534" d="M580 1313h-199v-572h-168v572h-197v149h564v-149zM1442 741h-168v408l4 121h-6l-174 -529h-142l-165 529h-7l4 -111v-418h-163v721h247l160 -510l170 510h240v-721z" />
<glyph unicode="&#x25fc;" horiz-adv-x="1120" d="M0 1120h1120v-1120h-1120v1120z" />
</font>
</defs>
</svg>
