<?xml version="1.0" encoding="utf-8"?>
<!-- Generator: Adobe Illustrator 18.1.0, SVG Export Plug-In . SVG Version: 6.00 Build 0)  -->
<!DOCTYPE svg PUBLIC "-//W3C//DTD SVG 1.1//EN" "http://www.w3.org/Graphics/SVG/1.1/DTD/svg11.dtd">
<svg version="1.1" id="Layer_1" xmlns="http://www.w3.org/2000/svg" xmlns:xlink="http://www.w3.org/1999/xlink" x="0px" y="0px"
	 viewBox="0 0 47.1 54.1" enable-background="new 0 0 47.1 54.1" xml:space="preserve">
<path fill="#F5AF1F" d="M21.2,50l2.4,4.1l2.3-4.1c-0.7-0.4-1.5-0.6-2.4-0.6C22.7,49.3,21.9,49.6,21.2,50L21.2,50z"/>
<path fill="#5DC4D4" d="M4.8,13.3H0l2.4,4.1c0.7-0.4,1.3-1,1.7-1.7C4.5,15,4.8,14.2,4.8,13.3L4.8,13.3z"/>
<polygon fill="#B72F10" points="8.9,37.1 6.2,37.8 5.6,40.9 9.4,40.9 8.9,37.1 "/>
<polygon fill="#B72F10" points="3.6,19.5 7.6,19.9 7.1,25.6 3.6,19.5 "/>
<polygon fill="#F5AF1F" points="2.2,37.1 0,40.9 4.4,40.9 4.9,38 2.2,37.1 "/>
<path fill="#B72F10" d="M20.5,5.1c0,0,4.7-1,5.2-1.1c0,0-0.8-1.4-2.3-4L20.5,5.1L20.5,5.1z"/>
<polygon fill="#273086" points="8.6,28.4 7.9,27.2 5.5,31.4 7,32.3 8.6,28.4 "/>
<polygon fill="#273086" points="39.6,21.1 40.9,16.9 44.4,17.6 42.1,21.6 39.6,21.1 "/>
<polygon fill="#B72F10" points="19,46.2 22.9,45.5 20.8,42.1 17.9,44.3 19,46.2 "/>
<path fill="#F5AF1F" d="M17.5,43.5l3.2-2.5c0,0-0.8,0-4.7,0L17.5,43.5L17.5,43.5z"/>
<polygon fill="#B72F10" points="37,23.2 39.1,26.7 41.5,22.5 39.2,22 37,23.2 "/>
<polygon fill="#5DC4D4" points="24.1,45.1 24.8,48 26.6,48.7 28.4,45.6 24.1,45.1 "/>
<polygon fill="#B72F10" points="44.6,36.7 47.1,41 43.3,41 44.6,36.7 "/>
<polygon fill="#5DC4D4" points="23.3,5.7 19.7,6.5 17.6,10.3 21.3,10.2 23.3,5.7 "/>
<path fill="#5DC4D4" d="M41.2,36.3l2.9-0.5l-1.7-2.9l-4.6-0.1C37.8,32.8,39.2,34.2,41.2,36.3L41.2,36.3z"/>
<polygon fill="#F5AF1F" points="27.4,11.5 29.2,10 26.5,5.2 24.8,5.6 23.7,8.1 27.4,11.5 "/>
<polygon fill="#B72F10" points="37,16.7 39.7,16.7 40.8,13.4 38,13.4 37,16.7 "/>
<polygon fill="#CEEAEF" points="37,38.2 37.3,33.8 40.8,37.5 38.6,38.6 37,38.2 "/>
<polygon fill="#5DC4D4" points="18.1,26 15.5,24.3 13,28.3 16.3,30.1 18.1,26 "/>
<path fill="#5DC4D4" d="M18.1,37.9l3.1-3.6l-1.8-1.1c0,0-2.3,1.3-3.4,2.1L18.1,37.9L18.1,37.9z"/>
<path fill="#F5AF1F" d="M14.6,34.8c0,0,3.4-2.1,3.9-2.3c0,0-2.8-1.6-3.3-1.9L14.6,34.8L14.6,34.8z"/>
<polygon fill="#B72F10" points="11.2,21.4 13.1,26.4 10.2,28.9 8.5,26 11.2,21.4 "/>
<polygon fill="#CEEAEF" points="18.1,20.1 20.5,22.5 22.8,21.8 21.9,17.5 18.1,20.1 "/>
<polygon fill="#5DC4D4" points="26.6,22 25.2,14.4 22.4,15 23.6,20 26.6,22 "/>
<polygon fill="#CEEAEF" points="32.4,20.8 27.3,20.7 28.9,25 32.4,20.8 "/>
<polygon fill="#273086" points="36,38.3 33.2,37.3 35.8,32.7 36,38.3 "/>
<polygon fill="#F5AF1F" points="36.1,23.7 38.4,27.7 34.8,27.2 36.1,23.7 "/>
<polygon fill="#CEEAEF" points="36.8,28.8 30.5,27.2 32.1,30.4 35.3,31.6 36.8,28.8 "/>
<polygon fill="#273086" points="13.8,25.1 16.8,20.2 14.7,18.2 12.3,21.2 13.8,25.1 "/>
<polygon fill="#5DC4D4" points="11.8,13.3 13.1,13.3 15,16 12,19.9 11.8,13.3 "/>
<polygon fill="#5DC4D4" points="14.8,40.9 10.4,40.9 9.9,37.7 14.8,40.9 "/>
<polygon fill="#B72F10" points="14.9,14.8 16.3,16 19.9,11.4 16.9,11.4 14.9,14.8 "/>
<polygon fill="#B72F10" points="11.2,32.8 10.1,36.5 12.3,37.9 13.9,34.4 11.2,32.8 "/>
<path fill="#CEEAEF" d="M9.2,35.8c0,0,1.2-4.1,1.2-4.1l-1.2-2.1l-2.8,7.1L9.2,35.8L9.2,35.8z"/>
<path fill="#5DC4D4" d="M20.5,48.7l3.1-0.7c-0.2-0.7-0.3-1.5-0.3-1.5l-3.6,0.6L20.5,48.7L20.5,48.7z"/>
<path fill="#CEEAEF" d="M26.1,40l-2.8-0.1c-0.2,0.8-0.8,1.9-1.2,2.3l2,2.1C25.2,43.5,26.1,41.8,26.1,40L26.1,40z"/>
<path fill="#F5AF1F" d="M40.1,41h2.1l0.9-3.7c0,0-3.7,2.3-3.7,2.3L40.1,41L40.1,41z"/>
<path fill="#B72F10" d="M41.8,31.9L40,28.7l-2.1,0.6c0,0-1.2,2-1.3,2.3L41.8,31.9L41.8,31.9z"/>
<polygon fill="#5DC4D4" points="38.9,41 38.1,39.6 33.8,38.5 32,40.9 38.9,41 "/>
<polygon fill="#B72F10" points="32.5,38.5 29.2,35.7 26.7,39.5 31,41.1 32.5,38.5 "/>
<polygon fill="#F5AF1F" points="23.7,39 26.5,37.6 27.9,35.1 22.9,34.2 23.7,39 "/>
<path fill="#B72F10" d="M21.5,35.4l-2.9,3.3l2.9,1.6c0.7-0.6,1.1-1.8,1.1-2.7c0,0,0-0.1,0-0.1C22.5,36.8,22.1,36,21.5,35.4
	L21.5,35.4z"/>
<path fill="#5DC4D4" d="M5.3,36.8l1.4-3.5l-1.8-1c0,0-2.1,3.7-2.1,3.7L5.3,36.8L5.3,36.8z"/>
<path fill="#273086" d="M26,44.3c1,0.1,2.9,0.4,2.9,0.4c0.1-0.1,1.6-2.7,1.6-2.8l-3.1-1.1C27.4,42.2,26.8,43.5,26,44.3L26,44.3z"/>
<polygon fill="#273086" points="15,35.7 18.5,40 15.4,40 13.2,38.5 15,35.7 "/>
<path fill="#273086" d="M11.7,31.7c0.5,0.8,1.2,1.3,2.1,1.4l0.4-3l-1.9-1l-0.7-0.4C11.2,29.6,11.1,30.7,11.7,31.7L11.7,31.7z"/>
<polygon fill="#CEEAEF" points="37,21.4 38.3,21.7 39.6,17.9 34.9,17.8 37,21.4 "/>
<polygon fill="#273086" points="26.1,26.6 28,25.6 27.4,23.9 24.4,21.9 21.7,23.6 26.1,26.6 "/>
<polygon fill="#5DC4D4" points="19.3,26.5 22.5,28.7 25.2,27.1 22,25.1 19.3,26.5 "/>
<path fill="#F5AF1F" d="M24.5,28.8c0.8,1,2,1.7,3.5,1.8c0.8,0,1.6-0.1,2.3-0.5l-1.7-3.5L24.5,28.8L24.5,28.8z"/>
<polygon fill="#CEEAEF" points="25.2,13.3 21.6,14.1 20.3,12.9 23.2,9.2 26.4,12.2 25.2,13.3 "/>
<path fill="#273086" d="M29.4,25.9l3.1-3.2c0,0,2,1.6,1.1,4.3L29.4,25.9L29.4,25.9z"/>
<path fill="#5DC4D4" d="M34.1,23.1c0.2,0.3,0.3,0.7,0.5,1.1l1.7-2.1l-2-3.4l-1,3.3C33.5,22.3,33.8,22.7,34.1,23.1L34.1,23.1z"/>
<path fill="#5DC4D4" d="M29,16.7L26.4,16l0.6,3.6h0.9C27.9,18.5,28.3,17.5,29,16.7L29,16.7z"/>
<polygon fill="#5DC4D4" points="46.8,13.4 45,16.6 41.4,15.8 42.1,13.4 46.8,13.4 "/>
<polygon fill="#B72F10" points="21,24.3 19.1,25.4 16.2,23.4 17.6,21 21,24.3 "/>
<polygon fill="#F5AF1F" points="19.4,13.6 16,18 17.5,19.4 21.6,16.5 21.4,15.5 19.4,13.6 "/>
<polygon fill="#5DC4D4" points="34.8,32.5 33.3,35.1 30.9,31.1 34.8,32.5 "/>
<path fill="#CEEAEF" d="M32.1,36.7c0.1-0.3,0.1-0.6,0.1-0.9c0.1-1.6-0.8-3-2-3.8l-0.4,2.8L32.1,36.7L32.1,36.7z"/>
<polyline fill="#CEEAEF" points="18.7,27.4 17.3,30.7 21.6,33.1 24.3,30.7 "/>
<polygon fill="#273086" points="11,15.7 10.9,13.3 6.2,13.3 9.1,17.3 11,15.7 "/>
<polygon fill="#F5AF1F" points="3.1,18.4 7.3,18.7 8.2,18 6,14.9 3.1,18.4 "/>
<polygon fill="#CEEAEF" points="8.6,24.1 11,19.9 10.9,17.1 8.8,19 8.3,23.6 8.6,24.1 "/>
<polygon fill="#B72F10" points="28.8,34.2 29.3,31.5 25.3,31.1 23.1,33.3 28.8,34.2 "/>
<polygon fill="#F5AF1F" points="32.2,13.4 33.9,16.6 36,16.7 37.1,13.4 32.2,13.4 "/>
<path fill="#B72F10" d="M28.9,19.8l3.9,0l0.7-2.2l-1-1.8C30.5,16,28.9,17.7,28.9,19.8C28.9,19.8,28.9,19.8,28.9,19.8L28.9,19.8z"/>
<path fill="#273086" d="M26.3,14l0.2,1.1l3.4,0.9c0.2-0.1,0.4-0.3,0.6-0.4c0.5-0.3,1-0.5,1.5-0.6l-2.2-4C29.8,11,28.1,12.4,26.3,14
	L26.3,14z"/>
</svg>
