<?xml version="1.0" encoding="utf-8"?>
<!-- Generator: Adobe Illustrator 18.1.1, SVG Export Plug-In . SVG Version: 6.00 Build 0)  -->
<!DOCTYPE svg PUBLIC "-//W3C//DTD SVG 1.1//EN" "http://www.w3.org/Graphics/SVG/1.1/DTD/svg11.dtd">
<svg version="1.1" id="Objects" xmlns="http://www.w3.org/2000/svg" xmlns:xlink="http://www.w3.org/1999/xlink" x="0px" y="0px"
	 viewBox="0 0 195.4 207.8" enable-background="new 0 0 195.4 207.8" xml:space="preserve">
<path fill="#937356" d="M147.3,66.8c-6.3,11.6-17.9,17.5-30.7,19.1c-6.1,0.8-12.2,0.6-18.3,0c-3-0.3-5.9-0.8-8.8-1.1
	c-1.7-0.1-3.5-0.2-5.2,0.2c-0.1-1.4-0.2-2.7-0.3-4.1c-0.9-8.2-2.7-16.6-7.1-23.6c-1-1.6-6.4-7.6-8.5-5.1c-0.3,0.3-0.2,0.7,0.1,0.9
	c-0.1,0.2,0,0.5,0.3,0.6c2.2,1.2,3.3,3.6,4.1,5.9c1.1,3,1.7,6,2,9.2c0.5,5.8-0.1,11.6-0.3,17.3c-0.3,7.4-1.5,14.8-3.1,22.1
	c-2.9-6.8-10.4-10.6-15.8-15.2c-7.6-6.6-12.4-17.8-8.8-27.6c0.2-0.6-0.8-1-1-0.4c-2.4,4.9-4,9.9-3.5,15.3c-2.4-0.4-4.7-1.7-5.9-4
	c-0.2-0.4-0.8-0.2-0.8,0.2c0.1,4,3.2,10.4,7.8,10.5c0.1,0,0.2,0,0.3-0.1c1.4,4.1,3.5,7.8,6,11.4c3.2,4.6,7.3,8.4,11,12.6
	c3.3,3.8,6.7,8.7,6.5,13.9c-1.6,5.9-3.4,11.8-4.7,17.7c-1.3,6-1.8,12.2-2.3,18.3c-1.1,12.6-0.7,24.8,1.6,37.2
	c0.7,3.7,1.2,7.8,3.2,11c0,0-0.1,0.1-0.1,0.1c0,0.1-0.2,0.2-0.1,0.4c0.2,0.5,0.5,0.4,1,0.4c1.3,0,2.5,0.1,3.8,0.1
	c2.8,0.2,5.6,0.5,8.3,0.5c3.4,0,6.7-0.2,10.1-0.3c2.6-0.1,5.4,0,8-0.3c0.2,0.3,0.7,0.3,0.9-0.1c0,0,0,0,0-0.1c0.4-0.1,0.4-0.7,0-0.8
	c-0.1-0.4-0.3-0.7-0.5-1c-0.8-1.5-1.9-2.9-2.9-4.2c-2.6-3.5-4.5-7.2-6.4-11.1c-5.4-11.4-8.8-23.8-9.5-36.4
	c-0.8-12.7,1-25.4,3.3-37.8c1-5.5,2.1-10.9,2.8-16.4c0.1,0,0.3,0,0.4-0.2c1.6-2.7,4.8-4.1,7.6-5.3c3.7-1.6,7.8-2.1,11.8-2.4
	c7.5-0.5,14.9,0.1,22.2-1.9c11.8-3.3,21.4-12.6,22.7-25.1C148.6,66.4,147.6,66.2,147.3,66.8z"/>
<path fill="#3E624C" d="M195.4,66.5c0.1-13.3-21.7-5.2-26.8,0.2c-0.1,0.2-0.2,0.3-0.2,0.5c-0.2,0.5,0,1,0.5,1.3
	C175.8,71.5,195.3,81.3,195.4,66.5z"/>
<path fill="#3E624C" d="M139.5,20.2c-13.1,1.8-2,22.2,4.1,26.4c0.2,0.1,0.3,0.1,0.5,0.1c0.5,0.1,1-0.1,1.2-0.7
	C147.2,38.8,154.1,18.2,139.5,20.2z"/>
<path fill="#3E624C" d="M100.9,43.1c-4.3-12.5-22.2,2.4-25.2,9.1c-0.1,0.2-0.1,0.4,0,0.5c0,0.5,0.3,1,0.9,1
	C84.1,54.3,105.7,57,100.9,43.1z"/>
<path fill="#3E624C" d="M146,107c13.3,0.8,6.2-21.4,1.1-26.7c-0.1-0.2-0.3-0.2-0.5-0.2c-0.4-0.2-1-0.1-1.3,0.5
	C142,87.2,131.2,106.2,146,107z"/>
<path fill="#3E624C" d="M37.2,131.2c9.7,9.1,18.5-12.5,18-19.8c0-0.2-0.1-0.4-0.2-0.4c-0.2-0.4-0.7-0.7-1.3-0.5
	C46.9,113.4,26.5,121.1,37.2,131.2z"/>
<path fill="#3E624C" d="M51.7,28.8c-11,7.5,8.1,20.8,15.4,21.9c0.2,0,0.4,0,0.5-0.1c0.5-0.1,0.8-0.5,0.7-1.2
	C67,42.1,64,20.5,51.7,28.8z"/>
<path fill="#38A761" d="M185.7,85.8c3.7-11.2-17.9-13.7-24.4-10.4c-0.1,0.1-0.2,0.2-0.2,0.3c-0.4,0.3-0.7,0.8-0.3,1.4
	c3.3,4.9,7.3,10.1,12.5,13.2C178.5,93.4,183.7,91.8,185.7,85.8z"/>
<path fill="#38A761" d="M5,109.9c8.1,8.6,20.5-9.3,20.7-16.5c0-0.2-0.1-0.3-0.2-0.4c0-0.5-0.4-1-1.1-0.9c-5.9,0.6-12.4,1.7-17.5,4.7
	C1.6,100,0.6,105.3,5,109.9z"/>
<path fill="#38A761" d="M25.3,34.8c-3.5,11.3,18.2,13.3,24.6,9.8c0.1-0.1,0.2-0.2,0.2-0.3c0.4-0.3,0.7-0.8,0.3-1.4
	C47,38.1,42.8,33,37.6,30.1C32.3,27,27.1,28.8,25.3,34.8z"/>
<path fill="#38A761" d="M26.9,102.9c-1.6,11.7,20.1,10.2,25.8,5.8c0.1-0.1,0.2-0.2,0.2-0.4c0.4-0.3,0.5-0.9,0.1-1.4
	c-4.1-4.2-9-8.6-14.6-10.7C32.6,94,27.8,96.6,26.9,102.9z"/>
<path fill="#38A761" d="M7.6,84.9c3.2,11.3,22.5,1.2,26-5.1c0.1-0.1,0.1-0.3,0-0.4c0.2-0.5,0.1-1.1-0.5-1.3
	c-5.5-2.2-11.8-4.2-17.7-3.9C9.2,74.5,5.8,78.8,7.6,84.9z"/>
<path fill="#38A761" d="M70.8,11.8C59,12,63.8,33.2,69,38.2c0.1,0.1,0.3,0.1,0.4,0.1c0.4,0.3,1,0.4,1.4-0.2
	c3.5-4.7,7.1-10.3,8.4-16.1C80.4,16.1,77.2,11.7,70.8,11.8z"/>
<path fill="#38A761" d="M156.3,39.5c-11.5-2.4-11.5,19.4-7.5,25.4c0.1,0.1,0.2,0.2,0.4,0.2c0.3,0.4,0.9,0.6,1.4,0.2
	c4.5-3.8,9.2-8.5,11.6-13.9C164.7,45.7,162.5,40.8,156.3,39.5z"/>
<path fill="#5F9573" d="M167.5,105.4c9.5-2.6-0.9-19.2-5-22.5c0,0,0,0,0,0c0.1-1.3-1.9-1.4-2-0.1c-0.5,5.4-2.5,10.4-2.2,15.9
	C158.6,103.9,162.3,106.8,167.5,105.4z"/>
<path fill="#5F9573" d="M50.7,4.5c-8.9,4.4,4.5,18.7,9.2,21.2c0,0,0,0,0,0c0.2,1.2,2.1,1,2-0.3c-0.5-5.4,0.5-10.7-0.9-16
	C59.7,4.3,55.5,2.1,50.7,4.5z"/>
<path fill="#5F9573" d="M99,15.2c-8.6-7.4-17.8,13.2-18.3,19.3c0,0,0,0,0,0c-1.2,0.7-0.1,2.7,1.2,2c5.4-3,11.5-4.3,16.5-8.2
	C103.3,24.6,103.7,19.2,99,15.2z"/>
<path fill="#5F9573" d="M177.9,47.3c-6.1-7.8-17.4,8.3-18.8,13.4c0,0,0,0,0,0c-1.2,0.4-0.5,2.3,0.7,1.9c5.1-1.6,10.5-1.7,15.5-4.2
	C180,56.1,181.2,51.5,177.9,47.3z"/>
<path fill="#5F9573" d="M132,46.3c-8.4,5.2,6.3,18.2,11.2,20.2c0,0,0,0,0,0c0.3,1.2,2.2,0.8,2-0.5c-1.1-5.3-0.6-10.7-2.5-15.8
	C140.9,45.2,136.5,43.4,132,46.3z"/>
<path fill="#5F9573" d="M17.7,58.5c-6.9,7,10.4,16.2,15.6,17c0,0,0,0,0,0c0.6,1.1,2.3,0.2,1.8-0.9c-2.3-4.9-3-10.2-6.1-14.8
	C26.2,55.3,21.5,54.6,17.7,58.5z"/>
<path fill="#3E624C" d="M14.9,118.4c4.8,5.8,11.3-5.7,11.5-9.8c0-0.1,0-0.2-0.1-0.3c-0.1-0.3-0.4-0.4-0.7-0.3
	C21.6,109.1,9.6,111.9,14.9,118.4z"/>
<path fill="#3E624C" d="M86.6,8.2c-7-2.8-7.2,10.4-5.5,14.1c0.1,0.1,0.1,0.2,0.2,0.2c0.2,0.2,0.5,0.2,0.8,0
	C85.1,19.5,94.3,11.3,86.6,8.2z"/>
<path fill="#3E624C" d="M87.4,69.1c-6.8,3.3,2.8,12.3,6.8,13.5c0.1,0,0.2,0,0.3,0c0.3,0,0.5-0.2,0.5-0.6
	C94.8,77.8,94.9,65.5,87.4,69.1z"/>
<path fill="#3E624C" d="M29.4,88c-3.1,6.8,10,7.7,13.9,6.1c0.1,0,0.2-0.1,0.2-0.2c0.2-0.2,0.2-0.5,0-0.8
	C40.6,89.9,32.8,80.4,29.4,88z"/>
<path fill="#3E624C" d="M4.3,66.3c-2.6,7,10.6,6.9,14.3,5c0.1-0.1,0.2-0.1,0.2-0.2c0.2-0.2,0.2-0.5,0-0.8
	C15.7,67.5,7.2,58.5,4.3,66.3z"/>
<path fill="#3E624C" d="M44.3,47.9c-7.4,1-1.1,12.6,2.3,15c0.1,0.1,0.2,0.1,0.3,0.1c0.3,0,0.6-0.1,0.7-0.4
	C48.6,58.5,52.5,46.8,44.3,47.9z"/>
<path fill="#3E624C" d="M138.1,69.2c-5.1-5.5-11,6.2-11,10.4c0,0.1,0,0.2,0.1,0.3c0.1,0.2,0.4,0.4,0.7,0.3
	C131.9,78.8,143.7,75.4,138.1,69.2z"/>
<path fill="#3E624C" d="M166,68.8c0.5-7.5-12.1-3.7-15.1-0.8c-0.1,0.1-0.1,0.2-0.1,0.3c-0.1,0.3-0.1,0.6,0.3,0.7
	C154.8,70.9,165.4,77.1,166,68.8z"/>
<path fill="#38A761" d="M91.7,63.3c2.7-6.1-9.3-8.7-13.1-7.3c-0.1,0-0.1,0.1-0.2,0.2c-0.3,0.1-0.4,0.4-0.3,0.7
	c1.6,2.9,3.5,6.1,6.2,8.1C87.2,67.2,90.2,66.6,91.7,63.3z"/>
<path fill="#38A761" d="M192.4,49.9c-4-5.4-12.2,3.8-12.7,7.9c0,0.1,0,0.2,0.1,0.2c0,0.3,0.2,0.6,0.5,0.6c3.3,0.1,7.1-0.1,10.2-1.5
	C193.6,55.7,194.5,52.8,192.4,49.9z"/>
<path fill="#38A761" d="M164.9,25.9c-6.2-2.4-8.1,9.8-6.4,13.5c0,0.1,0.1,0.1,0.2,0.1c0.1,0.2,0.5,0.4,0.8,0.2
	c2.8-1.7,5.9-3.9,7.7-6.7C169.1,30.2,168.3,27.2,164.9,25.9z"/>
<path fill="#38A761" d="M41.6,15.4c-4.4,5,6.3,11.1,10.4,10.8c0.1,0,0.2-0.1,0.2-0.1c0.3,0,0.5-0.3,0.5-0.6
	c-0.6-3.3-1.6-6.9-3.6-9.6C47,13,44,12.7,41.6,15.4z"/>
<path fill="#38A761" d="M157.7,83.9c5.5-3.8-3.4-12.3-7.5-13c-0.1,0-0.2,0-0.2,0.1c-0.3,0-0.6,0.1-0.6,0.5
	c-0.2,3.3-0.1,7.1,1.1,10.2C151.9,84.9,154.8,85.9,157.7,83.9z"/>
<path fill="#38A761" d="M30.6,58c-2.7,6.1,9.4,8.6,13.2,7.1c0.1,0,0.1-0.1,0.2-0.2c0.3-0.1,0.4-0.4,0.2-0.8
	c-1.6-2.9-3.6-6.1-6.3-8.1C35,54.1,32,54.7,30.6,58z"/>
<path fill="#38A761" d="M52.1,57.8c2.2,6.3,12.7-0.1,14.5-3.9c0-0.1,0-0.2,0-0.2c0.1-0.3,0-0.6-0.3-0.7c-3.2-1-6.8-2-10.1-1.5
	C52.6,51.9,50.9,54.4,52.1,57.8z"/>
<path fill="#38A761" d="M78,36.7c-6.3-2.2-7.8,10-6,13.7c0,0.1,0.1,0.1,0.2,0.1c0.1,0.2,0.5,0.4,0.8,0.2c2.8-1.8,5.8-4.1,7.5-7
	C82.2,40.8,81.4,37.9,78,36.7z"/>
<path fill="#3E624C" d="M2.4,93.2c0.7,5.2,8.9,0.8,10.5-1.6c0-0.1,0.1-0.1,0-0.2c0-0.2,0-0.4-0.3-0.5C9.9,90.1,1.6,87.4,2.4,93.2z"
	/>
<path fill="#3E624C" d="M49.9,79.2c5.3-0.4,1.4-8.8-0.9-10.6c-0.1-0.1-0.1-0.1-0.2-0.1c-0.2,0-0.4,0-0.5,0.3
	C47.3,71.5,44,79.6,49.9,79.2z"/>
<path fill="#3E624C" d="M71.4,0c-5.3-0.1-2.1,8.7,0.1,10.7c0.1,0.1,0.1,0.1,0.2,0.1c0.2,0.1,0.4,0,0.5-0.2C73.4,7.8,77.3,0.1,71.4,0
	z"/>
<path fill="#38A761" d="M66.1,63.7c0-4.7-8.5-2.9-10.5-0.8c0,0-0.1,0.1,0,0.2c-0.1,0.2-0.1,0.4,0.1,0.6c1.9,1.4,4.1,2.9,6.4,3.4
	C64.4,67.5,66.1,66.3,66.1,63.7z"/>
<path fill="#38A761" d="M101.1,32.7c-1.6-4.4-9,0.1-10.2,2.8c0,0.1,0,0.1,0,0.2c-0.1,0.2,0,0.4,0.2,0.5c2.2,0.7,4.8,1.4,7.2,1.1
	C100.8,36.8,102,35.1,101.1,32.7z"/>
<path fill="#38A761" d="M64.2,2.8c-4.7,0.4-2.2,8.7,0,10.6c0,0,0.1,0,0.2,0c0.2,0.1,0.4,0.1,0.5-0.1c1.3-2,2.5-4.3,2.9-6.6
	C68.2,4.2,66.8,2.6,64.2,2.8z"/>
<path fill="#5F9573" d="M77.7,3.9c-3.9,0.2-1.2,7.6,0.1,9.2c0,0,0,0,0,0c-0.1,0.5,0.6,0.7,0.8,0.2c0.6-2.1,1.8-3.9,2.1-6
	C81,5.3,79.8,3.8,77.7,3.9z"/>
<path fill="#5F9573" d="M187.7,43.5c-2-3-6.5,2.5-7.2,4.3c0,0,0,0,0,0c-0.4,0.1-0.3,0.8,0.2,0.7c1.9-0.4,3.8-0.3,5.7-1.1
	C188.2,46.8,188.8,45.2,187.7,43.5z"/>
<path fill="#3E624C" d="M184,37c-3.8-3.4-7.1,4.9-6.8,7.8c0,0.1,0,0.1,0.1,0.2c0.1,0.2,0.3,0.3,0.5,0.2C180.4,44,188.3,40.9,184,37z
	"/>
<path fill="#3E624C" d="M176.8,32.1c-6.9-5.9-12.2,9.1-11.6,14.1c0,0.1,0.1,0.2,0.2,0.3c0.2,0.3,0.5,0.5,0.9,0.3
	C170.8,44.6,184.5,38.7,176.8,32.1z"/>
<path fill="#3E624C" d="M116.7,40.7c-7.2,5.5,6.2,13.9,11.2,14.4c0.1,0,0.3,0,0.3-0.1c0.3-0.1,0.6-0.4,0.5-0.8
	C127.5,49.3,124.7,34.6,116.7,40.7z"/>
<path fill="#38A761" d="M110.4,58.3c0.5,8,14.9,4,18.1,0.3c0.1-0.1,0.1-0.2,0.1-0.3c0.2-0.3,0.2-0.7-0.2-0.9
	c-3.3-2.2-7.3-4.5-11.3-5.1C112.9,51.6,110.1,54,110.4,58.3z"/>
<path fill="#38A761" d="M122.9,30.1c-5.4,6,7.5,13.5,12.4,13.2c0.1,0,0.2-0.1,0.2-0.1c0.3,0,0.6-0.3,0.6-0.8
	c-0.7-4-1.8-8.3-4.2-11.7C129.5,27.3,125.8,26.9,122.9,30.1z"/>
<path fill="#5F9573" d="M155.2,21.3c-6.6-1.5-5.7,11.9-4.2,15.2c0,0,0,0,0,0c-0.4,0.7,0.7,1.4,1.2,0.7c2-3.1,4.9-5.5,6.4-8.9
	C160,25.1,158.7,22.1,155.2,21.3z"/>
<path fill="#5F9573" d="M36.3,23.4c-3.6,4.3,6.6,8.7,9.5,8.9c0,0,0,0,0,0c0.4,0.6,1.3,0,1-0.6c-1.5-2.7-2.2-5.6-4.1-8.1
	C40.9,21.2,38.2,21.1,36.3,23.4z"/>
<path fill="#5F9573" d="M26,118c1.7,5.3,10.8-0.9,12.6-3.3c0,0,0,0,0,0c0.7,0,0.7-1.1,0-1.1c-3-0.2-5.9-1.2-9-0.9
	C26.7,113,25.1,115.1,26,118z"/>
<path fill="#5F9573" d="M24.8,50.8c0.2,5.6,10.7,2.1,13,0.2c0,0,0,0,0,0c0.7,0.2,1-0.9,0.3-1.1c-2.9-1-5.4-2.8-8.4-3.3
	C26.8,46.1,24.7,47.8,24.8,50.8z"/>
<path fill="#5F9573" d="M129.7,99.4c4.2,3.7,8.8-6.3,9.1-9.3c0,0,0,0,0,0c0.6-0.4,0.1-1.3-0.6-1c-2.7,1.4-5.7,2-8.2,3.9
	C127.7,94.7,127.4,97.4,129.7,99.4z"/>
<path fill="#5F9573" d="M122,68c2.1,5.2,10.7-1.8,12.3-4.4c0,0,0,0,0,0c0.7,0,0.6-1.2-0.1-1.1c-3,0.1-6-0.7-9.1-0.1
	C122.2,62.9,120.8,65.1,122,68z"/>
<path fill="#5F9573" d="M60.9,72.7c3-4.7-7.7-7.7-10.7-7.5c0,0,0,0,0,0c-0.4-0.6-1.3,0.2-0.9,0.7c1.8,2.4,2.9,5.3,5.1,7.5
	C56.6,75.4,59.3,75.3,60.9,72.7z"/>
<path fill="#5F9573" d="M100.4,70.1c-5.5-1.2-4.6,9.9-3.4,12.6c0,0,0,0,0,0c-0.4,0.6,0.6,1.2,1,0.6c1.7-2.6,4-4.6,5.2-7.4
	C104.4,73.2,103.3,70.7,100.4,70.1z"/>
<path fill="#5F9573" d="M60.9,126.3c5.5-1.1,0.2-10.9-2-12.9c0,0,0,0,0,0c0.1-0.7-1-0.8-1.1-0.1c-0.5,3-1.8,5.8-1.8,8.9
	C55.9,125.2,57.9,126.9,60.9,126.3z"/>
<path fill="#F5AF1F" d="M110.9,72.2c-0.1-0.2-0.2-0.4-0.4-0.4c-1-0.3-1.9-0.6-2.9-0.4c-0.4,0.1-0.6,0.7-0.3,1c0.5,0.4,1,1,1.4,1.5
	c-0.4,0.2-0.7,0.4-1.1,0.5c-0.4,0.2-0.6,0.8-0.1,1.1c0.9,0.4,1.7,1,2.7,1c0.2,0,0.3-0.1,0.3-0.3c0.1,0,0.1-0.1,0.2-0.2
	c0.2-0.8,0.3-1.6,0.4-2.4C111,73.3,111.2,72.5,110.9,72.2z"/>
<path fill="#1D1D1B" d="M119.2,86.5c-0.2-0.7-1.2-1.1-1.9-1c0,0,0-0.1,0-0.1c-0.7-1.4-0.7-2.9,0-4.3c0.1-0.3-0.3-0.6-0.5-0.3
	c-0.9,1.5-1.2,3.4,0,4.9c-0.6,0.4-0.7,1.3-0.6,2c0.1,0.3,0.5,0.2,0.5-0.1c0-0.4,0.1-0.9,0.4-1.2c0.2,0.4,0.4,0.7,0.5,1.1
	c0.2,0.4,0.8,0.1,0.5-0.2c-0.2-0.3-0.4-0.7-0.6-1.1c0.6,0,0.9,0.5,1.5,0.6C119.1,86.8,119.2,86.7,119.2,86.5z"/>
<path fill="#1D1D1B" d="M123.2,84.7c-0.6-0.4-1.4-0.9-2.1-0.4c-0.3-0.5-0.7-1-0.8-1.6c-0.2-0.6-0.1-1.3-0.2-1.9
	c0-0.2-0.3-0.2-0.4-0.1c-0.7,1.1-0.1,3.4,1,4.1c-0.1,0.2-0.1,0.3-0.1,0.5c0,0.5,0.3,0.8,0.6,1.2c0.1,0.1,0.4,0,0.3-0.2
	c-0.1-0.4-0.2-1,0-1.3c0,0,0,0,0,0c0,0.6,0.3,1.6,1.1,1.4c0.2,0,0.2-0.3,0.1-0.4c-0.2-0.2-0.4-0.3-0.5-0.5c-0.1-0.2-0.2-0.4-0.2-0.6
	c0.3,0.1,0.7,0.3,0.8,0.4C123.1,85.5,123.5,85,123.2,84.7z"/>
<path fill="#FFC700" d="M125.4,72.4c-1.5,1.5-3.3,1.8-5.2,2.3c0.2-3.6-3.3-6.3-6.8-5.1c-3.4,1.1-4,5.4-2.6,8.3
	c1.7,3.7,5.8,5.2,9.6,3.9c3.9-1.3,5.9-5.2,5.9-9.1C126.3,72.3,125.7,72.1,125.4,72.4z"/>
<path fill="#F5AF1F" d="M119.4,76.3c-0.5,0-0.5,0.8,0,0.8c0.4,0,1.5,0.2,1.2,0.9c-0.3,0.7-1.3-0.1-1.6-0.4c-0.2-0.2-0.7-0.1-0.6,0.3
	c0,0.1,0.1,1.1-0.2,1.1c-0.4-0.1-0.6-0.7-0.7-1c-0.1-0.3-0.6-0.4-0.7,0c-0.1,0.4-0.5,1.3-0.9,0.7c-0.3-0.5-0.1-1.2,0.1-1.6
	c0.2-0.3-0.3-0.6-0.5-0.4c-0.6,0.8-0.8,1.9-0.1,2.7c0.7,0.7,1.3,0.2,1.7-0.5c0.3,0.4,0.6,0.8,1.1,0.8c0.6,0,0.8-0.5,0.8-1
	c0.7,0.5,1.7,0.6,2.2-0.3C122,77.2,120.3,76.4,119.4,76.3z"/>
<path fill="#1D1D1B" d="M115.8,73c-0.2-0.4-0.5-0.7-0.9-0.8c-1.2-0.3-1.6,1.2-1.5,2c0,0.3,0.4,0.4,0.5,0.1c0.1-0.4,0.4-1.4,0.9-1.4
	c0.2,0,0.4,0.4,0.5,0.6c0.2,0.4,0.1,0.9,0.3,1.3c0.1,0.2,0.4,0.2,0.4,0C116.2,74.2,116,73.4,115.8,73z"/>
</svg>
