<?xml version="1.0" encoding="utf-8"?>
<!-- Generator: Adobe Illustrator 18.1.1, SVG Export Plug-In . SVG Version: 6.00 Build 0)  -->
<!DOCTYPE svg PUBLIC "-//W3C//DTD SVG 1.1//EN" "http://www.w3.org/Graphics/SVG/1.1/DTD/svg11.dtd">
<svg version="1.1" id="Layer_1" xmlns="http://www.w3.org/2000/svg" xmlns:xlink="http://www.w3.org/1999/xlink" x="0px" y="0px"
	 viewBox="-495 497 32 32" enable-background="new -495 497 32 32" xml:space="preserve">
<path id="cloud" fill="#999999" d="M-451.1,504.1c-1.2-12.8-11.9-22.9-25.1-22.9c-10.2,0-18.9,6-22.9,14.7c-1.2-0.4-2.5-0.6-3.8-0.6
	c-7,0-12.7,5.7-12.7,12.7c0,1.4,0.3,2.7,0.7,3.9c-5.4,3.2-9.1,9-9.1,15.7c0,10.1,8.2,18.3,18.3,18.3v0h50.6v0
	c11.7,0,21.1-9.4,21.1-21.1C-434,514.5-441.4,505.9-451.1,504.1z M-455.1,540.2L-455.1,540.2l-50.6,0c-7,0-12.7-5.7-12.7-12.7
	c0-4.5,2.4-8.6,6.3-10.9c3.9-2.2,4.1-2.7,2.5-6.6c-0.3-0.8-0.4-1.5-0.4-2.2c0-3.9,3.2-7,7-7c0,0,1.8-0.1,3.8,0.6
	c3.2,1.3,3.6,0.1,5.1-3.3c3.2-7,10.2-11.5,17.8-11.5c10.1,0,18.5,7.7,19.5,17.8c0.3,4,0.3,4,4.5,5c7.3,1.4,12.5,7.8,12.5,15.2
	C-439.6,533.3-446.6,540.2-455.1,540.2z"/>
</svg>
