<?xml version="1.0" encoding="utf-8"?>
<!-- Generator: Adobe Illustrator 18.1.0, SVG Export Plug-In . SVG Version: 6.00 Build 0)  -->
<!DOCTYPE svg PUBLIC "-//W3C//DTD SVG 1.1//EN" "http://www.w3.org/Graphics/SVG/1.1/DTD/svg11.dtd">
<svg version="1.1" id="Layer_1" xmlns="http://www.w3.org/2000/svg" xmlns:xlink="http://www.w3.org/1999/xlink" x="0px" y="0px"
	 viewBox="-463 265 32 32" enable-background="new -463 265 32 32" xml:space="preserve">
<g id="location">
	<path fill="#FFFFFF" d="M-447,281.9c1.7,0,3-1.3,3-3c0-1.7-1.3-3-3-3s-3,1.3-3,3C-450,280.5-448.7,281.9-447,281.9z M-447,276.4
		c1.4,0,2.5,1.1,2.5,2.5c0,1.4-1.1,2.5-2.5,2.5s-2.5-1.1-2.5-2.5C-449.5,277.5-448.4,276.4-447,276.4z"/>
	<path fill="#FFFFFF" d="M-447,273c-3.3,0-6,2.7-6,6c0,3.5,3,7.1,5.2,9.6c0,0,0.4,0.4,0.8,0.4c0,0,0,0,0,0c0.4,0,0.8-0.4,0.8-0.4
		c2.2-2.5,5.2-6.1,5.2-9.6C-441,275.7-443.7,273-447,273z M-446.9,287.9C-447,288-447,288-446.9,287.9c-0.1,0-0.1,0-0.1,0
		c-1.8-2.1-4.9-5.7-4.9-8.9c0-2.8,2.2-5,5-5c2.8,0,5,2.2,5,5C-442,282.3-445.1,285.8-446.9,287.9z"/>
</g>
</svg>
