<svg id="Remarks" xmlns="http://www.w3.org/2000/svg" viewBox="0 0 198.03 76"><defs><style>.cls-1{fill:#fbaf34;}.cls-2{fill:#46c2d2;}.cls-3{fill:#be311a;}.cls-4{fill:#232f83;}.cls-5{fill:#cae9ed;}.cls-6{fill:#666;}</style></defs><title>Icon_Logo-BH-Heb</title><path class="cls-1" d="M3924.68,531.66l-3.37-5.79a6.72,6.72,0,0,1,6.66,0l-3.29,5.79" transform="translate(-3759.7 -455.67)"/><path class="cls-2" d="M3894.88,480.19l-3.33-5.77h6.7a6.78,6.78,0,0,1-.93,3.36,6.64,6.64,0,0,1-2.44,2.41" transform="translate(-3759.7 -455.67)"/><polyline class="cls-3" points="145.05 57.52 139.75 57.51 140.52 53.17 144.29 52.15 145.05 57.52"/><polyline class="cls-3" points="141.82 35.98 136.86 27.41 142.58 27.93 141.82 35.98"/><polyline class="cls-1" points="131.9 57.52 134.97 52.17 138.78 53.34 138.05 57.51 131.9 57.52"/><path class="cls-3" d="M3920.3,462.86l4.11-7.19c2.12,3.62,3.22,5.63,3.22,5.63-0.77.18-7.33,1.56-7.33,1.56" transform="translate(-3759.7 -455.67)"/><polyline class="cls-4" points="141.73 45.35 139.57 44.13 142.93 38.27 143.94 39.93 141.73 45.35"/><polyline class="cls-4" points="191.02 30.35 187.49 29.61 189.37 23.7 194.2 24.8 191.02 30.35"/><polyline class="cls-3" points="158.56 64.89 157.08 62.31 161.13 59.2 164.05 63.98 158.56 64.89"/><path class="cls-1" d="M3916.14,516.85l-2.06-3.56h6.62l-4.56,3.55" transform="translate(-3759.7 -455.67)"/><polyline class="cls-3" points="186.79 37.56 183.85 32.53 186.92 30.89 190.21 31.61 186.79 37.56"/><polyline class="cls-2" points="169.24 68.49 166.67 67.43 165.73 63.4 171.72 64.13 169.24 68.49"/><polyline class="cls-3" points="198.03 57.55 192.73 57.55 194.58 51.62 198.03 57.55"/><polyline class="cls-2" points="156.54 14.45 159.55 9.14 164.6 8.05 161.79 14.32 156.54 14.45"/><path class="cls-2" d="M3949.4,506.73c-2.84-3-4.78-5-4.78-5l6.47,0.2,2.42,4.14-4.1.68" transform="translate(-3759.7 -455.67)"/><polyline class="cls-1" points="170.31 16.21 165.13 11.39 166.75 7.84 169.08 7.36 172.89 14 170.31 16.21"/><polyline class="cls-3" points="187.7 23.49 183.86 23.43 185.29 18.8 189.2 18.8 187.7 23.49"/><polyline class="cls-5" points="186.09 54.29 183.89 53.73 184.3 47.54 189.13 52.65 186.09 54.29"/><polyline class="cls-2" points="154.8 42.29 150.15 39.76 153.68 34.09 157.29 36.52 154.8 42.29"/><path class="cls-2" d="M3917,508.85l-3.05-3.77c1.58-1,4.83-2.89,4.83-2.89l2.59,1.61-4.36,5.05" transform="translate(-3759.7 -455.67)"/><path class="cls-1" d="M3912,504.61l0.8-5.89c0.65,0.32,4.62,2.62,4.62,2.62-0.64.37-5.42,3.27-5.42,3.27" transform="translate(-3759.7 -455.67)"/><polyline class="cls-3" points="146.23 40.58 143.86 36.59 147.65 30.08 150.28 37.08 146.23 40.58"/><polyline class="cls-5" points="160.68 31.63 157.29 28.28 162.56 24.64 163.9 30.61 160.68 31.63"/><polyline class="cls-2" points="169.16 30.87 165 28.05 163.34 21.14 167.25 20.24 169.16 30.87"/><polyline class="cls-5" points="172.5 35.18 170.26 29.11 177.4 29.2 172.5 35.18"/><polyline class="cls-4" points="182.44 53.76 178.54 52.37 182.15 45.99 182.44 53.76"/><polyline class="cls-1" points="185.84 38.97 180.77 38.27 182.6 33.34 185.84 38.97"/><polyline class="cls-5" points="181.39 44.37 176.94 42.78 174.72 38.29 183.6 40.46 181.39 44.37"/><polyline class="cls-4" points="151.21 35.31 149.2 29.82 152.52 25.57 155.39 28.45 151.21 35.31"/><polyline class="cls-2" points="148.67 27.96 148.42 18.75 150.29 18.75 152.88 22.5 148.67 27.96"/><polyline class="cls-2" points="152.66 57.52 146.4 57.51 145.74 53.02 152.66 57.52"/><polyline class="cls-3" points="154.75 22.45 152.84 20.85 155.62 16.03 159.82 15.99 154.75 22.45"/><polyline class="cls-3" points="149.1 53.33 146 51.33 147.57 46.03 151.35 48.3 149.1 53.33"/><polyline class="cls-5" points="140.81 51.37 144.81 41.44 146.53 44.46 144.8 50.28 140.81 51.37"/><path class="cls-2" d="M3920.33,524.13l-1.3-2.24,5.13-.85s0.24,1.07.49,2.09l-4.32,1" transform="translate(-3759.7 -455.67)"/><path class="cls-5" d="M3925.33,517.88l-2.83-2.88a7.92,7.92,0,0,0,1.75-3.28l4,0.16a7.57,7.57,0,0,1-2.92,6" transform="translate(-3759.7 -455.67)"/><polyline class="cls-1" points="191.13 57.55 188.18 57.55 187.16 55.61 192.4 52.33 191.13 57.55"/><path class="cls-3" d="M3950.34,500.5l-7.45-.35c0.23-.51,1.86-3.29,1.86-3.29l3-.87,2.62,4.52" transform="translate(-3759.7 -455.67)"/><polyline class="cls-2" points="186.47 57.55 176.82 57.52 179.28 54.05 185.46 55.63 186.47 57.55"/><polyline class="cls-3" points="175.39 57.75 169.38 55.47 172.86 50.11 177.54 54.11 175.39 57.75"/><polyline class="cls-1" points="165.22 54.74 164.04 48.1 171.08 49.29 169.15 52.85 165.22 54.74"/><path class="cls-3" d="M3921.74,512.45l-4-2.3,4-4.67a4.66,4.66,0,0,1,1.52,3.08v0.11a5,5,0,0,1-1.49,3.78" transform="translate(-3759.7 -455.67)"/><polyline class="cls-2" points="139.29 51.75 135.83 50.72 138.82 45.51 141.31 46.88 139.29 51.75"/><path class="cls-4" d="M3932.17,518.51l-4.09-.55a7.89,7.89,0,0,0,2-5l4.3,1.61c0,0.07-2.13,3.8-2.22,3.94" transform="translate(-3759.7 -455.67)"/><polyline class="cls-4" points="157.89 56.16 153.45 56.15 150.35 54.13 152.95 50.11 157.89 56.16"/><path class="cls-4" d="M3910.94,502.17a4.19,4.19,0,0,1-3-6.16l0.95,0.52,2.67,1.47-0.61,4.17" transform="translate(-3759.7 -455.67)"/><polyline class="cls-5" points="185.63 30.47 183.78 30.09 180.9 25.02 187.44 25.11 185.63 30.47"/><polyline class="cls-4" points="168.48 37.39 162.29 33.14 166.12 30.75 170.38 33.61 171.15 35.99 168.48 37.39"/><polyline class="cls-2" points="163.47 40.29 158.93 37.28 162.75 35.21 167.29 38.15 163.47 40.29"/><path class="cls-1" d="M3931.18,498.62h-0.35a6.64,6.64,0,0,1-4.86-2.49l5.66-3.14,2.46,5a6.58,6.58,0,0,1-2.9.68" transform="translate(-3759.7 -455.67)"/><polyline class="cls-5" points="162.22 19.78 160.44 18.17 164.42 12.91 168.92 17.2 167.24 18.65 162.22 19.78"/><path class="cls-4" d="M3938.76,493.54l-5.9-1.44,4.38-4.54a5.51,5.51,0,0,1,1.52,6" transform="translate(-3759.7 -455.67)"/><path class="cls-2" d="M3940.09,489.62a5.9,5.9,0,0,0-.63-1.5,6.57,6.57,0,0,0-1.31-1.6l1.47-4.65,2.8,4.81-2.33,2.93" transform="translate(-3759.7 -455.67)"/><path class="cls-2" d="M3930.79,483.19h-1.23l-0.88-5,3.56,1a6.44,6.44,0,0,0-1.45,4.07" transform="translate(-3759.7 -455.67)"/><polyline class="cls-2" points="195.02 23.32 189.96 22.15 190.97 18.82 197.62 18.82 195.02 23.32"/><polyline class="cls-3" points="158.69 35.69 154.57 32.94 156.59 29.55 161.37 34.18 158.69 35.69"/><polyline class="cls-1" points="156.41 27.2 154.37 25.31 159.09 19.12 161.9 21.8 162.15 23.18 156.41 27.2"/><polyline class="cls-2" points="178.72 49.3 175.3 43.7 180.79 45.64 178.72 49.3"/><path class="cls-5" d="M3936.62,507.29l-3.3-2.8,0.61-3.88a6.48,6.48,0,0,1,2.84,5.4,6.41,6.41,0,0,1-.15,1.28" transform="translate(-3759.7 -455.67)"/><polyline class="cls-5" points="162.19 46.5 156.17 43.08 158.17 38.47 166.03 43.1 162.19 46.5"/><polyline class="cls-4" points="144.62 24.33 140.51 18.75 147.16 18.75 147.29 22.12 144.62 24.33"/><polyline class="cls-1" points="142.14 26.32 136.24 25.82 140.32 20.87 143.35 25.33 142.14 26.32"/><polyline class="cls-5" points="143.98 33.81 143.59 33.21 144.18 26.65 147.24 24.1 147.34 28.02 143.98 33.81"/><polyline class="cls-3" points="172.31 48.04 164.31 46.72 167.34 43.69 172.98 44.32 172.31 48.04"/><polyline class="cls-1" points="182.48 23.41 179.5 23.38 177.11 18.79 183.92 18.8 182.48 23.41"/><path class="cls-3" d="M3937.68,483.51l-5.51-.06v0a5.53,5.53,0,0,1,5-5.5l1.46,2.47-1,3.11" transform="translate(-3759.7 -455.67)"/><path class="cls-4" d="M3933.57,478.09l-4.8-1.26-0.26-1.55c2.55-2.14,5-4.1,5-4.1l3.1,5.55a6.55,6.55,0,0,0-2.18.79,5.69,5.69,0,0,0-.83.57" transform="translate(-3759.7 -455.67)"/><path class="cls-6" d="M3798.18,488.44h-2.62v-5.62a2.34,2.34,0,0,0-.57-1.59,2,2,0,0,0-1.55-.66H3792v5.74a2.23,2.23,0,0,1-.73,1.8,2.91,2.91,0,0,1-1.95.62,3.78,3.78,0,0,1-2-.37v-1.73a2.07,2.07,0,0,0,.92.24,1,1,0,0,0,1.11-1.18v-4.32l0.28-.79h-2.14v-1.81h6.64a4,4,0,0,1,3,1.07,3.85,3.85,0,0,1,1.05,2.82v5.79Z" transform="translate(-3759.7 -455.67)"/><path class="cls-6" d="M3803.07,488.44h-2.62v-9.68h2.62v9.68Z" transform="translate(-3759.7 -455.67)"/><path class="cls-6" d="M3814,480a7.4,7.4,0,0,1-.26,2.32,3.27,3.27,0,0,1-2,1.92q2.1,2.77,2.1,2.8l0,1.38h-8.67v-1.81h4.17l1,0.07-5.75-7.95h3.15l3,4.26,0.09,0q0.48,0,.48-2.08v-2.16h2.6V480Z" transform="translate(-3759.7 -455.67)"/><path class="cls-6" d="M3818.8,488.44h-2.62v-9.68h2.62v9.68Z" transform="translate(-3759.7 -455.67)"/><path class="cls-6" d="M3830.38,483.64q0,5-5.46,5-1.49,0-2-.06a4.52,4.52,0,0,1-1.6-.5v-1.9a7.17,7.17,0,0,0,3.49.63q2.93,0,2.93-3.21,0-3.41-2.31-3.41a2.23,2.23,0,0,0-1.33.37,1.39,1.39,0,0,0-.61,1.22,1.16,1.16,0,0,0,1.25,1.36,2.4,2.4,0,0,0,.41,0v1.49a5.31,5.31,0,0,1-.9.07,4.18,4.18,0,0,1-2.19-.52,2.52,2.52,0,0,1-1.2-2.34,2.81,2.81,0,0,1,1.23-2.42,5.7,5.7,0,0,1,3.37-.88,4.86,4.86,0,0,1,3.68,1.34A5.2,5.2,0,0,1,3830.38,483.64Z" transform="translate(-3759.7 -455.67)"/><path class="cls-6" d="M3842.72,488.44h-2.62v-5.62a2.34,2.34,0,0,0-.57-1.59,2,2,0,0,0-1.55-.66h-1.44v5.74a2.23,2.23,0,0,1-.73,1.8,2.91,2.91,0,0,1-1.95.62,3.78,3.78,0,0,1-2-.37v-1.73a2.07,2.07,0,0,0,.92.24,1,1,0,0,0,1.11-1.18v-4.32l0.28-.79h-2.14v-1.81h6.64a4,4,0,0,1,3,1.07,3.85,3.85,0,0,1,1.05,2.82v5.79Z" transform="translate(-3759.7 -455.67)"/><path class="cls-6" d="M3853.73,488.44h-2.62V482.9a2.23,2.23,0,0,0-.81-1.83,3.4,3.4,0,0,0-2.2-.66,13.05,13.05,0,0,0-3.21.41v-1.9a18.83,18.83,0,0,1,4.17-.31,6,6,0,0,1,3.1.77,2.92,2.92,0,0,1,1.57,2.62v6.44Zm-6,0h-2.64v-5.31l2.64-.52v5.83Z" transform="translate(-3759.7 -455.67)"/><path class="cls-6" d="M3870.59,488.44H3868v-5.62a2.34,2.34,0,0,0-.57-1.59,2,2,0,0,0-1.55-.66h-1.44v5.74a2.22,2.22,0,0,1-.73,1.8,2.91,2.91,0,0,1-1.95.62,3.78,3.78,0,0,1-2-.37v-1.73a2.07,2.07,0,0,0,.92.24,1,1,0,0,0,1.11-1.18v-4.32l0.28-.79h-2.14v-1.81h6.64a4,4,0,0,1,3,1.07,3.85,3.85,0,0,1,1.05,2.82v5.79Z" transform="translate(-3759.7 -455.67)"/><path class="cls-6" d="M3875.38,483.79a25.55,25.55,0,0,1-2.62.72v-5.75h2.62v5Z" transform="translate(-3759.7 -455.67)"/><path class="cls-6" d="M3885.89,488.44h-8.69l0-1.81H3882V482.5a1.84,1.84,0,0,0-1.05-1.71,3.63,3.63,0,0,0-1.77-.42,7.39,7.39,0,0,0-1.94.31V478.9a14.52,14.52,0,0,1,3.17-.29,4.42,4.42,0,0,1,3,1,3.4,3.4,0,0,1,1.25,2.73v4.3h1.31v1.81Z" transform="translate(-3759.7 -455.67)"/><path class="cls-6" d="M3761.47,503l-1.77.59v-5.86h1.77V503Z" transform="translate(-3759.7 -455.67)"/><path class="cls-6" d="M3770.43,499.17h-1.27v8.26h-1.75l0-8.26h-4.26l0-1.4h7.25v1.4Z" transform="translate(-3759.7 -455.67)"/><path class="cls-6" d="M3774.21,507.44h-1.77v-9.68h1.77v9.68Z" transform="translate(-3759.7 -455.67)"/><path class="cls-6" d="M3785,507.44h-1.75v-6q0-2.51-3-2.51a15,15,0,0,0-3.5.46v-1.59a22.41,22.41,0,0,1,3.54-.26q4.76,0,4.76,3.82v6Zm-6.21,0H3777v-5.61l1.81-.48v6.09Z" transform="translate(-3759.7 -455.67)"/><path class="cls-6" d="M3789.2,503l-1.77.59v-5.86h1.77V503Z" transform="translate(-3759.7 -455.67)"/><path class="cls-6" d="M3799.92,507.44h-1.75v-6q0-2.51-3-2.51a15,15,0,0,0-3.5.46v-1.59a22.4,22.4,0,0,1,3.54-.26q4.76,0,4.76,3.82v6Zm-6.21,0h-1.81v-5.61l1.81-.48v6.09Z" transform="translate(-3759.7 -455.67)"/><path class="cls-6" d="M3815.19,507.44h-8.52v-9.68h4.91a3.52,3.52,0,0,1,2.58,1,3.47,3.47,0,0,1,1,2.57v6.09Zm-1.77-1.4v-4.63a2,2,0,0,0-2.29-2.23h-2.69V506h5Z" transform="translate(-3759.7 -455.67)"/><path class="cls-6" d="M3825.09,500.85a7.14,7.14,0,0,1-1.09,4.22,8.19,8.19,0,0,1-3.62,2.45l-3.08,1.2v-1.55l2.3-.92q-1.86-6.14-2.88-8.5h2.18l2.21,7.86q2.19-1.09,2.19-4.33v-3.52l1.77,0v3.08Z" transform="translate(-3759.7 -455.67)"/><path class="cls-6" d="M3835.79,507.44H3834v-6q0-2.51-3-2.51a15,15,0,0,0-3.5.46v-1.59a22.41,22.41,0,0,1,3.54-.26q4.76,0,4.76,3.82v6Zm-6.21,0h-1.81v-5.61l1.81-.48v6.09Z" transform="translate(-3759.7 -455.67)"/><path class="cls-6" d="M3844.34,510.87h-1.81V497.75h1.81v13.11Z" transform="translate(-3759.7 -455.67)"/><path class="cls-6" d="M3848.71,507.44h-1.77v-9.68h1.77v9.68Z" transform="translate(-3759.7 -455.67)"/><path class="cls-6" d="M3859.71,507.44h-2a58.87,58.87,0,0,0-3.56-5.2,2.72,2.72,0,0,0-1.11,2.18v3h-1.75V504.8a4.53,4.53,0,0,1,2.08-3.58q-1.18-1.7-2.64-3.47h2.12q1.44,1.86,3.5,4.68a2.62,2.62,0,0,0,1-1.92v-2.77h1.75l0,2.25a3.8,3.8,0,0,1-2,3.41Q3858.42,505.33,3859.71,507.44Z" transform="translate(-3759.7 -455.67)"/><path class="cls-6" d="M3863.34,503l-1.77.59v-5.86h1.77V503Z" transform="translate(-3759.7 -455.67)"/><path class="cls-6" d="M3869.87,499.17h-0.18a1.41,1.41,0,0,0-1.31.85,3.36,3.36,0,0,0-.37,1.62v5.79h-1.71v-5a3.68,3.68,0,0,1,1.66-3.3h-2.79v-1.42h4.7v1.42Z" transform="translate(-3759.7 -455.67)"/><path class="cls-6" d="M3873.52,507.44h-1.77v-9.68h1.77v9.68Z" transform="translate(-3759.7 -455.67)"/><path class="cls-6" d="M3885.62,502.2a6.93,6.93,0,0,1-.9,3.71,3.54,3.54,0,0,1-3.21,1.75,4.09,4.09,0,0,1-1.53-.29v-1.27a8,8,0,0,0,1.49.2,2,2,0,0,0,2-1.42,7.78,7.78,0,0,0,.33-2.6,4.4,4.4,0,0,0-.52-2.08,2,2,0,0,0-1.79-1.25q-1.38,0-2.29,1.86a9.52,9.52,0,0,0-.85,2.91l-0.37,2.77-0.13,1H3876q0.26-1.58.57-3.87,0.17-1.23.17-1.57a21.69,21.69,0,0,0-1.07-4.24h1.92q0.33,1.23.68,3a7.51,7.51,0,0,1,1.14-2.21,2.73,2.73,0,0,1,2.18-1,3.62,3.62,0,0,1,3,1.44A4.93,4.93,0,0,1,3885.62,502.2Z" transform="translate(-3759.7 -455.67)"/></svg>