<svg id="Remarks" xmlns="http://www.w3.org/2000/svg" viewBox="0 0 198.11 75.78"><defs><style>.cls-1{fill:#ffa400;}.cls-2{fill:#00bfd6;}.cls-3{fill:#b3282d;}.cls-4{fill:#250671;}.cls-5{fill:#c7ecf2;}.cls-6{fill:#666;}</style></defs><title>Icon_Logo-BH-Eng</title><path class="cls-1" d="M3823.32,750.69l3.36,5.77,3.28-5.78a6.66,6.66,0,0,0-6.64,0h0Z" transform="translate(-3793.64 -680.68)"/><path class="cls-2" d="M3800.32,699.37h-6.68l3.32,5.75a6.63,6.63,0,0,0,2.44-2.41,6.73,6.73,0,0,0,.92-3.35h0Z" transform="translate(-3793.64 -680.68)"/><polygon class="cls-3" points="12.41 52 8.64 53.02 7.87 57.34 13.16 57.35 12.41 52 12.41 52"/><polygon class="cls-3" points="5 27.33 10.7 27.86 9.94 35.88 5 27.33 5 27.33"/><polygon class="cls-1" points="3.11 52.02 0.05 57.35 6.18 57.35 6.91 53.18 3.11 52.02 3.11 52.02"/><path class="cls-3" d="M3822.31,687.85s6.54-1.38,7.31-1.56c0,0-1.1-2-3.21-5.61l-4.11,7.17h0Z" transform="translate(-3793.64 -680.68)"/><polygon class="cls-4" points="12.05 39.82 11.04 38.16 7.7 44.01 9.84 45.22 12.05 39.82 12.05 39.82"/><polygon class="cls-4" points="55.48 29.52 57.35 23.63 62.17 24.73 58.99 30.27 55.48 29.52 55.48 29.52"/><polygon class="cls-3" points="26.64 64.7 32.1 63.8 29.19 59.03 25.15 62.13 26.64 64.7 26.64 64.7"/><path class="cls-1" d="M3818.16,741.68l4.55-3.54h-6.6l2.05,3.55h0Z" transform="translate(-3793.64 -680.68)"/><polygon class="cls-3" points="51.84 32.44 54.78 37.45 58.18 31.52 54.91 30.8 51.84 32.44 51.84 32.44"/><polygon class="cls-2" points="33.78 63.22 34.72 67.23 37.28 68.29 39.75 63.94 33.78 63.22 33.78 63.22"/><polygon class="cls-3" points="62.56 51.47 65.98 57.39 60.69 57.39 62.56 51.47 62.56 51.47"/><polygon class="cls-2" points="32.66 8.03 27.62 9.11 24.62 14.4 29.84 14.29 32.66 8.03 32.66 8.03"/><path class="cls-2" d="M3851.33,731.6l4.09-.68-2.42-4.12-6.45-.21,4.77,5h0Z" transform="translate(-3793.64 -680.68)"/><polygon class="cls-1" points="38.34 16.16 40.92 13.96 37.12 7.34 34.8 7.82 33.17 11.36 38.34 16.16 38.34 16.16"/><polygon class="cls-3" points="51.86 23.36 55.69 23.42 57.19 18.74 53.29 18.74 51.86 23.36 51.86 23.36"/><polygon class="cls-5" points="51.89 53.58 52.3 47.4 57.11 52.49 54.08 54.13 51.89 53.58 51.89 53.58"/><polygon class="cls-2" points="25.36 36.41 21.76 33.99 18.24 39.64 22.88 42.17 25.36 36.41 25.36 36.41"/><path class="cls-2" d="M3819,733.71l4.35-5-2.58-1.6s-3.24,1.86-4.82,2.88l3,3.76h0Z" transform="translate(-3793.64 -680.68)"/><path class="cls-1" d="M3814.06,729.48s4.76-2.89,5.4-3.26c0,0-4-2.29-4.61-2.62l-0.79,5.88h0Z" transform="translate(-3793.64 -680.68)"/><polygon class="cls-3" points="15.76 29.99 18.37 36.97 14.33 40.47 11.97 36.49 15.76 29.99 15.76 29.99"/><polygon class="cls-5" points="25.36 28.2 28.74 31.54 31.95 30.52 30.62 24.57 25.36 28.2 25.36 28.2"/><polygon class="cls-2" points="37.21 30.78 35.3 20.18 31.4 21.08 33.04 27.97 37.21 30.78 37.21 30.78"/><polygon class="cls-5" points="45.41 29.12 38.3 29.03 40.53 35.08 45.41 29.12 45.41 29.12"/><polygon class="cls-4" points="50.44 53.6 46.55 52.22 50.15 45.87 50.44 53.6 50.44 53.6"/><polygon class="cls-1" points="50.6 33.24 53.83 38.86 48.77 38.16 50.6 33.24 50.6 33.24"/><polygon class="cls-5" points="51.6 40.35 42.75 38.18 44.96 42.66 49.4 44.25 51.6 40.35 51.6 40.35"/><polygon class="cls-4" points="19.3 35.21 23.47 28.36 20.61 25.5 17.3 29.73 19.3 35.21 19.3 35.21"/><polygon class="cls-2" points="16.52 18.7 18.39 18.7 20.97 22.43 16.77 27.88 16.52 18.7 16.52 18.7"/><polygon class="cls-2" points="20.74 57.35 14.51 57.35 13.84 52.87 20.74 57.35 20.74 57.35"/><polygon class="cls-3" points="20.93 20.78 22.83 22.39 27.88 15.95 23.7 15.98 20.93 20.78 20.93 20.78"/><polygon class="cls-3" points="15.67 45.9 14.1 51.18 17.2 53.17 19.44 48.16 15.67 45.9 15.67 45.9"/><path class="cls-5" d="M3806.55,730.81s1.72-5.77,1.73-5.8l-1.72-3-4,9.89,4-1.08h0Z" transform="translate(-3793.64 -680.68)"/><path class="cls-2" d="M3822.34,748.94l4.31-1c-0.24-1-.49-2.08-0.49-2.08l-5.11.84,1.29,2.23h0Z" transform="translate(-3793.64 -680.68)"/><path class="cls-5" d="M3830.23,736.73l-4-.15a7.88,7.88,0,0,1-1.74,3.26l2.83,2.87a7.58,7.58,0,0,0,2.9-6h0Z" transform="translate(-3793.64 -680.68)"/><path class="cls-1" d="M3849.81,738.07h2.94l1.27-5.21-5.23,3.27,1,1.94h0Z" transform="translate(-3793.64 -680.68)"/><path class="cls-3" d="M3852.26,725.38l-2.61-4.51-3,.88s-1.62,2.78-1.85,3.28l7.43,0.35h0Z" transform="translate(-3793.64 -680.68)"/><polygon class="cls-2" points="54.46 57.39 53.45 55.47 47.3 53.9 44.84 57.35 54.46 57.39 54.46 57.39"/><polygon class="cls-3" points="45.55 53.95 40.89 49.97 37.42 55.31 43.42 57.59 45.55 53.95 45.55 53.95"/><path class="cls-1" d="M3826.91,735.27l3.91-1.89,1.93-3.55-7-1.18,1.18,6.62h0Z" transform="translate(-3793.64 -680.68)"/><path class="cls-3" d="M3823.71,730.34l-4,4.66,4,2.3a5,5,0,0,0,1.48-3.77s0-.08,0-0.12a4.67,4.67,0,0,0-1.52-3.07h0Z" transform="translate(-3793.64 -680.68)"/><path class="cls-2" d="M3801.06,732.29l2-4.86-2.48-1.37s-3,5.17-3,5.2l3.45,1h0Z" transform="translate(-3793.64 -680.68)"/><path class="cls-4" d="M3830.07,742.79l4.07,0.55c0.09-.14,2.17-3.85,2.22-3.93l-4.29-1.61a7.83,7.83,0,0,1-2,5h0Z" transform="translate(-3793.64 -680.68)"/><polygon class="cls-4" points="21.04 49.97 25.97 56 21.54 55.99 18.45 53.97 21.04 49.97 21.04 49.97"/><path class="cls-4" d="M3810,725.08a4.15,4.15,0,0,0,2.93,2l0.6-4.16-2.66-1.47-0.94-.52a4.16,4.16,0,0,0,.07,4.18h0Z" transform="translate(-3793.64 -680.68)"/><polygon class="cls-5" points="51.78 30 53.63 30.38 55.42 25.03 48.91 24.95 51.78 30 51.78 30"/><polygon class="cls-4" points="36.53 37.28 39.19 35.89 38.41 33.51 34.17 30.66 30.35 33.04 36.53 37.28 36.53 37.28"/><polygon class="cls-2" points="27.01 37.17 31.52 40.18 35.33 38.03 30.81 35.11 27.01 37.17 27.01 37.17"/><path class="cls-1" d="M3828,721a6.61,6.61,0,0,0,8.09,1.82l-2.45-4.95L3828,721h0Z" transform="translate(-3793.64 -680.68)"/><polygon class="cls-5" points="35.29 18.6 30.28 19.72 28.5 18.12 32.47 12.87 36.96 17.15 35.29 18.6 35.29 18.6"/><path class="cls-4" d="M3834.83,717l4.37-4.54a5.51,5.51,0,0,1,1.51,6l-5.89-1.44h0Z" transform="translate(-3793.64 -680.68)"/><path class="cls-2" d="M3841.42,713a6.55,6.55,0,0,1,.63,1.5l2.32-2.92-2.79-4.8-1.47,4.63a6.45,6.45,0,0,1,1.3,1.59h0Z" transform="translate(-3793.64 -680.68)"/><path class="cls-2" d="M3834.21,704.07l-3.55-.95,0.88,5h1.23a6.49,6.49,0,0,1,1.44-4.06h0Z" transform="translate(-3793.64 -680.68)"/><polygon class="cls-2" points="65.58 18.76 62.99 23.25 57.94 22.08 58.95 18.76 65.58 18.76 65.58 18.76"/><polygon class="cls-3" points="29.43 34.09 26.76 35.58 22.66 32.84 24.66 29.47 29.43 34.09 29.43 34.09"/><polygon class="cls-1" points="27.16 19.06 22.45 25.24 24.48 27.12 30.21 23.11 29.96 21.74 27.16 19.06 27.16 19.06"/><polygon class="cls-2" points="48.8 45.51 46.73 49.15 43.33 43.58 48.8 45.51 48.8 45.51"/><path class="cls-5" d="M3838.58,732.16a6.62,6.62,0,0,0,.15-1.28,6.45,6.45,0,0,0-2.83-5.38l-0.61,3.87,3.29,2.79h0Z" transform="translate(-3793.64 -680.68)"/><polyline class="cls-5" points="26.24 38.35 24.25 42.95 30.25 46.37 34.07 42.98"/><polygon class="cls-4" points="15.4 22.05 15.26 18.7 8.63 18.7 12.73 24.26 15.4 22.05 15.4 22.05"/><polygon class="cls-1" points="4.37 25.74 10.26 26.25 11.46 25.25 8.45 20.81 4.37 25.74 4.37 25.74"/><polygon class="cls-5" points="12.09 33.72 15.44 27.94 15.34 24.02 12.29 26.58 11.7 33.12 12.09 33.72 12.09 33.72"/><polygon class="cls-3" points="40.34 47.9 41.01 44.19 35.39 43.57 32.36 46.59 40.34 47.9 40.34 47.9"/><polygon class="cls-1" points="45.13 18.73 47.51 23.31 50.48 23.35 51.92 18.74 45.13 18.73 45.13 18.73"/><path class="cls-3" d="M3834.15,708.37l5.49,0.07,1-3.1-1.46-2.46a5.51,5.51,0,0,0-5,5.49h0Z" transform="translate(-3793.64 -680.68)"/><path class="cls-4" d="M3830.49,700.23l0.26,1.55,4.79,1.25a6.57,6.57,0,0,1,.83-0.57,6.43,6.43,0,0,1,2.17-.78l-3.09-5.53s-2.41,2-5,4.09h0Z" transform="translate(-3793.64 -680.68)"/><path class="cls-6" d="M3869.21,698.62h4.57c1.85,0,3.1.6,3.1,2.41a2.13,2.13,0,0,1-1.32,2,2.37,2.37,0,0,1,1.78,2.46c0,2-1.67,2.82-3.43,2.82h-4.71v-9.72Zm2.14,3.93h2.16a1.12,1.12,0,0,0,1.31-1.16c0-.93-0.71-1.12-1.47-1.12h-2v2.27Zm0,4.12h2.29c0.84,0,1.58-.27,1.58-1.28a1.31,1.31,0,0,0-1.54-1.39h-2.33v2.67Z" transform="translate(-3793.64 -680.68)"/><path class="cls-6" d="M3878.79,698.62h7.27v1.8h-5.13v2.08h4.71v1.66h-4.71v2.38h5.24v1.8h-7.38v-9.72Z" transform="translate(-3793.64 -680.68)"/><path class="cls-6" d="M3887.61,698.62h2.14v9.72h-2.14v-9.72Z" transform="translate(-3793.64 -680.68)"/><path class="cls-6" d="M3893.78,700.41h-2.91v-1.8h8v1.8h-2.91v7.92h-2.14v-7.92Z" transform="translate(-3793.64 -680.68)"/><path class="cls-6" d="M3903.73,698.62h2.14v3.73h3.93v-3.73h2.14v9.72h-2.14v-4.19h-3.93v4.19h-2.14v-9.72Z" transform="translate(-3793.64 -680.68)"/><path class="cls-6" d="M3916.46,698.62h2.19l3.63,9.72h-2.22l-0.74-2.16h-3.63l-0.76,2.16h-2.16Zm-0.21,6h2.52l-1.23-3.57h0Z" transform="translate(-3793.64 -680.68)"/><path class="cls-6" d="M3924.28,700.41h-2.91v-1.8h8v1.8h-2.91v7.92h-2.14v-7.92Z" transform="translate(-3793.64 -680.68)"/><path class="cls-6" d="M3930.44,698.62h6.83v1.8h-4.7v2.25h4.07v1.66h-4.07v4h-2.14v-9.72Z" transform="translate(-3793.64 -680.68)"/><path class="cls-6" d="M3946.76,704.66c0,2.63-1.55,3.91-4.15,3.91s-4.14-1.27-4.14-3.91v-6h2.14v6c0,1.06.27,2.11,2,2.11,1.52,0,2-.67,2-2.11v-6h2.14v6Z" transform="translate(-3793.64 -680.68)"/><path class="cls-6" d="M3950.74,700.41h-2.91v-1.8h8v1.8h-2.91v7.92h-2.14v-7.92Z" transform="translate(-3793.64 -680.68)"/><path class="cls-6" d="M3958.37,705.11c0,1.29,1,1.8,2.15,1.8,0.75,0,1.89-.22,1.89-1.21s-1.46-1.22-2.88-1.61-2.9-.94-2.9-2.76c0-2,1.88-2.94,3.63-2.94,2,0,3.89.88,3.89,3.13h-2.07c-0.07-1.17-.9-1.47-1.92-1.47a1.26,1.26,0,0,0-1.47,1.1c0,0.75.46,0.84,2.9,1.47,0.71,0.18,2.89.63,2.89,2.83,0,1.78-1.4,3.12-4,3.12-2.15,0-4.17-1.06-4.14-3.46h2.07Z" transform="translate(-3793.64 -680.68)"/><path class="cls-6" d="M3970.1,698.39c3,0,4.78,2.25,4.78,5.13s-1.77,5-4.78,5-4.78-2.25-4.78-5S3967.09,698.39,3970.1,698.39Zm0,8.38c1.92,0,2.64-1.63,2.64-3.25s-0.72-3.33-2.64-3.33-2.64,1.63-2.64,3.33S3968.18,706.77,3970.1,706.77Z" transform="translate(-3793.64 -680.68)"/><path class="cls-6" d="M3978.48,700.41h-2.91v-1.8h8v1.8h-2.91v7.92h-2.14v-7.92Z" transform="translate(-3793.64 -680.68)"/><path class="cls-6" d="M3871.54,716h-3.24v-1.09h7.77V716h-3.24v8.63h-1.29V716Z" transform="translate(-3793.64 -680.68)"/><path class="cls-6" d="M3877,714.95h1.16v3.72h0a2.38,2.38,0,0,1,2.22-1.2c1.85,0,2.42,1.06,2.42,2.57v4.63h-1.16V719.9a1.33,1.33,0,0,0-1.43-1.42,2,2,0,0,0-2.08,2.21v4H3877v-9.72Z" transform="translate(-3793.64 -680.68)"/><path class="cls-6" d="M3890.53,722.43a2.84,2.84,0,0,1-3,2.4c-2.25,0-3.31-1.55-3.37-3.7a3.39,3.39,0,0,1,3.31-3.66c2.49,0,3.25,2.33,3.18,4h-5.27a2.07,2.07,0,0,0,2.19,2.31,1.7,1.7,0,0,0,1.82-1.37h1.14Zm-1.12-2a2,2,0,0,0-2-2,2,2,0,0,0-2,2h4Z" transform="translate(-3793.64 -680.68)"/><path class="cls-6" d="M3895.83,714.95h1.77l3.06,8.17,3.08-8.17h1.77v9.72h-1.23v-8.08h0l-3,8.08h-1.1l-3-8.08h0v8.08h-1.22v-9.72Z" transform="translate(-3793.64 -680.68)"/><path class="cls-6" d="M3913.29,724.67h-1.09v-1.12h0a2.45,2.45,0,0,1-2.29,1.28c-1.85,0-2.42-1.06-2.42-2.57v-4.63h1.16v4.76a1.33,1.33,0,0,0,1.43,1.42,2,2,0,0,0,2.08-2.21v-4h1.16v7Z" transform="translate(-3793.64 -680.68)"/><path class="cls-6" d="M3915.74,722.45c0,1,.94,1.36,1.89,1.36,0.72,0,1.7-.16,1.7-1s-1.14-1-2.3-1.31-2.3-.64-2.3-2,1.4-2,2.63-2c1.55,0,2.79.49,2.89,2.21h-1.16a1.41,1.41,0,0,0-1.63-1.18c-0.69,0-1.5.19-1.5,0.9s1.22,1,2.3,1.22,2.3,0.64,2.3,2c0,1.67-1.57,2.22-3,2.22s-2.91-.64-3-2.38h1.16Z" transform="translate(-3793.64 -680.68)"/><path class="cls-6" d="M3927.84,722.43a2.84,2.84,0,0,1-3,2.4c-2.25,0-3.31-1.55-3.37-3.7a3.39,3.39,0,0,1,3.31-3.66c2.49,0,3.25,2.33,3.18,4h-5.27a2.07,2.07,0,0,0,2.19,2.31,1.7,1.7,0,0,0,1.82-1.37h1.14Zm-1.12-2a2,2,0,0,0-2-2,2,2,0,0,0-2,2h4Z" transform="translate(-3793.64 -680.68)"/><path class="cls-6" d="M3935,724.67h-1.09v-1.12h0a2.45,2.45,0,0,1-2.29,1.28c-1.85,0-2.42-1.06-2.42-2.57v-4.63h1.16v4.76a1.33,1.33,0,0,0,1.43,1.42,2,2,0,0,0,2.08-2.21v-4H3935v7Z" transform="translate(-3793.64 -680.68)"/><path class="cls-6" d="M3936.71,717.63h1.09v1h0a2.59,2.59,0,0,1,2.27-1.2,1.87,1.87,0,0,1,1.93,1.2,2.6,2.6,0,0,1,2.2-1.2c1.4,0,2.34.59,2.34,2v5.16h-1.16v-4.61c0-.87-0.23-1.56-1.36-1.56a1.7,1.7,0,0,0-1.84,1.8v4.38h-1.16v-4.61c0-.91-0.29-1.56-1.32-1.56a1.9,1.9,0,0,0-1.88,1.8v4.38h-1.16v-7Z" transform="translate(-3793.64 -680.68)"/><path class="cls-6" d="M3956.41,714.72c3.09,0,4.66,2.45,4.66,5.09s-1.57,5.09-4.66,5.09-4.65-2.45-4.65-5.09S3953.32,714.72,3956.41,714.72Zm0,9.09c2.37,0,3.36-2,3.36-4s-1-4-3.36-4-3.36,2-3.36,4S3954,723.81,3956.41,723.81Z" transform="translate(-3793.64 -680.68)"/><path class="cls-6" d="M3962.92,718.65h-1.18v-1h1.18v-1a1.66,1.66,0,0,1,1.95-1.74,2.85,2.85,0,0,1,.75.11v1a2.18,2.18,0,0,0-.65-0.1,0.72,0.72,0,0,0-.88.79v1h1.36v1h-1.36v6h-1.16v-6Z" transform="translate(-3793.64 -680.68)"/><path class="cls-6" d="M3972.65,716h-3.24v-1.09h7.77V716h-3.24v8.63h-1.29V716Z" transform="translate(-3793.64 -680.68)"/><path class="cls-6" d="M3978.07,714.95h1.16v3.72h0a2.38,2.38,0,0,1,2.22-1.2c1.85,0,2.42,1.06,2.42,2.57v4.63h-1.16V719.9a1.33,1.33,0,0,0-1.43-1.42,2,2,0,0,0-2.08,2.21v4h-1.16v-9.72Z" transform="translate(-3793.64 -680.68)"/><path class="cls-6" d="M3991.64,722.43a2.84,2.84,0,0,1-3,2.4c-2.25,0-3.31-1.55-3.37-3.7a3.39,3.39,0,0,1,3.31-3.66c2.49,0,3.25,2.33,3.18,4h-5.27a2.07,2.07,0,0,0,2.19,2.31,1.7,1.7,0,0,0,1.82-1.37h1.14Zm-1.12-2a2,2,0,0,0-2-2,2,2,0,0,0-2,2h4Z" transform="translate(-3793.64 -680.68)"/><path class="cls-6" d="M3874.28,736.11c0,1.32-.69,2.65-2.87,2.65a2.56,2.56,0,0,1-2.83-2.83v-0.6h1.29v0.41c0,1.13.3,1.93,1.57,1.93s1.55-.68,1.55-1.76v-7.1h1.29v7.3Z" transform="translate(-3793.64 -680.68)"/><path class="cls-6" d="M3882.21,736.3a2.84,2.84,0,0,1-3,2.4c-2.25,0-3.31-1.55-3.37-3.7a3.39,3.39,0,0,1,3.31-3.66c2.49,0,3.25,2.33,3.18,4h-5.27a2.07,2.07,0,0,0,2.19,2.31,1.7,1.7,0,0,0,1.82-1.37h1.14Zm-1.12-2a2,2,0,0,0-2-2,2,2,0,0,0-2,2h4Z" transform="translate(-3793.64 -680.68)"/><path class="cls-6" d="M3890.49,738.53h-1.22l-1.43-5.59h0l-1.42,5.59h-1.25l-2.26-7h1.28l1.59,5.76h0l1.42-5.76h1.27l1.47,5.76h0l1.58-5.76h1.2Z" transform="translate(-3793.64 -680.68)"/><path class="cls-6" d="M3895.06,730.23h-1.16v-1.42h1.16v1.42Zm-1.16,1.27h1.16v7h-1.16v-7Z" transform="translate(-3793.64 -680.68)"/><path class="cls-6" d="M3897.56,736.31c0,1,.94,1.36,1.89,1.36,0.72,0,1.7-.16,1.7-1s-1.14-1-2.3-1.31-2.3-.64-2.3-2,1.4-2,2.63-2c1.55,0,2.79.49,2.89,2.21h-1.16a1.41,1.41,0,0,0-1.63-1.18c-0.69,0-1.5.19-1.5,0.9s1.22,1,2.3,1.23,2.3,0.64,2.3,2c0,1.67-1.57,2.22-3,2.22s-2.91-.64-3-2.38h1.16Z" transform="translate(-3793.64 -680.68)"/><path class="cls-6" d="M3903.66,728.81h1.16v3.72h0a2.38,2.38,0,0,1,2.22-1.2c1.85,0,2.42,1.06,2.42,2.57v4.63h-1.16v-4.76a1.33,1.33,0,0,0-1.43-1.42,2,2,0,0,0-2.08,2.2v4h-1.16v-9.72Z" transform="translate(-3793.64 -680.68)"/><path class="cls-6" d="M3915.2,728.81h4.26a2.87,2.87,0,1,1,0,5.74h-3v4h-1.29v-9.72Zm1.29,4.65H3919c1.46,0,2.12-.63,2.12-1.78s-0.67-1.78-2.12-1.78h-2.53v3.57Z" transform="translate(-3793.64 -680.68)"/><path class="cls-6" d="M3929.83,736.3a2.84,2.84,0,0,1-3,2.4c-2.25,0-3.31-1.55-3.37-3.7a3.39,3.39,0,0,1,3.31-3.66c2.49,0,3.25,2.33,3.18,4h-5.27a2.07,2.07,0,0,0,2.19,2.31,1.7,1.7,0,0,0,1.82-1.37h1.14Zm-1.12-2a2,2,0,0,0-2-2,2,2,0,0,0-2,2h4Z" transform="translate(-3793.64 -680.68)"/><path class="cls-6" d="M3934.17,731.33c2.23,0,3.42,1.62,3.42,3.69s-1.18,3.67-3.42,3.67-3.42-1.62-3.42-3.67S3931.94,731.33,3934.17,731.33Zm0,6.34c1.21,0,2.19-1,2.19-2.65s-1-2.67-2.19-2.67-2.19,1-2.19,2.67S3933,737.67,3934.17,737.67Z" transform="translate(-3793.64 -680.68)"/><path class="cls-6" d="M3939,731.49h1.16v1h0a2.37,2.37,0,0,1,2.25-1.12c2.16,0,3.24,1.71,3.24,3.7s-1.06,3.66-3.21,3.66a2.7,2.7,0,0,1-2.27-1.1h0v3.63H3939v-9.73Zm3.27,0.86c-1.55,0-2.15,1.33-2.15,2.65s0.63,2.67,2.22,2.67,2.11-1.35,2.11-2.72S3943.75,732.35,3942.25,732.35Z" transform="translate(-3793.64 -680.68)"/><path class="cls-6" d="M3947.08,728.81h1.16v9.72h-1.16v-9.72Z" transform="translate(-3793.64 -680.68)"/><path class="cls-6" d="M3956,736.3a2.84,2.84,0,0,1-3,2.4c-2.25,0-3.31-1.55-3.37-3.7a3.39,3.39,0,0,1,3.31-3.66c2.49,0,3.25,2.33,3.18,4h-5.27a2.07,2.07,0,0,0,2.19,2.31,1.7,1.7,0,0,0,1.82-1.37H3956Zm-1.12-2a2,2,0,0,0-2-2,2,2,0,0,0-2,2h4Z" transform="translate(-3793.64 -680.68)"/></svg>