<?xml version="1.0" encoding="utf-8"?>
<!-- Generator: Adobe Illustrator 18.1.0, SVG Export Plug-In . SVG Version: 6.00 Build 0)  -->
<!DOCTYPE svg PUBLIC "-//W3C//DTD SVG 1.1//EN" "http://www.w3.org/Graphics/SVG/1.1/DTD/svg11.dtd">
<svg version="1.1" id="Слой_1" xmlns="http://www.w3.org/2000/svg" xmlns:xlink="http://www.w3.org/1999/xlink" x="0px" y="0px"
	 viewBox="13.9 259.5 109.5 34.1" enable-background="new 13.9 259.5 109.5 34.1" xml:space="preserve">
<path fill="#DDDEE3" d="M116.5,260.8h-96c-3.3,0-6,2.7-6,6v20.4c0,3.3,2.7,6,6,6h96c3.3,0,6-2.7,6-6v-20.4
	C122.5,263.5,119.8,260.8,116.5,260.8z"/>
<g>
	<path fill="#5D6971" d="M42.5,282.5c1.5-1.3,2.2-4.3,2.2-7.3c0-1.2-0.1-2.5-0.4-3.7c-0.3-1.2-0.7-2.3-1.2-3.1
		c-0.7-1.1-1.7-1.8-2.9-1.8c-0.6,0-1.1,0.2-1.6,0.5c-0.4,0.2-0.7,0.6-1,1c-0.4-0.2-0.8-0.4-1.2-0.6c0,0,0-0.1,0-0.2
		c0-0.7-0.3-1.3-0.7-1.7l0,0c-0.5-0.5-1.1-0.7-1.8-0.7h-1.8c-0.7,0-1.3,0.3-1.8,0.7v0c-0.5,0.5-0.7,1.1-0.7,1.8c0,0.1,0,0.1,0,0.2
		c-0.4,0.1-0.8,0.3-1.2,0.6c-0.3-0.4-0.6-0.7-1-1c-0.5-0.4-1.1-0.5-1.6-0.5c-1.2,0-2.2,0.7-2.9,1.8c-0.5,0.8-0.9,1.9-1.2,3.1
		c-0.3,1.2-0.4,2.4-0.4,3.7c0,3,0.8,5.9,2.2,7.3l-0.4,2c-0.4,2.3,1.4,4.4,3.7,4.4h12.4c2.4,0,4.1-2.2,3.7-4.4L42.5,282.5z
		 M31.1,266.5L31.1,266.5c0.3-0.3,0.6-0.4,1-0.4h1.8c0.4,0,0.7,0.2,1,0.4l0,0c0.2,0.2,0.4,0.5,0.4,0.9c-0.3-0.1-0.7-0.1-1-0.1h-2.6
		c-0.3,0-0.7,0-1,0.1C30.7,267.1,30.9,266.7,31.1,266.5z M23.9,280.1c-0.6-1.2-0.9-3-0.9-4.8c0-1.1,0.1-2.3,0.3-3.3
		c0.2-1,0.5-1.9,1-2.5c0.4-0.6,0.9-1,1.4-1c0.2,0,0.4,0.1,0.6,0.2c0.2,0.1,0.4,0.3,0.6,0.6c-0.9,0.9-1.5,2.1-1.8,3.5L23.9,280.1z
		 M39.2,287.2H26.8c-1.2,0-2.1-1.1-1.9-2.3l2.1-11.8c0.2-1.2,0.8-2.2,1.6-2.9c0.8-0.7,1.9-1.1,3.1-1.1h2.6c1.2,0,2.3,0.4,3.1,1.1
		c0.8,0.7,1.4,1.7,1.6,2.9l2.1,11.8C41.3,286.1,40.4,287.2,39.2,287.2z M40.8,272.8c-0.2-1.4-0.9-2.6-1.8-3.5
		c0.2-0.2,0.4-0.4,0.6-0.6c0.2-0.1,0.4-0.2,0.6-0.2c0.6,0,1,0.4,1.4,1c0.4,0.6,0.7,1.5,1,2.5c0.2,1,0.3,2.2,0.3,3.3
		c0,1.9-0.3,3.7-0.9,4.8L40.8,272.8z"/>
	<path fill="#5D6971" d="M36.7,280.7h-7.5c-0.3,0-0.5,0.2-0.5,0.5c0,0.3,0.2,0.5,0.5,0.5h5.9v1c0,0.3,0.2,0.5,0.5,0.5
		c0.3,0,0.5-0.2,0.5-0.5v-1h0.5c0.3,0,0.5-0.2,0.5-0.5C37.3,280.9,37,280.7,36.7,280.7z"/>
	<path fill="#5D6971" d="M27.7,276.8c0.3,0.1,0.6-0.1,0.6-0.4l0.5-2.9c0.1-0.7,0.5-1.3,1-1.7l0,0c0.5-0.4,1.2-0.7,1.9-0.7h2.6
		c0.7,0,1.4,0.3,1.9,0.7v0c0.5,0.4,0.9,1,1,1.7l0.5,2.9c0,0.3,0.3,0.5,0.6,0.4c0.3-0.1,0.5-0.3,0.4-0.6l-0.5-2.9
		c-0.2-1-0.7-1.8-1.4-2.4h0l0,0c-0.7-0.6-1.6-0.9-2.6-0.9h-2.6c-1,0-1.9,0.3-2.6,0.9l0,0c-0.7,0.6-1.2,1.4-1.3,2.3l-0.5,2.9
		C27.2,276.5,27.4,276.8,27.7,276.8z"/>
	<path fill="#5D6971" d="M36.9,278.9h-7.7c-1.1,0-2,0.9-2,2v3.5c0,1.1,0.9,2,2,2h7.7c1.1,0,2-0.9,2-2V281
		C38.9,279.9,38,278.9,36.9,278.9z M37.8,284.5c0,0.5-0.4,0.9-0.9,0.9h-7.7c-0.5,0-0.9-0.4-0.9-0.9V281c0-0.5,0.4-0.9,0.9-0.9h7.7
		c0.5,0,0.9,0.4,0.9,0.9L37.8,284.5L37.8,284.5z"/>
</g>
<text transform="matrix(1 0 0 1 52.5 281.7054)" fill="#5D6971" font-family="'HelveticaNeueLTStd-Md'" font-size="13">My Story</text>
</svg>
