<?xml version="1.0" encoding="utf-8"?>
<!-- Generator: Adobe Illustrator 18.1.0, SVG Export Plug-In . SVG Version: 6.00 Build 0)  -->
<!DOCTYPE svg PUBLIC "-//W3C//DTD SVG 1.1//EN" "http://www.w3.org/Graphics/SVG/1.1/DTD/svg11.dtd">
<svg version="1.1" id="Layer_1" xmlns="http://www.w3.org/2000/svg" xmlns:xlink="http://www.w3.org/1999/xlink" x="0px" y="0px"
	 viewBox="-463 265 32 32" enable-background="new -463 265 32 32" xml:space="preserve">
<path id="usericon" fill="#FFFFFF" d="M-431.9,293.3c-0.2-0.1-3.8-2.5-9.3-3.7c2-2.5,3.3-5.9,3.8-8.2c0.8-3.1,0.5-9.2-2.5-13.1
	c-1.8-2.2-4.2-3.4-7.1-3.4s-5.3,1.2-7.1,3.4c-3,3.8-3.3,9.9-2.5,13.1c0.5,2.3,1.8,5.6,3.8,8.2c-5.4,1.2-9.1,3.6-9.3,3.7
	c-0.7,0.5-1.1,1.4-0.8,2.2c0.3,0.8,1,1.4,1.9,1.4h28c0.9,0,1.7-0.6,1.9-1.4C-430.8,294.7-431.2,293.8-431.9,293.3z M-442.7,288.4
	l-0.3,0.4c-2.4,2.7-5.5,2.7-7.9,0l-0.3-0.4c-2.8-3.5-4.2-8.2-3.6-12.7c0.5-4.3,3-8.7,7.8-8.7s7.3,4.5,7.8,8.7
	C-438.6,280.2-439.9,284.9-442.7,288.4z M-461,295c0.1-0.1,3.5-2.3,8.6-3.4l2.5-0.5c0.9,0.6,1.9,0.9,2.9,0.9c1.1,0,2-0.4,2.9-0.9
	l2.5,0.5c5,1.1,8.4,3.3,8.6,3.4H-461z"/>
</svg>
