<?xml version="1.0" encoding="utf-8"?>
<!-- Generator: Adobe Illustrator 18.1.0, SVG Export Plug-In . SVG Version: 6.00 Build 0)  -->
<!DOCTYPE svg PUBLIC "-//W3C//DTD SVG 1.1//EN" "http://www.w3.org/Graphics/SVG/1.1/DTD/svg11.dtd">
<svg version="1.1" id="Layer_1" xmlns="http://www.w3.org/2000/svg" xmlns:xlink="http://www.w3.org/1999/xlink" x="0px" y="0px"
	 viewBox="-455 272.9 16 16" enable-background="new -455 272.9 16 16" xml:space="preserve">
<g id="search_1_">
	<path fill="#919191" d="M-445.1,273.5c-3.1,0-5.6,2.5-5.6,5.6c0,0.9,0.2,1.8,0.7,2.6l-3.9,3.9l0,0c-0.3,0.3-0.5,0.7-0.5,1.2
		c0,0.9,0.7,1.7,1.7,1.7c0.5,0,0.9-0.2,1.2-0.5l0,0l3.9-3.9c0.8,0.4,1.7,0.7,2.6,0.7c3.1,0,5.6-2.5,5.6-5.6
		C-439.5,276-442,273.5-445.1,273.5z M-452.3,287.4c-0.2,0.2-0.4,0.3-0.6,0.3c-0.5,0-0.8-0.4-0.8-0.8c0-0.2,0.1-0.4,0.3-0.6l0,0
		l3.8-3.8c0.3,0.4,0.7,0.8,1.2,1.2L-452.3,287.4z M-445.1,283.8c-2.6,0-4.7-2.1-4.7-4.7c0-2.6,2.1-4.7,4.7-4.7
		c2.6,0,4.7,2.1,4.7,4.7C-440.4,281.7-442.5,283.8-445.1,283.8z"/>
	<path fill="#919191" d="M-445.1,275.8c-1.8,0-3.3,1.5-3.3,3.3c0,0.1,0.1,0.2,0.2,0.2s0.2-0.1,0.2-0.2c0-1.6,1.3-2.8,2.8-2.8
		c0.1,0,0.2-0.1,0.2-0.2S-445,275.8-445.1,275.8z"/>
</g>
</svg>
