<?xml version="1.0" encoding="utf-8"?>
<!-- Generator: Adobe Illustrator 18.1.0, SVG Export Plug-In . SVG Version: 6.00 Build 0)  -->
<!DOCTYPE svg PUBLIC "-//W3C//DTD SVG 1.1//EN" "http://www.w3.org/Graphics/SVG/1.1/DTD/svg11.dtd">
<svg version="1.1" id="Layer_1" xmlns="http://www.w3.org/2000/svg" xmlns:xlink="http://www.w3.org/1999/xlink" x="0px" y="0px"
	 viewBox="-463 265 32 32" enable-background="new -463 265 32 32" xml:space="preserve">
<g id="note">
	<path fill="#FFFFFF" d="M-438.8,276.5l-3.2-3.2c-0.2-0.2-0.5-0.3-0.8-0.3h-11.2c-0.9,0-1.6,0.7-1.6,1.6v12.8c0,0.9,0.7,1.6,1.6,1.6
		h13.9c0.9,0,1.6-0.7,1.6-1.6v-10.1C-438.5,277-438.6,276.7-438.8,276.5z M-439.5,287.4c0,0.3-0.2,0.5-0.5,0.5h-13.9
		c-0.3,0-0.5-0.2-0.5-0.5v-12.8c0-0.3,0.2-0.5,0.5-0.5h10.7v2.1h0c0,0.9,0.7,1.6,1.6,1.6h0.5h1.6V287.4z M-441.1,277.3h-0.5
		c-0.6,0-1.1-0.5-1.1-1.1h0v-2.1l3.2,3.2H-441.1z"/>
	<path fill="#FFFFFF" d="M-447.3,276.7h2.7c0.1,0,0.3-0.1,0.3-0.3c0-0.1-0.1-0.3-0.3-0.3h-2.7c-0.1,0-0.3,0.1-0.3,0.3
		S-447.4,276.7-447.3,276.7z"/>
	<path fill="#FFFFFF" d="M-447.3,278.3h2.7c0.1,0,0.3-0.1,0.3-0.3c0-0.1-0.1-0.3-0.3-0.3h-2.7c-0.1,0-0.3,0.1-0.3,0.3
		C-447.5,278.2-447.4,278.3-447.3,278.3z"/>
	<path fill="#FFFFFF" d="M-447.5,279.7c0,0.1,0.1,0.3,0.3,0.3h6.4c0.1,0,0.3-0.1,0.3-0.3c0-0.1-0.1-0.3-0.3-0.3h-6.4
		C-447.4,279.4-447.5,279.5-447.5,279.7z"/>
	<path fill="#FFFFFF" d="M-440.9,282.6h-12.3c-0.1,0-0.3,0.1-0.3,0.3c0,0.1,0.1,0.3,0.3,0.3h12.3c0.1,0,0.3-0.1,0.3-0.3
		C-440.6,282.7-440.7,282.6-440.9,282.6z"/>
	<path fill="#FFFFFF" d="M-440.9,284.2h-12.3c-0.1,0-0.3,0.1-0.3,0.3c0,0.1,0.1,0.3,0.3,0.3h12.3c0.1,0,0.3-0.1,0.3-0.3
		C-440.6,284.3-440.7,284.2-440.9,284.2z"/>
	<path fill="#FFFFFF" d="M-440.9,285.8h-12.3c-0.1,0-0.3,0.1-0.3,0.3c0,0.1,0.1,0.3,0.3,0.3h12.3c0.1,0,0.3-0.1,0.3-0.3
		C-440.6,285.9-440.7,285.8-440.9,285.8z"/>
	<path fill="#FFFFFF" d="M-440.9,281h-12.3c-0.1,0-0.3,0.1-0.3,0.3s0.1,0.3,0.3,0.3h12.3c0.1,0,0.3-0.1,0.3-0.3
		C-440.6,281.1-440.7,281-440.9,281z"/>
	<path fill="#FFFFFF" d="M-452.9,279.9h3.7c0.3,0,0.5-0.2,0.5-0.5v-3.2c0-0.3-0.2-0.5-0.5-0.5h-3.7c-0.3,0-0.5,0.2-0.5,0.5v3.2
		C-453.4,279.7-453.2,279.9-452.9,279.9z M-452.3,276.7h2.7v2.1h-2.7V276.7z"/>
</g>
</svg>
