<?xml version="1.0" encoding="utf-8"?>
<!-- Generator: Adobe Illustrator 18.1.0, SVG Export Plug-In . SVG Version: 6.00 Build 0)  -->
<!DOCTYPE svg PUBLIC "-//W3C//DTD SVG 1.1//EN" "http://www.w3.org/Graphics/SVG/1.1/DTD/svg11.dtd">
<svg version="1.1" id="Layer_1" xmlns="http://www.w3.org/2000/svg" xmlns:xlink="http://www.w3.org/1999/xlink" x="0px" y="0px"
	 viewBox="-463 265 32 32" enable-background="new -463 265 32 32" xml:space="preserve">
<g id="tv">
	<path fill="#FFFFFF" d="M-443.3,276.8c-1.6-0.3-3.3-0.5-4.9-0.5c-1.6,0-3.3,0.2-4.9,0.5c-0.2,0-0.4,0.2-0.4,0.4
		c-0.9,2.6-0.9,5.3,0,7.9c0.1,0.2,0.2,0.4,0.4,0.4c1.6,0.3,3.3,0.5,4.9,0.5c1.6,0,3.3-0.2,4.9-0.5c0.2,0,0.4-0.2,0.5-0.4
		c0.9-2.6,0.9-5.3,0-7.9C-442.9,277-443.1,276.8-443.3,276.8z M-443.4,284.9c-3.2,0.7-6.4,0.7-9.6,0c-0.8-2.5-0.8-5,0-7.5
		c3.2-0.7,6.4-0.7,9.6,0C-442.6,279.9-442.6,282.4-443.4,284.9z"/>
	<path fill="#FFFFFF" d="M-438.1,275.4c-0.1-0.5-0.5-0.9-1-0.9c-2.6-0.3-5.3-0.5-7.9-0.5c-2.6,0-5.3,0.2-7.9,0.5
		c-0.5,0.1-0.9,0.4-1,0.9c-0.9,3.9-0.9,7.8,0,11.6c0.1,0.5,0.5,0.9,1,0.9c1.3,0.2,2.5,0.3,3.8,0.3c-0.1,0-0.1,0.1-0.1,0.1
		c0,0.3,1.9,0.6,4.2,0.6c2.3,0,4.2-0.3,4.2-0.6c0,0,0-0.1-0.1-0.1c1.3-0.1,2.5-0.2,3.8-0.3c0.5-0.1,0.9-0.4,1-0.9
		C-437.2,283.2-437.2,279.2-438.1,275.4z M-439.3,286.7c-5.2,0.6-10.3,0.6-15.5,0c-0.9-3.7-0.9-7.4,0-11.1c5.2-0.6,10.3-0.6,15.5,0
		C-438.4,279.4-438.4,283-439.3,286.7z"/>
	<path fill="#FFFFFF" d="M-440.7,278.8c0.5,0,0.9-0.4,0.9-0.9s-0.4-0.9-0.9-0.9c-0.5,0-0.9,0.4-0.9,0.9S-441.2,278.8-440.7,278.8z
		 M-440.7,277.6c0.2,0,0.3,0.1,0.3,0.3s-0.1,0.3-0.3,0.3c-0.2,0-0.3-0.1-0.3-0.3S-440.9,277.6-440.7,277.6z"/>
	<path fill="#FFFFFF" d="M-440.1,284.8h-1.8c-0.2,0-0.3,0.1-0.3,0.3c0,0.2,0.1,0.3,0.3,0.3h1.8c0.2,0,0.3-0.1,0.3-0.3
		C-439.8,284.9-439.9,284.8-440.1,284.8z"/>
	<path fill="#FFFFFF" d="M-439.5,283h-1.8c-0.2,0-0.3,0.1-0.3,0.3c0,0.2,0.1,0.3,0.3,0.3h1.8c0.2,0,0.3-0.1,0.3-0.3
		C-439.2,283.1-439.3,283-439.5,283z"/>
	<path fill="#FFFFFF" d="M-439.5,281.2h-1.8c-0.2,0-0.3,0.1-0.3,0.3s0.1,0.3,0.3,0.3h1.8c0.2,0,0.3-0.1,0.3-0.3
		S-439.3,281.2-439.5,281.2z"/>
	<path fill="#FFFFFF" d="M-448.5,278.7l-2.8,0.2c-0.2,0-0.3,0.2-0.3,0.3l-0.2,1.7c0,0.2,0.1,0.3,0.3,0.3c0.2,0,0.3-0.1,0.3-0.3
		l0.1-1.1c0-0.2,0.2-0.3,0.3-0.3l2.2-0.2c0.2,0,0.3-0.1,0.3-0.3S-448.3,278.7-448.5,278.7z"/>
</g>
</svg>
